<svg xmlns="http://www.w3.org/2000/svg" width="32" height="32" viewBox="0 0 32 32">
  <g fill="none" fill-rule="evenodd">
    <path fill="#00253D" d="M31.1861512,21.2350632 C30.8217612,22.5732358 30.1619743,23.7285979 29.4646767,24.8686704 C28.7506332,26.036663 28.2495971,27.402091 27.2428359,28.3121547 C26.2380843,29.2208889 24.8300923,29.6071175 23.5915685,30.2087301 C22.3858665,30.7943884 21.1754757,31.418603 19.8016453,31.6672252 C18.4968078,31.9038817 17.1176187,32.0747264 15.7076173,31.9670344 C14.2875683,31.8586776 11.8440751,31.7184122 10.5512947,31.2863147 C9.21631465,30.8395924 8.03003789,30.0053119 6.8745735,29.2587805 C5.70437276,28.5029423 4.59847613,27.631435 3.65936826,26.6156736 C2.7222699,25.6019065 2.24400812,24.2737054 1.58288154,23.0492077 C0.933811986,21.8466473 1.03020535,20.7318359 0.690599292,19.3703965 C0.363720093,18.0594793 0,16.6561597 0,15.2388801 C0,13.5417342 0.383145291,11.9243602 0.846670714,10.4997682 C1.3523957,8.94554689 2.29485274,7.61402197 3.268792,6.38752997 C4.24541059,5.15837891 5.25820024,3.83483117 6.61662445,2.93806277 C7.90471605,2.08782793 9.54915957,1.73217849 11.1051849,1.18241758 C12.561405,0.66788923 14.1100622,0.341489462 15.7384297,0.0928672354 C17.2562745,-0.139135858 18.633454,0.0928672354 20.0327382,0.46513581 C21.4434095,0.840728211 22.8018337,1.29010956 24.0309798,2.15098064 C25.2092186,2.97728392 26.5602746,3.74774692 27.5167982,4.90510332 C28.43983,6.02323858 29.1110041,7.40595043 29.7768195,8.72883339 C30.4366065,10.0410801 30.790279,11.4909333 31.1479706,12.9042243 C31.5130304,14.3454355 32,15.7926296 32,17.233176 C32,18.6398194 31.5311159,19.966691 31.1861512,21.2350632 Z" transform="matrix(1 0 0 -1 0 32)"/>
    <path fill="#FFF" fill-rule="nonzero" d="M16,8 C18.1729537,8 18.4453084,8.00878638 19.2985184,8.0483251 C20.1500473,8.08698517 20.7317432,8.22229544 21.2403068,8.41998902 C21.7665231,8.6247117 22.2128822,8.89796815 22.6575602,9.34255903 C23.1022381,9.78714992 23.376274,10.2334981 23.5805401,10.7598023 C23.7780813,11.2685338 23.9134181,11.8501922 23.9520857,12.7015925 C23.9907534,13.5547501 24,13.827128 24,16 C24,18.172872 23.9907534,18.4452499 23.9520857,19.2984075 C23.9134181,20.1498078 23.7780813,20.7314662 23.5805401,21.2401977 C23.376274,21.7665019 23.1022381,22.2119714 22.6575602,22.657441 C22.2128822,23.1020319 21.7665231,23.3752883 21.2403068,23.580011 C20.7317432,23.7777046 20.1500473,23.9130148 19.2985184,23.9516749 C18.4453084,23.990335 18.1729537,24 16,24 C13.8270463,24 13.5546916,23.9912136 12.7014816,23.9516749 C11.8499527,23.9130148 11.2682568,23.7777046 10.7596932,23.580011 C10.2334769,23.3752883 9.78711779,23.1020319 9.34243984,22.657441 C8.8977619,22.2128501 8.62372596,21.7665019 8.41945991,21.2401977 C8.22191867,20.7314662 8.08658191,20.1498078 8.04791426,19.2984075 C8.00924661,18.4452499 8,18.172872 8,16 C8,13.827128 8.00924661,13.5547501 8.04791426,12.7015925 C8.08658191,11.8501922 8.22191867,11.2685338 8.41945991,10.7598023 C8.62372596,10.2334981 8.8977619,9.78802856 9.34243984,9.34255903 C9.78711779,8.89796815 10.2334769,8.6247117 10.7596932,8.41998902 C11.2682568,8.22229544 11.8499527,8.08698517 12.7014816,8.0483251 C13.5546916,8.00966502 13.8270463,8 16,8 Z M16,9.4409665 C13.8631922,9.4409665 13.6101713,9.44887424 12.7670484,9.48753432 C11.9869707,9.52267985 11.5633078,9.65359692 11.2817064,9.76254805 C10.9084796,9.90752334 10.642009,10.080615 10.3620889,10.3609006 C10.0821688,10.6411862 9.90900494,10.9074135 9.76358096,11.2808347 C9.65430283,11.5628775 9.52400967,11.9863811 9.48786382,12.7666118 C9.44919618,13.6101043 9.44079016,13.8631521 9.44079016,15.9991214 C9.44079016,18.1350906 9.44919618,18.3881384 9.48786382,19.231631 C9.52316907,20.0118616 9.65346223,20.4353652 9.76358096,20.717408 C9.90900494,21.0908292 10.0821688,21.3570566 10.3620889,21.6373421 C10.642009,21.9176277 10.9084796,22.0907194 11.2817064,22.2356947 C11.5633078,22.3455244 11.9869707,22.4755629 12.7670484,22.5107084 C13.6110119,22.5493685 13.8640328,22.5572762 16,22.5572762 C18.1368078,22.5572762 18.3898287,22.5493685 19.2329516,22.5107084 C20.0130293,22.4755629 20.4366922,22.3446458 20.7182936,22.2356947 C21.0915204,22.0907194 21.357991,21.9176277 21.6379111,21.6373421 C21.9178312,21.3570566 22.0909951,21.0908292 22.236419,20.717408 C22.3456972,20.4353652 22.4759903,20.0118616 22.5121362,19.231631 C22.5508038,18.3881384 22.5592098,18.1350906 22.5592098,15.9991214 C22.5592098,13.8631521 22.5508038,13.6101043 22.5121362,12.7666118 C22.4768309,11.9863811 22.3465378,11.5628775 22.236419,11.2808347 C22.0909951,10.9074135 21.9178312,10.6411862 21.6379111,10.3609006 C21.357991,10.080615 21.0915204,9.90752334 20.7182936,9.76254805 C20.4366922,9.65271829 20.0130293,9.52267985 19.2329516,9.48753432 C18.3889881,9.44887424 18.1359672,9.4409665 16,9.4409665 Z M16,11.8914882 C18.2687822,11.8914882 20.1088578,13.7304778 20.1088578,15.9991214 C20.1088578,18.267765 18.2696228,20.1067545 16,20.1067545 C13.7312178,20.1067545 11.8911422,18.267765 11.8911422,15.9991214 C11.8911422,13.7304778 13.7303772,11.8914882 16,11.8914882 Z M16,18.665788 C17.472733,18.665788 18.6672271,17.4717188 18.6672271,15.9991214 C18.6672271,14.5265239 17.4735736,13.3324547 16,13.3324547 C14.527267,13.3324547 13.3327729,14.5265239 13.3327729,15.9991214 C13.3327729,17.4717188 14.5264264,18.665788 16,18.665788 Z M21.2310602,11.7289401 C21.2310602,12.2587589 20.8015131,12.6892916 20.2710938,12.6892916 C19.7406746,12.6892916 19.3111275,12.2596376 19.3111275,11.7289401 C19.3111275,11.1991214 19.7406746,10.7685887 20.2710938,10.7685887 C20.8015131,10.7685887 21.2310602,11.1982427 21.2310602,11.7289401 Z"/>
  </g>
</svg>
