<svg xmlns="http://www.w3.org/2000/svg" width="32" height="32" viewBox="0 0 32 32">
  <g fill="none" fill-rule="evenodd">
    <path fill="#1D3C34" d="M32,17.233176 C32,18.6398194 31.5311159,19.966691 31.1861512,21.2350632 C30.8217612,22.5732358 30.1619743,23.7285979 29.4646767,24.8686704 C28.7506332,26.036663 28.2495971,27.402091 27.2428359,28.3121547 C26.2380843,29.2208889 24.8300923,29.6071175 23.5915685,30.2087301 C22.3858665,30.7943884 21.1754757,31.418603 19.8016453,31.6672252 C18.4968078,31.9038817 17.1176187,32.0747264 15.7076173,31.9670344 C14.2875683,31.8586776 12.8440751,31.7184122 11.5512947,31.2863147 C10.2163147,30.8395924 9.03003789,30.0053119 7.8745735,29.2587805 C6.70437276,28.5029423 5.59847613,27.631435 4.65936826,26.6156736 C3.7222699,25.6019065 3.24400812,24.2737054 2.58288154,23.0492077 C1.93381199,21.8466473 1.03020535,20.7318359 0.690599292,19.3703965 C0.363720093,18.0594793 0,16.6561597 0,15.2388801 C0,13.5417342 0.383145291,11.9243602 0.846670714,10.4997682 C1.3523957,8.94554689 2.29485274,7.61402197 3.268792,6.38752997 C4.24541059,5.15837891 5.25820024,3.83483117 6.61662445,2.93806277 C7.90471605,2.08782793 9.54915957,1.73217849 11.1051849,1.18241758 C12.561405,0.66788923 14.1100622,0.341489462 15.7384297,0.0928672354 C17.2562745,-0.139135858 18.633454,0.0928672354 20.0327382,0.46513581 C21.4434095,0.840728211 22.8018337,1.29010956 24.0309798,2.15098064 C25.2092186,2.97728392 26.5602746,3.74774692 27.5167982,4.90510332 C28.43983,6.02323858 29.1110041,7.40595043 29.7768195,8.72883339 C30.4366065,10.0410801 30.790279,11.4909333 31.1479706,12.9042243 C31.5130304,14.3454355 32,15.7926296 32,17.233176"/>
    <path fill="#FFF" fill-rule="nonzero" d="M18.54,10.6566667 L20.0006667,10.6566667 L20.0006667,8.11266667 C19.7486667,8.078 18.882,8 17.8726667,8 C15.7666667,8 14.324,9.32466667 14.324,11.7593333 L14.324,14 L12,14 L12,16.844 L14.324,16.844 L14.324,24 L17.1733333,24 L17.1733333,16.8446667 L19.4033333,16.8446667 L19.7573333,14.0006667 L17.1726667,14.0006667 L17.1726667,12.0413333 C17.1733333,11.2193333 17.3946667,10.6566667 18.54,10.6566667 L18.54,10.6566667 Z"/>
  </g>
</svg>
