<svg xmlns="http://www.w3.org/2000/svg" width="32" height="32" viewBox="0 0 32 32">
  <g fill="none" fill-rule="evenodd">
    <path fill="#1D3C34" d="M32,17.233176 C32,18.6398194 31.5311159,19.966691 31.1861512,21.2350632 C30.8217612,22.5732358 30.1619743,23.7285979 29.4646767,24.8686704 C28.7506332,26.036663 28.2495971,27.402091 27.2428359,28.3121547 C26.2380843,29.2208889 24.8300923,29.6071175 23.5915685,30.2087301 C22.3858665,30.7943884 21.1754757,31.418603 19.8016453,31.6672252 C18.4968078,31.9038817 17.1176187,32.0747264 15.7076173,31.9670344 C14.2875683,31.8586776 12.8440751,31.7184122 11.5512947,31.2863147 C10.2163147,30.8395924 9.03003789,30.0053119 7.8745735,29.2587805 C6.70437276,28.5029423 5.59847613,27.631435 4.65936826,26.6156736 C3.7222699,25.6019065 3.24400812,24.2737054 2.58288154,23.0492077 C1.93381199,21.8466473 1.03020535,20.7318359 0.690599292,19.3703965 C0.363720093,18.0594793 0,16.6561597 0,15.2388801 C0,13.5417342 0.383145291,11.9243602 0.846670714,10.4997682 C1.3523957,8.94554689 2.29485274,7.61402197 3.268792,6.38752997 C4.24541059,5.15837891 5.25820024,3.83483117 6.61662445,2.93806277 C7.90471605,2.08782793 9.54915957,1.73217849 11.1051849,1.18241758 C12.561405,0.66788923 14.1100622,0.341489462 15.7384297,0.0928672354 C17.2562745,-0.139135858 18.633454,0.0928672354 20.0327382,0.46513581 C21.4434095,0.840728211 22.8018337,1.29010956 24.0309798,2.15098064 C25.2092186,2.97728392 26.5602746,3.74774692 27.5167982,4.90510332 C28.43983,6.02323858 29.1110041,7.40595043 29.7768195,8.72883339 C30.4366065,10.0410801 30.790279,11.4909333 31.1479706,12.9042243 C31.5130304,14.3454355 32,15.7926296 32,17.233176" transform="matrix(-1 0 0 1 32 0)"/>
    <path fill="#FFF" d="M25,11.4197888 C24.4111101,11.6607211 23.7792398,11.8241186 23.1153433,11.8970669 C23.7932268,11.5222593 24.3121296,10.9277618 24.5580646,10.2215486 C23.9221943,10.5686445 23.2203108,10.8206808 22.4724403,10.957308 C21.8735635,10.3674211 21.021719,10 20.0768808,10 C18.2642243,10 16.7944964,11.3570272 16.7944964,13.0297695 C16.7944964,13.2670085 16.8234899,13.4987196 16.87949,13.7202923 C14.1520084,13.5938035 11.7334685,12.3872594 10.1147731,10.5538714 C9.83181835,11.000686 9.67085077,11.5213178 9.67085077,12.0770721 C9.67085077,13.1285467 10.2507471,14.0563084 11.1305917,14.5991 C10.5926823,14.5824923 10.086773,14.4458651 9.64387033,14.2187645 L9.64387033,14.2566146 C9.64387033,15.7244161 10.775663,16.9494266 12.2763714,17.2282331 C12.0014167,17.2965467 11.7114816,17.3343968 11.4115334,17.3343968 C11.1995853,17.3343968 10.9946176,17.3150131 10.79365,17.2780803 C11.2115592,18.4827898 12.423352,19.3588457 13.8590929,19.3828641 C12.7362937,20.195241 11.3205528,20.6780469 9.78285095,20.6780469 C9.51790934,20.6780469 9.2569416,20.6632738 9,20.6365035 C10.4527344,21.4978104 12.177417,22 14.031067,22 C20.0689331,22 23.3693307,17.3824094 23.3693307,13.3778069 L23.3583241,12.9854743 C24.0031879,12.5607953 24.5610712,12.0272249 25,11.4197888 Z"/>
  </g>
</svg>
