<svg xmlns="http://www.w3.org/2000/svg" xmlns:xlink="http://www.w3.org/1999/xlink" width="56" height="80" viewBox="0 0 56 80">
  <defs>
    <path id="title-number-1-a" d="M23.3567662,78.9441944 L23.3638821,78.927323 C23.3795323,78.8834846 23.3951826,78.8447405 23.4108328,78.8437646 C23.4418849,78.8419347 23.47273,78.9313943 23.5037821,78.9814103 C23.4774913,79.0397623 23.4512005,79.0979111 23.4249098,79.1562631 L23.341,79.026 L23.3033771,79.0494918 C22.9692902,79.2376924 22.7221485,79.2231634 22.4,79.0103513 C22.7084314,78.779349 23.0113052,78.7578106 23.3567662,78.9441944 Z M15.2727273,79.0203868 C14.9468704,79.280448 14.7019081,79.1585156 14.3113538,79.0160369 C14.2884421,79.0737939 14.2665178,79.131445 14.2426422,79.1502881 C14.2237893,79.1650654 14.2003331,79.0833374 14.1781116,79.0275646 L14.2545455,78.9710693 C13.8692942,79.301025 13.5767971,79.0572907 13.2903898,79.0220224 L13.2970187,79.0068411 C13.2841838,79.0399818 13.271142,79.0733258 13.2583071,79.1068732 C13.2307743,79.0653965 13.2032414,79.0237164 13.1757086,78.9818331 C13.1891645,78.9503189 13.2038625,78.8858674 13.2154552,78.8937968 C13.2418216,78.9124568 13.2667354,78.960361 13.2918971,78.9991003 L13.2363636,79.0180356 C13.5255935,78.9185611 13.8138441,78.7589832 14.1979403,78.9419647 L14.2486456,78.8479554 L14.2486456,78.8479554 C14.2792836,78.8780464 14.3101287,78.9081373 14.3403527,78.9382283 L14.326,78.974 L14.3570314,78.9654155 C14.7208561,78.8501496 14.9592281,78.6990778 15.2727273,79.0203868 Z M21.5559169,78.9685318 C21.464861,79.1242992 21.4364832,79.1728447 21.3572176,79.1480538 L21.3818182,79.1471183 C21.0479292,79.1467117 20.7143993,79.1463051 20.3636364,79.1461017 C20.4889345,78.6485846 20.6688037,78.9377016 20.814566,78.9248926 C20.9571985,78.9122221 21.1004847,78.9458179 21.2437455,78.9742618 C21.3443696,78.7351602 21.450475,78.8897251 21.5559169,78.9685318 Z M29.2600978,78.0005047 C29.3488743,77.991199 29.4380735,78.1128894 29.5272727,78.1739732 C29.52685,78.2367272 29.5264272,78.2992427 29.5262159,78.3619967 C29.3640931,78.4345337 29.202393,78.5409531 29.0396361,78.5738811 C28.3266764,78.7170462 27.6132938,78.8633133 26.8999113,78.9599498 C26.4613132,79.0193633 26.0222923,78.9959797 25.5834827,78.9928777 C25.5650649,78.9927282 25.5466471,78.9357578 25.5181802,78.8475934 C25.4376375,79.0295633 25.3611277,78.9999818 25.2858512,78.9956264 C25.2723953,78.9949682 25.2471396,78.8649744 25.2483817,78.813306 C25.252522,78.6293402 25.2579044,78.3565178 25.2771567,78.2893818 C25.3895652,77.8994006 25.5081841,77.9184882 25.6607534,78.2571302 C25.6363878,78.4066998 25.6123702,78.5264812 25.5886558,78.6223269 L25.4545455,78.6624049 C25.6532357,78.6063319 25.8130334,78.5447709 25.9726197,78.5206714 C26.1738464,78.4901295 26.3752845,78.4603034 26.5765112,78.4841643 C26.9058297,78.5223417 27.2311322,78.409957 27.5596052,78.2715641 C28.1237587,78.0339099 28.6929851,78.0601569 29.2600978,78.0005047 Z M11.2671851,77.7534823 C11.4972794,77.7585663 11.7278195,77.7479938 11.9574678,77.8189515 C12.0293103,77.841147 12.0995013,78.0026994 12.1700191,78.1346485 L12.198,78.183 L12.1160774,78.2146881 C11.8002918,78.3079009 11.4088239,78.191632 11.2,77.9281329 C11.2224446,77.8671377 11.2448892,77.7530768 11.2671851,77.7534823 Z M9.29890174,77.9128308 C9.30656126,77.9197436 9.31504882,78.0270951 9.31194362,78.0779244 C9.30883841,78.13282 9.29041417,78.2237028 9.28234063,78.2180099 C9.19125453,78.1543717 9.07698287,78.381477 9.01467169,77.9166939 C9.1103121,77.6605142 9.20512446,77.8300807 9.29890174,77.9128308 Z M31.5163337,77.0000327 C31.565189,76.9976647 31.6142513,77.1243527 31.6631065,77.2005234 C31.654619,77.4191687 31.655033,77.7475313 31.6359877,77.8367259 C31.6273196,77.8776465 31.6185003,77.9104765 31.6096577,77.9356596 L31.6102542,77.9332262 C32.1163518,77.8893097 32.6224495,77.8445799 33.1285471,77.813879 C33.2332244,77.8073729 33.3379917,77.8185779 33.442789,77.8302649 L33.581,77.844 L33.5577921,77.9146356 C33.4298094,78.2492263 33.278759,78.1589591 33.139285,78.1684642 C32.6171819,78.2038414 32.0948761,78.1806633 31.5782432,78.1796467 C31.569734,78.0863241 31.5622377,78.0232957 31.5638585,78.019636 L31.5725427,77.9977842 C31.523927,78.0232809 31.4802512,77.8272145 31.4641662,77.4882353 C31.4815554,77.3161607 31.4989445,77.0008221 31.5163337,77.0000327 Z M6.08725825,78.0001249 C6.08639701,77.9851833 6.08559483,77.9737976 6.08476678,77.9643433 C6.09739463,77.951941 6.1104365,77.9399452 6.12327136,77.9275429 C6.12658358,77.9653599 6.1298958,78.0027703 6.13341504,78.0405872 C6.12037317,78.0529896 6.10753831,78.0755578 6.09491046,78.0721014 C6.09269097,78.071413 6.09080107,78.049231 6.08898039,78.0232367 L6.10909091,78.0128464 C5.76877528,78.1874959 5.42867235,78.2806152 5.09090909,78.005527 C5.4247386,77.7146697 5.75612433,77.8092519 6.08725825,78.0001249 Z M10.4298208,78.0093803 C10.2544801,78.2409586 10.118679,78.1862663 9.93381556,78.0197495 C10.1182649,77.7306324 10.254273,77.8251749 10.4298208,78.0093803 Z M30.4719611,77.1007336 C30.5004177,77.1260311 30.547494,77.2532518 30.5453861,77.2836821 C30.5302795,77.4926614 30.5120111,77.8380271 30.4803927,77.865891 C30.1638571,78.1503961 29.8487267,77.9388505 29.5272727,77.634914 C29.7830307,77.4237349 30.0384373,77.1993572 30.2952492,77.0116425 C30.3514598,76.9705799 30.413994,77.0472056 30.4719611,77.1007336 Z M3.09449913,77 L3.12058288,77.4997102 L3.12058288,77.4997102 L3.142,77.931 L2.961,77.893 L2.96214274,77.8661824 C2.96247494,77.8458558 2.96275867,77.8250934 2.96305179,77.804447 L3.05454545,77.7656567 C2.86010218,77.8425846 2.66764303,77.9411065 2.470422,77.9889428 C2.34343864,78.0199839 2.20891564,77.9767962 2.08431322,77.9673489 C1.96804408,77.5180775 2.07082124,77.2217623 2.31050233,77.0565096 C2.54304061,76.8963554 2.78232488,77.0854513 2.95930793,77.5119293 L2.976,77.564 L3.01224562,77.3785277 C3.03920343,77.2481539 3.0671733,77.1275116 3.09449913,77 Z M34.5899331,76.7586616 C34.5995131,76.8143705 34.6088475,76.870486 34.6181818,76.9261949 C34.5587367,76.9723479 34.4988003,77.0618075 34.4398465,77.0567246 C34.1915035,77.034563 33.9438974,76.9851569 33.7002215,77.23971 C33.6749205,77.265938 33.6338985,77.1199562 33.6,77.0540814 C33.6203882,76.955066 33.6400395,76.7708606 33.6606733,76.769844 C33.9701809,76.7519521 34.2799342,76.7580516 34.5899331,76.7586616 Z M36.6545455,76.8335068 C36.5857004,77.0388571 36.5620274,77.1679636 36.5393206,77.1679636 C36.2359193,77.1671503 35.9317934,77.2395312 35.6363636,77.0053098 C35.9644042,76.7967064 36.285681,76.8129717 36.6545455,76.8335068 Z M37.6727273,76.9077397 C37.5830847,77.0461987 37.5519561,77.1328118 37.5208275,77.1354549 C37.2491416,77.1576165 36.9770616,77.1663591 36.7049817,77.1710358 C36.6915846,77.1712387 36.6775964,77.0935716 36.6545455,77.0236305 C36.6760203,76.9536893 36.69651,76.8298692 36.7160146,76.8314957 C37.0154799,76.8556905 37.3167183,76.7751768 37.6727273,76.9077397 Z M45.8181818,76.0660801 C45.7776911,76.2441171 45.7589882,76.4035927 45.7368147,76.4124945 C44.9896638,76.7145891 44.2405849,76.8126989 43.4907346,76.7350444 C43.3364841,76.7191348 43.1943809,76.8490638 43.0480357,76.9735003 C42.9647404,77.0443363 42.8820236,77.0000164 42.7636364,76.503407 C43.3064053,76.4581402 43.7892094,76.4274572 44.2718206,76.3729097 C44.4376399,76.3539696 44.6028807,76.272906 44.7685072,76.2247981 C45.0343965,76.1471437 45.3002858,76.0634285 45.5665607,76.0033884 C45.6440716,75.9859635 45.7227393,76.0401322 45.8181818,76.0660801 Z M41.7454545,76.6736547 C41.6047313,76.6732818 41.464283,76.6464353 41.3241095,76.6773834 C40.8483442,76.7832782 40.3731285,76.9264599 39.8973632,76.9999151 C39.8542117,77.0066268 39.8094112,76.6143685 39.7090909,76.1423163 C40.4484374,75.8406652 41.1075277,76.0188967 41.7454545,76.6736547 Z M2.22545941,62.0804484 C2.58083112,62.0471344 2.93805373,61.8579583 3.29075193,62.21073 C3.35697281,62.2771598 3.43121424,62.2743836 3.5003143,62.244639 C3.92684261,62.0612135 4.352137,61.8978162 4.77763704,62.2747802 C4.86092728,62.3487453 4.9557342,62.3076977 5.04190362,62.2482083 C5.46925455,61.9535378 5.89228674,61.9852655 6.31573023,62.3481504 C6.39922613,62.4197359 6.50040835,62.4312372 6.57876288,62.3162245 C6.75747701,62.0534799 6.92426315,62.1492577 7.10256597,62.2942134 C7.25762979,62.4201325 7.42112545,62.4116057 7.58112498,62.4205291 C8.25978624,62.4578091 8.93865315,62.4794235 9.6173144,62.5079784 C9.63500073,62.5085733 9.65268705,62.5210661 9.67057903,62.5301878 C10.5230187,62.9662446 11.3847128,62.7312617 12.2385921,62.985876 C13.0593609,63.2303772 13.8797184,63.3305176 14.7021324,63.3221891 C15.7923092,63.3112827 16.8822803,63.2605185 17.9724571,63.2579406 C19.0807315,63.2553627 20.1890059,63.2866938 21.2968689,63.3120759 C21.7079731,63.3213959 22.1217508,63.2494138 22.5291532,63.4072588 C22.9924938,63.5867183 23.4552174,63.6376808 23.9193805,63.6468025 C24.7407663,63.663063 25.5625634,63.6329217 26.3839492,63.6358962 C27.2415302,63.6390689 28.0989056,63.6585021 28.9564866,63.6715898 C28.9922706,63.6719864 29.0284659,63.6642527 29.0638385,63.6803149 C29.3828093,63.8252705 29.6902634,63.3009712 30.0211622,63.5538009 C30.3310842,63.7903701 30.6611603,63.657114 30.9823933,63.6531481 C31.1247065,63.6513634 31.267431,63.5706562 31.4099499,63.5202886 C31.712057,63.4136043 32.0098453,63.3985337 32.3156542,63.5286171 C32.6837765,63.6856689 33.0615646,63.5930638 33.4342113,63.508589 C33.5779641,63.4758699 33.7157529,63.5072009 33.8576548,63.5353592 C34.1597619,63.59584 34.4635142,63.5702596 34.7662383,63.5756136 C35.1049519,63.5819592 35.44346,63.6017889 35.7821736,63.5823558 C36.2788303,63.5534043 36.7754869,63.4689294 37.2723492,63.4564367 C37.7706511,63.4435473 38.2691586,63.4812239 38.7672549,63.5129515 C39.2472535,63.5436877 39.7268407,63.6202306 40.2068393,63.4651618 C40.2603096,63.4479099 40.3150138,63.4217346 40.3676615,63.4449354 C41.1495615,63.790965 41.9291993,63.1661287 42.7104824,63.2944274 C42.7635414,63.3029542 42.8203021,63.2375159 42.8696593,63.2880819 C43.1479104,63.5746221 43.4238993,63.7602289 43.7007109,63.2363261 C43.7292969,63.181596 43.7718675,63.2020206 43.8058005,63.2281959 C44.1453368,63.4885609 44.4782921,63.2557593 44.8165945,63.116356 C45.1330974,62.9860743 45.4555643,63.0998973 45.7757691,63.1145713 C46.1099583,63.1302368 46.4431193,63.13103 46.7779255,63.2716231 C47.0944285,63.4046809 47.4181293,63.2995831 47.7387453,63.2684504 C47.8987449,63.2527849 48.0597727,63.2026155 48.2177157,63.1024751 C48.3263015,63.0336658 48.4299515,62.984488 48.533396,63.136979 C48.6559663,63.3174299 48.7746292,63.1758453 48.8986391,63.1397551 C49.1075845,63.0786794 49.3198204,63.220264 49.5308224,63.264881 C49.6196653,63.2837193 49.7159118,63.3596674 49.7967342,63.2609151 C50.079921,62.9146871 50.3587891,63.1286504 50.6399194,63.23355 C50.7464486,63.2732095 50.8535948,63.3007729 50.9607411,63.3049372 C51.6572943,63.333492 52.3538475,63.3590725 53.0506064,63.3737465 C53.2468012,63.3779107 53.4471091,63.2444563 53.6383682,63.3525286 C53.8516323,63.473292 54.0219146,63.2732095 54.1594978,62.7846038 C54.3174407,62.9131008 54.4542013,63.0253373 54.5911675,63.1347977 C54.6257175,63.1623611 54.6758973,63.13103 54.692761,63.2103491 C54.862632,63.9967981 55.1526054,63.8833718 55.3442758,64.5256583 C55.4820646,64.9872955 55.6700332,65.0384563 55.8411381,65.2236664 C55.9314206,65.3212289 55.9925001,65.6051914 55.9974358,65.9817588 C56.0033998,66.4604497 55.9972302,66.9417184 55.9962019,67.5078585 C55.8407268,68.2584156 55.6412415,68.6641328 55.3652526,68.7053788 C55.0466931,68.7525736 54.727311,68.9546391 54.4130703,69.1852594 C54.2966696,69.2703291 54.1823255,69.5743196 54.0862846,69.8707748 C53.9016065,70.4385013 53.7206302,70.9560585 53.4705538,71.010987 C53.3889088,71.0284372 53.3070581,71.2769043 53.2321997,71.4619161 C52.9117893,72.2553055 52.5699908,72.7613615 52.1919971,73.0393749 C51.860687,73.2832812 51.5380144,73.7254852 51.2019743,73.9334996 C50.7439808,74.2168671 50.2898947,74.6418193 49.829639,74.8133468 C49.0835229,75.0913603 48.334322,75.2434547 47.5857381,75.3860308 C47.2492866,75.450081 46.9120125,75.6626562 46.5737102,75.4730835 C46.2584412,75.8270451 45.9351516,75.719766 45.6141243,75.7503038 C45.5622993,75.7552613 45.5106799,75.7072732 45.4592661,75.6838741 C45.433148,75.3543032 45.4973123,75.3765125 45.5363867,75.3644164 C46.1597268,75.1720675 46.7826556,74.9783306 47.4078466,74.8686719 C48.2820856,74.7149911 49.156736,74.4869487 50.0264507,74.0592204 C50.2917456,73.9283439 50.5539556,73.6985167 50.8165769,73.4912956 C50.8657285,73.4528258 50.9093273,73.3068786 50.9866536,73.145266 C50.9169366,73.059403 50.874366,72.9505375 50.8350859,72.9673929 C50.3768867,73.1627162 49.9205384,73.4696811 49.4561696,73.3334505 C49.3685606,73.3080684 49.2786894,73.395716 49.1894352,73.4199084 C48.7974569,73.5269892 48.4052729,73.6360529 48.013089,73.7320291 C47.7987966,73.7841814 47.5845041,73.815909 47.3702117,73.849818 C46.8904188,73.9253694 46.4106258,73.9973515 45.9308329,74.0695319 C45.0742801,74.1986237 44.2171104,74.1833548 43.3615859,74.4530398 C43.0062142,74.5652763 42.6479633,74.5878823 42.2909464,74.5886755 C41.9693021,74.5894687 41.6497143,74.5369197 41.3315661,74.8415051 C41.2126976,74.955328 41.082518,74.8908813 40.9574798,74.8968302 C40.5648846,74.9160651 40.1710554,74.8637145 39.7794884,74.9630617 C39.3165592,75.0806522 38.8544525,75.1008786 38.3927572,75.0316727 C37.7143016,74.9299459 37.035846,74.9914182 36.3604753,75.175042 C35.699089,75.3548981 35.0389367,75.2803381 34.3785787,75.3759176 C34.0573458,75.4225176 33.7365241,75.5149244 33.4157024,75.5940452 C33.0239298,75.6904179 32.6317458,75.8793957 32.2412071,75.5597397 C32.1904103,75.5180971 32.1334439,75.4897405 32.0836754,75.5333661 C31.6232141,75.9384884 31.1574056,75.6781234 30.6942708,75.7534766 C30.3913411,75.8026544 30.0871774,75.7409838 29.7848647,75.8004732 C29.5899038,75.8385463 29.3967938,76.1014892 29.2032725,76.0983164 C28.4195216,76.0854271 27.6419404,76.5399256 26.8567498,76.4887647 C26.2698107,76.450295 25.6810206,76.6828983 25.0928476,76.791962 C24.9867296,76.8115935 24.8799947,76.8441144 24.7742881,76.8211118 C24.4742375,76.7568633 24.1754209,76.5738345 23.8743421,76.8345961 C23.8251906,76.8772301 23.7674016,76.8266641 23.7163991,76.7760982 C23.5572222,76.6188481 23.4023641,76.6624736 23.2401023,76.7836335 C22.9225711,77.0207977 22.604423,76.9938292 22.2815447,76.8115935 C21.9829338,76.6430404 21.6726005,76.5101809 21.3750178,76.6392728 C21.0517283,76.7798659 20.7364593,76.6450234 20.4174885,76.6390745 C19.632298,76.6244004 18.8466962,76.593466 18.0613,76.5855341 C17.8651052,76.5833528 17.664386,76.5549962 17.4733326,76.693408 C17.1510713,76.9262096 16.834157,76.786608 16.5139523,76.7525008 C16.1415113,76.7128412 15.7680419,76.7386199 15.3949839,76.7842284 C15.0025943,76.8320182 14.6104103,76.9807415 14.2176094,76.9993815 C14.0055792,77.0094947 13.7900528,76.894482 13.5815187,76.7352489 C13.3861466,76.5867238 13.1938592,76.5423051 12.9966361,76.5752226 C12.6926782,76.6261851 12.3897485,76.6255902 12.0892866,76.3856499 C12.0385721,76.3450782 11.9855625,76.3398431 11.9323456,76.3431745 L11.826254,76.3533274 C11.7727837,76.3565001 11.7160229,76.4532694 11.6668714,76.411032 C11.3133506,76.1078347 10.9625033,76.420352 10.610422,76.4524762 C10.3099602,76.4800396 10.0055909,76.5210873 9.70636298,76.2254253 C9.57165901,76.0919709 9.42338181,76.1530466 9.2810686,76.1290526 C9.13854974,76.1048602 8.99006688,76.1738679 8.85412897,76.0469573 C8.25690707,75.489344 7.64241015,75.9137012 7.04230908,75.5603346 C6.63449536,76.0082892 6.22606468,75.3239636 5.81825096,75.5990026 C5.55439569,75.2375058 5.29424221,75.515321 5.0287417,75.6198239 C4.78195579,75.7171881 4.52941154,75.6120903 4.27954081,75.5750086 C4.01465726,75.5357456 3.74977372,75.4722903 3.48509583,75.4191465 C3.25003225,75.9380918 2.997488,75.5274171 2.75440388,75.6430247 C2.6840699,75.6765371 2.61209067,75.6477839 2.54072841,75.6547243 C2.22545941,75.6850639 1.98360922,75.2658624 1.85836537,74.0705234 C1.83306981,73.8293933 1.77774864,73.6358547 1.72304443,73.3505042 C1.61528125,73.4514377 1.51409902,73.5466207 1.4129168,73.6416053 L1.4129168,73.6416053 L1.41,73.63 L1.38212121,73.6804558 C1.34387927,73.7525569 1.30596308,73.8319394 1.26690674,73.8787694 L1.22741606,73.9132732 C1.12170943,73.9687966 1.05651682,73.7691108 1.02587423,73.4082088 C1.00037302,73.1097707 1.03615698,72.9457784 1.16510262,72.7679053 C1.29034647,72.5943947 1.30248011,72.5095233 1.26258305,72.0302376 C1.24098928,71.7702692 1.21507676,71.5156548 1.19389431,71.2550916 C1.18916424,71.1971886 1.19595086,71.1246116 1.1998583,70.9701377 C1.24386845,70.9820355 1.29507653,70.9445572 1.3312718,71.0167376 C1.41559032,71.1844976 1.4982636,71.3005018 1.57785205,71.0288338 C1.70576942,70.5915872 1.85075614,70.6294621 1.97723392,70.9068807 C2.09527984,71.165461 2.21024095,71.2235622 2.33239997,71.1252065 C2.73157618,70.8043607 3.13239763,70.6306519 3.53938873,70.7575624 C3.64735757,71.0278423 3.66997961,71.6348318 3.86514613,71.5902148 C4.30956643,71.4882897 4.75645458,71.5979484 5.20190315,71.5467876 C5.41249379,71.522397 5.62164485,71.2957426 5.83244115,71.2162252 C6.045294,71.1357163 6.26123167,71.1646678 6.4732619,71.0643291 C6.57382716,71.0167376 6.66863408,70.7801684 6.75891659,70.6403685 C6.7967571,70.7637097 6.83583153,70.8279582 6.84631993,70.9346424 C6.90020153,71.4795646 7.02729627,71.7383432 7.14328565,71.5705833 C7.36189683,71.2548933 7.55336157,71.5644361 7.75963346,71.6463331 C8.18472219,71.8150845 8.6131014,71.8817125 9.0410693,71.9314853 C9.59366409,71.9957338 10.1474928,71.9802665 10.7004989,72.0429286 C10.9851253,72.0750529 11.2691348,72.20236 11.5533499,72.2854468 C11.6421928,72.3116221 11.7310357,72.3471174 11.8200843,72.3558425 C12.6583338,72.4383344 13.4967889,72.5749616 14.3354497,72.5741684 C14.9034686,72.5735735 15.4721045,72.3859838 16.040329,72.2624443 C16.1573467,72.2368638 16.2307655,71.9140351 16.2774492,71.5210089 C16.3247498,71.1216372 16.2027964,70.3687005 16.1030538,70.4908519 C15.907476,70.7305939 15.7240318,70.668725 15.5305105,70.4670562 C15.3858536,70.3164226 15.3344857,70.4310426 15.2853059,71.0135694 L15.2923936,71.0278545 C15.2771174,71.1113971 15.26976,71.2104098 15.2621308,71.3207281 C15.2370409,71.2612388 15.199406,71.2235622 15.1895346,71.1378976 C15.1514884,70.8029726 15.101103,70.518217 14.9984812,70.5243643 C14.8925689,70.5305115 14.8559623,70.8785241 14.8181218,71.1922312 L14.823,71.148 L14.8003617,71.0930389 C14.7557982,70.9779915 14.7103352,70.8268545 14.6673456,70.7895075 L14.6418755,70.7819531 C14.4092798,70.8606773 14.1859386,70.5901991 13.9553994,70.6112187 C13.6532923,70.6389804 13.3524192,70.6691216 13.0503121,70.4105413 C12.8452741,70.2350478 12.6233724,70.3413354 12.40908,70.3282478 C11.7478994,70.2883899 11.0858962,70.2998912 10.4255383,70.1991559 C9.87356044,70.1146811 9.32343351,69.9025024 8.77227831,69.7424761 C8.70153302,69.7222498 8.62811421,69.6042626 8.56168767,69.6546302 C8.16744718,69.9544565 7.77773109,69.7081706 7.38657542,69.5927613 C7.31521317,69.5719401 7.24097174,69.486672 7.17351692,69.5392209 C6.87223246,69.7726174 6.57300454,69.5687673 6.272954,69.5562745 C5.9513097,69.542592 5.6296654,69.5570677 5.30781544,69.5473511 C5.00426877,69.5384277 4.70031079,69.4791367 4.39696977,69.5055103 C4.02206084,69.5380311 3.64756322,69.6506643 3.27285995,69.7022217 C2.91687127,69.7510029 2.5608826,69.76766 2.20468826,69.7944302 C1.94186127,69.8140616 1.73538372,69.2917453 1.50237669,68.7386928 C1.55543566,68.5760886 1.596361,68.3508224 1.62823751,68.367876 C1.89743981,68.5136248 2.15635936,68.5062878 2.40211699,67.9460966 C2.45970037,67.8154184 2.54113972,67.8068916 2.61147371,67.8059001 C3.21836139,67.797175 3.82010771,67.4398424 4.42987456,67.4779155 C5.53691502,67.5471215 6.64539507,67.4253666 7.75325816,67.4257632 C8.50389863,67.4259615 9.25474477,67.4783121 10.0051796,67.5433538 C11.2014743,67.6476584 12.3973577,67.7993562 13.5934467,67.8925562 C13.9862476,67.9230941 14.3796655,67.8376277 14.7728777,67.795192 C14.8059882,67.7916226 14.838893,67.713295 14.8744713,67.6662984 C14.7924149,67.323045 14.6834178,67.4644313 14.5894335,67.4600687 C14.1246534,67.4384543 13.6598733,67.458879 13.1948875,67.4574909 C13.0517517,67.456896 12.9084102,67.3968118 12.766097,67.4293326 C12.6052748,67.466216 12.5090283,67.1336706 12.397769,66.5611849 L12.397,66.562 L12.3602484,66.8126559 C12.3480919,66.8942077 12.3362553,66.9736516 12.3246472,67.0514799 L12.2904171,67.2806093 C11.538954,67.083303 10.809496,66.8919456 10.080038,66.6993985 C10.0267734,66.6855176 9.97330308,66.6482377 9.9198328,66.6474445 C8.65094191,66.6288045 7.38678108,66.1231451 6.1164506,66.2173366 C5.41948606,66.2690923 4.72231586,66.2377613 4.02494001,66.2803953 C3.68622635,66.3014148 3.34771834,66.4279288 3.00900468,66.4654071 C2.76016222,66.4927722 2.51070279,66.4578718 2.26165468,66.4408182 C2.19728469,66.436059 2.17384003,66.3295731 2.04736225,65.6317633 C2.08355751,65.3257898 2.15964984,65.3767523 2.22525376,65.3246 C2.2752279,65.2849405 2.32376247,65.2169243 2.38278543,65.1506929 C2.20941833,64.8393654 2.05003576,64.5579808 1.89209278,64.2658882 C1.84993352,64.1873623 1.86638591,63.9093488 1.92294102,63.7869991 C1.95378926,63.7205693 1.99080714,63.6995497 2.02309497,63.6416468 C2.03728516,63.6162647 2.04695094,63.5510247 2.06731077,63.4683345 C2.0475679,63.2480257 2.01178394,63.0051109 2.00767085,62.7532728 C2.00520299,62.5841248 2.03666819,62.3491419 2.0726578,62.2424577 C2.11173224,62.1266518 2.17322306,62.0854059 2.22545941,62.0804484 Z M46.5321679,71.3609826 C46.1037887,71.2461682 45.6776717,71.178152 45.2497038,71.419877 C45.0738688,71.5192242 44.8933038,71.5019723 44.7147953,71.5192242 C44.1255939,71.5755408 43.5363926,71.6199595 42.9471912,71.6770692 C42.7688884,71.6943211 42.5899686,71.7323943 42.4116658,71.7706658 C41.9834922,71.8622794 41.5540848,72.0907184 41.1279678,72.0264699 C40.2716206,71.8971798 39.419181,72.4892969 38.5638621,72.2110851 C38.5463815,72.2055328 38.5282838,72.236269 38.5105975,72.2378553 C37.9575914,72.2767217 37.4043797,72.3540578 36.8513736,72.338194 C36.4955906,72.3276842 36.1367227,72.4950476 35.7834075,72.2017651 C35.7328164,72.1599243 35.676467,72.2124732 35.6229967,72.2200085 C35.0876769,72.2951634 34.5519459,72.3447378 34.017243,72.451422 C33.2865511,72.5969726 32.55298,72.2614528 31.8249615,72.7443079 C31.7727252,72.77901 31.7132909,72.8047887 31.664962,72.7433164 C31.4360681,72.4498357 31.2119042,72.7314185 30.9846555,72.7740525 C30.5747852,72.8507938 30.163681,72.8032023 29.7527825,72.817678 C29.6104693,72.8226355 29.4603412,72.7554125 29.3272825,72.9061188 C29.1678999,73.0871647 29.0120135,73.096683 28.8518083,73.1127451 C28.2091366,73.176597 27.566465,73.2567057 26.9237934,73.3253203 C26.6568533,73.3536769 26.3858001,73.2632531 26.1237957,73.4165373 C25.838758,73.5837023 25.5549542,73.6364495 25.2705334,73.6338717 C24.378608,73.6261381 23.4870939,73.6907831 22.5951685,73.7560231 C22.2202595,73.7835865 21.845145,73.7252869 21.470236,73.6893951 C21.3641181,73.6794802 21.2477174,73.7040691 21.1547614,73.5486036 C20.9614458,73.2259732 20.7777959,73.2668225 20.5805728,73.4621458 C20.4610873,73.5805296 20.3323473,73.6059117 20.2085431,73.5971866 C19.7818091,73.5662521 19.3507564,73.8351439 18.9297807,73.379059 C18.6124552,73.49427 18.2914279,73.4006735 17.9769815,73.4873296 C17.1747216,73.708035 16.3761635,73.5309551 15.5761659,73.500219 C15.3452154,73.4912956 15.1167328,73.3443569 14.8855766,73.6289142 C14.7880962,73.749281 14.6729294,73.6590555 14.5659889,73.6582623 C13.9056309,73.6544946 13.2456843,73.6564776 12.5853263,73.6392257 C12.3185918,73.6322853 12.0493896,73.7256835 11.7917039,73.3219493 C11.731447,73.2275595 11.6489794,73.2573042 11.5823472,73.3193714 C11.276744,73.6049202 10.9810122,73.3227425 10.6836352,73.1438779 C10.6324271,73.1131417 10.5721702,72.9459767 10.5343297,73.0086388 C10.2688292,73.4500496 10.0012721,73.0695162 9.74009039,73.0294601 C9.44415295,72.9840499 9.13217443,73.1668804 8.84857629,72.6060943 C8.80806227,72.5255854 8.7385509,72.5531488 8.69392379,72.62989 C8.53824301,72.896204 8.37988871,72.8234287 8.21906656,72.7926925 C8.0409694,72.7585853 7.86204961,72.7556108 7.68354114,72.7506534 C6.89835063,72.7288406 6.1119262,72.8700286 5.32796962,72.6604279 C5.14678763,72.6120432 4.97753363,72.7587836 4.79532336,73.1650957 C4.91748239,73.2255766 5.04149231,73.2533382 5.16118347,73.3544701 C5.31912646,73.4879245 5.47357331,73.6515202 5.6255523,73.284471 C6.05084668,73.2299391 6.47758065,73.0058626 6.89670539,73.4972445 C6.97793909,73.5924274 7.07912131,73.6675823 7.15439101,73.5660538 C7.32076585,73.3413825 7.46595823,73.4113816 7.61690894,73.7104146 C7.79891355,74.0717132 7.99264049,74.1440918 8.18698439,73.8504128 C8.37803782,73.5616913 8.56662339,73.5208419 8.76384646,73.7470997 C8.82739383,73.8206682 8.90245788,73.7641533 8.97196925,73.7510657 C9.07747022,73.7310376 9.18728995,73.6128521 9.28703259,73.6893951 C9.43057973,73.7998469 9.56754591,73.7706971 9.71088739,73.7300461 C9.85073274,73.6907831 9.99345726,73.7655414 10.1339196,73.829195 C10.9110895,74.1819667 11.6835294,74.7570303 12.4744783,74.4768355 C12.5620873,74.4459011 12.6523698,74.5141155 12.7412127,74.5440585 C13.0075358,74.6338874 13.2734477,74.7485035 13.5401821,74.8095792 C13.6448605,74.8335732 13.757765,74.8125536 13.8564794,74.6848499 C14.009281,74.487147 14.1458359,74.2495863 14.3200256,74.4248815 C14.48784,74.5940295 14.6688163,74.2382833 14.8469135,74.4655325 C14.9816175,74.6372584 15.1231081,74.7576252 15.2639817,74.8212788 C15.3478889,74.8593519 15.4620274,74.8589553 15.5183768,74.6743401 C15.6917439,74.1054238 15.8834143,74.0512885 16.070766,74.3306901 C16.2973977,74.6683912 16.5160089,74.6225844 16.7442858,74.4526432 C16.8312779,74.3877998 16.9219717,74.3647973 17.010609,74.3731258 C17.6532806,74.4347964 18.295541,74.5260134 18.9380069,74.5700355 C19.1498315,74.5845112 19.3630957,74.5789589 19.5755372,74.5551631 C19.9294693,74.5153053 20.2889541,74.4316236 20.6422693,74.7399767 C20.9055076,74.9698038 21.184787,75.0066872 21.4404161,74.7262941 C21.9333709,74.1851395 22.4261201,74.1597574 22.9178411,74.4928976 C23.169357,74.6634337 23.4118242,74.6354737 23.6594327,74.53573 C23.904779,74.4369777 24.1466292,74.1143472 24.3975282,74.4472891 C24.4581964,74.5279963 24.5439546,74.4641445 24.6072963,74.3634092 C24.8491465,73.9800996 25.1012794,74.0082579 25.3480653,74.0996731 C25.5960852,74.191485 25.844105,73.9802979 26.0902739,74.1653097 C26.2130499,74.2575182 26.7987552,74.2170654 26.871557,74.0647727 C27.1037414,73.5799347 27.3488821,73.5535611 27.601632,73.6364495 C27.8323768,73.712001 28.0637386,73.761972 28.2951004,73.8079771 C28.4184934,73.8323677 28.5425033,73.845852 28.6661019,73.8268154 C28.8966411,73.7909235 29.1271802,73.6951457 29.3579251,73.6846359 C29.6779241,73.6699619 29.9985401,73.7429354 30.3185392,73.719338 C30.6395665,73.6957406 30.9601826,73.5470172 31.280593,73.5495951 C31.6172501,73.5525696 31.9549355,73.2374744 32.2915926,73.5603032 C32.3390989,73.6059117 32.3985331,73.5301619 32.4485073,73.4637322 C32.639972,73.2091178 32.8374007,73.2277578 33.0327729,73.2761425 C33.2809984,73.3382097 33.5298409,73.5957985 33.7745702,73.5317483 C34.0203279,73.4676981 34.2630007,73.2273612 34.514928,73.2473893 C35.0146694,73.2874455 35.5154392,73.3150089 36.0151806,73.2555195 C36.3520434,73.2154634 36.6878779,73.3052923 37.0255633,73.2588906 C37.328493,73.2170498 37.6306001,73.2553212 37.9318846,73.0441341 C38.034712,72.972152 38.1469996,73.0183554 38.2512667,73.0881562 C38.5003148,73.2551229 38.7429876,73.3332522 38.9901848,72.9765145 C39.086637,72.8377061 39.2015981,72.8714167 39.3079217,72.8640797 C39.7722905,72.832947 40.2389215,72.9203963 40.7002055,72.7607666 C41.0901272,72.6257258 41.4781981,72.575953 41.8679142,72.5783326 C41.9911015,72.5791258 42.1149057,72.6310798 42.2376817,72.6092671 C42.5761897,72.549976 42.9142864,72.4694671 43.2523831,72.3865787 C43.5882176,72.3042851 43.9219956,72.2188188 44.2586527,72.4064084 C44.4149504,72.4934612 44.5821479,72.4428952 44.7394739,72.3391855 C45.1121206,72.0936929 45.4874409,72.1133243 45.8621441,72.0322205 C46.0396243,71.9939491 46.2175158,71.9166129 46.3933508,71.8099287 C46.4488776,71.7762181 46.5315509,71.7413177 46.5321679,71.3609826 Z M3.61609802,72.864278 C3.56365601,72.8710201 3.5108027,72.936855 3.50710091,73.1995995 C3.50627829,73.2586923 3.51347621,73.3620054 3.52273068,73.3727135 C3.56879739,73.4266505 3.62329594,73.5299636 3.66298734,73.4782079 C3.72365555,73.3992854 3.77465797,73.2079281 3.88324377,72.9249571 C3.75141896,72.8918414 3.68355283,72.8553546 3.61609802,72.864278 Z M36.5725055,69.6393613 C35.8422249,69.7083689 35.1094764,69.3026517 34.3810466,69.8447978 C34.3127692,69.8959586 34.2374995,69.8648259 34.1677825,69.8206055 C33.8833617,69.6399562 33.5999692,69.7674617 33.3153428,69.8168378 C33.0868602,69.8564974 32.8550871,70.0758147 32.6278384,69.6929017 C32.5723115,69.5991068 32.4908722,69.7331561 32.4209495,69.7593314 C32.3148316,69.7991893 32.208508,69.8666105 32.1019787,69.8703782 C31.2984849,69.897545 30.4949911,69.908848 29.6912917,69.9322471 C29.3163828,69.9431535 28.9400342,69.8929841 28.5673875,70.0117645 C28.2469771,70.1134913 27.928829,70.2681635 27.6065677,70.2610248 C27.070631,70.2493252 26.5348999,70.275104 25.9993745,70.2933474 C25.5167024,70.3100044 25.0342359,70.345698 24.5517694,70.3589839 C24.0878119,70.3712784 23.6232375,70.3244801 23.1596912,70.3792103 C22.6796927,70.4363201 22.2001054,70.4930332 21.7213407,70.4022128 C21.4803131,70.3568026 21.2287972,70.8818952 20.9962014,70.2380223 C20.9746077,70.1781363 20.9271014,70.273121 20.8923457,70.2663789 C20.6965622,70.228504 20.5009844,70.1444257 20.3054065,70.14859 C20.110857,70.1525559 19.9148678,70.3222988 19.7217579,70.2772852 C19.3116819,70.1817057 18.9026343,70.2707414 18.4931753,70.280458 C17.9934339,70.2921576 17.4936924,70.3187295 16.9939509,70.3558112 C16.9470616,70.3591822 16.9003779,70.4819285 16.8333344,70.5779047 C16.8831029,71.1850924 16.928964,71.7462752 16.9812003,72.3820178 C17.2302484,72.3915361 17.4797079,72.4077965 17.7291673,72.4091846 C19.479702,72.4214791 21.230648,72.4458697 22.9815941,72.4341701 C23.8747534,72.4284195 24.769558,72.4686739 25.6612778,72.2848519 C26.6959277,72.0714835 27.730372,72.0328154 28.7650219,71.9806631 C29.1043525,71.9634112 29.4436832,71.9221653 29.7828081,71.8668402 C30.3358142,71.7766147 30.8906712,71.5202157 31.4416208,71.5977501 C32.2825437,71.715539 33.1162688,71.286026 33.9557522,71.2749213 C35.1158517,71.2596524 36.2761567,70.9978994 37.4366675,70.8803088 C38.1147118,70.811896 38.7929617,70.8263718 39.4714173,70.787902 C40.043138,70.7553812 40.6154757,70.765891 41.1861681,70.6397736 C42.0416926,70.4503992 42.8959831,70.1587032 43.7508907,69.9092446 C43.8465202,69.8812846 43.9421498,69.8449961 44.0377793,69.8126735 C43.2353138,69.6468966 42.4359331,69.5997017 41.6353185,69.850945 C41.2639057,69.9673458 40.8859119,69.871568 40.5138821,69.7521927 C40.3707463,69.7061876 40.2329575,69.6879442 40.0906443,69.7274055 C39.7015452,69.8350812 39.3128574,70.1156725 38.9245809,69.6570098 C38.8264835,69.5412039 38.7113167,69.6064439 38.6043762,69.6280583 C37.9267432,69.765677 37.2495215,69.5751128 36.5725055,69.6393613 Z M19.0938934,67.5175751 C18.8452566,67.4360747 18.2422763,67.7945971 17.8918403,68.1945637 C18.6589332,68.2857807 19.386129,68.3157236 20.0954329,67.9228958 C19.7614493,67.7856737 19.4282883,67.6276304 19.0938934,67.5175751 Z M1.01818182,66.1314921 C0.980734301,66.3032944 0.950027337,66.6430236 0.885617607,66.703219 C0.709988751,66.8675291 0.520878788,66.9437421 0.335139102,66.9972204 C0.192464061,67.038298 0.02732051,66.6169304 0.00372857412,66.2066718 C-0.0194888866,65.8057137 0.0688872542,65.5494313 0.180855331,65.3675534 C0.261367493,65.2357953 0.354237336,65.1569988 0.442613477,65.0668349 C0.698754495,64.8077106 0.917073521,65.3313845 1.01818182,66.1314921 Z"/>
  </defs>
  <g fill="none" fill-rule="evenodd">
    <path fill="#00253D" d="M32.24876,52.003622 C32.24836,54.1481934 31.96516,55.6000615 31.57076,55.9940835 C31.17556,56.3623912 29.69356,56.5277538 27.48436,56.5277538 C26.37956,56.5269626 25.43996,56.1511385 24.62516,56.0427429 C23.75716,55.9351385 23.41156,55.5965011 23.33276,54.7336879 C23.25396,53.8186549 22.81836,52.7845451 22.81836,51.6084132 C22.81836,50.7859516 23.21916,49.9057319 23.21916,48.9681495 C23.21916,48.1342154 23.24236,47.2543912 23.24236,46.3286769 C23.24236,45.4864352 22.83556,44.606611 22.83556,43.6884132 C22.83556,42.840633 22.96396,41.9600176 22.96396,41.0473582 C22.96396,40.1944352 23.06476,39.3142154 23.06476,38.4051165 C23.06476,37.5494242 22.98436,36.6680176 22.98476,35.7620835 C22.98436,34.8490286 22.82036,33.9703912 22.82036,33.1261714 C22.81996,32.2063912 22.81716,31.3277538 22.81676,30.4906549 C22.81676,29.5617758 23.32436,28.6843253 23.32436,27.8571165 C23.32396,26.9120176 23.12796,26.0337758 23.12796,25.2216 C23.12796,24.2480176 23.10636,23.3701714 23.10636,22.5876659 C23.10636,21.5385231 23.20956,20.6614681 23.20956,19.9557099 C23.20956,18.0204132 23.04796,16.6342154 22.81116,15.8505231 C22.49636,14.6767648 21.64396,14.3689846 20.48716,14.3025231 C20.25036,14.3052923 19.73356,14.1842374 18.91836,14.1680176 C18.26076,14.150611 17.71956,14.0204571 17.29796,13.9741714 C16.19316,13.8863473 15.63076,13.2221275 15.55196,12.1290725 C15.49916,11.2187868 15.35876,10.0541275 15.43796,8.64577582 C15.49036,7.76001758 16.16476,7.25403956 17.11156,6.89641319 C17.24316,6.84181978 17.48076,6.89641319 17.74356,6.81412747 C18.03276,6.70414945 18.08716,6.23535824 18.19236,6.20647912 C19.04276,5.89988571 19.84916,5.66252308 20.55276,5.27008352 C21.33636,4.83294066 22.16356,4.50696264 22.76596,3.96221538 C23.41276,3.37632527 24.00116,2.70498462 24.43876,1.9925011 C24.85236,1.31245714 25.24196,0.759402198 25.87276,0.443314286 C26.48476,0.136720879 27.17516,0.0932043956 27.99156,0.131973626 C28.09676,0.131973626 28.20756,0.00419340659 28.31276,0.00419340659 C29.94356,-0.0195428571 31.08556,0.059578022 31.50636,0.454786813 C31.90116,0.876896703 32.21356,2.01188571 32.21356,3.63307253 C32.21396,4.15922637 31.70236,5.07307253 31.70236,6.37461099 C31.70236,7.1499956 31.98876,8.06305055 31.98876,9.11377582 C31.98876,9.94217143 32.10676,10.8552264 32.10676,11.8545231 C32.10676,12.7062593 32.03556,13.6201055 32.03556,14.5960615 C32.03556,15.4608527 31.72556,16.3743033 31.72556,17.3364132 C31.72556,18.2103033 32.19876,19.1241495 32.19876,20.0783473 C32.19876,20.9581714 31.78836,21.8724132 31.78836,22.8206769 C31.78836,23.705644 32.22396,24.6198857 32.22396,25.5641934 C32.22396,26.4527209 31.83756,27.3677538 31.83756,28.3085011 C31.83756,29.2959297 31.88316,30.2833582 31.88316,31.2703912 C31.88316,32.2578198 32.17596,33.2448527 32.17596,34.2322813 C32.17596,35.2193143 32.05676,36.2067429 32.05676,37.1937758 C32.05676,38.1816 31.95356,39.1690286 31.95356,40.1560615 C31.95356,41.1434901 32.06596,42.1305231 32.06596,43.1179516 C32.06596,44.1049846 32.20756,45.0924132 32.20756,46.0794462 C32.20756,47.0668747 31.99156,48.0543033 31.99156,49.0417319 C31.99156,50.0287648 32.24876,51.0161934 32.24876,52.003622"/>
    <use fill="#C7CED3" xlink:href="#title-number-1-a"/>
  </g>
</svg>
