<svg xmlns="http://www.w3.org/2000/svg" viewBox="0 0 232 8" preserveAspectRatio="none">
  <path fill="#D5ECBF" fill-rule="evenodd" d="M227.481451,2.03966154 C227.656149,2.27689231 227.931475,2.48827692 227.531065,2.73196923 C227.428342,2.79443077 227.532463,2.97412308 227.675017,3.05412308 C228.236848,3.37104615 229.005523,3.56366154 229.883908,3.66458462 C230.466704,3.73166154 231.059282,3.78335385 231.707764,3.84796923 C231.639282,3.95596923 231.645571,4.06550769 231.526077,4.11227692 C231.036222,4.30396923 230.296198,4.36704615 230.095643,4.71227692 C230.052318,4.78643077 229.659595,4.85043077 229.409427,4.86704615 C228.604414,4.92089231 227.789619,4.94673846 226.981812,4.99104615 C226.525499,5.01596923 226.028655,4.93535385 225.557667,5.10581538 C226.539475,5.29935385 227.645667,5.09412308 228.504487,5.31781538 C229.014607,5.52766154 228.561788,5.73750769 228.562487,5.93166154 C228.563186,6.14673846 228.211692,6.36396923 227.994366,6.57627692 C227.941957,6.62735385 227.828752,6.68704615 227.715547,6.70212308 C227.004173,6.79566154 226.292101,6.89289231 225.565354,6.95658462 C225.172631,6.99135385 224.750559,6.95750769 224.341764,6.96150769 C223.733812,6.96766154 223.084631,6.93812308 222.78974,7.26150769 C221.765306,7.51750769 220.650029,7.67596923 219.48933,7.68212308 C216.15468,7.70058462 212.817234,7.76243077 209.487475,7.58827692 C208.409234,7.53196923 207.310029,7.55781538 206.221306,7.53412308 C205.407908,7.51658462 204.596607,7.47966154 203.784607,7.45135385 C203.585451,7.44427692 203.375113,7.41504615 203.187836,7.43227692 C201.025764,7.6332 198.840631,7.51258462 196.670173,7.50889231 C191.902993,7.50089231 187.147692,7.34027692 182.387499,7.23843077 C180.144366,7.19012308 177.896342,7.17596923 175.650414,7.16766154 C172.926511,7.15750769 170.206101,7.13627692 167.482198,7.08212308 C164.085354,7.01443077 160.678728,7.02704615 157.276294,7.02396923 C155.779475,7.02243077 154.282655,7.07935385 152.785836,7.08735385 C151.630029,7.09350769 150.473523,7.0612 149.317716,7.05196923 C145.843306,7.02396923 142.368896,6.99227692 138.894487,6.97443077 C133.854776,6.94889231 128.814366,6.93658462 123.773957,6.91412308 C121.391065,6.90335385 119.008872,6.87966154 116.625981,6.86643077 C116.082318,6.86335385 115.531667,6.85750769 114.995692,6.88889231 C113.164149,6.99596923 111.324222,6.97443077 109.487089,6.97873846 C105.467619,6.98796923 101.447451,6.9852 97.4272819,6.97812308 C96.0646313,6.97566154 94.6984867,6.9692 93.3421253,6.92273846 C90.4833542,6.82489231 87.6224867,6.85443077 84.7616193,6.85135385 C84.6253542,6.85104615 84.4869928,6.84335385 84.3528241,6.85104615 C79.9392337,7.10489231 75.5116675,6.95750769 71.0889928,6.93996923 C69.7277398,6.93443077 68.3664867,6.89689231 67.0052337,6.87843077 C66.5978361,6.87289231 66.1862458,6.86950769 65.7809446,6.88550769 C62.6545349,7.00766154 59.519041,6.98243077 56.387041,7.00858462 C55.7741976,7.01381538 55.1557639,6.99504615 54.547812,7.02181538 C51.2124627,7.16796923 47.8764145,7.09104615 44.5410651,7.04304615 C43.0421494,7.02150769 41.5516193,7.0252 40.0534024,7.10150769 C38.771812,7.16643077 37.468559,7.14766154 36.175788,7.17196923 C32.2988723,7.24550769 28.4282458,7.3932 24.5422458,7.36858462 C22.7030169,7.35689231 20.8630892,7.3612 19.0238602,7.35166154 C16.1581012,7.33658462 13.3140048,7.19996923 10.4720048,7.05104615 C9.39236627,6.99473846 8.32041446,6.90858462 7.24007711,6.85504615 C5.46024578,6.76673846 3.81039036,6.47904615 2.13887229,6.22489231 C1.77340241,6.1692 1.34294458,6.10458462 1.48759518,5.85227692 C1.50436627,5.82273846 1.35133012,5.74550769 1.25559518,5.73689231 C0.709836145,5.68766154 0.55819759,5.45473846 0.270992771,5.30335385 C0.0669445783,5.19473846 -0.148284337,4.98673846 0.139619277,4.81843077 C0.340872289,4.70089231 0.230462651,4.60366154 0.185739759,4.48612308 C0.0795228916,4.20643077 0.309426506,4.09104615 0.899209639,4.10366154 C1.16894458,4.1092 1.46383614,4.10150769 1.70002892,4.14704615 C2.67065542,4.33381538 3.54694458,4.21473846 4.45398072,4.04550769 C5.83200482,3.78827692 7.22190843,3.53996923 8.63557108,3.32550769 C10.0478361,3.11104615 11.4831614,2.91996923 12.9310651,2.75935385 C15.5075229,2.47412308 18.1196193,2.26643077 20.7401012,2.06735385 C24.4325349,1.78673846 28.1710892,1.68643077 31.8740048,1.44766154 C33.8893301,1.31781538 35.9409928,1.29935385 37.9765831,1.22889231 C38.7899807,1.20089231 39.6019807,1.15812308 40.4160771,1.13996923 C43.333547,1.07473846 46.2510169,1.01566154 49.1684867,0.959353846 C49.5032096,0.952892308 49.8407277,0.986123077 50.1768482,0.986123077 C50.9909446,0.986430769 51.8057398,0.984276923 52.6191373,0.970738462 C53.0936193,0.963046154 53.5701976,0.902430769 54.039788,0.914738462 C56.5624386,0.980892308 59.0704145,0.818123077 61.5902699,0.834430769 C62.6070169,0.840892308 63.6244627,0.752892308 64.6440048,0.727046154 C67.9080771,0.643661538 71.1805349,0.607046154 74.4355229,0.482123077 C79.3284867,0.294123077 84.2340289,0.3292 89.1332819,0.263353846 C91.7167277,0.228584615 94.3078602,0.3012 96.8948,0.292584615 C100.091788,0.282123077 103.288077,0.236584615 106.485764,0.208276923 C107.232077,0.201815385 107.979788,0.211661538 108.7268,0.2012 C112.737186,0.146738462 116.746872,0.0876615385 120.757258,0.0319692308 C122.254077,0.0110461538 123.752294,-0.0464923077 125.242125,0.0759692308 C125.441981,0.0922769231 125.648824,0.0990461538 125.852173,0.0981230769 C130.823402,0.0741230769 135.792535,0.159046154 140.764463,0.1412 C147.713981,0.116584615 154.663499,0.108892308 161.613017,0.121507692 C164.402607,0.126430769 167.199186,0.0993538462 169.981788,0.235046154 C170.048872,0.238430769 170.118752,0.241507692 170.185836,0.238123077 C171.681258,0.158123077 173.169692,0.256584615 174.661619,0.269815385 C177.522487,0.295046154 180.384752,0.291969231 183.245619,0.320584615 C186.173571,0.349507692 189.100125,0.403353846 192.02668,0.444892308 C193.388631,0.464584615 194.750583,0.484892308 196.112535,0.498123077 C201.968439,0.554430769 207.823643,0.608584615 213.678848,0.662430769 C214.494342,0.669815385 215.294463,0.690430769 216.107161,0.765507692 C217.030969,0.850738462 218.005788,0.872892308 218.952655,0.856276923 C220.754149,0.824584615 222.450125,1.06212308 224.185234,1.19781538 C224.852583,1.25012308 225.461234,1.38550769 225.997908,1.58950769 C226.457017,1.76366154 226.998583,1.89535385 227.481451,2.03966154"/>
</svg>
