<?xml version="1.0" encoding="UTF-8"?>
<svg width="682px" height="114px" viewBox="0 0 682 114" version="1.1" xmlns="http://www.w3.org/2000/svg" xmlns:xlink="http://www.w3.org/1999/xlink">
    <!-- Generator: Sketch 52.5 (67469) - http://www.bohemiancoding.com/sketch -->
    <title>Fill 1</title>
    <desc>Created with Sketch.</desc>
    <g id="Respeitar" stroke="none" stroke-width="1" fill="none" fill-rule="evenodd">
        <g id="Cuidar-Copy" transform="translate(-379.000000, -727.000000)" fill="#FCFCFC">
            <g id="Hero" transform="translate(0.000000, 200.000000)">
                <g id="intro" transform="translate(378.000000, 522.000000)">
                    <g id="background-title-cuidar" transform="translate(1.000000, 0.000000)">
                        <path d="M631.408322,108.212662 C631.028624,108.613897 629.80084,108.613897 629.421141,108.212662 L629.421141,107.366221 C630.116793,106.761621 631.521954,107.160107 631.408322,108.212662 M653.838246,104.55208 C656.144152,104.711475 659.253799,104.062903 660.085255,105.678836 C658.649607,105.731051 654.553298,106.140531 653.838246,104.55208 M652.984617,104.271765 C646.79581,105.698073 639.459592,103.436317 633.68097,102.581631 C636.610468,102.086958 644.018745,102.653084 647.591236,103.99145 C648.796848,103.623194 651.512939,103.483036 652.984617,104.271765 M583.995903,102.581631 C583.574632,103.029586 582.382877,102.993859 582.579655,102.018254 C583.000927,101.573048 584.198224,101.608774 583.995903,102.581631 M622.326046,101.457624 C620.02014,101.300977 616.979781,101.875348 615.510874,100.894246 C617.376108,99.8994031 621.07609,100.105517 622.326046,101.457624 M614.374551,100.894246 C605.616543,100.844779 596.370747,100.663398 587.68757,100.32812 C593.904092,98.8138701 604.383215,99.6025992 611.253817,100.32812 C611.858009,100.003834 614.582415,99.5229018 614.374551,100.894246 M584.28137,100.047805 C583.682721,100.484766 582.064152,101.012418 582.011494,99.7647421 C582.876208,99.3525144 583.488714,99.6877929 584.28137,100.047805 M525.225789,100.32812 C524.410961,100.29789 523.371641,100.482018 522.955912,100.047805 L522.955912,99.2041124 C523.792912,98.5830226 525.35605,99.1161705 525.225789,100.32812 M530.904636,97.5139787 C531.159616,98.797381 528.756707,98.5500444 528.920227,97.5139787 C529.72674,97.219923 530.103666,97.219923 530.904636,97.5139787 M493.142655,95.8238451 C492.66041,96.9038817 490.321246,95.8650679 489.173836,95.8238451 C489.780799,94.6256365 492.289026,95.4995593 493.142655,95.8238451 M475.546265,94.4167745 C474.897729,95.5242929 472.505906,94.2518834 470.718274,94.6998375 L470.718274,93.8533966 C471.987631,93.3477306 473.949868,94.3343289 475.546265,94.4167745 M120.090312,42.6189876 C117.859237,43.6165787 117.404707,41.6268929 120.090312,42.6189876 M203.560226,31.9203043 C203.463223,32.838198 201.229377,32.5661277 200.722188,32.2006191 C201.110201,31.3624227 202.778657,31.6152557 203.560226,31.9203043 M207.534588,27.4160294 C202.65671,30.0075676 196.199065,27.8310053 190.783512,28.5427852 C187.987047,28.9110419 183.519354,29.3644924 180.279445,28.8258482 C189.109513,27.8832208 197.773289,27.1439591 207.534588,27.4160294 M214.632455,26.8526515 C214.310958,28.1580393 211.533894,27.8007753 210.658093,27.6990924 C211.062735,26.503632 213.097032,26.9268525 214.632455,26.8526515 M227.406398,22.9117545 C226.28116,22.8073235 224.687535,23.1728321 224.000198,22.6286915 C224.454727,22.07081 227.470143,21.4139938 227.406398,22.9117545 M679.106208,72.1784632 C681.215336,68.7789586 678.848456,65.2228075 679.106208,61.482528 C679.230926,59.6714742 680.478111,58.1819581 680.807922,56.4121271 C681.456458,52.9768961 680.306277,49.7862536 679.67437,46.2768216 C679.643883,45.405647 680.5668,45.4743516 680.242532,44.3091213 C678.754225,42.7261668 678.211006,40.3517352 676.836332,38.6753425 C674.414022,35.7292884 668.887608,31.5712848 664.342313,30.2329188 C663.006439,29.8371802 661.157834,30.1010059 659.799789,29.6695409 C658.826985,29.358996 658.427886,28.688439 657.529913,28.5427852 C656.338158,28.347664 654.852623,28.7708845 653.555551,28.5427852 C652.707465,28.3943832 652.039528,27.7842862 651.282903,27.6990924 C648.724789,27.4077848 646.05027,28.0013928 643.334179,27.9794073 C639.185211,27.9464291 635.113846,26.6905086 630.842932,26.0089588 C622.924695,24.7447938 610.674569,24.2034014 603.867712,24.3215733 C594.707834,23.1783285 585.603385,23.7169727 576.61257,23.4778806 C563.819226,23.1316093 551.49427,21.2051318 539.706989,22.0680618 C531.960586,20.4741146 523.970289,21.1474199 516.143512,20.6609912 C513.787719,20.5125892 511.697992,20.3476981 509.328341,20.3779282 C503.29751,20.4521291 495.994551,19.6414146 490.307389,18.9708575 C483.176264,18.129913 475.299599,17.8386054 467.877465,17.2834721 C462.096071,16.8492589 456.289733,17.4923341 451.414627,16.7200942 C450.538826,16.5799368 449.732313,15.9396097 448.856512,15.8736533 C447.016222,15.7362441 445.001326,16.4425275 443.177665,16.4370312 C440.431087,16.4260384 437.451701,16.4068011 434.660779,16.1539681 C416.382594,14.5187982 397.705311,12.999052 379.016941,12.2158193 C361.977626,11.4985431 345.650593,10.5806494 328.19555,9.39892994 C325.573691,9.22029793 323.087636,8.16774315 320.529522,7.99185933 C318.827807,7.87643557 317.103921,8.46179893 315.418836,8.27217418 C305.186378,7.13717386 294.660139,5.81529698 284.189331,6.02141084 C275.198515,6.19729466 264.78868,7.51917154 256.934188,6.58478872 C248.821945,9.07739232 236.311296,9.1708306 226.838236,10.2453709 C227.079358,11.7898507 230.330353,10.3498019 230.244436,12.2158193 C228.711784,12.6885071 227.722351,12.7434708 225.987379,12.4961342 C224.765138,14.2852025 220.979239,13.5376962 219.743141,15.3102754 C220.485908,15.9780843 222.719755,15.1728662 222.581179,16.7200942 C216.129076,17.6792107 208.645968,17.7808935 201.004883,18.1271648 C190.819542,18.5833635 179.755628,19.141245 172.330721,18.9708575 C170.304739,20.0563905 166.430152,19.3143806 163.528369,19.5342354 C166.247232,21.7162941 173.710939,19.1934605 176.873245,20.941306 C176.88156,21.7932433 175.44314,21.2133763 175.451455,22.0680618 C180.232329,22.2521902 188.84899,23.7581954 194.192483,21.5046839 C202.243754,22.249442 213.626392,20.8313786 222.863874,22.6286915 C221.602832,23.1618393 219.90666,23.260774 218.041426,23.1920694 C216.794242,23.8269001 215.355822,24.3105806 213.778826,24.3215733 C202.689968,24.3930261 185.029833,25.3658835 174.317902,26.0089588 C172.192145,26.1381235 169.270962,25.2284743 169.204445,28.5427852 C172.666076,29.507398 176.654295,27.5067195 179.711283,29.106163 C171.219341,29.9635967 164.783868,31.1068416 155.576874,31.0766115 C160.864937,34.0061765 169.789236,32.6348323 175.736921,33.6104379 C169.586915,34.9433075 161.862685,34.3496996 154.160626,34.7371937 C153.703325,34.786661 154.62347,36.0728115 153.306998,35.8612012 C139.177781,36.4465646 122.310301,34.6245181 109.86894,35.5808864 C112.823382,36.8752814 117.28276,36.6746639 120.658474,37.5513349 C120.095855,38.0817345 120.519898,38.8787081 120.658474,39.5217834 C105.143496,40.3297497 89.8640978,37.894858 74.9505404,36.704894 C73.4400611,37.8371461 70.2888411,37.3397247 69.2716927,38.9584055 C83.8914689,40.4726553 102.701786,38.1284537 116.398645,42.3359246 C99.600453,42.3386728 82.2091553,39.054592 66.4336546,40.3682243 C63.7064774,40.5935754 60.9598996,41.8907187 57.9139974,41.4922319 C57.800365,43.8281889 54.3581353,43.6962761 52.2379213,43.1823655 C53.0527486,45.0923539 56.9966238,43.9051381 58.1966926,45.435877 C54.9207541,47.3898364 49.4858004,47.5849575 44.8545879,47.6866404 C42.5375959,47.7361077 39.6524419,46.4554536 38.0421879,48.2472701 C40.8053949,47.3513618 41.7726559,50.2369559 42.0137783,51.6275374 C38.7904987,51.5533364 36.6203974,52.886206 33.2141974,53.034608 C32.4353998,53.8892934 33.9597367,54.1668601 33.4968926,55.5684343 C30.9387782,56.129064 29.3368387,57.6350693 25.8336355,57.258568 C24.3675006,60.1221765 20.4125394,60.5179151 20.7229498,65.140362 C18.3366697,65.6817544 16.5434953,66.8167547 13.6250831,66.8277474 C12.0952032,68.9740797 10.2798566,70.8291045 7.94623544,72.1784632 C6.44129924,78.0018668 6.04220013,84.9327888 1.98469259,88.2251142 C1.10889178,91.5559141 0.174889018,95.6507094 2.26738779,98.3604196 C10.1163368,103.004852 20.171417,102.199634 30.0906926,102.018254 C36.251785,101.908326 41.459474,103.205469 47.1272355,103.708387 C52.5594178,104.18932 57.9417126,103.697394 63.5956166,103.708387 C66.4669129,103.713884 69.4795568,104.557576 72.392426,104.55208 C79.6510409,104.543835 87.4556456,104.148097 95.1050451,104.835143 C97.8377653,105.079731 100.54277,106.022359 103.342007,106.242214 C108.458236,106.646197 113.810044,106.932008 118.953988,107.085906 C121.811427,107.173848 124.632836,106.475809 127.473645,106.525277 C131.079395,106.582989 135.283793,107.377214 139.114036,107.366221 C146.416995,107.35248 153.999878,106.791851 160.975798,107.366221 C170.584663,108.160447 179.506191,106.27794 188.228169,107.085906 C196.315469,104.64277 207.077287,106.621463 216.051474,105.398521 C221.935414,104.596051 228.872533,105.093472 235.072426,105.115458 C243.345418,105.148436 251.596238,103.480288 259.772226,102.861946 C261.296563,102.749271 262.831986,103.208218 264.31475,103.145009 C267.488142,103.013096 270.506329,102.029246 273.685264,101.737939 C279.405685,101.215784 285.372771,101.589537 291.004503,101.737939 C296.763724,101.886341 303.581667,102.666825 308.323741,102.018254 C311.763199,101.551062 315.878908,103.131268 319.678664,103.425324 C336.454684,104.719719 351.609364,106.811088 368.795569,107.085906 C369.568824,106.918267 369.230698,105.640361 370.211817,105.678836 C370.793836,106.508788 371.20125,107.511875 373.049855,107.085906 C373.983858,106.882541 373.36858,105.145688 374.474417,105.115458 C379.030798,104.620785 384.568298,104.571317 390.371865,104.835143 C392.339645,102.724537 396.494156,104.505361 399.171446,102.301317 C409.994237,103.221959 423.3696,104.090385 434.943474,104.271765 C435.749987,104.321232 434.602577,102.430481 435.797103,102.861946 C452.711699,103.043327 473.747547,104.065651 490.878322,104.835143 C491.377196,103.826559 493.053966,103.99145 493.428122,102.861946 C491.615547,102.411244 488.974287,102.774004 488.602903,100.894246 C492.308427,99.778483 495.401445,101.688471 498.541579,101.174561 C499.830337,100.962951 500.828084,99.7125266 502.233246,99.4844272 C504.048592,99.1903715 505.448211,100.366595 507.061236,99.2041124 C505.376151,99.9433741 505.01031,97.978422 503.649493,97.5139787 C500.58419,96.4669203 496.418594,97.7778045 493.999055,95.8238451 C502.551971,95.2852009 512.219038,97.0440391 520.686036,97.2336639 C522.554042,97.2776348 524.566166,96.3624893 526.082189,97.7942936 C524.441448,99.8059648 520.716523,96.9643418 518.698855,98.9237975 C520.785811,98.4181315 521.780787,99.9955896 522.390522,101.174561 C525.622116,101.625263 530.768832,99.8994031 532.611893,102.861946 C535.275326,103.065312 537.423255,102.754767 538.85336,101.737939 C542.594914,104.865373 547.373017,100.693629 551.915541,102.018254 C553.20707,101.639004 551.214346,101.012418 552.201008,100.32812 C553.755831,100.100021 553.46205,101.704961 554.188189,102.301317 C556.81282,104.013436 561.072648,104.101378 565.543112,103.99145 C566.518688,103.642431 566.305281,102.11444 568.098455,102.581631 C568.153886,101.306474 565.459967,102.757515 566.108503,100.894246 C568.688789,100.32812 571.368851,102.169404 573.209141,100.611183 C560.609804,98.8770784 544.623668,99.2151051 532.038188,97.7942936 C538.953135,96.774717 547.810918,98.2532404 554.188189,97.5139787 C562.336462,99.3854926 572.247423,97.9894147 580.589703,100.047805 C580.489928,100.982188 578.951734,100.487515 578.037132,100.611183 C579.652929,101.397164 579.589184,102.224367 579.453379,103.708387 C582.507596,104.527346 586.118888,104.791172 589.106589,105.678836 C589.987933,106.434587 588.363821,106.74788 589.106589,107.366221 C591.573243,107.223316 593.003348,107.783945 595.070903,107.366221 C595.090304,106.470313 593.172411,106.745131 594.217274,105.678836 C596.426177,104.557576 598.751484,105.269356 600.746979,105.398521 C605.292274,105.692577 610.497192,104.989041 615.225408,105.398521 C616.977009,105.546923 618.750783,106.42909 620.338865,106.525277 C624.102591,106.74788 627.148493,106.24771 628.002122,109.059103 C629.825783,109.45759 631.984799,110.216089 633.966436,109.619733 C634.279618,108.446258 631.862852,108.536948 632.832884,107.649284 C642.785418,107.811427 655.007828,111.647893 664.342313,108.495725 C663.638346,107.223316 662.357903,106.51978 661.501503,105.398521 C664.419915,105.349054 668.890379,105.360046 671.725646,106.242214 C672.958973,104.79392 669.816068,104.417419 670.872017,103.145009 C672.116431,103.345627 672.806539,102.999356 673.147437,102.301317 C673.430132,100.32812 671.609242,100.446292 671.725646,98.6407345 L673.147437,98.6407345 C673.358072,97.1127438 671.614785,97.533216 672.00557,95.8238451 C673.291556,95.689184 673.942863,94.9279368 675.131846,94.6998375 C675.835812,91.2178874 671.980626,90.27526 673.147437,86.5349805 C674.081439,86.08153 675.151247,87.5160825 675.131846,86.2546657 C675.079187,84.5205611 673.577022,84.2265053 673.430132,82.5968317 C674.22833,81.9400155 675.203906,82.9183693 676.550865,82.5968317 C676.076935,79.0159469 679.541337,75.4268176 677.404494,72.458778 C678.105689,72.4945044 678.773625,72.502749 679.106208,72.1784632 M159.839474,19.5342354 C157.084581,19.7266084 155.208261,19.0587995 152.45614,19.2539206 C151.278244,19.9354704 158.026899,20.5043447 159.839474,19.5342354 M630.27477,111.309866 C634.487482,111.922712 637.439153,112.219516 641.629694,113 C639.387533,111.24391 632.977003,110.746488 630.27477,111.309866 M621.755112,110.463425 C624.185737,110.405714 627.062576,111.389564 629.141217,110.746488 C626.680106,110.930617 623.542744,109.100326 621.755112,110.463425 M602.73416,109.059103 C602.146598,109.223994 600.868926,108.710084 600.746979,109.339418 C601.129449,109.721416 602.728617,109.875314 602.73416,109.059103 M593.363646,109.339418 C595.090304,109.531791 598.948262,110.205096 600.176046,109.059103 C597.947742,108.682602 595.445058,108.825507 593.363646,109.339418 M621.189722,108.495725 C622.727917,108.734817 624.116449,109.377892 625.732246,108.77604 C625.419064,107.594321 621.414215,107.157359 621.189722,108.495725 M576.332646,100.611183 C575.562163,100.784319 574.076627,100.253919 573.774531,100.894246 C574.093256,101.474113 576.487851,102.02375 576.332646,100.611183 M102.488378,34.7371937 C101.765011,34.3167214 99.7140854,33.7478471 98.7967118,34.4541306 C99.7556582,34.6410072 101.457372,35.5561527 102.488378,34.7371937 M91.9843118,34.1738158 C92.6577915,34.3744333 94.6172573,34.9185739 94.8251214,33.8907528 C94.2043005,33.4208132 92.2642355,33.4400504 91.9843118,34.1738158 M91.4133784,33.8907528 C85.1829979,34.4129079 78.2708232,34.5393244 72.392426,33.6104379 C76.3113574,31.8241178 82.6636848,33.1267574 87.4390165,33.3301231 C88.9384096,33.3905831 90.5126338,32.6073505 91.4133784,33.8907528" id="Fill-1" transform="translate(341.000000, 59.500000) rotate(1.000000) translate(-341.000000, -59.500000) "></path>
                    </g>
                </g>
            </g>
        </g>
    </g>
</svg>