<svg xmlns="http://www.w3.org/2000/svg" preserveAspectRatio="none" viewBox="0 0 355 3">
  <path fill="#00253D" fill-rule="evenodd" d="M348.526007,134.793711 C348.789483,134.885986 349.222338,134.968008 348.601286,135.06308 C348.450728,135.087314 348.601286,135.157219 348.827123,135.18891 C349.692831,135.311943 350.859656,135.387441 352.214677,135.426588 C353.099206,135.452686 354.021373,135.47226 355,135.497426 C354.905901,135.539369 354.905901,135.582244 354.736524,135.600886 C353.983734,135.675451 352.835729,135.699685 352.534613,135.833904 C352.459334,135.862798 351.857102,135.887964 351.480707,135.894488 C350.257424,135.914994 348.996501,135.925247 347.754397,135.942024 C347.058067,135.952277 346.305277,135.920587 345.590126,135.986764 C347.076886,136.062262 348.789483,135.982103 350.088046,136.069718 C350.878475,136.151741 350.182145,136.232831 350.182145,136.308329 C350.182145,136.392215 349.655192,136.477034 349.316436,136.559988 C349.241157,136.579562 349.05296,136.602864 348.883582,136.608456 C347.792037,136.644807 346.700492,136.683022 345.590126,136.707256 C344.987895,136.721237 344.348023,136.708188 343.726971,136.70912 C342.785984,136.711916 341.788538,136.699799 341.336864,136.826561 C339.774825,136.926293 338.062228,136.98781 336.293171,136.989674 C331.1742,136.99713 326.055229,137.021364 320.955078,136.953323 C319.29894,136.930953 317.623982,136.941206 315.967845,136.931885 C314.706921,136.925361 313.464818,136.91138 312.222715,136.900195 C311.921599,136.897398 311.601663,136.886214 311.300547,136.892738 C307.988272,136.971032 304.638357,136.924429 301.326081,136.922564 C294.024019,136.919768 286.740777,136.856387 279.438715,136.81724 C275.994702,136.798599 272.550688,136.793006 269.125494,136.79021 C264.94751,136.78555 260.769526,136.777161 256.610362,136.755723 C251.397292,136.730558 246.184222,136.735218 240.971152,136.734286 C238.675143,136.733354 236.379134,136.754791 234.083125,136.75852 C232.314069,136.760384 230.545013,136.748267 228.775956,136.744539 C223.449968,136.734286 218.123979,136.721237 212.797991,136.714712 C205.081895,136.704459 197.365798,136.699799 189.630882,136.69141 C185.979851,136.68675 182.32882,136.677429 178.696609,136.672769 C177.849721,136.671837 177.002832,136.669041 176.193583,136.681158 C173.370621,136.723101 170.566479,136.714712 167.743516,136.716576 C161.589459,136.719373 155.435402,136.718441 149.281345,136.716576 C147.173533,136.715644 145.084541,136.712848 143.014369,136.694207 C138.629368,136.656924 134.244367,136.668109 129.859366,136.666245 C129.652348,136.666245 129.445331,136.663448 129.238314,136.666245 C122.482025,136.765044 115.688096,136.708188 108.912987,136.700731 C106.823995,136.698867 104.735003,136.683954 102.664831,136.677429 C102.02496,136.674633 101.403908,136.673701 100.782856,136.679294 C96.0026406,136.727761 91.1847853,136.717508 86.3857498,136.727761 C85.4447625,136.729625 84.5037751,136.722169 83.5627878,136.733354 C78.4626363,136.79021 73.3436651,136.759452 68.2435136,136.74081 C65.9475045,136.733354 63.6514953,136.734286 61.3743059,136.764112 C59.3982325,136.789278 57.4033393,136.781821 55.4272659,136.791142 C49.4802258,136.820036 43.5520054,136.877825 37.6049654,136.868504 C34.7820033,136.863844 31.9590412,136.864776 29.1360792,136.861048 C24.7510781,136.855455 20.3848968,136.802327 16.0375352,136.744539 C14.4002172,136.722169 12.7440795,136.688614 11.0879417,136.668109 C8.35907839,136.633622 5.83723228,136.521773 3.27774667,136.422974 C2.71315426,136.401536 2.05446311,136.37637 2.28030008,136.27757 C2.29911983,136.266385 2.07328286,136.236559 1.92272488,136.232831 C1.09465601,136.213257 0.849999301,136.122846 0.417145118,136.064126 C0.0972094171,136.022182 -0.222726283,135.941092 0.2101279,135.875847 C0.511243853,135.829243 0.360685876,135.791961 0.285406888,135.746289 C0.116029164,135.637236 0.473604359,135.592497 1.37695222,135.597157 C1.79098666,135.599022 2.24266059,135.596225 2.60023578,135.613935 C4.0869958,135.686636 5.44201759,135.640033 6.81585913,135.574788 C8.94249055,135.474124 11.069122,135.377188 13.2333929,135.294234 C15.3976638,135.211279 17.5995742,135.136714 19.8203044,135.074265 C23.7536315,134.963348 27.7622376,134.882258 31.7708438,134.804896 C37.4355876,134.695843 43.1567908,134.656696 48.8403544,134.563489 C51.9267929,134.513157 55.0696907,134.505701 58.1749489,134.47867 C59.435872,134.467486 60.6779753,134.450708 61.9200786,134.444184 C66.3803587,134.418086 70.8594585,134.395716 75.3197385,134.373346 C75.8466914,134.37055 76.3548246,134.383599 76.8629578,134.383599 C78.1238808,134.384531 79.3659842,134.383599 80.6269072,134.378007 C81.3420576,134.37521 82.0760277,134.350976 82.7911781,134.355637 C86.6492263,134.381735 90.5072744,134.318354 94.3653226,134.324878 C95.9273616,134.327675 97.4894006,134.293188 99.0514396,134.282935 C104.038673,134.250313 109.044725,134.236332 114.050778,134.187864 C121.541037,134.11423 129.050116,134.128211 136.559196,134.102113 C140.511342,134.089064 144.482309,134.117026 148.453276,134.11423 C153.34641,134.10957 158.258364,134.09186 163.151498,134.080675 C164.280683,134.078811 165.428688,134.08254 166.576692,134.077879 C172.730749,134.057374 178.865987,134.034072 185.020044,134.012634 C187.316053,134.004246 189.612063,133.981876 191.889252,134.029411 C192.190368,134.035936 192.510304,134.038732 192.830239,134.0378 C200.433417,134.028479 208.055415,134.062034 215.658593,134.055509 C226.310569,134.045257 236.962546,134.04246 247.614523,134.047121 C251.886606,134.048985 256.177508,134.038732 260.430771,134.09186 C260.543689,134.092792 260.637788,134.094657 260.731887,134.092792 C263.046716,134.061102 265.323905,134.100249 267.601095,134.104909 C271.986096,134.11423 276.371097,134.11423 280.756098,134.124483 C285.235198,134.135668 289.714297,134.157105 294.212217,134.172951 C296.301209,134.180407 298.371381,134.188796 300.460373,134.193456 C309.437392,134.215826 318.414412,134.236332 327.372611,134.257769 C328.633534,134.260565 329.856818,134.268954 331.098921,134.297848 C332.510402,134.331403 334.015982,134.339792 335.465103,134.333267 C338.231605,134.32115 340.82873,134.413425 343.482315,134.465621 C344.498581,134.486127 345.439568,134.539255 346.248818,134.618481 C346.963968,134.686523 347.792037,134.737787 348.526007,134.793711" opacity=".1" transform="translate(0 -134)"/>
</svg>
