<svg xmlns="http://www.w3.org/2000/svg" width="220" height="220" viewBox="0 0 220 220">
  <g fill="#FDFDFD" fill-rule="evenodd" transform="translate(-38 -38)">
    <path d="M287.307632,185.611115 C287.322628,185.550121 287.591352,185.559979 287.744308,185.535951 C287.744308,185.751586 287.782697,185.980776 287.723914,186.175464 C287.70292,186.2457 287.449792,186.23461 287.303433,186.25987 C287.297435,186.041154 287.257846,185.813813 287.307632,185.611115 L287.307632,185.611115 Z M273.549342,106.641083 L273.581133,106.000338 L273.971622,106.506157 L273.549342,106.641083 Z M277.534009,144.944725 L277.087736,145.151119 L277.121327,144.703213 L277.534009,144.944725 Z M179.979531,24.2486076 L179.544055,23.8549188 L180.115693,23.764968 L179.979531,24.2486076 Z M197.621718,32.1125262 C197.064476,31.8451382 197.045282,31.5592671 197.571332,31.4095544 C197.659507,31.3842943 197.843655,31.6615399 197.982216,31.7989305 C197.858651,31.9092127 197.681701,32.1414829 197.621718,32.1125262 L197.621718,32.1125262 Z M138.488122,292.880534 C139.039365,293.33953 138.945192,293.721513 138.257787,293.803454 C138.059244,293.826866 137.731737,293.618008 137.61537,293.438106 C137.532594,293.308725 137.702345,293.049346 137.758729,292.847881 C138.007659,292.85281 138.348962,292.764091 138.488122,292.880534 L138.488122,292.880534 Z M157.342564,293.382041 C157.434938,293.204603 157.482324,292.945225 157.633481,292.874373 C157.758846,292.815227 158.007175,292.977262 158.20212,293.04072 L157.914802,293.576113 L157.342564,293.382041 Z M185.566344,289.291743 C185.884253,288.997863 186.17757,288.673794 186.532669,288.43105 C186.615446,288.373752 187.100108,288.64114 187.088711,288.673794 C186.939354,289.061321 186.728814,289.433447 186.53087,289.812965 C186.207562,289.637992 185.886653,289.464868 185.566344,289.291743 L185.566344,289.291743 Z M61.6901456,253.588666 L61.2216787,253.390897 L61.3236497,253.092088 L61.6901456,253.588666 Z M282.224077,146.714784 C282.28466,146.827531 282.149698,147.077668 282.101711,147.266811 C281.962551,147.007432 281.823391,146.748054 281.633245,146.393179 C281.910966,146.53057 282.145499,146.568152 282.224077,146.714784 L282.224077,146.714784 Z M177.399065,290.506079 C177.632998,290.499302 177.862133,290.681052 178.094867,290.776548 C177.87173,291.113555 177.725972,291.576247 177.401464,291.757997 C176.953391,292.009367 176.357761,292.162776 175.850905,292.144293 C175.401632,292.128274 174.98835,291.820224 174.562471,291.640322 L175.802918,290.694606 C176.334967,290.626835 176.868216,290.52025 177.399065,290.506079 L177.399065,290.506079 Z M191.869953,30.0750788 C191.284519,29.7633314 190.838246,29.1675614 190.328391,28.6876184 C190.520336,28.5514599 190.748271,28.2643567 190.897629,28.3074838 C191.583834,28.5046362 192.263441,28.7627827 192.910057,29.0763784 C193.064813,29.1503105 193.081008,29.5187392 193.160786,29.7510094 C192.719311,29.876078 192.163869,30.2315685 191.869953,30.0750788 L191.869953,30.0750788 Z M248.250931,200.196084 C248.307315,200.697591 248.493862,201.247769 248.372096,201.695675 C248.293519,202.012351 247.76027,202.168225 247.429164,202.390638 C247.462755,201.979698 247.500544,201.572455 247.508342,201.15289 L248.250931,200.196084 Z M112.429727,289.672494 C112.59648,289.727943 112.774029,290.080353 112.747637,290.264567 C112.724243,290.430915 112.38354,290.703848 112.255177,290.669346 C111.547978,290.488212 110.872569,290.191251 110.208558,289.880736 C110.175568,289.865334 110.296133,289.525246 110.405302,289.103832 C111.065115,289.297288 111.756718,289.465484 112.429727,289.672494 L112.429727,289.672494 Z M205.162175,281.979236 C205.904764,281.729714 206.685143,281.562135 207.442727,281.4001 C207.583687,281.369911 207.766035,281.709999 207.929189,281.877579 C207.028245,282.356906 206.088912,282.761068 205.153178,283.16215 C205.104592,283.182482 204.901249,282.799883 204.770487,282.604578 C204.89945,282.388327 204.990024,282.035301 205.162175,281.979236 L205.162175,281.979236 Z M68.0039514,269.136601 C68.1479105,269.305413 68.1886989,269.715737 68.0861281,269.885165 C67.9889557,270.047199 67.6098634,270.160562 67.4077208,270.086014 C66.0862963,269.599294 64.8896364,268.916653 64.6275109,267.336969 C66.2146599,266.994417 67.1024076,268.085532 68.0039514,269.136601 L68.0039514,269.136601 Z M249.678525,192.588464 C249.687523,192.046911 250.284353,191.529386 250.68084,191.042049 C250.761217,190.945938 251.13971,190.987832 251.334655,191.071006 C252.210406,191.441899 252.180414,192.166434 251.957877,192.817038 C251.671159,193.653087 251.230284,194.433072 250.50629,195.996121 C250.071414,194.280895 249.664129,193.420201 249.678525,192.588464 L249.678525,192.588464 Z M95.0616624,274.297683 C93.7498352,274.09437 92.2184704,273.778926 90.6049289,273.387701 C90.2030431,273.286044 89.7945592,273.183772 89.3824763,273.080267 C88.9799907,272.95335 88.5739061,272.825201 88.1666218,272.696435 C87.3532529,272.432128 86.5374848,272.153034 85.7367123,271.865931 C84.9359399,271.578211 84.1501632,271.283099 83.3967772,270.984906 C82.6535884,270.66823 81.9553868,270.326909 81.2997731,270.004688 C79.9921447,269.355317 78.8836597,268.729974 78.1152781,268.187805 C77.0817718,267.458341 76.1070488,266.637694 75.113731,265.856477 C74.1318101,265.056162 73.1336937,264.287883 72.1847633,263.451834 L69.3709629,260.91596 L67.9715606,259.651104 C67.5096919,259.224146 67.0700168,258.768847 66.618945,258.331415 C67.1917822,258.669038 67.7436254,259.035619 68.32546,259.362152 C68.9012964,259.693615 69.4789323,260.02631 70.0571679,260.359004 C71.2058415,261.032403 72.3431183,261.723669 73.473797,262.430953 C74.6368665,263.086485 75.7933379,263.759884 76.9462103,264.447453 C77.5196473,264.794319 78.094284,265.142416 78.6713201,265.491129 C79.2483561,265.83861 79.846986,266.150974 80.4336193,266.487365 C81.6116845,267.152139 82.7891499,267.82985 83.9684148,268.5205 C85.1548776,269.195131 86.3809292,269.813697 87.5907854,270.479702 C89.9949023,271.848064 92.5309816,273.015576 95.0616624,274.297683 L95.0616624,274.297683 Z M242.895053,213.315964 C242.133269,214.355327 241.39128,215.404548 240.664887,216.462394 C239.922897,217.50915 239.130523,218.519557 238.385534,219.562 L237.264453,221.123817 C236.88716,221.640727 236.478676,222.134224 236.090586,222.643124 L233.758449,225.695906 L231.306346,228.64888 C230.896063,229.139297 230.500175,229.645116 230.078495,230.125059 L228.787062,231.543325 C227.920308,232.481647 227.081746,233.450775 226.186801,234.361989 L223.44618,237.038949 C222.627412,237.864525 221.739665,238.613089 220.862114,239.370277 C219.979165,240.123153 219.101014,240.87911 218.187474,241.586394 C217.341714,242.195718 216.480959,242.769309 215.709578,243.445788 C214.9298,244.110562 214.276585,244.929976 213.73074,245.898488 C213.424827,246.467766 212.750019,247.085099 212.155588,247.157183 C211.115484,247.279787 210.171352,247.560113 209.270408,247.921149 C208.350869,248.251995 207.487714,248.683882 206.652152,249.168754 C205.812391,249.644385 205.022415,250.211814 204.19645,250.710856 C203.369285,251.206202 202.546918,251.704012 201.710756,252.150685 C200.969367,252.536981 200.203384,252.891239 199.401412,253.175878 C198.596441,253.455588 197.787271,253.726056 197.003294,254.045813 C196.219317,254.366186 195.461132,254.735231 194.753933,255.217022 C194.028739,255.658151 193.353931,256.208329 192.750502,256.935329 C192.4068,257.348733 191.45787,257.113998 190.82445,257.285274 C189.90971,257.554511 188.95838,257.71901 188.022046,257.91185 C187.085112,258.104073 186.158376,258.309235 185.250234,258.566765 C184.34989,258.845859 183.429751,259.068272 182.551001,259.426843 C181.668651,259.775556 180.810295,260.214837 179.977732,260.783498 C179.259136,261.30164 178.273016,261.648505 177.45125,261.543767 C173.940448,261.079227 170.790743,262.175271 167.515673,262.83758 C159.426372,264.384611 151.169118,265.075261 142.923262,264.819579 C142.254452,264.801712 141.562848,264.701287 140.88684,264.65816 C140.209033,264.614417 139.54982,264.562048 138.928397,264.743182 C137.460614,265.146729 136.003628,265.185543 134.569436,265.037062 C133.138842,264.839294 131.726244,264.510296 130.292051,264.310063 C125.345857,263.475245 120.462044,262.306501 115.696999,260.762551 C113.285084,260.08792 110.948748,259.174857 108.556628,258.425062 L105.015234,257.145419 L103.226542,256.537943 L101.457045,255.871322 C100.527909,255.526921 99.6083704,255.14309 98.6936304,254.741392 C97.769293,254.358177 96.9031392,253.840651 96.0051943,253.391513 C95.1144474,252.926357 94.2195018,252.464897 93.3131593,252.028081 C92.4278109,251.548138 91.5364642,251.082365 90.6181252,250.665265 C89.6709943,249.624669 88.6404871,248.746109 87.6117795,247.859539 C86.571675,246.995148 85.4613905,246.242272 84.3427084,245.49679 C83.2516185,244.710644 82.1287376,243.965162 81.008256,243.212286 L80.1696943,242.646088 C79.8955722,242.449552 79.6316472,242.238845 79.3641232,242.033068 C78.8314746,241.619047 78.3048242,241.197634 77.788371,240.763899 C77.1885414,240.259312 76.5575207,239.771359 75.8953089,239.333927 C75.2552908,238.866922 74.5900798,238.443661 73.8846803,238.106653 C72.7312081,237.538608 71.6509151,236.924971 70.7961579,236.063661 C69.9449998,235.199271 69.2533964,234.163604 68.7777315,232.879033 C68.2978679,231.668393 67.2691602,230.62595 66.3730149,229.622937 C64.7654717,227.876289 63.3360779,225.970071 61.843702,224.128544 C61.4622104,223.673861 61.1059116,223.200079 60.7592101,222.717672 L59.6951125,221.290781 L58.6124202,219.879293 L58.0653756,219.178785 L57.5477227,218.456098 L55.0614293,215.026262 C54.2714538,213.855669 53.513869,212.660432 52.7352903,211.479366 C51.9327183,210.31247 51.2555108,209.066096 50.5339158,207.847448 L49.4614206,206.01085 C49.0925254,205.404606 48.798609,204.757083 48.4633042,204.132356 C45.7568733,199.140703 43.5632967,193.86441 41.7554104,188.463049 C41.1663778,186.740429 40.5797445,185.020274 39.9919116,183.300735 C39.6919968,182.440657 39.371088,181.585509 39.0279855,180.732824 C38.6614896,179.886917 38.3921661,179.011437 38.0298691,178.155672 C36.6988473,174.999384 36.4157278,171.461114 35.8093001,168.068243 C34.4200949,159.86855 33.8514565,151.462462 34.2131537,143.076705 C34.2611401,142.031181 34.3139251,141.000443 34.2905317,139.962313 C34.303728,138.928494 34.2737365,137.890363 34.0757927,136.810338 C33.9144386,135.912062 33.9528277,134.975588 34.0577978,134.033569 C34.1927595,133.097094 34.4272928,132.160004 34.5742511,131.23462 L34.9095558,129.235987 C35.0169253,128.568749 35.137491,127.903975 35.3006447,127.248444 L36.1997892,123.299233 C36.3335511,122.636924 36.5152995,121.987554 36.6940487,121.338183 L37.2105019,119.382061 C37.5452068,118.075926 37.8445218,116.758085 38.2290125,115.46612 C38.6302985,114.026907 38.7982508,112.511298 39.1581485,111.051753 C39.5624336,109.611924 40.1118775,108.210293 41.1369862,107.005815 C41.3547243,106.75383 41.5010827,106.432841 41.6312457,106.097066 C41.7656075,105.763139 41.8639796,105.406416 41.9449566,105.068792 C42.2280761,103.88711 42.555583,102.715901 42.9160806,101.555782 L43.1950013,100.688927 L43.5267071,99.8448684 C43.7510433,99.2842161 43.9825775,98.7254121 44.2207099,98.1690725 C44.7113704,97.0637865 45.1666411,95.9363209 45.7454766,94.8760104 C46.3165143,93.8101549 46.9031476,92.7516927 47.4969788,91.6981592 C48.0680166,90.6304555 48.7398257,89.6249779 49.3900409,88.6071784 C50.0474541,87.5930754 50.6814739,86.56357 51.3478845,85.5580924 C52.0400878,84.5704819 52.7244933,83.5773264 53.3933033,82.5724649 L54.3884205,81.059936 L55.4243261,79.5763637 C59.3634068,73.6907468 63.9994893,68.2807602 69.0140644,63.2663107 C69.5251191,62.7765101 69.9545971,62.1376129 70.5544266,61.8079987 C74.6884519,59.4698938 78.0588941,56.1823766 81.8864064,53.469682 C87.8811029,49.3787686 94.095337,45.5749584 100.682665,42.5135504 C100.892006,42.4118937 101.059958,42.2030353 101.277096,42.1327997 C106.635973,40.4163412 111.777712,38.3142031 117.094601,36.4831497 C118.429222,36.0555753 119.77404,35.6557255 121.118258,35.2423214 C121.792466,35.0451689 122.461876,34.8153631 123.144482,34.6514801 L125.197099,34.1696888 L127.258713,33.7131577 C127.946718,33.563445 128.635922,33.417429 129.335323,33.3354875 C130.729327,33.1420316 132.129329,32.9769165 133.53173,32.8518479 C134.228732,32.773603 134.929933,32.7421818 135.629934,32.6867327 C136.329335,32.6312836 137.028137,32.5616641 137.726938,32.4809548 C138.42634,32.4002455 139.125741,32.3090625 139.825142,32.2092541 C140.524543,32.1039007 141.228743,32.0663186 141.932343,31.9831449 L146.16654,31.5056663 C147.582138,31.4144833 149.002534,31.339935 150.42413,31.2900308 L152.203824,31.2296528 L153.981119,31.2678511 C155.166383,31.2998884 156.353445,31.3411672 157.539908,31.3996968 C165.357487,31.9523398 173.128278,33.3527383 180.713123,35.5041645 C181.871994,35.798661 182.992475,36.2428701 184.140549,36.5841903 C185.279025,36.9563156 186.448093,37.2274002 187.602165,37.5077263 C193.28615,38.7239105 198.454881,41.4914381 203.3147,44.6520384 C202.985394,45.2681399 202.570312,45.457283 202.146232,45.4726855 C201.716754,45.4973296 201.280678,45.3396076 200.92438,45.2225484 C199.799099,44.8528875 198.686416,44.4585826 197.588128,44.0347048 L196.766961,43.7124838 L195.932598,43.4186034 C195.377756,43.2202187 194.827112,43.0138248 194.280668,42.7988054 C189.715965,40.9227765 185.061887,39.1656553 180.185273,38.489792 C179.145768,38.3869031 178.094867,38.2291811 177.070358,37.9870532 C176.04225,37.7572474 175.054331,37.3851221 174.094604,37.0216223 C173.068295,36.6032894 172.025192,36.2441023 170.973091,35.9298906 C170.445841,35.7752491 169.91859,35.6212238 169.385942,35.4955391 C168.850294,35.3877213 168.311047,35.2897612 167.7724,35.1991943 C166.693907,35.0180605 165.611214,34.8664995 164.528522,34.729725 C163.988076,34.6502479 163.442231,34.6071208 162.895186,34.5800124 L161.255852,34.4814361 L157.963988,34.2793549 L154.665525,34.2430049 L153.021392,34.2171286 C152.474348,34.20111 151.927303,34.1961812 151.377859,34.2263702 L148.091393,34.3212498 C147.296019,34.353287 146.500645,34.262104 145.701672,34.2596396 C144.903899,34.243621 144.103726,34.2171286 143.305953,34.2368439 C138.260187,34.2929091 133.264206,35.0562588 128.384593,36.2792201 C122.632828,37.8040711 116.771293,38.969735 111.134095,40.9449562 C109.853459,41.4205865 108.415068,41.7890151 107.42355,42.6712724 C106.180703,43.8831439 104.838884,44.7056393 103.398093,45.3032576 C102.6723,45.584816 101.950705,45.8842413 101.201518,46.1282174 C100.45353,46.3758902 99.6845488,46.587213 98.8987721,46.7825172 C98.2461575,46.9562578 97.5569534,47.1189085 96.9331306,47.4158694 C96.3045093,47.7017405 95.7046797,48.044909 95.1816284,48.4694029 C94.4150462,49.0922814 93.6262703,49.6603269 92.8206993,50.1932546 C92.0331231,50.7625324 91.2377491,51.3127109 90.4273794,51.835781 L87.9854733,53.38466 L85.6089486,55.0481339 C82.0951471,57.5279421 78.520163,59.9110224 75.2714862,62.7592593 C70.5364318,67.0664243 65.9423373,71.535624 61.6871464,76.3516889 C61.1526983,76.9591649 60.6650369,77.5986782 60.2091664,78.2548262 C59.7514965,78.9103581 59.3796022,79.6299645 58.986114,80.3243109 C58.6034227,81.0242021 58.2213313,81.7216289 57.8380402,82.4190557 L57.2490076,83.4467129 C57.0636603,83.7966585 56.8729145,84.1429075 56.6731713,84.4829955 C55.889194,85.8439635 54.8202978,87.0114757 53.7669971,88.2134896 C52.7382894,89.4302899 51.6501986,90.6298394 50.7060669,91.9261168 C50.0030667,92.9710248 49.343854,94.0559794 48.7896115,95.1920704 C48.5148896,95.760732 48.2701591,96.3447962 48.0692162,96.9473434 C47.8952657,97.564677 47.7681018,98.2017259 47.6973219,98.85849 C47.6247425,99.5442109 47.5287698,100.349455 47.1118883,100.817692 C46.7411936,101.233561 46.4016901,101.667912 46.0879792,102.115818 C45.7958623,102.574198 45.5349364,103.049212 45.2908058,103.532235 C44.804344,104.500747 44.3970597,105.506224 44.0221663,106.52464 C43.6334767,107.536279 43.3917454,108.608911 43.0708366,109.643345 C42.7709218,110.687637 42.4296188,111.711598 42.0643226,112.725701 C41.742814,113.701605 41.4524965,114.689216 41.1789742,115.679907 C40.9186482,116.675527 40.6139348,117.655744 40.4363852,118.67416 L39.8185608,121.69737 L39.4862552,123.197577 L39.1965376,124.708873 C38.8102473,126.716748 38.2452079,128.685192 37.8997061,130.704773 L37.308874,133.720589 C37.1031325,134.724834 37.0221555,135.750027 36.8949916,136.767211 C36.8152143,137.500371 36.7522322,138.236612 36.700047,138.972854 L36.6310666,140.076907 L36.6286673,141.187738 C36.6298669,142.667614 36.6394642,144.143177 36.5914778,145.613811 C36.6052739,147.192263 36.5356937,148.773179 36.4025315,150.349783 C36.2429769,151.827194 36.2669701,153.307685 36.1853932,154.79249 L36.0780238,157.020929 C36.0312371,157.765795 36.059429,158.505733 36.0372353,159.249368 C36.0240391,160.063238 36.034836,160.871563 36.087621,161.668798 C36.1434052,162.465417 36.2165844,163.254027 36.4349223,164.014912 C36.8326093,165.541611 37.4756266,166.998691 38.5127319,168.317764 C38.8246433,168.733633 39.3854839,170.740275 39.8035651,172.845494 C39.9931112,173.90334 40.2534372,174.964883 40.4345858,175.868703 C40.6145346,176.771908 40.7267027,177.516159 40.7309016,177.91416 C40.711707,179.51664 41.1927703,181.005141 41.6648362,182.489945 C41.9041681,183.231732 42.1524976,183.971053 42.3720352,184.719 C42.6209645,185.457706 42.8614961,186.199492 43.0258494,186.968387 C43.6310774,190.037804 44.7311648,193.081961 47.1160871,195.315329 C47.767502,195.888919 48.4027215,196.758854 48.4447095,197.574573 C48.4926959,198.415551 48.6522506,199.203545 48.9347703,199.923151 C49.2334854,200.636597 49.6155768,201.302602 50.0384566,201.942116 C50.4619363,202.581013 50.9250047,203.194034 51.3844741,203.80459 C51.8307473,204.423772 52.359797,204.993666 52.7970727,205.616545 C53.2493442,206.237575 53.6842206,206.862302 54.0963035,207.497502 C54.3026449,207.816027 54.5041876,208.137016 54.6985324,208.461085 L55.312158,209.417274 C56.1195286,210.699997 56.7931372,212.076984 57.3941664,213.555628 C59.7550955,219.326033 63.7925482,224.21603 69.3007829,227.239856 C70.0121807,227.631697 70.679791,228.08638 71.3084124,228.592199 C71.9676251,229.067213 72.5860493,229.59706 73.1666843,230.171267 C73.7467195,230.746706 74.2889654,231.367736 74.7964212,232.026348 C75.3146739,232.671406 75.8275282,233.320161 76.2887971,234.016972 C76.9174185,234.942356 77.5940262,235.831391 78.3456126,236.634787 C79.1157938,237.414771 79.9291626,238.14978 80.7647252,238.855216 C81.1822066,239.207626 81.606286,239.553259 82.0333647,239.893347 L83.3745835,240.827973 C84.2743279,241.43853 85.1728725,242.047854 86.0672184,242.654714 C87.1571087,243.358918 88.2727916,244.02554 89.3560838,244.738369 C89.9031283,245.085234 90.4327778,245.462904 90.9870203,245.796831 L92.6473485,246.801693 C99.2952594,250.938198 106.321663,254.504193 113.711563,257.155893 C114.724675,257.53726 115.824762,257.724555 116.899657,257.8028 C118.313455,257.889054 119.649875,258.097912 120.964102,258.409043 C122.27173,258.744203 123.516976,259.341821 124.750826,260.242561 C125.780733,260.949846 126.895816,261.36325 128.046289,261.389126 C128.621526,261.402064 129.20516,261.31889 129.789994,261.123586 C130.380226,260.898709 130.971658,260.566014 131.557691,260.11318 C132.316476,259.526035 133.668492,259.699776 134.652212,259.971477 C135.476978,260.223462 136.31434,260.410141 137.136706,260.706486 C137.960272,260.989276 138.77544,261.323203 139.575613,261.703954 C140.631913,262.236265 141.739198,262.110581 142.818891,261.997218 C143.900984,261.879543 144.957883,261.735991 145.979393,262.076079 C148.111187,262.687868 149.777514,261.747081 151.577602,260.983115 C152.737073,260.432937 154.078292,260.235168 155.343332,260.230239 C156.955674,260.25858 158.556619,260.173558 160.17136,260.142137 L162.59887,260.094081 L165.015584,259.909866 C166.091078,259.813139 167.225356,259.89508 168.243267,259.551295 C170.51722,258.712781 172.836161,258.204498 175.117913,257.546501 C176.262388,257.237218 177.431456,257.012341 178.582528,256.724622 C179.730002,256.423965 180.887074,256.149183 182.054342,255.894117 C183.231807,255.66616 184.376282,255.337778 185.542351,255.051291 C186.699422,254.746937 187.891283,254.511586 189.046555,254.172114 C191.3517,253.482696 193.719827,252.870292 195.984183,251.976945 C196.809549,251.673207 197.64991,251.374397 198.470477,251.034925 C199.278447,250.67081 200.049228,250.233994 200.769024,249.729407 C201.504415,249.208185 202.227209,248.70791 202.986594,248.268014 C203.733981,247.809018 204.495165,247.372202 205.35772,247.052446 C205.95515,246.825721 206.485999,246.4308 206.997654,245.996448 L207.759437,245.328594 C208.002968,245.090779 208.250098,244.859741 208.506825,244.649034 C209.184632,244.091462 209.822251,243.370624 210.623623,243.11679 C211.241448,242.917789 211.829881,242.683055 212.365528,242.381165 C212.890379,242.065721 213.377441,241.703453 213.826713,241.298059 C214.722858,240.48234 215.481043,239.505203 216.067076,238.330914 C216.636915,237.10364 217.403497,236.149299 218.357226,235.431541 C218.829292,235.068041 219.366739,234.78525 219.914383,234.517862 C220.461428,234.249242 221.05226,234.036687 221.68628,233.874652 C222.735382,233.606648 223.641124,233.190164 224.401108,232.58392 C225.159893,231.977676 225.712336,231.120063 226.144213,230.06961 C226.521506,229.106027 227.610796,228.382724 228.539932,227.828233 C229.726995,227.107394 230.809687,226.260871 231.814402,225.337335 C232.064531,225.105681 232.31406,224.872795 232.552192,224.628202 C232.780727,224.376833 233.005063,224.121151 233.225201,223.861156 C233.665476,223.341783 234.090755,222.808855 234.505237,222.264837 C234.919119,221.721436 235.321605,221.168793 235.716893,220.610605 C236.109781,220.049337 236.451684,219.451718 236.815181,218.869502 L238.960771,215.363885 C238.92838,214.160639 239.288878,213.233407 239.847319,212.41892 C240.394963,211.597657 241.189138,210.91933 241.867545,210.144274 C242.928043,208.987236 243.803195,207.642902 244.759323,206.367572 C244.833702,207.751952 244.70054,208.997709 244.395227,210.150435 C244.086314,211.301312 243.619647,212.367784 242.895053,213.315964 L242.895053,213.315964 Z M112.035039,271.223337 C111.060316,271.302198 110.30933,271.569586 109.686107,271.377978 C103.062189,269.387355 96.6128217,266.752289 90.4369766,263.556571 C87.877504,262.301572 85.4116047,260.867904 82.9235117,259.463809 C81.7028586,258.722639 80.5133966,257.925404 79.3245344,257.129401 C78.7331025,256.725238 78.1374718,256.328469 77.5622352,255.901511 C76.996596,255.458534 76.4363552,255.00878 75.8821127,254.5504 C74.8450074,253.679849 73.6657425,252.998441 72.5092711,252.270209 C71.3671957,251.523494 70.2041262,250.789717 69.1352299,249.937033 C68.0435402,249.103447 67.0814136,248.107828 66.1102895,247.129459 L64.6653001,245.651431 C64.1818375,245.162247 63.6983749,244.673678 63.2389055,244.158617 C62.9042006,243.79635 62.1964017,243.586875 62.125022,243.212902 C61.934876,242.207424 61.5617821,241.396019 61.069322,240.699824 C60.8245916,240.350495 60.5420718,240.038131 60.252954,239.73008 C59.9692346,239.417101 59.6639214,239.123221 59.3460117,238.841046 C58.0845702,237.706187 56.5700006,236.774642 55.5220984,235.443863 C51.3262907,230.194063 47.2018627,224.902367 43.435533,219.300773 C39.8077639,213.875384 36.8518039,207.986071 34.2809344,201.959983 C31.5721042,195.707785 29.2711581,189.255355 27.5388503,182.627336 C25.6253941,175.268005 24.4131386,167.70536 23.9596674,160.095891 C23.6693499,155.52257 23.0845161,151.005314 22.8787746,146.399956 C22.7756039,145.058704 22.8445843,143.719299 22.891371,142.376198 C22.9513539,141.033713 23.0131364,139.686915 23.1325025,138.345046 L23.6297612,134.33361 L23.8822894,132.327584 L24.2175941,130.336344 L24.9283921,126.066761 L25.8449317,121.837225 L26.3115991,119.724613 L26.8742392,117.636029 C27.2569304,116.246104 27.6114297,114.846938 28.0181141,113.463174 C28.9208576,110.727684 29.7222299,107.951531 30.7947251,105.276418 L31.5547091,103.253141 C31.8054379,102.577894 32.0561666,101.901415 32.3530823,101.245267 L34.060797,97.2769576 C34.3487152,96.5709054 34.6300352,95.8605404 34.901758,95.1446306 L35.700731,92.9827307 C36.0696261,92.0499531 36.1446048,90.7518274 36.833809,90.2164353 C38.2350108,89.1259358 39.1587483,87.7772898 39.9241308,86.3214421 C40.6913128,84.8699072 41.4087089,83.3777095 42.2004839,81.9415771 C43.168009,80.1400965 44.2429036,78.4100837 45.3447904,76.6948574 C46.4226841,74.9623802 47.7465079,73.4098046 49.2232883,71.9940035 C49.9538807,71.3033538 50.6790746,70.5172084 51.1823316,69.664524 C51.8307473,68.5136466 52.5253499,67.3898776 53.2565422,66.293217 L53.8113845,65.4750343 C54.0057293,65.2101107 54.2090715,64.9531964 54.4106142,64.6944338 C54.8142995,64.1793731 55.2269822,63.6692411 55.6462631,63.1652701 C56.4944221,62.1678019 57.325186,61.1456896 58.2537221,60.2233858 C59.1780594,59.2973854 60.119192,58.3867875 61.0699218,57.4878955 C62.0032566,56.5686722 63.0175684,55.7424802 64.0180841,54.9021178 C65.024598,54.0679165 66.0131171,53.214616 67.0316277,52.4001299 C68.0681332,51.6084396 69.0992402,50.8124366 70.12015,50.0047276 L71.6467162,48.786079 L73.2044736,47.6117897 C74.160002,46.8761646 75.1257276,46.1528615 76.0968517,45.4375678 C77.0811719,44.7419892 78.1044811,44.1043243 79.1121948,43.4450957 L80.6327627,42.4704233 C81.1378192,42.1420412 81.6488739,41.8229007 82.1773238,41.5339491 L85.3144323,39.7527999 C85.8392832,39.4583034 86.3563362,39.152101 86.8847861,38.86623 L88.4893301,38.046199 L91.6840223,36.3796446 C92.7481199,35.823305 93.845808,35.3365849 94.9177034,34.7931835 C95.999196,34.2713456 97.0542962,33.6866653 98.142387,33.1753011 C99.5123977,32.5327073 100.944791,31.6948094 102.384382,31.5703569 C102.74008,31.540784 103.090381,31.4976569 103.438282,31.4520654 C103.790982,31.418796 104.139483,31.3769011 104.484385,31.3263808 C105.174789,31.2259562 105.851396,31.0922622 106.518407,30.9314597 C107.184817,30.7706573 107.841031,30.5821302 108.490047,30.3720396 L109.459971,30.0455059 L110.435894,29.736223 C111.731525,29.3074164 113.010962,28.8151514 114.291598,28.3099482 C114.929217,28.0450246 115.576433,27.8158348 116.229047,27.6032799 L118.18869,26.9606861 C119.148418,26.6581803 120.106945,26.4111236 121.073271,26.2022652 C122.049793,26.0383822 123.035913,25.9200908 124.041227,25.8202823 C129.271741,25.2232801 134.560438,25.0858894 139.724371,24.2861898 C141.120774,24.1223068 142.523175,23.9947738 143.927976,23.8721696 L146.036377,23.70459 C146.739977,23.6694723 147.444777,23.6719367 148.148977,23.6596146 C149.558576,23.6423638 150.968775,23.6411316 152.379574,23.6540697 C153.787974,23.7113672 155.195174,23.8284264 156.602974,23.9331637 L158.712575,24.1075204 C159.414375,24.178372 160.111977,24.2972796 160.811378,24.3940075 L164.999988,25.0421462 C166.386194,25.3181597 167.765202,25.6397646 169.14421,25.9502797 L171.209424,26.4277583 L173.250644,27.0179835 L171.250212,26.7339607 L169.236584,26.5386566 C167.741809,26.3877117 166.254832,26.2139711 164.764855,26.0919831 L160.284728,25.8714187 C158.79955,25.7654493 157.302975,25.8141213 155.815398,25.8104247 L153.585832,25.8172018 L152.474348,25.8233628 L151.360464,25.8837408 L146.922325,26.1172432 C145.446745,26.1967203 143.974763,26.3988016 142.50698,26.5281829 L140.306805,26.7432023 C139.574413,26.8159022 138.84562,26.9502123 138.115628,27.0481725 L133.749469,27.6735154 C126.023064,28.9562386 118.334449,30.5205201 110.899562,32.9836936 C102.086266,35.877522 93.5518915,39.7343169 85.6905254,44.7130325 C78.9748338,48.9869281 72.7659982,54.0377275 67.0910108,59.5974268 C61.4118247,65.1595904 56.2628878,71.2269572 51.5578249,77.615929 L50.910009,78.4753905 L50.3101794,79.3705858 L49.1303147,81.1726825 C48.3499365,82.3765447 47.5731572,83.5816391 46.9001484,84.8532724 C46.2055458,86.1101193 45.5103434,87.3626535 44.8367348,88.6250453 L42.9688656,92.4966267 C42.3186504,93.76826 41.7896007,95.1039679 41.2095655,96.4088707 C40.6493247,97.7242473 40.0189039,99.0026577 39.5144472,100.342062 C38.9793993,101.666064 38.4287558,102.982673 37.8547189,104.29004 C37.3202707,105.614042 36.8068167,106.949134 36.2387781,108.265127 C33.3458002,115.224608 32.241514,122.835309 31.280587,130.251938 C31.1408268,131.393574 30.9668762,132.528433 30.8433113,133.670685 L30.5391977,137.104834 C30.2740731,139.385025 30.2272864,141.684932 30.0749296,143.972517 C29.4493074,157.931527 31.0100639,172.074135 35.6365492,185.129324 C35.883679,185.830447 36.0852217,186.547589 36.3617431,187.238855 L37.1535181,189.323742 C37.6885661,190.709971 38.1456362,192.123307 38.7496646,193.480579 L40.4369851,197.597368 L42.2802613,201.64269 C44.8187399,206.991067 47.6187442,212.21992 50.8554245,217.162285 C63.5076291,236.546684 81.8402196,251.986186 102.876842,260.808142 C104.386613,261.40268 105.867592,262.077311 107.389959,262.63858 L111.969058,264.293428 C111.952862,266.730725 111.977456,268.879687 112.035039,271.223337 L112.035039,271.223337 Z M256.238861,164.244718 L255.773993,164.482533 C255.953342,165.819473 256.132091,167.155797 256.323437,168.574063 C255.237146,169.132251 254.393185,169.709538 253.495241,169.887591 C251.241081,170.323791 249.620942,171.178939 248.504059,172.382186 C247.963013,172.989045 247.47955,173.667989 247.106456,174.431339 C246.736361,175.195305 246.470637,176.041828 246.293687,176.967212 C246.210311,177.384313 246.110139,177.800798 245.996172,178.211121 C245.874406,178.619596 245.764038,179.029304 245.708853,179.449485 C245.506711,180.897323 244.906881,182.268149 244.38143,183.634046 C243.837985,184.999327 243.482286,186.396029 243.92376,188.05827 C243.286142,189.519047 242.598737,190.954563 241.950921,192.401169 C241.643808,193.132481 241.243122,193.821899 240.892822,194.532264 L239.829924,196.655966 C239.663771,196.989892 239.501217,197.325052 239.326667,197.654666 L238.759828,198.623177 C238.382535,199.268852 238.006442,199.914526 237.644745,200.565129 C236.953741,201.88605 236.200355,203.160148 235.634716,204.53159 C235.330602,205.267831 235.064278,206.026252 234.788956,206.778512 C234.478844,207.51044 234.162734,208.239904 233.804036,208.942876 C233.444738,209.646464 233.042253,210.322327 232.55999,210.943974 C232.073528,211.563772 231.450305,212.08869 230.744906,212.548302 C230.245247,213.681928 229.615426,214.733613 228.826051,215.658382 C228.031876,216.580686 227.164523,217.441995 226.318763,218.313163 L225.687743,218.967462 L225.036328,219.602663 C224.609849,220.03147 224.198366,220.473214 223.813875,220.938371 C223.046693,221.869916 222.398877,222.905583 221.848234,224.052148 C220.391848,225.123548 219.128007,226.37793 217.772392,227.54421 C217.11078,228.143677 216.463564,228.759162 215.821746,229.381425 C215.192525,230.018474 214.490125,230.571117 213.827913,231.170583 C213.156104,231.75896 212.481895,232.344257 211.798689,232.915383 C211.102887,233.47049 210.366296,233.97138 209.631505,234.470423 C208.892515,234.962072 208.142129,235.434005 207.364749,235.859115 C206.562177,236.248491 205.739811,236.602134 204.894651,236.904639 C204.123271,237.17634 203.441264,237.632871 202.755659,238.104189 C202.057458,238.553327 201.376051,239.049288 200.664653,239.465773 C199.952056,239.87548 199.281446,240.386228 198.570049,240.808258 C197.847254,241.211804 197.109464,241.569759 196.321288,241.752125 C195.444337,241.946197 194.625569,242.243158 193.803803,242.529645 C192.977238,242.806275 192.180064,243.134657 191.399686,243.498157 C189.859324,244.26089 188.317762,245.02424 186.786397,245.782045 C186.338924,246.007538 185.89805,246.248433 185.460174,246.499187 C185.021099,246.745627 184.569427,246.960647 184.126753,247.202775 C183.239005,247.675324 182.353057,248.163893 181.452113,248.621656 C181.00524,248.861936 180.540372,249.052311 180.069506,249.227284 C179.59924,249.404721 179.123575,249.568604 178.641312,249.710923 C177.673187,249.984473 176.691866,250.227833 175.647562,250.243235 C175.065128,250.24878 174.549874,250.769386 173.969839,250.949903 C173.013711,251.238855 172.055783,251.666429 171.062465,251.665197 C169.290569,251.61098 167.59785,251.82908 165.90993,252.094004 C165.061171,252.201822 164.22021,252.344141 163.381048,252.512953 L162.125605,252.781573 C161.708124,252.88323 161.290042,252.976877 160.865963,253.044032 C158.671187,253.426631 156.492606,253.637954 154.253442,253.199906 C153.656612,253.099481 153.057982,253.010147 152.459952,252.937447 C151.861322,252.863514 151.265091,252.821003 150.664062,252.730437 C149.464403,252.582572 148.270742,252.517265 147.086079,252.572098 L146.266112,252.616458 L145.444945,252.622003 L143.801412,252.657737 L142.15428,252.725508 C141.604836,252.752616 141.053593,252.792047 140.506548,252.77418 C138.314771,252.745223 136.096602,252.843799 133.912622,252.583804 C132.872518,252.481532 131.825815,252.414993 130.78871,252.278834 L127.69059,251.775479 L126.14303,251.508091 L124.617064,251.135966 C123.601552,250.884597 122.58844,250.625218 121.578927,250.355366 C119.867613,249.794097 118.192889,249.152736 116.496571,248.598244 C115.659809,248.283416 114.81285,248.000626 113.943697,247.774517 C113.078143,247.539166 112.1724,247.409169 111.270256,247.242821 C110.185765,247.074009 109.121067,246.752404 108.072565,246.37227 C107.544115,246.194217 107.03366,245.963179 106.530403,245.717354 C106.024747,245.477075 105.52029,245.237411 105.017633,244.99898 C102.978213,244.111794 101.044962,242.996034 99.0721228,241.967145 C98.093201,241.435449 97.1562672,240.82366 96.1953403,240.261776 L94.7593484,239.404779 C94.2800845,239.121372 93.8296126,238.786829 93.3629452,238.481243 L90.5785364,236.621233 L87.8865014,234.621984 L86.5392842,233.624515 L85.2442522,232.556195 C84.382897,231.840902 83.5011476,231.1521 82.6499895,230.425717 C81.975781,229.813928 81.3207672,229.18304 80.6693523,228.550304 C80.0233359,227.912023 79.3527264,227.303931 78.7421,226.625603 C78.1152781,225.965759 77.4758598,225.320084 76.8046505,224.702135 C76.4705455,224.391003 76.1196452,224.096507 75.7759428,223.792769 C75.4394385,223.479789 75.0939367,223.176051 74.7340389,222.881555 C73.4174131,221.794136 72.1919613,220.545298 71.2034422,219.088834 C70.6923874,218.375389 70.2065255,217.641612 69.7380586,216.901674 C69.2713912,216.159888 68.8875003,215.35834 68.4808159,214.592526 C68.0507381,213.756477 67.590069,212.955545 67.1084059,212.176176 C66.6633324,211.370932 66.1864679,210.595876 65.6700146,209.852242 C65.4114881,209.480117 65.1439641,209.116001 64.8644436,208.759894 L64.4373649,208.231895 L64.0264817,207.69219 C63.4668407,206.980593 62.860413,206.299801 62.198801,205.648582 C61.8598974,205.315887 61.5377889,204.978264 61.2366745,204.628318 C60.9499559,204.270979 60.699827,203.892693 60.4670931,203.503933 C60.0070239,202.725181 59.6531244,201.883586 59.4503821,200.948344 C59.3856005,200.648303 59.3118214,200.333475 59.2026525,200.042059 C59.1096789,199.741401 58.9807155,199.464156 58.7881702,199.249136 C56.392451,196.633786 55.5208987,193.186698 54.4861927,189.916432 C54.1328931,188.755697 53.5792505,187.664581 53.0783928,186.554367 C50.4589371,180.36686 47.9876394,173.910733 47.1244847,167.113286 C47.0123166,165.975347 46.8677577,164.845417 46.6980059,163.717951 L46.4346807,162.027985 L46.2307387,160.328777 C46.0849801,159.195767 45.9182275,158.063988 45.7442769,156.92913 L45.3903775,153.502374 L45.1996317,151.782834 C45.149246,151.208628 45.1336504,150.634421 45.0988603,150.058367 L44.9327075,146.595877 C44.9093142,145.440686 44.9674976,144.289809 45.0028876,143.133387 C45.0490745,141.978812 45.0826649,140.81931 45.262014,139.676441 C45.409572,138.545279 45.3165984,137.38516 45.2044303,136.207174 C45.0886632,135.031037 45.071868,133.859212 45.1870353,132.702173 C45.2950046,131.806362 45.3963758,130.906238 45.5685269,130.020284 L46.159359,127.376593 C46.3710988,126.49988 46.5306534,125.607765 46.7705853,124.738446 C47.0063183,123.867895 47.228855,122.994263 47.4249993,122.112622 C47.5767562,121.439223 47.7381103,120.767057 47.9234577,120.101667 L48.5934673,118.142465 L49.2838711,116.190039 L49.6275734,115.214134 L50.0132638,114.254865 C50.5207196,112.973374 50.9777897,111.674016 51.3640799,110.343237 C51.8121526,109.038334 52.1690512,107.692768 52.3903883,106.272038 C52.4389745,105.966452 52.5511426,105.665178 52.7058986,105.38362 C52.8720514,105.107607 53.0735941,104.846996 53.2775362,104.607948 C54.0591141,103.693038 54.7303234,102.732536 55.3265539,101.733835 C55.9191855,100.732671 56.5436081,99.7524531 57.0660596,98.7112417 C58.0875693,96.6158808 59.1798589,94.5507088 60.2475555,92.4522674 C60.7088245,91.6100567 61.2132811,90.7949545 61.6913452,89.959521 C62.1838053,89.133329 62.6444744,88.2812607 63.163327,87.4710874 L64.760673,85.063363 C65.2987201,84.2624312 65.8247707,83.4485612 66.4317982,82.7018462 C71.2124397,76.346144 77.066776,70.9953031 82.9001184,65.5914775 C88.8714215,60.0508774 95.8864281,55.5983124 103.413689,52.5430655 L105.325346,51.7458302 L107.263395,51.0169822 C108.556628,50.5364231 109.811471,49.9529751 111.120899,49.5186236 C112.41953,49.053467 113.704365,48.5445672 114.993998,48.0430607 C116.302826,47.5994676 117.605656,47.1299984 118.906087,46.6340367 L119.733252,46.3241377 L120.577812,46.0733844 L122.275929,45.6002185 L123.984244,45.1541611 L124.8408,44.9385256 L125.709353,44.777107 L129.185366,44.1437548 L130.053319,43.9817201 L130.92967,43.8683574 L132.679373,43.6249974 C133.421362,43.5165635 134.186744,43.4691237 134.936531,43.3730119 C135.685119,43.2695068 136.428907,43.2048162 137.119911,42.930035 C138.978783,42.2264471 140.892239,41.7970244 142.831488,41.7039931 C143.799613,41.6331415 144.771337,41.5943271 145.74486,41.5659864 C146.718383,41.5382618 147.693106,41.618355 148.669029,41.6306771 L151.920105,41.6959838 C153.001598,41.7686838 154.08309,41.8302939 155.166383,41.8771176 C157.340165,41.9122354 159.489354,42.1574438 161.666735,42.2067319 L162.648057,42.2406175 L163.62158,42.3354971 L165.571026,42.5394267 C166.871456,42.6823622 168.179085,42.8105113 169.46092,43.0754349 L173.329821,43.7968897 L177.150135,44.764785 C178.433771,45.0586654 179.679017,45.4862398 180.93626,45.8793125 C182.186904,46.2908682 183.465141,46.6291079 184.689393,47.1232212 L188.407736,48.4903503 L192.073295,50.0102725 C197.537742,52.333591 202.844434,55.1072796 207.936987,58.2962206 L211.300831,60.5172662 L212.144791,61.0705253 L212.964758,61.6607504 L214.615489,62.8270304 L216.142655,63.8836444 C216.657309,64.2298934 217.130574,64.6297432 217.628433,64.999404 L220.596989,67.2561836 L223.467773,69.6515859 L224.908564,70.854832 L226.287572,72.1289297 C227.122535,72.8996726 228.136247,73.5207028 228.836848,74.408505 C232.389038,79.2085512 236.755198,83.1491359 240.599505,87.7729771 C240.919814,88.1722108 240.888623,88.865941 241.108161,89.8036474 C240.09145,89.2774967 239.359058,89.1012917 238.911585,88.6453767 C236.451684,86.2592159 233.894011,84.0400185 231.470099,81.7327187 C223.596137,74.110928 215.219517,67.3442861 206.268261,61.6841623 C199.86808,57.6283666 192.944247,54.6230239 185.887852,52.430935 C185.445178,52.3009376 184.76917,51.9405183 184.620413,53.1850432 C185.148862,53.4906295 185.646721,53.8800056 186.21356,54.0863995 C187.932072,54.8324984 189.62659,55.6574582 191.341503,56.4177273 C192.187862,56.822506 193.049817,57.1909346 193.944763,57.4928243 C194.840308,57.7928657 195.772444,58.0189749 196.717775,58.2284494 C198.267735,59.5647734 200.019237,60.4969348 201.73175,61.5227437 C202.600303,62.0131604 203.487451,62.4777009 204.375799,62.9434736 C205.235954,63.4542217 206.093711,63.9711308 206.937671,64.5120678 C214.458933,69.3213555 221.319184,75.228536 227.87952,81.5891671 C231.873185,85.5506992 236.32512,89.2503883 240.156231,93.6937117 C242.887855,96.9726035 246.242102,99.8473328 248.765585,103.43674 C249.482381,104.456388 250.25916,105.426131 251.044337,106.374927 C251.794124,107.33851 252.590098,108.265127 253.436457,109.160938 C253.860537,109.608844 254.296613,110.04874 254.746485,110.481859 C255.198756,110.91313 255.613239,111.35734 256.071508,111.784298 C256.972452,112.643143 257.93038,113.476728 258.95129,114.290598 C259.923614,115.04101 261.066889,115.869666 261.427386,116.944147 C261.973831,118.597147 262.911365,119.886648 263.945471,121.061553 C264.972979,122.237075 266.203829,123.26658 267.488664,124.331203 C268.859275,125.433409 270.198094,126.859684 270.791925,128.488656 C271.191412,129.587165 271.594497,130.696147 271.969391,131.817452 C272.298697,132.946766 272.616007,134.085937 272.912323,135.23435 C273.197242,136.383995 273.510353,137.537953 273.707697,138.706698 C273.900842,139.876674 274.066995,141.052812 274.197758,142.232646 C274.303927,143.255375 274.511468,144.200474 274.750201,145.082731 C274.973337,145.966221 275.273852,146.78502 275.652344,147.55145 C276.410529,149.082462 277.480025,150.401535 278.853035,151.583834 C280.883458,151.582601 282.611567,151.66824 284.32528,151.554877 C285.674296,151.467391 286.671213,150.466226 286.986124,148.983886 C287.284839,147.578558 287.458189,146.099915 287.754505,144.676105 C288.036425,143.251062 288.365132,141.881468 289.116118,140.670213 C289.631372,139.827386 289.968476,138.888448 290.222804,137.90515 C290.350567,137.414117 290.458537,136.910762 290.556909,136.403711 C290.630688,135.896659 290.705667,135.385911 290.779446,134.877011 C291.073962,132.837716 291.43086,130.819984 292.639517,129.1485 C292.893245,128.810877 292.649114,127.974211 292.639517,127.374128 C292.632919,126.173347 292.626321,124.973797 292.619723,123.728656 C292.615524,123.102697 292.609526,122.464416 292.604727,121.808884 C292.603527,121.151504 292.59213,120.477489 292.545944,119.784375 C291.43206,118.811551 290.542513,117.664986 289.880901,116.304634 C289.549795,115.623842 289.276273,114.890065 289.059734,114.096526 C288.835398,113.305452 288.624858,112.46509 288.492295,111.55326 C288.244566,109.919975 287.7719,108.306405 287.249449,106.704542 C286.675412,105.11808 286.026996,103.54887 285.509943,101.953167 L284.814741,99.830698 C284.577208,99.1252619 284.299487,98.4352283 284.04336,97.7365693 L282.462809,93.5624821 C282.208481,92.8625909 281.919363,92.1781022 281.620648,91.4973102 L280.738299,89.4500051 C280.138469,88.0902693 279.575229,86.7114343 278.937611,85.3707976 L276.980967,81.3679867 L275.996047,79.3699697 L274.930749,77.4163121 L272.783359,73.5176223 C272.058166,72.2238093 271.255594,70.9780523 270.490811,69.7088833 C269.538282,68.1556916 268.666729,66.5415059 267.728596,64.9827693 C265.367067,60.8092983 263.078717,56.4657832 259.071256,53.5774998 C257.921983,52.7673264 257.076823,51.3398194 256.151286,50.1458148 C255.047599,48.731246 253.916921,47.328383 252.791041,45.9205913 C252.223002,45.2225484 251.647766,44.5312826 251.047936,43.8689735 C250.425913,43.2276119 249.784695,42.6108944 249.114685,42.031143 C248.319311,41.3435738 247.475951,40.7453393 246.701571,40.0787176 C246.311082,39.747255 245.946986,39.3899162 245.597885,39.0110138 C245.243385,38.6364241 244.919478,38.2248684 244.638157,37.7535508 C243.687428,36.1609286 242.250236,35.1240299 240.716472,34.1056143 C238.414326,32.7064479 236.212952,31.1206029 234.03557,29.5316773 C229.635221,26.3877117 224.962549,23.6220325 220.622782,20.497166 C219.473508,19.6672774 218.30564,18.8681939 217.123976,18.0925222 C215.929716,17.3414945 214.698265,16.6570059 213.470414,15.965124 C212.234166,15.2917251 211.017112,14.5751992 209.743673,13.9751164 C208.472635,13.3694887 207.201596,12.7626288 205.928757,12.1557689 L204.102876,11.2765921 L202.248203,10.4547128 C201.007156,9.91439188 199.764909,9.37345483 198.525061,8.83374999 C197.288213,8.28295531 196.006377,7.85784533 194.73054,7.43458365 C193.452303,7.01809909 192.166268,6.64166112 190.872436,6.32436889 C189.48683,5.99537073 188.07723,5.77357422 186.690424,5.50125739 C185.306618,5.22894056 183.92461,4.95662373 182.543203,4.684923 C181.158796,4.43355362 179.786386,4.14090545 178.425973,3.77247679 C177.06496,3.40219984 175.717743,2.94874919 174.358529,2.4768155 C173.816283,2.27843084 173.127079,2.07634958 172.619023,2.18663173 C171.400769,2.45401975 170.219705,2.5643019 169.060834,2.55013157 C167.901964,2.54150615 166.75449,2.48420872 165.621412,2.29506558 C163.354056,1.94142336 161.12209,1.1768415 158.842738,0.510219757 C158.035367,0.258234275 157.07444,0.426429963 156.19509,0.327237634 C155.384121,0.236670725 154.573151,0.154113134 153.760982,0.0894224849 C152.948813,0.0555369066 152.136044,0.0327411539 151.323874,0.0185708212 C149.697737,-0.0103859457 148.072199,-0.00360883006 146.44906,0.0259640383 C144.826521,0.106057223 143.206381,0.243447841 141.589241,0.373445241 L139.165929,0.579839218 C138.359159,0.642065462 137.554187,0.78007218 136.748616,0.876800104 L131.925387,1.49598203 C130.319043,1.70299211 128.721097,1.99810469 127.115954,2.21004358 C123.899068,2.60003579 120.706775,3.16130418 117.441303,3.43300491 C116.559553,3.49338285 115.695799,3.8186844 114.842241,4.0792953 C107.165023,6.33114601 99.4890043,8.51091284 92.0271248,11.433698 C84.2929226,14.4698458 76.7800575,18.1615255 69.7200637,22.6202515 C62.6918609,27.0882191 56.2203,32.3860752 50.0888423,38.0049202 C45.8744399,41.7976405 41.8723772,45.8349532 38.0280696,50.0256751 C36.3443481,51.9343573 34.7320063,53.913275 33.089673,55.8601555 C31.5343149,57.8834326 29.9381685,59.8703597 28.3456211,61.8609834 C26.903031,63.7684334 25.4616406,65.6050317 24.2187938,67.6991605 C23.4450137,69.0742989 22.6706337,70.4537499 21.8944543,71.8350493 C21.5111632,72.5275473 21.0996801,73.2027945 20.7331843,73.904534 L19.6193008,76.0017433 C18.872513,77.3953647 18.0891356,78.7649581 17.3087574,80.130855 C16.5631693,81.5164671 15.7869898,82.8805157 14.9670228,84.2149913 C12.2623914,88.6613953 10.3339394,93.3942864 8.90694493,98.3477419 C8.73899266,98.931806 8.5572443,99.5097092 8.41388504,100.101783 L7.9868064,101.877387 C7.69768856,103.058453 7.38997601,104.230894 7.01808169,105.38054 C6.57720697,106.67004 6.24550123,108.003283 5.91379549,109.337759 C5.57849077,110.671003 5.24738486,112.006094 4.89468509,113.328248 C4.23247327,115.984877 3.59485446,118.618095 2.59793775,121.103448 C1.65320622,123.788418 1.4072761,126.526373 1.28671036,129.222433 C1.26211735,130.57724 1.25311991,131.922805 1.17874104,133.260977 C1.14215144,133.930063 1.08876661,134.597301 1.00778962,135.263307 C0.968200873,135.596618 0.921414169,135.929929 0.86622985,136.262623 C0.822442293,136.59655 0.775055759,136.930477 0.716272464,137.265021 C0.613101781,137.856478 0.594507065,138.470115 0.547720361,139.07451 C-0.12708788,146.321095 -0.112691971,153.58986 0.237008655,160.848767 L0.626897861,166.290175 C0.782853543,168.102129 1.0377811,169.90669 1.24712161,171.714332 L1.58422582,174.423946 L2.03889662,177.116925 C2.3574061,178.90978 2.63512718,180.711261 3.00522202,182.493642 C3.76700554,185.898219 4.48140253,189.315733 5.4795189,192.658699 C6.35946884,196.036167 7.50454345,199.327997 8.6100293,202.630917 C9.1804672,204.275908 9.84267902,205.885781 10.4599036,207.512905 L11.405235,209.944657 C11.7417394,210.746821 12.0992378,211.538511 12.4471389,212.335131 C13.1519386,213.922824 13.8351445,215.522223 14.5675364,217.096362 L16.8762803,221.763947 C20.4584623,228.740063 24.3951437,235.478365 28.4805827,242.225291 C32.1383433,248.120766 36.8524037,253.344074 41.633645,258.363452 C54.5773668,271.867163 70.0223778,282.901539 86.9957545,290.51224 C103.686612,298.017588 121.799664,302.080777 139.90132,302.82934 L145.022065,302.967347 L146.302701,303 L147.582738,302.981517 L150.14281,302.945167 C153.55824,302.962418 156.97067,302.714745 160.391498,302.542853 C161.248054,302.513896 162.099812,302.416552 162.95397,302.338307 L165.515842,302.098028 C167.224756,301.938457 168.938469,301.802915 170.639586,301.544152 L175.764529,300.865825 C177.466845,300.597204 179.165563,300.283609 180.873277,299.997738 C181.760425,299.84248 182.649973,299.691535 183.532922,299.509785 L186.164374,298.873353 L188.791027,298.198106 C189.664979,297.963371 190.543729,297.745271 191.400886,297.452623 C193.125396,296.899364 194.846307,296.328238 196.565418,295.748486 C197.430972,295.473089 198.271333,295.131769 199.118293,294.804003 L201.656172,293.81516 L204.19405,292.824469 L206.69414,291.739514 C208.354468,291.002657 210.044788,290.326178 211.696718,289.565908 C213.342651,288.795782 214.99818,288.039209 216.666306,287.302352 C217.507867,286.946861 218.324235,286.544547 219.147801,286.153323 L221.635294,285.001213 C221.912415,284.876144 222.196135,284.760933 222.45946,284.607524 C232.471815,278.717595 241.733183,271.531388 250.169186,263.448753 C251.161304,262.491948 252.165418,261.525284 253.161136,260.565398 C254.144256,259.591342 255.156169,258.659797 256.231063,257.834837 C256.850687,257.35859 257.453516,256.882344 258.032351,256.389463 C258.607588,255.893501 259.12644,255.351332 259.627298,254.794376 C260.621216,253.67184 261.477172,252.419921 262.105794,250.925875 C262.669034,249.630214 263.725933,248.241522 264.823022,247.260072 C267.613429,244.795666 269.956363,241.920321 272.110951,238.905737 C274.125778,235.792576 275.964256,232.538329 277.270684,228.984039 C277.806932,227.555916 278.51593,226.067415 279.39888,224.893126 C280.533157,223.394767 281.559466,221.824941 282.497599,220.208291 C282.980462,219.406743 283.391945,218.566997 283.786633,217.719857 C284.18372,216.87395 284.561013,216.018185 284.92271,215.155643 C285.285007,214.293717 285.631109,213.424398 285.964614,212.55015 C286.283123,211.669741 286.556046,210.769617 286.838565,209.875038 C287.38441,208.07787 287.929655,206.285015 288.393324,204.465667 C288.675244,203.28152 289.07413,202.043156 289.663763,201.014267 C291.280903,198.289866 292.224435,195.290685 293.029406,192.25885 C293.455285,190.748169 293.728208,189.196826 294.016726,187.652259 C294.302244,186.107077 294.579966,184.561895 294.886478,183.025954 C295.033437,182.119669 295.074225,181.02116 294.783908,180.272596 C294.516384,179.581947 293.778593,178.894994 293.172765,178.83708 C292.270622,178.75021 291.306096,179.204893 290.469934,179.394652 C290.238399,178.997267 290.035657,178.795801 289.987671,178.540735 C289.877302,177.965913 289.909093,177.335025 289.762734,176.784846 C289.491012,175.768895 288.550479,175.343785 288.152792,175.996853 C286.655617,178.42614 285.279608,180.848035 283.520308,183.360497 C283.496915,182.36919 283.429734,181.546694 283.465724,180.724199 C283.47952,179.639244 283.86521,178.449552 282.886289,177.678809 C280.062291,179.230769 279.664004,179.497541 279.412676,180.491312 L278.019272,186.224752 C277.499819,188.11988 276.953974,190.006383 276.481908,191.913217 C276.180794,193.219352 275.782507,194.494066 275.433406,195.78603 L274.369309,199.664389 C273.969222,200.941567 273.548742,202.2132 273.122263,203.48545 C272.678389,204.749074 272.286701,206.038574 271.740856,207.262152 C267.57504,217.482042 262.05001,227.07967 255.739803,236.053803 C249.953847,244.223924 242.916047,251.385487 235.263421,257.608112 C227.599399,263.842442 219.329549,269.150772 210.795175,273.90461 C210.066982,274.288441 209.277606,274.549668 208.526619,274.887908 L204.685911,276.604367 C203.381881,277.115115 202.077252,277.625247 200.770823,278.136611 L198.815379,278.896264 C198.158566,279.138392 197.489156,279.348482 196.826344,279.574592 C195.500121,280.01572 194.171499,280.458697 192.841077,280.90229 C187.467204,282.497993 182.018352,283.915642 176.406947,284.818847 C176.093836,285.744847 175.765729,286.713359 175.405231,287.77675 C173.293831,286.143465 171.6443,285.179882 169.296567,285.749776 C168.254663,285.996217 167.197164,286.182896 166.130667,286.307964 C165.061171,286.409621 163.989275,286.494643 162.926977,286.633266 L160.335114,286.971505 C159.472559,287.097806 158.601606,287.129227 157.734853,287.213017 C155.999546,287.344863 154.265439,287.521684 152.528332,287.609786 L147.311015,287.749641 C146.441262,287.785991 145.572109,287.760731 144.702356,287.72931 L142.094897,287.639975 C141.393096,287.614099 140.629513,287.719452 139.892923,287.669548 C139.156332,287.63135 138.450333,287.357801 137.875696,286.689947 C138.413143,286.557485 138.912801,286.306116 139.405861,286.330144 L143.778019,286.310429 L145.961398,286.289481 C146.688992,286.273462 147.415385,286.213085 148.142379,286.179199 C149.595766,286.099722 151.047353,286.027022 152.498941,285.970957 L156.848904,285.667835 C174.515684,284.566862 192.12368,279.904206 208.103739,271.615793 C209.378377,271.00955 210.587634,270.277005 211.823282,269.593133 C213.045735,268.885232 214.300578,268.230316 215.494839,267.471895 C217.879162,265.948893 220.307871,264.486884 222.588423,262.79815 C227.262295,259.581484 231.611059,255.892269 235.800269,252.041019 C241.921529,246.279855 247.435762,239.853301 252.33757,232.98685 C257.235778,226.113007 261.52036,218.799883 265.260897,211.200888 C266.290804,209.109224 267.138963,206.934386 267.987122,204.775566 C268.752505,202.579781 269.427913,200.356271 270.10812,198.146931 L271.842827,191.427729 C272.329888,189.166637 272.898527,186.933885 273.446771,184.691892 C273.678305,183.646984 273.921236,182.426487 273.653712,181.475843 C273.367593,180.454962 273.201441,179.459959 273.136059,178.479741 C273.032889,177.491515 273.020892,176.516226 273.092272,175.547715 C273.226634,173.608843 273.725092,171.695849 274.193559,169.720011 C274.313525,169.253623 273.587131,168.538945 273.103069,167.69427 C272.511637,168.484728 271.937,169.253623 271.366562,170.016356 C271.090641,170.395258 270.824916,170.77108 270.571188,171.148134 C270.310262,171.523956 270.040939,171.897314 269.798608,172.276216 C268.817886,173.792442 268.085494,175.370277 267.796976,177.241377 L267.025596,181.007605 C266.760471,182.261372 266.530736,183.525612 266.187634,184.760895 C265.547016,187.241936 264.97058,189.746388 264.202198,192.194159 C262.776403,197.41069 261.036897,202.555753 258.911102,207.549871 C257.96577,209.527556 256.997045,211.500313 255.92695,213.413308 L254.260023,216.246142 C253.697983,217.185697 253.176131,218.14928 252.570903,219.060494 L250.722229,222.002378 L249.797891,223.473628 L248.812371,224.902367 L246.837732,227.756765 C246.515024,228.237941 246.169522,228.700017 245.810824,229.152851 L244.747326,230.521829 C244.083915,231.3702 243.387513,232.190847 242.686312,233.005949 L240.485538,235.361921 C239.759744,236.152379 239.065141,236.96933 238.398731,237.815237 C237.705328,238.635884 237.057512,239.501507 236.475077,240.439829 C235.947827,241.277727 235.018091,241.859943 234.24911,242.527797 C232.092123,244.3225 229.938735,246.090712 227.734361,247.786839 C227.192115,248.222422 226.658867,248.666632 226.135215,249.123779 L224.573859,250.509391 C223.531355,251.433543 222.538637,252.426082 221.611901,253.527056 C220.998875,254.283012 219.888591,254.543007 219.038032,255.07347 C212.424312,259.271585 205.409905,262.618248 198.364907,265.687049 C189.922906,269.339915 181.230776,272.412413 172.265723,274.2792 C170.825533,274.632226 169.349352,274.943357 167.883369,275.234773 C166.415586,275.500929 164.9568,275.760308 163.503413,275.590264 C159.248223,275.242166 155.189176,275.731967 151.047953,276.006132 C149.468002,276.086225 147.905446,275.897698 146.351288,275.735664 C144.79593,275.505858 143.249569,275.279749 141.66122,275.388183 C140.856249,275.437471 140.011689,274.470807 139.206718,273.899681 L139.330883,273.777693 C138.765843,274.892221 138.199004,276.133665 136.737819,276.043098 C135.330019,275.956228 134.724192,274.857103 134.323505,273.589782 C134.219135,273.273106 133.728475,273.072873 133.417763,272.808566 C132.333271,275.813909 131.651265,276.395508 129.445092,275.461499 C128.809272,275.187333 128.177652,274.965537 127.55023,274.750518 C126.925208,274.521944 126.300185,274.335881 125.666166,274.199723 C124.398126,273.927406 123.096496,273.85717 121.688696,274.04693 C120.250904,274.167686 119.205402,271.07424 120.141735,269.785972 C120.595207,269.150156 121.116458,268.59628 121.70969,268.234013 C122.303521,267.869897 122.964533,267.717104 123.726917,267.791652 C131.086825,268.815613 138.480324,268.89509 145.81444,268.890777 C156.634165,268.855043 167.534268,267.925962 178.08527,265.058626 C179.202752,264.75304 180.365822,264.59963 181.482704,264.279874 L184.192734,263.602778 C185.098477,263.377901 186.016216,263.181365 186.902164,262.889333 C187.79591,262.617016 188.689656,262.33977 189.580403,262.048971 C190.468751,261.752626 191.368495,261.477845 192.222052,261.087852 C198.977933,258.341888 205.35832,254.680398 211.508372,250.681283 C216.256623,247.557033 220.823125,244.138286 225.429816,240.718307 C227.589802,238.994455 230.303431,238.017935 231.455104,235.002734 C232.083125,233.435988 233.924602,232.83837 235.855453,233.570298 C236.235745,233.718163 236.756997,233.461865 237.431805,233.354047 C237.851686,232.052841 238.068824,230.518132 238.78742,229.322279 C239.532408,228.048181 240.37157,226.842471 241.219729,225.642921 C241.654605,225.050848 242.052892,224.43105 242.436183,223.802626 C242.824273,223.177283 243.202166,222.546396 243.557265,221.904418 C243.909365,221.268601 244.233872,220.615534 244.544584,219.958154 C244.843899,219.292764 245.101226,218.601498 245.378347,217.927483 C245.917594,216.568364 246.504827,215.254835 247.189832,213.997988 C250.08221,208.690275 253.081358,203.367774 255.029005,197.617084 C255.827378,195.083675 257.975367,195.588878 259.426955,194.519326 C260.00639,193.219352 260.473058,191.878715 260.909134,190.534382 C261.124473,189.860983 261.324816,189.184504 261.511962,188.50556 C261.667918,187.816142 261.807079,187.123644 261.936042,186.429914 C262.18917,185.041221 262.408108,183.650681 262.554466,182.25213 C262.652238,180.840026 262.706823,179.427921 262.727217,178.02013 C262.7872,176.301823 263.222676,174.786213 264.423535,173.327901 C265.064153,172.54422 265.506827,171.649641 265.632192,170.703925 C265.730564,169.754513 265.478635,168.749652 264.814024,167.767586 C263.981461,166.550786 264.533304,165.483698 265.277093,164.374099 C265.590204,163.898469 265.494231,163.17455 265.586605,162.56769 C265.037761,162.469114 264.785232,162.352054 264.573492,162.40011 C263.620963,162.61513 262.684629,162.888063 261.734499,163.094457 C259.984197,163.472743 259.693279,163.271894 259.193021,161.571454 C258.680167,159.827271 258.127724,159.339318 257.034235,159.599313 C255.71341,159.914757 254.937831,160.68242 255.039802,162.035994 C255.067394,162.462953 255.226948,162.889295 255.387103,163.314405 C255.543059,163.737666 255.730205,164.164009 255.866367,164.593431 L256.238861,164.244718 Z"/>
    <path d="M50.5334917 140.075135C50.484561 141.825238 50.7235247 143.592445 50.6802836 145.32972L50.6495597 146.760345C50.6558183 147.238646 50.6808526 147.718168 50.6933697 148.196468L50.777007 151.061995C50.7735932 152.015541 50.9004716 152.967255 50.9590746 153.918358L51.1644695 156.765559 51.5069841 159.590158 51.669707 160.999403C51.7157928 161.470373 51.7761027 161.9389 51.8648606 162.40254L52.3205985 165.19232 52.5379416 166.585683 52.8286807 167.963775C53.0670754 169.092637 53.2696256 170.226997 53.4841239 171.358914 53.7503977 172.478002 54.0018785 173.600145 54.2419801 174.725342 54.4519267 175.85848 54.7864758 176.957411 55.0681116 178.070391 55.3702299 179.177262 55.6046419 180.306735 55.9824321 181.389172 56.0757417 181.683605 55.7798819 182.109983 55.5073495 183 55.1284215 182.023852 54.7221832 181.163155 54.4297372 180.315898 54.1355843 179.469251 53.8619141 178.668419 53.6092953 177.859034L53.1325059 176.327007C52.9925415 175.810223 52.8747666 175.28733 52.7490262 174.766269 52.502666 173.722316 52.2699609 172.673476 52.0702556 171.62036 51.8438091 169.87209 51.4859325 168.166579 51.1058665 166.456182 50.9499712 165.594264 50.776438 164.734178 50.5892498 163.87226L50.2985107 162.577856 50.1465981 161.928516 50.03053 161.272456C48.7941776 155.274459 48.8726942 148.974699 49.2288639 142.828875 49.2436569 141.857003 49.7198773 140.932777 50.0060647 140L50.5334917 140.075135zM143 47.1731638C146.389052 46.9511081 149.606169 46.980989 152.722183 47.0524686 154.279282 47.1303932 155.81156 47.20656 157.333546 47.2827268 158.850688 47.4221708 160.355117 47.5610288 161.859546 47.6998868 162.894182 47.7953883 163.923369 47.9207706 164.965874 47.98229 166.004142 48.069003 167.061178 48.0801351 168.093392 48.2289534 169.750382 48.4680001 171.427352 48.6543159 173.091607 48.9203139 174.740728 49.2408006 176.406194 49.5355076 178.056526 49.898179 179.007615 50.1454283 179.887873 50.6451999 181 51.10806 180.297126 51.5674046 179.888478 52.0507711 179.614836 51.9956966 170.424197 50.106173 161.303785 48.9244152 152.051396 48.080721 150.137713 47.9512374 148.360247 48.4117538 146.565224 48.8084073 145.537854 49.0872951 144.548018 48.9619127 143 47.1731638M62.8636861 96.0115148C63.1046001 97.0926957 62.9226627 97.9660039 62.5726977 98.755678 62.2310783 99.5508066 61.7798515 100.301088 61.3937215 101.050157 58.7993063 106.210008 56.4663913 111.525006 54.661484 117 54.3482402 116.981819 54.1312507 116.987879 54.1245741 116.967274 54.0628156 116.769098 53.9648921 116.538801 54.0127411 116.367897 55.6813345 110.916539 57.7850196 105.602753 60.3393752 100.535021 60.7410839 99.752619 61.1455746 98.9702173 61.5968014 98.2193299L63 96 62.8636861 96.0115148zM128 50.0410126C126.82852 50.2711431 125.635379 50.4050608 124.496992 50.7938123L121.590854 51.6980822C121.104693 51.8365505 120.626955 52.0101235 120.15343 52.1973483L118.728039 52.7343195C117.780987 53.1009681 116.820096 53.4130094 115.882671 53.8030611 114.95006 54.2061145 114.015644 54.5994166 113.077617 54.9803671 112.738267 55.1214358 112.127557 54.4765504 111 53.8706701 116.747894 50.9335808 122.450662 49.757575 128 50.0410126M239.162509 181C239.102842 179.738393 238.934215 178.476786 239.027608 177.266448 239.10803 176.491572 239.487439 175.745251 239.700816 175.019049 242.103093 174.851613 243.44432 175.797169 243.930742 177.49294 244.332202 179.114728 242.959195 180.359462 240.568593 180.800116 240.091251 180.888376 239.56851 180.861119 239.067819 180.884482L239.162509 181zM170 244.748861C170.585375 244.493858 171.203306 244.24742 171.844401 244.013503 172.487374 243.782879 173.152886 243.562799 173.812763 243.289346 175.140031 242.768137 176.536792 242.34445 177.889102 241.914831 179.225135 241.441724 180.543011 241.045711 181.766977 240.748537 182.979674 240.424347 184.067156 240.121901 185 240 184.779624 240.362408 184.635628 240.913268 184.320088 241.061526 181.05764 242.609337 177.692516 243.946292 174.230978 244.864832 173.588631 245.062509 172.88305 245.012431 172.171835 244.910297 171.461246 244.812118 170.744397 244.662542 170.053842 244.599944L170 244.748861zM71 85.1792261C70.7566258 85.7084559 70.6301431 86.334842 70.2554907 86.7397601 69.4756141 87.6045108 68.7430936 88.5084861 68.0681198 89.4468583 67.7360279 89.9205703 67.4255159 90.4093686 67.1587634 90.924719 66.9171875 91.4599834 66.7163737 92.0199894 66.5713083 92.6131855 66.5125628 92.8575847 65.8753539 92.8744814 65.5030993 93 65.3274622 92.646979 64.9096498 92.1225768 65.0175497 91.9614543L66.2548019 90.1450554 67.6029513 88.408916 68.9517001 86.6727766C69.4030814 86.0952704 69.9066143 85.5606095 70.3783767 85L71 85.1792261zM71 208C71.7813096 208.7054 72.5581691 209.302651 73.2180547 209.921167 73.8842975 210.536645 74.4691672 211.14787 75 211.787651 76.1341386 213.010101 77.0470439 214.346776 78 216 76.4990464 215.047923 75.1894469 213.918432 73.9872854 212.629149 73.4265734 211.95352 72.8957406 211.234754 72.3909727 210.469811 71.8881119 209.703653 71.3858868 208.909547 71 208M93 65C92.4048606 65.9518095 92.2759985 66.384608 91.9922758 66.5813346L90.1305576 67.8571644C89.5032027 68.2714474 88.9238885 68.7592136 88.3151846 69.2006912L86.5015072 70.5459539C85.8899774 70.9851171 85.3304446 71.4948704 84.7392615 71.9612281 84.6217031 72.057277 84.3453278 71.9473415 84 71.9253544 84.0418237 71.5903406 83.9672193 71.119354 84.1412962 70.9856957 86.7925772 68.9327959 89.4331198 66.7867403 93 65M232 198C231.904126 198.449384 231.785925 198.890555 231.649995 199.322925 231.50093 199.750016 231.309182 200.157747 231.114151 200.563718 230.717522 201.373313 230.255883 202.151815 229.746306 202.903331 229.261683 203.66834 228.607639 204.342416 227.983145 205.025878 227.345518 205.702301 226.678341 206.357604 226 207 226.384809 206.176325 226.785378 205.367903 227.218781 204.581188 227.63905 203.788019 228.149283 203.04765 228.587282 202.270321 229.049579 201.505899 229.560468 200.76905 230.137682 200.063294 230.42399 199.708363 230.739192 199.368685 231.048484 199.024314 231.345956 198.674663 231.662471 198.332638 232 198M75 81C75.4355795 80.3266852 75.8667782 79.6474796 76.4006135 79.0578137 76.9263129 78.4593116 77.4826781 77.8808382 78.0653283 77.3100227 78.6579918 76.7498107 79.2343837 76.1530758 79.9109088 75.6305647 80.5805497 75.1015737 81.2670882 74.559623 81.9755307 74 81.9454907 74.9596062 82.0844256 75.4326349 81.9110699 75.5740133 81.3459431 76.0387949 80.7764354 76.5023984 80.2269543 76.9836742 79.6937449 77.4820332 79.1561546 77.9750905 78.6010411 78.4481192 78.0453017 78.9205588 77.4714131 79.3717916 76.8637296 79.788858 76.2616786 80.2124043 75.6683893 80.6412522 75 81M58.0102445 187C60.1705312 187.519067 60.4474603 188.504769 60.9875319 189.404198 61.0438768 189.505724 60.8970205 189.789328 60.7915237 189.816497 60.4102966 189.914685 59.8504443 190.068165 59.6328572 189.96664 59.012464 189.667783 58.5335326 189.296 58.2991618 188.796952 58.0534022 188.300765 57.9682855 187.705435 58.0102445 187M51.2735519 135C51.1709289 133.209505 50.9436472 131.370688 51.012902 129.565374 51.0185683 129.165911 51.2659969 128.777401 51.4599104 128.409509 51.5518304 128.234261 51.8766985 127.972677 51.9333615 128.002315 52.3255956 128.203335 52.9822573 128.490046 52.9917011 128.709106 53.047105 129.828246 52.818564 130.870071 52.501251 131.905452 52.2122696 132.945988 51.7709275 133.966551 51.2735519 135M86.2932961 225C87.2136872 225.772358 88.1347765 226.544715 89.0677374 227.3275 89.9909218 228.122202 91.0083799 228.808163 92 229.586479 90.1201117 230.804227 89.7388268 229.003301 88.8847765 228.402247 87.8303073 227.597118 86.9532123 226.529819 86 225.587647L86.2932961 225zM139 247.278828C140.206426 246.959743 141.215836 246.955881 142.300017 247.063047 143.385978 247.139319 144.538996 247.369099 146 247.616257 144.538996 247.741284 143.360461 247.949824 142.253137 247.99858 141.151746 248.018372 140.126314 247.833968 139 247.278828M160 247.030103C159.134173 247.289772 158.270706 247.60547 157.303954 247.805879 156.820578 247.906622 156.311824 247.978273 155.766476 247.999822 155.218768 248.004132 154.630927 247.929787 154 247.797259 154.580759 247.478329 155.133189 247.303779 155.66083 247.190107 156.186701 247.057578 156.691914 247.010708 157.184143 247.00155 158.167421 246.98431 159.101121 247.118455 160 247.030103M210 226C209.414684 226.595566 208.895649 227.123427 208.410265 227.616537 207.92845 228.115039 207.480795 228.581186 207 229 207.379844 228.433793 207.689327 227.773517 208.124745 227.216896 208.563732 226.662672 209.128144 226.212702 210 226M233.065343 193C232.84746 191.679093 233.183159 190.739582 233.942541 190 234.070174 191.647969 234.064888 191.67118 233.065343 193M189 238C189.695437 237.384075 190.414273 236.995316 191.2254 236.703981 192.017678 236.387822 192.915248 236.186885 194 236 193.355908 236.72178 192.638373 237.175644 191.827246 237.483841 190.99727 237.76815 190.059405 237.887588 189 238M52.7250722 124C52.4675361 123.764832 51.9512135 123.464698 52.0037209 123.299866 52.1524918 122.834899 52.5331703 122.427383 52.8188354 122 53.1863871 122.18094 53.7795954 122.329128 53.8827349 122.54604 54.2634134 123.343893 53.6752057 123.987114 52.7250722 124M204 231.298911C203.686973 232.54711 202.495201 232.66404 201.514304 232.997801 201.431866 233.025615 201.146916 232.783241 201.072243 232.627145 200.991 232.457993 200.970689 232.102095 201.050738 232.070308 201.972494 231.700219 202.489825 230.42818 204 231.298911M85 222.978889C84.5508318 223.025714 84.1706716 222.993788 83.8582871 222.891624 83.5520641 222.783608 83.30191 222.615995 83.0850277 222.415393 82.650647 222.013655 82.3524338 221.477296 82 221 82.7991374 221.171337 83.1922366 221.253813 83.5631547 221.503901 83.9445471 221.742283 84.2464572 222.197231 85 222.978889M218 215.888374C218.329061 215.428294 218.643988 214.988699 218.973049 214.529172 219.298719 214.067984 219.597814 213.555308 219.959668 213 220.07501 213.665483 219.934226 214.423425 219.6487 215.000325 219.350735 215.566706 218.941953 215.976404 218.594233 215.999104 218.481719 216.007408 218.351112 215.957027 218 215.888374M125 245.335828C125.283447 245.215641 125.619615 244.94685 125.832766 245.009273 126.254535 245.133653 126.611678 245.442506 127 245.67729 126.884921 245.790955 126.75 246.009901 126.657029 245.999652 126.185374 245.947012 125.714853 245.860366 125.264172 245.732725 125.140023 245.696855 125.085601 245.473717 125 245.335828M104 236.855588C102.57391 237.34171 102.258448 236.479029 101 236.060027 102.679252 235.86163 103.312441 236.162187 104 236.855588M133.788924 48.9958043C133.575758 49.0410004 133.267503 48.7097082 133 48.5477919 133.229885 48.3534045 133.460815 47.9909576 133.695402 48.0001724 134.133229 48.0177243 134.568443 48.252481 135 48.3964067 134.596134 48.6087847 134.216301 48.9058508 133.788924 48.9958043M102 58.73514C102.068652 58.4751412 102.077739 58.1634787 102.255427 58.015208 102.348814 57.9387625 102.744069 58.1706192 103 58.264286 102.923271 58.5150441 102.917718 58.8334271 102.744573 58.985478 102.661787 59.0615035 102.255427 58.818306 102 58.73514M68.9063564 204.247423L69 205C68.6963678 204.922062 68.2627696 204.905979 68.1174801 204.747216 67.9472191 204.560412 68.0278093 204.253196 68 204L68.9063564 204.247423zM111 240C111.34996 240.163601 111.653631 240.280552 111.939745 240.467148 111.993615 240.501971 111.981245 240.814717 112 241 111.676377 240.946781 111.348364 240.914586 111.029928 240.815375 110.991221 240.803548 111.01237 240.436925 111 240M118.105477 244.021613C118.487672 244.026505 118.904037 243.947143 119.231813 244.065099 119.539341 244.166748 119.746891 244.501592 120 244.734787 119.644381 244.831544 119.254593 245.039191 118.933777 244.99353 118.581955 244.94026 118.297207 244.642379 118.009928 244.419512 117.968165 244.387441 118.069409 244.159682 118.105477 244.021613M149.091697 248L148 247.725375C148.371457 247.471572 148.713571 247.104654 149.113705 247.006735 149.358453 246.947082 149.699233 247.298805 150 247.465944L149.091697 248zM107 57.4038527L106.849707 58 106 57.3422726C106.158358 57.2191125 106.309384 56.9904802 106.47654 57.0003068 106.642962 57.0088232 106.825513 57.259074 107 57.4038527M238.772006 182.031755C238.984759 182.137019 239.320062 182.215231 239.387869 182.351661 239.640435 182.858571 239.804044 183.390179 240 183.918847L238 183.880623 238.090824 184 238.893313 182 238.772006 182.031755zM237.932753 183C237.865967 183.418158 237.855373 183.876077 237.717655 184.247184 237.603427 184.552684 237.344572 184.75613 237.143752 185 237.096311 184.81776 236.986228 184.614977 237.001428 184.454606 237.01801 184.253148 237.099535 184.041087 237.213763 183.907223 237.454654 183.626243 237.735157 183.392313 238 183.134526L237.932753 183zM215 220.695565C215.219397 220.465326 215.444707 220.223898 215.689533 220.000136 215.696629 219.994247 215.89178 220.181501 216 220.278072L215.315198 221C215.2123 220.901073 215.109994 220.802147 215 220.695565M163.261691 245C163.506849 245.137603 163.754842 245.296305 164 245.421066 163.911667 245.642148 163.824752 246.006338 163.726972 245.999916 163.48701 245.973313 163.241852 245.766908 163 245.632057L163.261691 245zM63 197.002642C63.2358888 197.012625 63.6377422 196.973249 63.6756529 197.0398 63.8416175 197.335398 63.9005897 197.661498 64 197.978725 63.7548441 197.979279 63.3251896 198.031411 63.2940185 197.970406 63.1381634 197.662607 63.0867734 197.327633 63 197.002642M94.2412407 231C94.436128 231.031348 94.7150997 230.978297 94.8101859 231.110121 95.1732421 231.611692 95.0042874 231.98144 94.3991937 231.999928 94.2325965 232.004751 94.0565693 231.766826 94.0039183 231.572306 93.9709131 231.446109 94.1547987 231.19452 94.2412407 231M171 245.451491L170 245.769491C170.202247 244.508491 170.643754 245.883491 170.943159 245.677491L171 245.451491zM223.705 209.961477L223.068 209.722477C223.143 209.489477 223.171 209.221477 223.316 209.048477 223.365 208.992477 223.719 209.187477 223.932 209.267477L223.705 209.961477zM258 157.479974C257.803834 157.608974 257.599361 157.867974 257.435783 157.814974 257.268371 157.761974 257.14377 157.402974 257 157.177974 257.33099 157.277974 257.660703 157.376974 258 157.479974"/>
    <polygon points="63.623 96.688 63.465 96.293 63.377 96.707"/>
    <polygon points="238.759 181 238.461 181.505 238.095 182 238.29 181.977 238.629 181.531 238.905 181.077"/>
    <path d="M211.952197,224 L211.083197,223.825612 C211.085197,223.549497 210.973197,223.141623 211.118197,223.033115 C211.263197,222.924607 211.665197,223.112558 211.956197,223.170688 L211.952197,224 Z"/>
  </g>
</svg>
