<svg xmlns="http://www.w3.org/2000/svg" width="4" height="337" viewBox="0 0 4 337">
  <path fill="#1D3C34" fill-rule="evenodd" d="M566.871654,168.06308 C566.727458,168.087314 566.871654,168.157219 567.087949,168.18891 C567.917078,168.311943 565.0346,168.387441 566.332367,168.426588 C567.179521,168.452686 568.062724,168.47226 569,168.497426 C568.909877,168.539369 568.909877,168.582244 568.747656,168.600886 C568.026674,168.675451 566.927177,168.699685 566.638784,168.833904 C566.566686,168.862798 565.989901,168.887964 565.62941,168.894488 C564.457814,168.914994 567.25017,168.925247 566.06055,168.942024 C565.393641,168.952277 564.67266,168.920587 563.987727,168.986764 C565.411666,169.062262 567.0519,168.982103 568.295593,169.069718 C569.052624,169.151741 568.385716,169.232831 568.385716,169.308329 C568.385716,169.392215 567.881029,169.477034 567.556587,169.559988 C567.484489,169.579562 567.304243,169.602864 567.142022,169.608456 C566.096599,169.644807 565.051175,169.683022 563.987727,169.707256 C563.410941,169.721237 562.798107,169.708188 562.203297,169.70912 C561.302069,169.711916 560.346768,169.699799 559.914179,169.826561 C558.418142,169.926293 556.777908,169.98781 555.083601,169.989674 C550.180924,169.99713 545.278247,170.021364 540.393595,169.953323 C538.807435,169.930953 537.203251,169.941206 535.617091,169.931885 C534.409446,169.925361 533.219826,169.91138 532.030206,169.900195 C531.741813,169.897398 531.435396,169.886214 531.147003,169.892738 C527.974683,169.971032 524.766314,169.924429 521.593993,169.922564 C514.600469,169.919768 507.62497,169.856387 500.631446,169.81724 C497.332954,169.798599 494.034462,169.793006 490.753994,169.79021 C486.752545,169.78555 482.751096,169.777161 478.767671,169.755723 C473.774871,169.730558 468.782072,169.735218 463.789273,169.734286 C461.590278,169.733354 459.391283,169.754791 457.192289,169.75852 C455.497981,169.760384 453.803674,169.748267 452.109367,169.744539 C447.00842,169.734286 441.907473,169.721237 436.806527,169.714712 C429.416463,169.704459 422.026398,169.699799 414.61831,169.69141 C411.121548,169.68675 407.624786,169.677429 404.146048,169.672769 C403.334944,169.671837 402.523839,169.669041 401.748784,169.681158 C399.045102,169.723101 396.359444,169.714712 393.655762,169.716576 C387.761736,169.719373 381.867709,169.718441 375.973682,169.716576 C373.954933,169.715644 371.954208,169.712848 369.971508,169.694207 C365.771789,169.656924 361.572069,169.668109 357.37235,169.666245 C357.17408,169.666245 356.97581,169.663448 356.77754,169.666245 C350.306728,169.765044 343.799867,169.708188 337.31103,169.700731 C335.310305,169.698867 333.309581,169.683954 331.32688,169.677429 C330.714046,169.674633 330.119236,169.673701 329.524426,169.679294 C324.946191,169.727761 320.331907,169.717508 315.735648,169.727761 C314.83442,169.729625 313.933193,169.722169 313.031966,169.733354 C308.147314,169.79021 303.244637,169.759452 298.359985,169.74081 C296.16099,169.733354 293.961996,169.734286 291.781025,169.764112 C289.888448,169.789278 287.977846,169.781821 286.085269,169.791142 C280.389512,169.820036 274.71178,169.877825 269.016023,169.868504 C266.312341,169.863844 263.608659,169.864776 260.904977,169.861048 C256.705258,169.855455 252.523563,169.802327 248.359893,169.744539 C246.791757,169.722169 245.205597,169.688614 243.619437,169.668109 C241.005878,169.633622 238.590589,169.521773 236.13925,169.422974 C235.598514,169.401536 234.967655,169.37637 235.183949,169.27757 C235.201974,169.266385 234.985679,169.236559 234.841483,169.232831 C234.048403,169.213257 233.814084,169.122846 233.399519,169.064126 C233.093102,169.022182 232.786685,168.941092 233.201249,168.875847 C233.489642,168.829243 233.345446,168.791961 233.273347,168.746289 C233.111127,168.637236 233.453593,168.592497 234.318771,168.597157 C234.715311,168.599022 235.1479,168.596225 235.490367,168.613935 C236.914306,168.686636 238.212073,168.640033 239.527865,168.574788 C241.564639,168.474124 243.601413,168.377188 245.674235,168.294234 C247.747058,168.211279 249.85593,168.136714 251.982827,168.074265 C255.749957,167.963348 259.589185,167.882258 263.428414,167.804896 C268.853802,167.695843 274.333264,167.656696 279.776677,167.563489 C282.732703,167.513157 285.742802,167.505701 288.716852,167.47867 C289.924497,167.467486 291.114117,167.450708 292.303737,167.444184 C296.575555,167.418086 300.865397,167.395716 305.137214,167.373346 C305.641902,167.37055 306.128564,167.383599 306.615227,167.383599 C307.822872,167.384531 309.012492,167.383599 310.220136,167.378007 C310.905069,167.37521 311.608027,167.350976 312.292959,167.355637 C315.987991,167.381735 319.683023,167.318354 323.378055,167.324878 C324.874093,167.327675 326.37013,167.293188 327.866168,167.282935 C332.642672,167.250313 337.437202,167.236332 342.231731,167.187864 C349.405501,167.11423 356.597295,167.128211 363.789089,167.102113 C367.574243,167.089064 371.377423,167.117026 375.180602,167.11423 C379.866984,167.10957 384.571391,167.09186 389.257773,167.080675 C390.339246,167.078811 391.438743,167.08254 392.53824,167.077879 C398.432267,167.057374 404.308269,167.034072 410.202296,167.012634 C412.401291,167.004246 414.600285,166.981876 416.781255,167.029411 C417.069648,167.035936 417.376065,167.038732 417.682483,167.0378 C424.9644,167.028479 432.264341,167.062034 439.546258,167.055509 C449.748151,167.045257 459.950044,167.04246 470.151938,167.047121 C474.24351,167.048985 478.353106,167.038732 482.426654,167.09186 C482.534801,167.092792 482.624924,167.094657 482.715047,167.092792 C484.932066,167.061102 487.113036,167.100249 489.294006,167.104909 C493.493725,167.11423 497.693445,167.11423 501.893164,167.124483 C506.183006,167.135668 510.472848,167.157105 514.780715,167.172951 C516.781439,167.180407 518.76414,167.188796 520.764864,167.193456 C529.362573,167.215826 537.960282,167.236332 546.539966,167.257769 C547.74761,167.260565 548.919206,167.268954 550.108826,167.297848 C551.460667,167.331403 552.902631,167.339792 554.290521,167.333267 C556.940129,167.32115 559.427516,167.413425 561.968978,167.465621 C562.942303,167.486127 563.84353,167.539255 564.618586,167.618481 C565.303519,167.686523 566.096599,167.737787 566.799556,167.793711 C567.0519,167.885986 567.466464,167.968008 566.871654,168.06308 Z" opacity=".1" transform="rotate(-90 201.5 368)"/>
</svg>
