<svg xmlns="http://www.w3.org/2000/svg" width="4" height="151" viewBox="0 0 4 151">
  <path fill="#1D3C34" fill-rule="evenodd" d="M484.049846,75.0630798 C483.985472,75.0873137 484.049846,75.1572192 484.146406,75.1889096 C484.516553,75.3119432 483.229732,75.3874411 483.809092,75.4265881 C484.187286,75.4526861 484.581573,75.4722597 485,75.4974256 C484.959767,75.5393689 484.959767,75.5822442 484.887347,75.6008857 C484.56548,75.6754515 484.074633,75.6996853 483.945886,75.8339038 C483.913699,75.862798 483.656206,75.887964 483.495272,75.8944885 C482.972239,75.9149941 484.218826,75.9252469 483.687745,75.9420242 C483.390018,75.952277 483.068152,75.9205865 482.762378,75.9867637 C483.398065,76.0622615 484.130312,75.9821033 484.685533,76.0697181 C485.023493,76.1517405 484.725766,76.2328308 484.725766,76.3083287 C484.725766,76.3922152 484.500459,76.4770338 484.355619,76.5599882 C484.323432,76.5795618 484.242966,76.6028636 484.170546,76.608456 C483.703839,76.6448068 483.237132,76.6830218 482.762378,76.7072557 C482.504884,76.7212368 482.231298,76.7081878 481.965757,76.7091198 C481.563424,76.7119161 481.13695,76.6997991 480.94383,76.826561 C480.275956,76.9262927 479.543709,76.9878095 478.787322,76.9896737 C476.598627,76.9971302 474.409932,77.0213641 472.229284,76.9533228 C471.521176,76.9309531 470.805023,76.9412059 470.096915,76.9318852 C469.557788,76.9253607 469.026708,76.9113796 468.495628,76.9001947 C468.366881,76.8973985 468.230087,76.8862136 468.101341,76.8927381 C466.685126,76.9710322 465.252819,76.9244286 463.836604,76.9225644 C460.714495,76.9197682 457.600433,76.8563873 454.478324,76.8172402 C453.005783,76.7985988 451.533242,76.7930064 450.068747,76.7902101 C448.282386,76.7855498 446.496025,76.7771611 444.71771,76.7557235 C442.488782,76.7305575 440.259854,76.7352179 438.030925,76.7342858 C437.049231,76.7333537 436.067537,76.7547914 435.085843,76.7585197 C434.329456,76.7603838 433.573069,76.7482669 432.816682,76.7445386 C430.539473,76.7342858 428.262265,76.7212368 425.985057,76.7147123 C422.685921,76.7044595 419.386785,76.6997991 416.079603,76.6914105 C414.518548,76.6867501 412.957494,76.6774294 411.404486,76.672769 C411.042386,76.6718369 410.680285,76.6690407 410.334278,76.6811577 C409.127278,76.7231009 407.928323,76.7147123 406.721322,76.7165764 C404.090061,76.7193726 401.458799,76.7184406 398.827537,76.7165764 C397.926309,76.7156443 397.033129,76.7128481 396.147995,76.6942067 C394.27312,76.6569238 392.398245,76.6681087 390.523371,76.6662445 C390.434857,76.6662445 390.346344,76.6634483 390.25783,76.6662445 C387.369075,76.7650442 384.464226,76.7081878 381.567424,76.7007312 C380.674243,76.698867 379.781063,76.6839539 378.895929,76.6774294 C378.622342,76.6746332 378.356802,76.6737011 378.091262,76.6792935 C376.047407,76.7277613 373.987459,76.7175085 371.935557,76.7277613 C371.533223,76.7296254 371.13089,76.7221689 370.728556,76.7333537 C368.547908,76.7902101 366.359213,76.7594518 364.178565,76.7408103 C363.196871,76.7333537 362.215177,76.7342858 361.241529,76.7641121 C360.396629,76.7892781 359.543681,76.7818215 358.698781,76.7911422 C356.156032,76.8200365 353.62133,76.877825 351.078582,76.8685042 C349.871581,76.8638439 348.66458,76.8647759 347.457579,76.8610477 C345.582704,76.8554552 343.715876,76.8023271 341.857095,76.7445386 C341.157035,76.7221689 340.448927,76.6886142 339.74082,76.6681087 C338.574053,76.633622 337.495799,76.5217733 336.401451,76.4229736 C336.160051,76.4015359 335.878417,76.37637 335.974977,76.2775703 C335.983024,76.2663854 335.886464,76.2365591 335.822091,76.2328308 C335.468037,76.2132573 335.36343,76.1228463 335.178357,76.0641257 C335.041563,76.0221824 334.90477,75.9410921 335.089843,75.875847 C335.21859,75.8292434 335.154217,75.7919605 335.12203,75.746289 C335.04961,75.6372365 335.202497,75.592497 335.588737,75.5971574 C335.765764,75.5990215 335.958884,75.5962253 336.111771,75.6139347 C336.747458,75.6866363 337.326818,75.6400327 337.914225,75.5747876 C338.823499,75.4741238 339.732773,75.3771883 340.658141,75.2942338 C341.583508,75.2112794 342.524969,75.1367136 343.474476,75.0742647 C345.156231,74.9633481 346.870172,74.8822578 348.584113,74.8048958 C351.006162,74.6958433 353.45235,74.6566962 355.882445,74.563489 C357.2021,74.5131571 358.545894,74.5057005 359.873595,74.4786704 C360.412722,74.4674855 360.943802,74.4507082 361.474883,74.4441837 C363.381944,74.4180857 365.297052,74.395716 367.204114,74.3733462 C367.42942,74.37055 367.646681,74.383599 367.863941,74.383599 C368.403068,74.3845311 368.934148,74.383599 369.473275,74.3780066 C369.779049,74.3752104 370.092869,74.3509765 370.398643,74.3556368 C372.04821,74.3817349 373.697778,74.3183539 375.347346,74.3248784 C376.01522,74.3276747 376.683094,74.293188 377.350968,74.2829352 C379.483336,74.2503126 381.623751,74.2363316 383.764166,74.1878638 C386.966741,74.1142301 390.177364,74.1282112 393.387986,74.1021131 C395.077787,74.0890641 396.775635,74.1170263 398.473483,74.1142301 C400.565618,74.1095697 402.665799,74.0918603 404.757934,74.0806755 C405.240735,74.0788113 405.731582,74.0825396 406.222429,74.0778792 C408.853691,74.0573736 411.476906,74.0340718 414.108168,74.0126342 C415.089862,74.0042455 416.071556,73.9818758 417.045203,74.0294115 C417.17395,74.035936 417.310744,74.0387322 417.447537,74.0378001 C420.698393,74.0284794 423.957295,74.062034 427.208151,74.0555095 C431.762567,74.0452567 436.316984,74.0424605 440.871401,74.0471208 C442.697995,74.048985 444.532637,74.0387322 446.351185,74.0918603 C446.399465,74.0927924 446.439698,74.0946565 446.479931,74.0927924 C447.469672,74.0611019 448.44332,74.100249 449.416967,74.1049093 C451.291842,74.1142301 453.166716,74.1142301 455.041591,74.1244829 C456.956699,74.1356677 458.871807,74.1571054 460.794962,74.1729506 C461.688143,74.1804072 462.573277,74.1887959 463.466457,74.1934562 C467.30472,74.215826 471.142983,74.2363316 474.973199,74.2577692 C475.512326,74.2605654 476.03536,74.2689541 476.56644,74.2978483 C477.169941,74.331403 477.813674,74.3397916 478.433268,74.3332671 C479.616129,74.3211502 480.72657,74.4134253 481.861151,74.4656214 C482.295671,74.486127 482.698005,74.5392551 483.044012,74.6184813 C483.349785,74.6865226 483.703839,74.7377866 484.017659,74.7937109 C484.130312,74.8859861 484.315386,74.9680085 484.049846,75.0630798 Z" opacity=".1" transform="rotate(-90 206 279.5)"/>
</svg>
