<svg xmlns="http://www.w3.org/2000/svg" preserveAspectRatio="none" viewBox="0 0 56 3">
  <path fill="#00253D" fill-rule="evenodd" d="M174.97875,21.7937109 C175.020313,21.8859861 175.088594,21.9680085 174.990625,22.0630798 C174.966875,22.0873137 174.990625,22.1572192 175.02625,22.1889096 C175.162813,22.3119432 175.346875,22.3874411 175.560625,22.4265881 C175.700156,22.4526861 175.845625,22.4722597 176,22.4974256 C175.985156,22.5393689 175.985156,22.5822442 175.958438,22.6008857 C175.839688,22.6754515 175.658594,22.6996853 175.611094,22.8339038 C175.599219,22.862798 175.504219,22.887964 175.444844,22.8944885 C175.251875,22.9149941 175.052969,22.9252469 174.857032,22.9420242 C174.747188,22.952277 174.628438,22.9205865 174.515626,22.9867637 C174.750157,23.0622615 175.020313,22.9821033 175.225157,23.0697181 C175.349844,23.1517405 175.24,23.2328308 175.24,23.3083287 C175.24,23.3922152 175.156875,23.4770338 175.103438,23.5599882 C175.091563,23.5795618 175.061875,23.6028636 175.035157,23.608456 C174.862969,23.6448068 174.690782,23.6830218 174.515626,23.7072557 C174.420626,23.7212368 174.319688,23.7081878 174.221719,23.7091198 C174.073282,23.7119161 173.915938,23.6997991 173.844688,23.826561 C173.598282,23.9262927 173.328126,23.9878095 173.049064,23.9896737 C172.241564,23.9971302 171.434064,24.0213641 170.629533,23.9533228 C170.368283,23.9309531 170.104065,23.9412059 169.842815,23.9318852 C169.643909,23.9253607 169.447971,23.9113796 169.252034,23.9001947 C169.204534,23.8973985 169.154065,23.8862136 169.106565,23.8927381 C168.584065,23.9710322 168.055628,23.9244286 167.533128,23.9225644 C166.381254,23.9197682 165.232348,23.8563873 164.080473,23.8172402 C163.537192,23.7985988 162.993911,23.7930064 162.453599,23.7902101 C161.794537,23.7855498 161.135475,23.7771611 160.479381,23.7557235 C159.657038,23.7305575 158.834694,23.7352179 158.012351,23.7342858 C157.650163,23.7333537 157.287976,23.7547914 156.925789,23.7585197 C156.646726,23.7603838 156.367664,23.7482669 156.088602,23.7445386 C155.248446,23.7342858 154.40829,23.7212368 153.568134,23.7147123 C152.350947,23.7044595 151.13376,23.6997991 149.913604,23.6914105 C149.337667,23.6867501 148.761729,23.6774294 148.188761,23.672769 C148.055167,23.6718369 147.921574,23.6690407 147.793917,23.6811577 C147.348605,23.7231009 146.906261,23.7147123 146.460949,23.7165764 C145.490168,23.7193726 144.519387,23.7184406 143.548606,23.7165764 C143.216107,23.7156443 142.886575,23.7128481 142.560013,23.6942067 C141.868295,23.6569238 141.176576,23.6681087 140.484858,23.6662445 C140.452201,23.6662445 140.419545,23.6634483 140.386889,23.6662445 C139.321108,23.7650442 138.24939,23.7081878 137.18064,23.7007312 C136.851109,23.698867 136.521578,23.6839539 136.195016,23.6774294 C136.094078,23.6746332 135.996109,23.6737011 135.898141,23.6792935 C135.144079,23.7277613 134.384079,23.7175085 133.627048,23.7277613 C133.47861,23.7296254 133.330173,23.7221689 133.181736,23.7333537 C132.377205,23.7902101 131.569705,23.7594518 130.765174,23.7408103 C130.402987,23.7333537 130.040799,23.7342858 129.681581,23.7641121 C129.369862,23.7892781 129.055175,23.7818215 128.743456,23.7911422 C127.805331,23.8200365 126.870176,23.877825 125.932051,23.8685042 C125.486739,23.8638439 125.041426,23.8647759 124.596114,23.8610477 C123.904395,23.8554552 123.215646,23.8023271 122.529865,23.7445386 C122.271584,23.7221689 122.010334,23.6886142 121.749084,23.6681087 C121.318615,23.633622 120.920803,23.5217733 120.517053,23.4229736 C120.427991,23.4015359 120.324084,23.37637 120.359709,23.2775703 C120.362678,23.2663854 120.327053,23.2365591 120.303303,23.2328308 C120.172678,23.2132573 120.134084,23.1228463 120.065803,23.0641257 C120.015334,23.0221824 119.964866,22.9410921 120.033147,22.875847 C120.080647,22.8292434 120.056897,22.7919605 120.045022,22.746289 C120.018303,22.6372365 120.074709,22.592497 120.217209,22.5971574 C120.282522,22.5990215 120.353772,22.5962253 120.410178,22.6139347 C120.644709,22.6866363 120.858459,22.6400327 121.075178,22.5747876 C121.410646,22.4741238 121.746115,22.3771883 122.087521,22.2942338 C122.428927,22.2112794 122.776271,22.1367136 123.126583,22.0742647 C123.747052,21.9633481 124.379395,21.8822578 125.011739,21.8048958 C125.905332,21.6958433 126.807832,21.6566962 127.704394,21.563489 C128.191269,21.5131571 128.68705,21.5057005 129.176893,21.4786704 C129.3758,21.4674855 129.571737,21.4507082 129.767674,21.4441837 C130.471268,21.4180857 131.17783,21.395716 131.881424,21.3733462 C131.964549,21.37055 132.044705,21.383599 132.124861,21.383599 C132.323767,21.3845311 132.519705,21.383599 132.718611,21.3780066 C132.831423,21.3752104 132.947204,21.3509765 133.060017,21.3556368 C133.66861,21.3817349 134.277204,21.3183539 134.885797,21.3248784 C135.132204,21.3276747 135.37861,21.293188 135.625016,21.2829352 C136.411734,21.2503126 137.201421,21.2363316 137.991109,21.1878638 C139.172671,21.1142301 140.357201,21.1282112 141.541732,21.1021131 C142.16517,21.0890641 142.791576,21.1170263 143.417982,21.1142301 C144.189856,21.1095697 144.9647,21.0918603 145.736574,21.0806755 C145.914699,21.0788113 146.095793,21.0825396 146.276887,21.0778792 C147.247668,21.0573736 148.21548,21.0340718 149.186261,21.0126342 C149.548448,21.0042455 149.910635,20.9818758 150.269854,21.0294115 C150.317354,21.035936 150.367823,21.0387322 150.418291,21.0378001 C151.617666,21.0284794 152.820009,21.062034 154.019384,21.0555095 C155.699695,21.0452567 157.380007,21.0424605 159.060319,21.0471208 C159.734225,21.048985 160.4111,21.0387322 161.082037,21.0918603 C161.09985,21.0927924 161.114693,21.0946565 161.129537,21.0927924 C161.494693,21.0611019 161.853912,21.100249 162.21313,21.1049093 C162.904849,21.1142301 163.596567,21.1142301 164.288286,21.1244829 C164.994848,21.1356677 165.70141,21.1571054 166.410941,21.1729506 C166.740472,21.1804072 167.067035,21.1887959 167.396566,21.1934562 C168.812659,21.215826 170.228752,21.2363316 171.641877,21.2577692 C171.840783,21.2605654 172.033752,21.2689541 172.229689,21.2978483 C172.452345,21.331403 172.689845,21.3397916 172.918439,21.3332671 C173.354845,21.3211502 173.764532,21.4134253 174.183126,21.4656214 C174.343438,21.486127 174.491876,21.5392551 174.619532,21.6184813 C174.732344,21.6865226 174.862969,21.7377866 174.97875,21.7937109" transform="translate(-120 -21)"/>
</svg>
