<svg xmlns="http://www.w3.org/2000/svg" width="44" height="40" viewBox="0 0 44 40">
  <g fill="none" fill-rule="evenodd">
    <path fill="#8790A5" d="M40.083,0.373 C40.304,0.57 40.585,-0.021 40.773,0.12 C40.787,0.491 40.683,0.403 40.69,0.745 C40.78,0.903 40.85,0.762 40.919,0.993 C41.048,1.421 40.956,2.312 40.903,2.928 C40.93,3.219 41.035,3.041 41.083,3.117 C40.976,3.427 41.022,3.941 40.92,4.241 C41.03,4.805 40.922,5.439 40.838,5.927 C40.89,6.105 40.885,6.5 40.937,6.678 C40.787,7.025 40.944,7.43 40.805,7.801 C40.912,8.332 40.778,8.812 40.823,9.425 C40.788,9.673 40.709,9.746 40.674,9.988 C40.792,10.083 40.869,10.434 40.872,10.736 C40.878,11.177 40.73,11.322 40.707,11.799 C40.684,12.33 40.806,12.622 40.708,12.985 C40.706,13.202 40.793,13.077 40.806,13.233 C40.806,13.25 40.806,13.267 40.805,13.283 C41.519,13.349 42.239,13.369 42.959,13.236 C43.049,13.278 43.03,13.536 43.113,13.615 C43.338,13.829 43.734,13.282 43.929,13.437 C43.896,13.797 43.789,13.704 43.752,14.035 C43.833,14.196 43.931,14.067 43.979,14.298 C44.069,14.726 43.846,15.578 43.703,16.171 C43.694,16.455 43.838,16.292 43.882,16.371 C43.719,16.662 43.703,17.163 43.547,17.444 C43.596,18 43.389,18.604 43.229,19.07 C43.263,19.247 43.206,19.628 43.241,19.806 C43.024,20.128 43.147,20.536 42.942,20.882 C42.991,21.406 42.775,21.858 42.745,22.457 C42.673,22.693 42.573,22.756 42.501,22.988 C42.622,23.091 42.662,23.439 42.626,23.732 C42.574,24.16 42.386,24.286 42.298,24.745 C42.197,25.258 42.299,25.552 42.139,25.895 C42.109,26.104 42.225,25.991 42.218,26.145 C42.164,26.484 42.059,26.52 41.985,26.738 C41.937,27.028 42.088,26.881 42.039,27.171 C41.968,27.686 41.865,27.85 41.719,28.123 C41.695,28.371 41.803,28.337 41.792,28.558 C41.653,29.119 41.652,29.778 41.415,30.057 C41.368,30.343 41.519,30.198 41.496,30.431 C41.302,31.087 41.308,31.775 41.101,32.479 C40.391,33.489 39.663,33.775 38.868,33.867 C38.884,34.288 38.885,34.693 38.91,35.254 C38.95,36.152 38.962,37.227 38.808,37.755 C38.469,38.244 38.255,38.273 37.912,38.655 C37.857,38.667 37.826,38.579 37.79,38.52 C37.221,39.073 37.317,38.924 36.631,39.088 C36.542,39.109 36.456,39.232 36.368,39.248 C36.217,39.279 36.066,39.105 35.92,39.146 C35.796,39.18 35.635,39.338 35.47,39.351 C34.817,39.395 34.141,39.254 33.475,39.415 C32.647,39.611 31.79,39.72 30.953,39.796 C30.775,39.813 30.599,40.036 30.426,39.995 C30.173,39.929 29.786,39.877 29.452,39.843 C29.003,39.8 28.496,39.823 28.091,39.904 C27.999,39.922 27.907,39.766 27.813,39.757 C26.579,39.639 25.317,39.773 24.07,39.722 C23.726,39.709 23.379,39.539 23.036,39.505 C22.407,39.444 21.789,39.357 21.179,39.214 C19.9,38.915 18.675,39.261 17.377,38.686 C17.046,38.794 16.575,38.722 16.171,38.636 C15.232,38.44 14.238,38.706 13.293,38.681 C12.665,38.666 12.046,38.809 11.438,38.759 C10.488,38.68 9.607,38.646 8.7,38.632 C7.445,38.609 6.098,38.232 4.834,38.523 C4.754,38.483 4.742,38.222 4.665,38.143 C4.458,37.929 4.191,38.483 4.014,38.329 C4.002,37.963 4.1,38.058 4.094,37.722 C4.01,37.56 3.944,37.691 3.878,37.458 C3.758,37.026 3.849,36.163 3.901,35.563 C3.877,35.276 3.777,35.441 3.731,35.362 C3.834,35.068 3.793,34.56 3.889,34.275 C3.789,33.713 3.893,33.1 3.972,32.629 C3.924,32.451 3.93,32.065 3.882,31.885 C4.026,31.558 3.879,31.147 4.01,30.795 C3.96,30.52 3.97,30.263 3.986,29.995 C2.709,30.172 1.433,30.378 0.168,30.539 C0.203,30.26 0.305,30.404 0.361,30.248 C0.351,29.944 0.304,29.723 0.229,29.564 C0.362,29.043 0.208,28.906 0.167,28.643 C0.225,28.295 0.36,28.4 0.428,28.114 C0.445,27.823 0.278,27.935 0.255,27.731 C0.329,27.283 0.482,27.326 0.569,26.961 C0.404,26.93 0.475,27.062 0.305,27.002 C0.31,26.742 0.334,26.608 0.351,26.393 C0.298,26.227 0.269,26.008 0.113,26.067 C0.108,25.897 0.16,25.6 0.167,25.399 C0.19,25.112 -0.016,25.322 0.012,25.02 C0.029,24.679 0.122,24.801 0.163,24.604 C0.144,24.421 0.009,24.489 8.8817842e-14,24.285 C0.024,23.986 0.312,24.021 0.332,23.699 C0.382,23.306 0.238,23.34 0.336,22.843 C0.326,22.742 0.234,22.815 0.221,22.712 C0.255,22.385 0.215,22.217 0.209,21.976 C0.34,21.132 0.528,20.396 0.595,19.622 C0.618,19.37 0.675,19.142 0.695,18.896 C0.748,18.279 0.924,17.737 0.962,17.144 C1,16.539 1.096,15.911 1.109,15.381 C1.127,14.683 1.213,14.199 1.276,13.376 C1.346,12.488 1.472,11.424 1.73,10.905 C2.211,10.424 2.477,10.397 2.946,10.024 C3.018,10.011 3.042,10.101 3.08,10.16 C3.567,9.818 3.692,9.749 3.935,9.707 C3.926,9.354 3.916,9.013 3.887,8.706 C3.82,7.992 3.835,7.491 3.793,6.646 C3.747,5.733 3.731,4.638 3.891,4.085 C4.248,3.553 4.476,3.503 4.837,3.081 C4.896,3.062 4.927,3.149 4.968,3.207 C5.567,2.586 5.468,2.748 6.194,2.515 C6.289,2.484 6.379,2.351 6.472,2.326 C6.631,2.28 6.794,2.442 6.947,2.385 C7.079,2.338 7.249,2.162 7.424,2.135 C8.116,2.025 8.833,2.102 9.538,1.874 C10.416,1.593 11.323,1.399 12.21,1.24 C12.399,1.206 12.584,0.961 12.767,0.987 C13.037,1.028 13.446,1.043 13.8,1.045 C14.278,1.047 14.814,0.975 15.243,0.853 C15.341,0.825 15.44,0.975 15.538,0.975 C16.847,0.976 18.184,0.716 19.507,0.647 C19.872,0.627 20.24,0.766 20.605,0.768 C21.271,0.769 21.927,0.797 22.572,0.883 C23.93,1.064 25.227,0.593 26.605,1.054 C26.956,0.911 27.456,0.939 27.885,0.986 C28.881,1.096 29.932,0.729 30.935,0.661 C31.6,0.616 32.257,0.41 32.903,0.402 C33.907,0.39 34.841,0.338 35.803,0.265 C37.135,0.167 38.563,0.42 39.903,-2.09610107e-13 C39.986,0.033 40.002,0.299 40.083,0.373 Z"/>
    <g fill="#FFF" transform="translate(12 13)">
      <path d="M18.6466195,6.18623973 C18.6616168,6.27722175 18.6855822,6.35815778 18.6532547,6.45161325 C18.6454292,6.4754377 18.6541651,6.54434789 18.6665614,6.57563724 C18.7140956,6.69711005 18.7772898,6.77185213 18.8502073,6.81084558 C18.8978114,6.83683524 18.9473674,6.8564097 19,6.88151109 C18.9953682,6.92279861 18.9957829,6.96503418 18.9868958,6.98334366 C18.9473176,7.05655765 18.8860955,7.08006518 18.8712738,7.21218522 C18.8675233,7.24062441 18.8355272,7.26522351 18.8154406,7.27153107 C18.7501525,7.29134201 18.6827502,7.30104119 18.6164185,7.3171735 C18.5792408,7.32705206 18.5386349,7.29559527 18.5009905,7.36055774 C18.581312,7.43540148 18.6722178,7.35698346 18.7425815,7.44370354 C18.7856891,7.52475318 18.7491965,7.60441226 18.7499267,7.67878361 C18.750738,7.76141843 18.7233487,7.84480399 18.7060163,7.92641301 C18.7021757,7.94567056 18.6923262,7.96856488 18.6833129,7.97402005 C18.6252304,8.00948165 18.5671659,8.04677959 18.5079587,8.07029907 C18.4758544,8.08388019 18.4414738,8.07082258 18.4082358,8.07154341 C18.3578887,8.07399892 18.3043748,8.06174586 18.2814212,8.18647275 C18.1987645,8.28422006 18.1076784,8.34427479 18.012993,8.34554903 C17.7390294,8.35126788 17.4652281,8.37351369 17.1915418,8.30486718 C17.1026669,8.28230502 17.0131,8.29187264 16.9243512,8.28216478 C16.8567867,8.27533699 16.7901575,8.26116987 16.7235554,8.24975723 C16.7074086,8.24690706 16.6901732,8.23578743 16.6741166,8.24211891 C16.4975566,8.31819233 16.3177737,8.27121971 16.1404384,8.26833096 C15.7495076,8.26325636 15.3589982,8.19850703 14.9677158,8.15762401 C14.7831659,8.13816644 14.5987422,8.13156317 14.4153531,8.12772038 C14.1916465,8.12180207 13.9679039,8.11221111 13.7450426,8.08977181 C13.4657261,8.063325 13.1866981,8.06625946 12.907616,8.06368493 C12.7846939,8.06203725 12.6619882,8.08242552 12.5391112,8.08536866 C12.4444257,8.0866429 12.349605,8.07414467 12.2548655,8.06990992 C11.9696483,8.05811787 11.6844041,8.04357132 11.399223,8.03545192 C10.9860553,8.02290045 10.5729418,8.01585797 10.1587847,8.00513685 C9.96328771,7.99938597 9.76774565,7.98904427 9.57325614,7.98329937 C9.52791034,7.98211212 9.48254651,7.97908854 9.43934189,7.99076756 C9.28862492,8.03118802 9.13842866,8.02203357 8.98732407,8.02297295 C8.65790381,8.0237721 8.3284475,8.02089859 7.99898216,8.01710691 C7.88613493,8.01551902 7.77427715,8.01210079 7.66327361,7.99307973 C7.42816924,7.95495988 7.19353361,7.9645846 6.95877179,7.96135501 C6.94768946,7.96128923 6.93658009,7.95846896 6.92552481,7.96115768 C6.56479355,8.05633644 6.20054191,7.99816974 5.83777551,7.98867174 C5.72592675,7.98617167 5.61395178,7.97081729 5.50306543,7.96373238 C5.46878393,7.96077458 5.43552794,7.95965908 5.40233505,7.96497074 C5.14690284,8.01119647 4.88888775,7.99956587 4.63207846,8.00814087 C4.58172228,8.00967822 4.53127596,8.00203391 4.48100993,8.01275291 C4.20853162,8.06714047 3.93419847,8.03521457 3.66098998,8.01523079 C3.53800481,8.00715595 3.41510076,8.0073446 3.29348365,8.03600233 C3.18794121,8.06016491 3.08107578,8.05218575 2.97538009,8.06073953 C2.65729456,8.08731307 2.34049596,8.14235569 2.02204084,8.13128447 C1.87087315,8.1257967 1.71975955,8.12581791 1.56860088,8.12124831 C1.333803,8.11434606 1.09955286,8.06062339 0.866265134,8.00231587 C0.77839767,7.97975969 0.689414548,7.94617955 0.600557628,7.92545372 C0.454138898,7.89061457 0.318054292,7.77963353 0.180080921,7.68149484 C0.149649065,7.66019766 0.114143731,7.63519793 0.125278007,7.53794422 C0.126177317,7.52693222 0.113799045,7.4974792 0.105703115,7.4937587 C0.0611845102,7.47421414 0.0472128139,7.38507442 0.0234727682,7.32709251 C0.00593988757,7.28567345 -0.0119716006,7.20569146 0.0105695214,7.14155747 C0.0262385439,7.0957449 0.0178180925,7.05897048 0.0133464473,7.01395649 C0.0032243981,6.9064774 0.0219339018,6.86251911 0.0703382112,6.86739695 C0.0925208904,6.86936483 0.116673466,6.86675385 0.135986938,6.8843126 C0.216281311,6.95640184 0.288369443,6.91092414 0.36128477,6.84708912 C0.474156912,6.74860303 0.587065112,6.6537896 0.702123497,6.5727606 C0.817181882,6.4917316 0.934336365,6.41897805 1.05261552,6.35816661 C1.26210698,6.25015476 1.47591683,6.17154809 1.68976275,6.09661409 C1.99196077,5.99098869 2.29785733,5.95424359 2.60121608,5.86423298 C2.7659567,5.81563275 2.93413443,5.80928603 3.10010788,5.7836459 C3.16750115,5.77302856 3.23383284,5.75689625 3.30026369,5.75086376 C3.53878501,5.72657232 3.77834988,5.70595953 4.01690727,5.68534075 C4.04508978,5.68275369 4.07241805,5.69576945 4.09962013,5.6959309 C4.16713057,5.6972497 4.23361551,5.69672619 4.30106286,5.69161784 C4.33932021,5.68909057 4.37837772,5.6654515 4.41670718,5.67026955 C4.62349383,5.69720399 4.82941509,5.63599462 5.03601243,5.6436476 C5.11966066,5.64689841 5.2029483,5.61342262 5.28647032,5.60381912 C5.5531381,5.57326797 5.82099366,5.56108609 6.08851568,5.51493211 C6.48878221,5.444777 6.89090359,5.46093535 7.29263734,5.43761263 C7.5040828,5.42601405 7.71693238,5.4548207 7.92948448,5.45332791 C8.19138528,5.4502918 8.45416735,5.43440736 8.71600505,5.42494409 C8.77643606,5.42346654 8.83792865,5.42750396 8.89934011,5.4232779 C9.22858909,5.40503362 9.55680355,5.38402887 9.88604352,5.36486643 C10.0088755,5.35733247 10.1315722,5.33602603 10.2539375,5.38357597 C10.2701203,5.3900988 10.2872746,5.39295495 10.3043928,5.39213844 C10.7113262,5.38537257 11.1196818,5.42084826 11.5266423,5.41683689 C12.0967792,5.41012156 12.6669881,5.41075156 13.2372692,5.41872687 C13.4659861,5.42192058 13.6955933,5.41318413 13.9237986,5.46687092 C13.9298525,5.46782496 13.9349079,5.46969119 13.9399273,5.46788476 C14.0635414,5.43740266 14.1858256,5.47668911 14.3077762,5.48200347 C14.5426101,5.49257838 14.7773539,5.49397164 15.0121969,5.50546471 C15.2520863,5.51790585 15.4920748,5.5404468 15.7330168,5.55748473 C15.8449196,5.56549379 15.955824,5.57441504 16.0676998,5.5796696 C16.5484861,5.60455785 17.0292543,5.62760978 17.5090241,5.65157388 C17.5765526,5.65472901 17.6421202,5.66338117 17.7088936,5.69223894 C17.7847794,5.72574134 17.8654593,5.73448319 17.9429724,5.72851648 C18.0909554,5.71745934 18.2308806,5.80918284 18.3734407,5.8614432 C18.4280432,5.88196572 18.4789312,5.9346001 18.5230193,6.01290122 C18.5619617,6.08015447 18.6067868,6.13091664 18.6466195,6.18623973" transform="rotate(180 9.5 6.854)"/>
      <path d="M19.9790559,3.83268634 C19.9861598,3.92366836 19.9975118,4.00460439 19.9821988,4.09805986 C19.978492,4.12188431 19.9826301,4.1907945 19.988502,4.22208385 C20.0110182,4.34355666 20.0409523,4.41829874 20.0754922,4.45729219 C20.0980415,4.48328185 20.1215154,4.50285631 20.1464466,4.5279577 C20.1442526,4.56924522 20.144449,4.61148079 20.1402394,4.62979027 C20.1214918,4.70300426 20.0924918,4.72651179 20.085471,4.85863183 C20.0836945,4.88707102 20.0685384,4.91167012 20.0590238,4.91797768 C20.0280978,4.93778862 19.9961704,4.9474878 19.9647501,4.9636201 C19.9471396,4.97349867 19.9279053,4.94204188 19.9100737,5.00700435 C19.9481207,5.08184809 19.9911813,5.00343007 20.0245115,5.09015015 C20.0449309,5.17119979 20.0276449,5.25085887 20.0279908,5.32523021 C20.0283751,5.40786504 20.0154013,5.4912506 20.0071912,5.57285962 C20.0053719,5.59211716 20.0007064,5.61501149 19.9964369,5.62046666 C19.9689242,5.65592826 19.9414199,5.69322619 19.9133744,5.71674568 C19.8981671,5.7303268 19.8818816,5.71726918 19.8661373,5.71799002 C19.8422886,5.72044553 19.8169399,5.70819247 19.8060672,5.83291936 C19.766914,5.93066667 19.723768,5.99072139 19.678917,5.99199564 C19.5491447,5.99771449 19.4194494,6.0199603 19.2898085,5.95131379 C19.2477099,5.92875163 19.2052834,5.93831925 19.1632446,5.92861139 C19.1312403,5.9217836 19.0996791,5.90761648 19.0681307,5.89620384 C19.0604823,5.89335367 19.0523181,5.88223404 19.0447123,5.88856552 C18.9610787,5.96463894 18.8759184,5.91766632 18.7919175,5.91477757 C18.6067397,5.90970297 18.4217616,5.84495364 18.2364173,5.80407062 C18.1489989,5.78461305 18.0616403,5.77800978 17.9747718,5.77416699 C17.8688055,5.76824868 17.7628222,5.75865771 17.6572563,5.73621842 C17.5249485,5.70977161 17.3927773,5.71270607 17.2605805,5.71013154 C17.2023543,5.70848386 17.1442305,5.72887213 17.0860256,5.73181527 C17.0411746,5.73308951 16.9962595,5.72059128 16.9513829,5.71635653 C16.81628,5.70456448 16.6811643,5.69001793 16.5460786,5.68189853 C16.3503676,5.66934706 16.1546822,5.66230458 15.9585025,5.65158346 C15.8658987,5.64583258 15.7732735,5.63549088 15.6811469,5.62974598 C15.6596673,5.62855873 15.6381792,5.62553515 15.6177138,5.63721417 C15.5463216,5.67763463 15.475176,5.66848018 15.4036001,5.66941956 C15.2475589,5.67021871 15.0915007,5.66734519 14.9354382,5.66355352 C14.8819842,5.66196563 14.8289989,5.65854739 14.7764183,5.63952634 C14.6650531,5.60140649 14.5539099,5.61103121 14.4427069,5.60780162 C14.4374574,5.60773584 14.4321951,5.60491557 14.4269584,5.60760429 C14.2560857,5.70278305 14.0835454,5.64461635 13.9117087,5.63511835 C13.8587277,5.63261828 13.8056869,5.6172639 13.7531618,5.61017899 C13.7369232,5.60722118 13.7211704,5.60610569 13.7054474,5.61141735 C13.5844532,5.65764308 13.4622355,5.64601248 13.340589,5.65458748 C13.3167361,5.65612482 13.2928405,5.64848052 13.2690303,5.65919952 C13.1399616,5.71358708 13.0100143,5.68166118 12.8805998,5.66167739 C12.8223436,5.65360256 12.7641259,5.65379121 12.7065178,5.68244894 C12.656524,5.70661152 12.6059036,5.69863236 12.5558372,5.70718614 C12.4051651,5.73375968 12.2551026,5.7888023 12.1042554,5.77773108 C12.0326497,5.77224331 11.9610696,5.77226452 11.8894681,5.76769491 C11.778248,5.76079267 11.6672874,5.70707 11.5567827,5.64876248 C11.5151613,5.6262063 11.4730114,5.59262616 11.4309213,5.57190033 C11.361565,5.53706118 11.2971039,5.42608014 11.2317481,5.32794145 C11.217333,5.30664427 11.2005147,5.28164453 11.2057888,5.18439083 C11.2062148,5.17337883 11.2003514,5.14392581 11.1965165,5.14020531 C11.1754287,5.12066075 11.1688106,5.03152103 11.1575653,4.97353912 C11.1492602,4.93212006 11.1407759,4.85213807 11.1514532,4.78800407 C11.1588754,4.74219151 11.1548868,4.70541709 11.1527686,4.6604031 C11.147974,4.55292401 11.1568364,4.50896572 11.1797647,4.51384356 C11.1902723,4.51581144 11.201713,4.51320046 11.2108615,4.53075921 C11.2488957,4.60284845 11.2830427,4.55737075 11.3175815,4.49353573 C11.3710473,4.39504964 11.4245301,4.30023621 11.4790314,4.21920721 C11.5335328,4.13817821 11.589027,4.06542466 11.645054,4.00461322 C11.7442868,3.89660137 11.8455651,3.8179947 11.9468605,3.7430607 C12.090007,3.6374353 12.2349053,3.6006902 12.3786016,3.51067959 C12.4566366,3.46207936 12.5362998,3.45573264 12.6149188,3.43009251 C12.6468419,3.41947517 12.6782622,3.40334286 12.7097294,3.39731036 C12.8227132,3.37301893 12.9361913,3.35240614 13.0491922,3.33178736 C13.0625418,3.3292003 13.0754867,3.34221606 13.0883719,3.34237751 C13.1203506,3.34369631 13.1518434,3.3431728 13.1837922,3.33806445 C13.2019141,3.33553718 13.220415,3.31189811 13.2385711,3.31671616 C13.3365226,3.3436506 13.4340643,3.28244123 13.5319262,3.29009421 C13.571549,3.29334502 13.6110011,3.25986923 13.6505641,3.25026573 C13.7768804,3.21971458 13.9037594,3.20753269 14.0304804,3.16137872 C14.2200803,3.09122361 14.4105588,3.10738196 14.6008538,3.08405923 C14.7010121,3.07246066 14.8018356,3.10126731 14.9025182,3.09977452 C15.0265765,3.09673841 15.1510522,3.08085397 15.2750806,3.0713907 C15.3037058,3.06991315 15.3328339,3.07395057 15.3619235,3.06972451 C15.5178835,3.05148023 15.6733536,3.03047548 15.8293093,3.01131304 C15.8874929,3.00377908 15.9456124,2.98247264 16.0035749,3.03002258 C16.0112404,3.03654541 16.0193662,3.03940156 16.0274748,3.03858504 C16.2202327,3.03181918 16.4136643,3.06729487 16.6064351,3.0632835 C16.8764999,3.05656817 17.1465989,3.05719817 17.416732,3.06517348 C17.5250716,3.06836719 17.6338329,3.05963074 17.7419301,3.11331753 C17.7447978,3.11427157 17.7471925,3.1161378 17.7495701,3.11433137 C17.8081241,3.08384927 17.8660482,3.12313572 17.9238143,3.12845008 C18.0350514,3.13902499 18.1462458,3.14041825 18.2574872,3.15191132 C18.3711191,3.16435246 18.4847978,3.18689341 18.5989282,3.20393134 C18.6519349,3.2119404 18.7044685,3.22086165 18.7574623,3.22611621 C18.9852032,3.25100446 19.2129355,3.27405638 19.4401949,3.29802049 C19.472182,3.30117562 19.5032404,3.30982778 19.5348699,3.33868554 C19.5708158,3.37218795 19.6090326,3.3809298 19.6457493,3.37496308 C19.7158465,3.36390595 19.7821269,3.45562945 19.8496554,3.50788981 C19.8755197,3.52841233 19.8996245,3.58104671 19.9205084,3.65934783 C19.9389548,3.72660108 19.9601877,3.77736325 19.9790559,3.83268634" transform="scale(1 -1) rotate(-45 4.782 0)"/>
      <path d="M19.9790559,8.53979312 C19.9861598,8.63077514 19.9975118,8.71171117 19.9821988,8.80516664 C19.978492,8.82899109 19.9826301,8.89790128 19.988502,8.92919063 C20.0110182,9.05066344 20.0409523,9.12540552 20.0754922,9.16439898 C20.0980415,9.19038863 20.1215154,9.20996309 20.1464466,9.23506448 C20.1442526,9.276352 20.144449,9.31858757 20.1402394,9.33689705 C20.1214918,9.41011104 20.0924918,9.43361857 20.085471,9.56573861 C20.0836945,9.5941778 20.0685384,9.6187769 20.0590238,9.62508446 C20.0280978,9.6448954 19.9961704,9.65459458 19.9647501,9.67072689 C19.9471396,9.68060545 19.9279053,9.64914866 19.9100737,9.71411113 C19.9481207,9.78895487 19.9911813,9.71053685 20.0245115,9.79725693 C20.0449309,9.87830657 20.0276449,9.95796565 20.0279908,10.032337 C20.0283751,10.1149718 20.0154013,10.1983574 20.0071912,10.2799664 C20.0053719,10.2992239 20.0007064,10.3221183 19.9964369,10.3275734 C19.9689242,10.363035 19.9414199,10.400333 19.9133744,10.4238525 C19.8981671,10.4374336 19.8818816,10.424376 19.8661373,10.4250968 C19.8422886,10.4275523 19.8169399,10.4152992 19.8060672,10.5400261 C19.766914,10.6377735 19.723768,10.6978282 19.678917,10.6991024 C19.5491447,10.7048213 19.4194494,10.7270671 19.2898085,10.6584206 C19.2477099,10.6358584 19.2052834,10.645426 19.1632446,10.6357182 C19.1312403,10.6288904 19.0996791,10.6147233 19.0681307,10.6033106 C19.0604823,10.6004605 19.0523181,10.5893408 19.0447123,10.5956723 C18.9610787,10.6717457 18.8759184,10.6247731 18.7919175,10.6218844 C18.6067397,10.6168098 18.4217616,10.5520604 18.2364173,10.5111774 C18.1489989,10.4917198 18.0616403,10.4851166 17.9747718,10.4812738 C17.8688055,10.4753555 17.7628222,10.4657645 17.6572563,10.4433252 C17.5249485,10.4168784 17.3927773,10.4198128 17.2605805,10.4172383 C17.2023543,10.4155906 17.1442305,10.4359789 17.0860256,10.438922 C17.0411746,10.4401963 16.9962595,10.4276981 16.9513829,10.4234633 C16.81628,10.4116713 16.6811643,10.3971247 16.5460786,10.3890053 C16.3503676,10.3764538 16.1546822,10.3694114 15.9585025,10.3586902 C15.8658987,10.3529394 15.7732735,10.3425977 15.6811469,10.3368528 C15.6596673,10.3356655 15.6381792,10.3326419 15.6177138,10.3443209 C15.5463216,10.3847414 15.475176,10.375587 15.4036001,10.3765263 C15.2475589,10.3773255 15.0915007,10.374452 14.9354382,10.3706603 C14.8819842,10.3690724 14.8289989,10.3656542 14.7764183,10.3466331 C14.6650531,10.3085133 14.5539099,10.318138 14.4427069,10.3149084 C14.4374574,10.3148426 14.4321951,10.3120224 14.4269584,10.3147111 C14.2560857,10.4098898 14.0835454,10.3517231 13.9117087,10.3422251 C13.8587277,10.3397251 13.8056869,10.3243707 13.7531618,10.3172858 C13.7369232,10.314328 13.7211704,10.3132125 13.7054474,10.3185241 C13.5844532,10.3647499 13.4622355,10.3531193 13.340589,10.3616943 C13.3167361,10.3632316 13.2928405,10.3555873 13.2690303,10.3663063 C13.1399616,10.4206939 13.0100143,10.388768 12.8805998,10.3687842 C12.8223436,10.3607093 12.7641259,10.360898 12.7065178,10.3895557 C12.656524,10.4137183 12.6059036,10.4057391 12.5558372,10.4142929 C12.4051651,10.4408665 12.2551026,10.4959091 12.1042554,10.4848379 C12.0326497,10.4793501 11.9610696,10.4793713 11.8894681,10.4748017 C11.778248,10.4678994 11.6672874,10.4141768 11.5567827,10.3558693 C11.5151613,10.3333131 11.4730114,10.2997329 11.4309213,10.2790071 C11.361565,10.244168 11.2971039,10.1331869 11.2317481,10.0350482 C11.217333,10.0137511 11.2005147,9.98875132 11.2057888,9.89149761 C11.2062148,9.88048561 11.2003514,9.85103259 11.1965165,9.84731209 C11.1754287,9.82776753 11.1688106,9.73862781 11.1575653,9.6806459 C11.1492602,9.63922684 11.1407759,9.55924485 11.1514532,9.49511086 C11.1588754,9.44929829 11.1548868,9.41252387 11.1527686,9.36750988 C11.147974,9.26003079 11.1568364,9.2160725 11.1797647,9.22095034 C11.1902723,9.22291823 11.201713,9.22030724 11.2108615,9.23786599 C11.2488957,9.30995523 11.2830427,9.26447753 11.3175815,9.20064251 C11.3710473,9.10215642 11.4245301,9.00734299 11.4790314,8.92631399 C11.5335328,8.845285 11.589027,8.77253144 11.645054,8.71172 C11.7442868,8.60370815 11.8455651,8.52510148 11.9468605,8.45016748 C12.090007,8.34454209 12.2349053,8.30779698 12.3786016,8.21778637 C12.4566366,8.16918614 12.5362998,8.16283942 12.6149188,8.13719929 C12.6468419,8.12658195 12.6782622,8.11044964 12.7097294,8.10441715 C12.8227132,8.08012571 12.9361913,8.05951292 13.0491922,8.03889414 C13.0625418,8.03630708 13.0754867,8.04932284 13.0883719,8.04948429 C13.1203506,8.05080309 13.1518434,8.05027958 13.1837922,8.04517123 C13.2019141,8.04264396 13.220415,8.01900489 13.2385711,8.02382294 C13.3365226,8.05075738 13.4340643,7.98954801 13.5319262,7.99720099 C13.571549,8.0004518 13.6110011,7.96697601 13.6505641,7.95737251 C13.7768804,7.92682136 13.9037594,7.91463948 14.0304804,7.8684855 C14.2200803,7.79833039 14.4105588,7.81448874 14.6008538,7.79116602 C14.7010121,7.77956744 14.8018356,7.80837409 14.9025182,7.8068813 C15.0265765,7.80384519 15.1510522,7.78796075 15.2750806,7.77849748 C15.3037058,7.77701993 15.3328339,7.78105735 15.3619235,7.77683129 C15.5178835,7.75858701 15.6733536,7.73758226 15.8293093,7.71841982 C15.8874929,7.71088586 15.9456124,7.68957942 16.0035749,7.73712936 C16.0112404,7.74365219 16.0193662,7.74650834 16.0274748,7.74569183 C16.2202327,7.73892596 16.4136643,7.77440165 16.6064351,7.77039028 C16.8764999,7.76367495 17.1465989,7.76430495 17.416732,7.77228026 C17.5250716,7.77547397 17.6338329,7.76673752 17.7419301,7.82042431 C17.7447978,7.82137835 17.7471925,7.82324458 17.7495701,7.82143815 C17.8081241,7.79095605 17.8660482,7.8302425 17.9238143,7.83555687 C18.0350514,7.84613177 18.1462458,7.84752503 18.2574872,7.8590181 C18.3711191,7.87145924 18.4847978,7.89400019 18.5989282,7.91103813 C18.6519349,7.91904718 18.7044685,7.92796843 18.7574623,7.933223 C18.9852032,7.95811125 19.2129355,7.98116317 19.4401949,8.00512727 C19.472182,8.0082824 19.5032404,8.01693456 19.5348699,8.04579233 C19.5708158,8.07929473 19.6090326,8.08803659 19.6457493,8.08206987 C19.7158465,8.07101273 19.7821269,8.16273623 19.8496554,8.21499659 C19.8755197,8.23551912 19.8996245,8.28815349 19.9205084,8.36645461 C19.9389548,8.43370786 19.9601877,8.48447003 19.9790559,8.53979312" transform="rotate(-45 15.646 9.207)"/>
    </g>
  </g>
</svg>
