<svg xmlns="http://www.w3.org/2000/svg" width="44" height="40" viewBox="0 0 44 40">
  <g fill="none" fill-rule="evenodd">
    <path fill="#00253D" d="M39.903,0 C39.986,0.033 40.002,0.299 40.083,0.373 C40.304,0.57 40.585,-0.021 40.773,0.12 C40.787,0.491 40.683,0.403 40.69,0.745 C40.78,0.903 40.85,0.762 40.919,0.993 C41.048,1.421 40.956,2.312 40.903,2.928 C40.93,3.219 41.035,3.041 41.083,3.117 C40.976,3.427 41.022,3.941 40.92,4.241 C41.03,4.805 40.922,5.439 40.838,5.927 C40.89,6.105 40.885,6.5 40.937,6.678 C40.787,7.025 40.944,7.43 40.805,7.801 C40.912,8.332 40.778,8.812 40.823,9.425 C40.788,9.673 40.709,9.746 40.674,9.988 C40.792,10.083 40.869,10.434 40.872,10.736 C40.878,11.177 40.73,11.322 40.707,11.799 C40.684,12.33 40.806,12.622 40.708,12.985 C40.706,13.202 40.793,13.077 40.806,13.233 C40.806,13.25 40.806,13.267 40.805,13.283 C41.519,13.349 42.239,13.369 42.959,13.236 C43.049,13.278 43.03,13.536 43.113,13.615 C43.338,13.829 43.734,13.282 43.929,13.437 C43.896,13.797 43.789,13.704 43.752,14.035 C43.833,14.196 43.931,14.067 43.979,14.298 C44.069,14.726 43.846,15.578 43.703,16.171 C43.694,16.455 43.838,16.292 43.882,16.371 C43.719,16.662 43.703,17.163 43.547,17.444 C43.596,18 43.389,18.604 43.229,19.07 C43.263,19.247 43.206,19.628 43.241,19.806 C43.024,20.128 43.147,20.536 42.942,20.882 C42.991,21.406 42.775,21.858 42.745,22.457 C42.673,22.693 42.573,22.756 42.501,22.988 C42.622,23.091 42.662,23.439 42.626,23.732 C42.574,24.16 42.386,24.286 42.298,24.745 C42.197,25.258 42.299,25.552 42.139,25.895 C42.109,26.104 42.225,25.991 42.218,26.145 C42.164,26.484 42.059,26.52 41.985,26.738 C41.937,27.028 42.088,26.881 42.039,27.171 C41.968,27.686 41.865,27.85 41.719,28.123 C41.695,28.371 41.803,28.337 41.792,28.558 C41.653,29.119 41.652,29.778 41.415,30.057 C41.368,30.343 41.519,30.198 41.496,30.431 C41.302,31.087 41.308,31.775 41.101,32.479 C40.391,33.489 39.663,33.775 38.868,33.867 C38.884,34.288 38.885,34.693 38.91,35.254 C38.95,36.152 38.962,37.227 38.808,37.755 C38.469,38.244 38.255,38.273 37.912,38.655 C37.857,38.667 37.826,38.579 37.79,38.52 C37.221,39.073 37.317,38.924 36.631,39.088 C36.542,39.109 36.456,39.232 36.368,39.248 C36.217,39.279 36.066,39.105 35.92,39.146 C35.796,39.18 35.635,39.338 35.47,39.351 C34.817,39.395 34.141,39.254 33.475,39.415 C32.647,39.611 31.79,39.72 30.953,39.796 C30.775,39.813 30.599,40.036 30.426,39.995 C30.173,39.929 29.786,39.877 29.452,39.843 C29.003,39.8 28.496,39.823 28.091,39.904 C27.999,39.922 27.907,39.766 27.813,39.757 C26.579,39.639 25.317,39.773 24.07,39.722 C23.726,39.709 23.379,39.539 23.036,39.505 C22.407,39.444 21.789,39.357 21.179,39.214 C19.9,38.915 18.675,39.261 17.377,38.686 C17.046,38.794 16.575,38.722 16.171,38.636 C15.232,38.44 14.238,38.706 13.293,38.681 C12.665,38.666 12.046,38.809 11.438,38.759 C10.488,38.68 9.607,38.646 8.7,38.632 C7.445,38.609 6.098,38.232 4.834,38.523 C4.754,38.483 4.742,38.222 4.665,38.143 C4.458,37.929 4.191,38.483 4.014,38.329 C4.002,37.963 4.1,38.058 4.094,37.722 C4.01,37.56 3.944,37.691 3.878,37.458 C3.758,37.026 3.849,36.163 3.901,35.563 C3.877,35.276 3.777,35.441 3.731,35.362 C3.834,35.068 3.793,34.56 3.889,34.275 C3.789,33.713 3.893,33.1 3.972,32.629 C3.924,32.451 3.93,32.065 3.882,31.885 C4.026,31.558 3.879,31.147 4.01,30.795 C3.96,30.52 3.97,30.263 3.986,29.995 C2.709,30.172 1.433,30.378 0.168,30.539 C0.203,30.26 0.305,30.404 0.361,30.248 C0.351,29.944 0.304,29.723 0.229,29.564 C0.362,29.043 0.208,28.906 0.167,28.643 C0.225,28.295 0.36,28.4 0.428,28.114 C0.445,27.823 0.278,27.935 0.255,27.731 C0.329,27.283 0.482,27.326 0.569,26.961 C0.404,26.93 0.475,27.062 0.305,27.002 C0.31,26.742 0.334,26.608 0.351,26.393 C0.298,26.227 0.269,26.008 0.113,26.067 C0.108,25.897 0.16,25.6 0.167,25.399 C0.19,25.112 -0.016,25.322 0.012,25.02 C0.029,24.679 0.122,24.801 0.163,24.604 C0.144,24.421 0.009,24.489 0,24.285 C0.024,23.986 0.312,24.021 0.332,23.699 C0.382,23.306 0.238,23.34 0.336,22.843 C0.326,22.742 0.234,22.815 0.221,22.712 C0.255,22.385 0.215,22.217 0.209,21.976 C0.34,21.132 0.528,20.396 0.595,19.622 C0.618,19.37 0.675,19.142 0.695,18.896 C0.748,18.279 0.924,17.737 0.962,17.144 C1,16.539 1.096,15.911 1.109,15.381 C1.127,14.683 1.213,14.199 1.276,13.376 C1.346,12.488 1.472,11.424 1.73,10.905 C2.211,10.424 2.477,10.397 2.946,10.024 C3.018,10.011 3.042,10.101 3.08,10.16 C3.567,9.818 3.692,9.749 3.935,9.707 C3.926,9.354 3.916,9.013 3.887,8.706 C3.82,7.992 3.835,7.491 3.793,6.646 C3.747,5.733 3.731,4.638 3.891,4.085 C4.248,3.553 4.476,3.503 4.837,3.081 C4.896,3.062 4.927,3.149 4.968,3.207 C5.567,2.586 5.468,2.748 6.194,2.515 C6.289,2.484 6.379,2.351 6.472,2.326 C6.631,2.28 6.794,2.442 6.947,2.385 C7.079,2.338 7.249,2.162 7.424,2.135 C8.116,2.025 8.833,2.102 9.538,1.874 C10.416,1.593 11.323,1.399 12.21,1.24 C12.399,1.206 12.584,0.961 12.767,0.987 C13.037,1.028 13.446,1.043 13.8,1.045 C14.278,1.047 14.814,0.975 15.243,0.853 C15.341,0.825 15.44,0.975 15.538,0.975 C16.847,0.976 18.184,0.716 19.507,0.647 C19.872,0.627 20.24,0.766 20.605,0.768 C21.271,0.769 21.927,0.797 22.572,0.883 C23.93,1.064 25.227,0.593 26.605,1.054 C26.956,0.911 27.456,0.939 27.885,0.986 C28.881,1.096 29.932,0.729 30.935,0.661 C31.6,0.616 32.257,0.41 32.903,0.402 C33.907,0.39 34.841,0.338 35.803,0.265 C37.135,0.167 38.563,0.42 39.903,0"/>
    <g fill="#FFF" transform="translate(14 12)">
      <path d="M17.5191653,7.76725387 C17.5331653,7.85645321 17.5561653,7.93574151 17.5231653,8.02764385 C17.5151653,8.05106994 17.5231653,8.1186452 17.5351653,8.14927931 C17.5811653,8.26821176 17.6431653,8.34119303 17.7151653,8.37903518 C17.7621653,8.40426327 17.8111653,8.42318434 17.8631653,8.44751143 C17.8581653,8.48805659 17.8581653,8.52950274 17.8491653,8.54752281 C17.8091653,8.61960308 17.7481653,8.64302917 17.7321653,8.77277366 C17.7281653,8.80070477 17.6961653,8.82503186 17.6761653,8.83133888 C17.6111653,8.85116096 17.5441653,8.86107199 17.4781653,8.87729005 C17.4411653,8.88720109 17.4011653,8.85656698 17.3631653,8.92053822 C17.4421653,8.99351949 17.5331653,8.9160332 17.6021653,9.00072752 C17.6441653,9.08001582 17.6071653,9.15840311 17.6071653,9.23138439 C17.6071653,9.31247469 17.5791653,9.394466 17.5611653,9.4746553 C17.5571653,9.49357638 17.5471653,9.51610146 17.5381653,9.52150748 C17.4801653,9.55664661 17.4221653,9.59358775 17.3631653,9.61701384 C17.3311653,9.63052889 17.2971653,9.61791484 17.2641653,9.61881585 C17.2141653,9.62151886 17.1611653,9.60980581 17.1371653,9.73234228 C17.0541653,9.82874964 16.9631653,9.88821586 16.8691653,9.89001787 C16.5971653,9.8972259 16.3251653,9.92065198 16.0541653,9.85487874 C15.9661653,9.83325466 15.8771653,9.84316569 15.7891653,9.83415566 C15.7221653,9.82784864 15.6561653,9.81433358 15.5901653,9.80352154 C15.5741653,9.80081853 15.5571653,9.79000649 15.5411653,9.79631352 C15.3651653,9.8719978 15.1871653,9.82694763 15.0111653,9.82514562 C14.6231653,9.82244261 14.2361653,9.76117438 13.8481653,9.72333224 C13.6651653,9.70531217 13.4821653,9.69990615 13.3001653,9.69720314 C13.0781653,9.69269813 12.8561653,9.6845891 12.6351653,9.66386602 C12.3581653,9.63953893 12.0811653,9.64404394 11.8041653,9.64314294 C11.6821653,9.64224194 11.5601653,9.66296501 11.4381653,9.66656903 C11.3441653,9.66837103 11.2501653,9.65665799 11.1561653,9.65305398 C10.8731653,9.64314294 10.5901653,9.63052889 10.3071653,9.62422187 C9.89716529,9.61431083 9.48716529,9.60980581 9.07616529,9.60169678 C8.88216529,9.59719177 8.68816529,9.58818173 8.49516529,9.58367672 C8.45016529,9.58277571 8.40516529,9.5800727 8.36216529,9.59178575 C8.21216529,9.6323309 8.06316529,9.62422187 7.91316529,9.62602387 C7.58616529,9.62872688 7.25916529,9.62782588 6.93216529,9.62602387 C6.82016529,9.62512287 6.70916529,9.62241986 6.59916529,9.60439979 C6.36616529,9.56835966 6.13316529,9.5791717 5.90016529,9.57736969 C5.88916529,9.57736969 5.87816529,9.57466668 5.86716529,9.57736969 C5.50816529,9.67287605 5.14716529,9.61791484 4.78716529,9.61070682 C4.67616529,9.60890481 4.56516529,9.59448876 4.45516529,9.58818173 C4.42116529,9.58547872 4.38816529,9.58457772 4.35516529,9.58998374 C4.10116529,9.63683592 3.84516529,9.62692488 3.59016529,9.63683592 C3.54016529,9.63863792 3.49016529,9.63142989 3.44016529,9.64224194 C3.16916529,9.69720314 2.89716529,9.66747003 2.62616529,9.64944996 C2.50416529,9.64224194 2.38216529,9.64314294 2.26116529,9.67197505 C2.15616529,9.69630214 2.05016529,9.68909411 1.94516529,9.69810415 C1.62916529,9.72603525 1.31416529,9.78189746 0.998165288,9.77288743 C0.848165288,9.76838241 0.698165288,9.76928341 0.548165288,9.7656794 C0.315165288,9.76027338 0.0831652882,9.70891619 -0.147834712,9.65305398 C-0.234834712,9.63142989 -0.322834712,9.59899377 -0.410834712,9.5791717 C-0.555834712,9.54583457 -0.689834712,9.43771417 -0.825834712,9.34220781 C-0.855834712,9.32148473 -0.890834712,9.29715764 -0.878834712,9.20165128 C-0.877834712,9.19083923 -0.889834712,9.16200713 -0.897834712,9.15840311 C-0.941834712,9.13948204 -0.954834712,9.05208471 -0.977834712,8.9953215 C-0.994834712,8.95477635 -1.01183471,8.87638905 -0.988834712,8.81331881 C-0.972834712,8.76826864 -0.980834712,8.73222851 -0.984834712,8.68807934 C-0.993834712,8.58266194 -0.974834712,8.53941378 -0.926834712,8.5439188 C-0.904834712,8.5457208 -0.880834712,8.54301779 -0.861834712,8.56013686 C-0.782834712,8.63041512 -0.710834712,8.58536495 -0.637834712,8.52229472 C-0.524834712,8.42498635 -0.411834712,8.331282 -0.296834712,8.25109269 C-0.181834712,8.17090339 -0.0648347118,8.09882312 0.0531652882,8.03845589 C0.262165288,7.93123649 0.475165288,7.85284919 0.688165288,7.77806591 C0.989165288,7.67264851 1.29316529,7.63480637 1.59516529,7.54470603 C1.75916529,7.49605185 1.92616529,7.48884382 2.09116529,7.46271472 C2.15816529,7.45190268 2.22416529,7.43568462 2.29016529,7.4293776 C2.52716529,7.4041495 2.76516529,7.38252542 3.00216529,7.36090134 C3.03016529,7.35819833 3.05716529,7.37081238 3.08416529,7.37081238 C3.15116529,7.37171338 3.21716529,7.37081238 3.28416529,7.36540636 C3.32216529,7.36270335 3.36116529,7.33927726 3.39916529,7.34378228 C3.60416529,7.36901037 3.80916529,7.30774214 4.01416529,7.31404916 C4.09716529,7.31675217 4.18016529,7.28341505 4.26316529,7.27350401 C4.52816529,7.24196889 4.79416529,7.22845384 5.06016529,7.18160166 C5.45816529,7.1104224 5.85716529,7.12393745 6.25616529,7.09870935 C6.46616529,7.0860953 6.67716529,7.11312541 6.88816529,7.1104224 C7.14816529,7.10591738 7.40916529,7.08879832 7.66916529,7.07798627 C7.72916529,7.07618427 7.79016529,7.07978828 7.85116529,7.07528326 C8.17816529,7.05546119 8.50416529,7.0329361 8.83116529,7.01221303 C8.95316529,7.004104 9.07516529,6.98247991 9.19616529,7.02843109 C9.21216529,7.03473811 9.22916529,7.03744112 9.24616529,7.03654012 C9.65016529,7.02753008 10.0551653,7.05996621 10.4591653,7.05365918 C11.0251653,7.04374815 11.5911653,7.04104514 12.1571653,7.04555015 C12.3841653,7.04735216 12.6121653,7.03744112 12.8381653,7.08879832 C12.8441653,7.08969932 12.8491653,7.09150133 12.8541653,7.08969932 C12.9771653,7.0590652 13.0981653,7.09690735 13.2191653,7.10141236 C13.4521653,7.1104224 13.6851653,7.1104224 13.9181653,7.12033343 C14.1561653,7.13114547 14.3941653,7.15186855 14.6331653,7.16718561 C14.7441653,7.17439364 14.8541653,7.18250267 14.9651653,7.18700769 C15.4421653,7.20863177 15.9191653,7.22845384 16.3951653,7.24917692 C16.4621653,7.25187993 16.5271653,7.25998896 16.5931653,7.28792007 C16.6681653,7.32035619 16.7481653,7.32846522 16.8251653,7.32215819 C16.9721653,7.31044515 17.1101653,7.39964449 17.2511653,7.45010068 C17.3051653,7.46992275 17.3551653,7.52127994 17.3981653,7.59786523 C17.4361653,7.66363848 17.4801653,7.71319367 17.5191653,7.76725387" transform="rotate(-45 8.432 8.45)"/>
      <path d="M16.8219496,7.43761137 C16.8359496,7.52681071 16.8589496,7.60609901 16.8259496,7.69800135 C16.8179496,7.72142744 16.8259496,7.78900269 16.8379496,7.81873581 C16.8839496,7.93856926 16.9459496,8.01064953 17.0179496,8.04849167 C17.0649496,8.07462077 17.1139496,8.09354184 17.1659496,8.11786893 C17.1609496,8.15841409 17.1609496,8.19986024 17.1519496,8.21697931 C17.1119496,8.28905958 17.0509496,8.31338667 17.0349496,8.44313116 C17.0309496,8.47106226 16.9989496,8.49448835 16.9789496,8.50169638 C16.9139496,8.52151845 16.8469496,8.53142949 16.7809496,8.54764755 C16.7439496,8.55755859 16.7039496,8.52692447 16.6659496,8.59089572 C16.7449496,8.66387699 16.8359496,8.5863907 16.9049496,8.67108502 C16.9469496,8.75037332 16.9099496,8.82876061 16.9099496,8.90174189 C16.9099496,8.98283219 16.8819496,9.0648235 16.8639496,9.1441118 C16.8599496,9.16393387 16.8499496,9.18555796 16.8409496,9.19186498 C16.7829496,9.22700411 16.7249496,9.26304425 16.6659496,9.28737134 C16.6339496,9.29998539 16.5999496,9.28737134 16.5669496,9.28917335 C16.5169496,9.29187636 16.4639496,9.28016331 16.4399496,9.40179877 C16.3569496,9.49820613 16.2659496,9.55857336 16.1719496,9.56037537 C15.8999496,9.5675834 15.6279496,9.59100948 15.3569496,9.52523624 C15.2689496,9.50361215 15.1799496,9.51352319 15.0919496,9.50451316 C15.0249496,9.49820613 14.9589496,9.48379008 14.8929496,9.47387904 C14.8769496,9.47117603 14.8599496,9.46036399 14.8439496,9.46577001 C14.6679496,9.5414543 14.4899496,9.49640413 14.3139496,9.49550312 C13.9259496,9.49189911 13.5389496,9.43153188 13.1509496,9.39278874 C12.9679496,9.37476867 12.7849496,9.37026365 12.6029496,9.36665964 C12.3809496,9.36305562 12.1589496,9.35494659 11.9379496,9.33422352 C11.6609496,9.30899542 11.3839496,9.31440144 11.1069496,9.31259943 C10.9849496,9.31259943 10.8629496,9.33332251 10.7409496,9.33602552 C10.6469496,9.33872853 10.5529496,9.32701549 10.4589496,9.32341148 C10.1759496,9.31259943 9.89294962,9.30088639 9.60994962,9.29457937 C9.19994962,9.28466833 8.78994962,9.27926231 8.37894962,9.27115328 C8.18494962,9.26754926 7.99094962,9.25853923 7.79794962,9.25403421 C7.75294962,9.25223221 7.70794962,9.2504302 7.66494962,9.26214324 C7.51494962,9.30178739 7.36594962,9.29457937 7.21594962,9.29548037 C6.88894962,9.29908438 6.56194962,9.29818338 6.23494962,9.29548037 C6.12294962,9.29457937 6.01194962,9.29187636 5.90194962,9.27475729 C5.66894962,9.23781615 5.43594962,9.24862819 5.20294962,9.24772719 C5.19194962,9.24772719 5.18094962,9.24502418 5.16994962,9.24772719 C4.81094962,9.34323355 4.44994962,9.28737134 4.08994962,9.28106432 C3.97894962,9.27926231 3.86794962,9.26484625 3.75794962,9.25853923 C3.72394962,9.25583622 3.69094962,9.25493522 3.65794962,9.26034124 C3.40394962,9.30629241 3.14794962,9.29728238 2.89294962,9.30719341 C2.84294962,9.30899542 2.79294962,9.30178739 2.74294962,9.31169843 C2.47194962,9.36665964 2.19994962,9.33782753 1.92894962,9.31980746 C1.80694962,9.31169843 1.68494962,9.31350044 1.56394962,9.34143154 C1.45894962,9.36665964 1.35294962,9.35945161 1.24794962,9.36846165 C0.931949617,9.39639275 0.616949617,9.45135396 0.300949617,9.44234392 C0.150949617,9.43783891 0.000949616856,9.43964091 -0.149050383,9.4360369 C-0.382050383,9.42972988 -0.614050383,9.37927369 -0.845050383,9.32251047 C-0.932050383,9.30178739 -1.02005038,9.26935127 -1.10805038,9.2495292 C-1.25305038,9.21619207 -1.38705038,9.10807166 -1.52305038,9.0125653 C-1.55305038,8.99094122 -1.58805038,8.96661413 -1.57605038,8.87200877 C-1.57505038,8.86119673 -1.58705038,8.83146362 -1.59505038,8.82876061 C-1.63905038,8.80983954 -1.65205038,8.72244221 -1.67505038,8.665679 C-1.69205038,8.62423284 -1.70905038,8.54584555 -1.68605038,8.48277531 C-1.67005038,8.43862614 -1.67805038,8.401685 -1.68205038,8.35753584 C-1.69105038,8.25301944 -1.67205038,8.20887028 -1.62405038,8.2142763 C-1.60205038,8.2160783 -1.57805038,8.21337529 -1.55905038,8.23049436 C-1.48005038,8.30077262 -1.40805038,8.25572245 -1.33505038,8.19175121 C-1.22205038,8.09534385 -1.10905038,8.0016395 -0.994050383,7.92145019 C-0.879050383,7.84035989 -0.762050383,7.76918062 -0.644050383,7.70791239 C-0.435050383,7.60069298 -0.222050383,7.52320669 -0.00905038314,7.44752241 C0.291949617,7.34210501 0.595949617,7.30516387 0.897949617,7.21506353 C1.06194962,7.16640935 1.22894962,7.15920132 1.39394962,7.13307222 C1.46094962,7.12226018 1.52694962,7.10604212 1.59294962,7.09883409 C1.82994962,7.074507 2.06794962,7.05198192 2.30494962,7.03125884 C2.33294962,7.02855583 2.35994962,7.04116988 2.38694962,7.04116988 C2.45394962,7.04116988 2.51994962,7.04026887 2.58694962,7.03576386 C2.62494962,7.03215984 2.66394962,7.00963476 2.70194962,7.01413977 C2.90694962,7.03936787 3.11194962,6.97809964 3.31694962,6.98440666 C3.39994962,6.98620867 3.48294962,6.95287154 3.56594962,6.94386151 C3.83094962,6.91232639 4.09694962,6.89881134 4.36294962,6.85195916 C4.76094962,6.7807799 5.15994962,6.79429495 5.55894962,6.76906685 C5.76894962,6.7564528 5.97994962,6.78348291 6.19094962,6.7807799 C6.45094962,6.77627488 6.71194962,6.75915581 6.97194962,6.74834377 C7.03194962,6.74564076 7.09294962,6.74924478 7.15394962,6.74564076 C7.48094962,6.72491769 7.80694962,6.7032936 8.13394962,6.68257053 C8.25594962,6.67446149 8.37794962,6.65283741 8.49894962,6.69878859 C8.51494962,6.70509561 8.53194962,6.70689762 8.54894962,6.70689762 C8.95294962,6.69788758 9.35794962,6.7294227 9.76194962,6.72311568 C10.3279496,6.71410564 10.8939496,6.71140263 11.4599496,6.71590765 C11.6869496,6.71770966 11.9149496,6.70689762 12.1409496,6.75915581 C12.1469496,6.76005682 12.1519496,6.76095782 12.1569496,6.76005682 C12.2799496,6.7294227 12.4009496,6.76636384 12.5219496,6.77176986 C12.7549496,6.7807799 12.9879496,6.77987889 13.2209496,6.79069093 C13.4589496,6.80150297 13.6969496,6.82132505 13.9359496,6.83754311 C14.0469496,6.84475114 14.1569496,6.85286017 14.2679496,6.85736518 C14.7449496,6.87898927 15.2219496,6.89881134 15.6979496,6.91953442 C15.7649496,6.92223743 15.8299496,6.93034646 15.8959496,6.95827756 C15.9709496,6.98981268 16.0509496,6.99882272 16.1279496,6.99251569 C16.2749496,6.98080265 16.4129496,7.07000199 16.5539496,7.12045818 C16.6079496,7.14028025 16.6579496,7.19163744 16.7009496,7.26822273 C16.7389496,7.33399598 16.7829496,7.38265016 16.8219496,7.43761137" transform="rotate(-135 7.734 8.12)"/>
    </g>
  </g>
</svg>
