<svg xmlns="http://www.w3.org/2000/svg" width="44" height="40" viewBox="0 0 44 40">
  <g fill="none" fill-rule="evenodd">
    <path fill="#00253D" d="M39.903,0 C39.986,0.033 40.002,0.299 40.083,0.373 C40.304,0.57 40.585,-0.021 40.773,0.12 C40.787,0.491 40.683,0.403 40.69,0.745 C40.78,0.903 40.85,0.762 40.919,0.993 C41.048,1.421 40.956,2.312 40.903,2.928 C40.93,3.219 41.035,3.041 41.083,3.117 C40.976,3.427 41.022,3.941 40.92,4.241 C41.03,4.805 40.922,5.439 40.838,5.927 C40.89,6.105 40.885,6.5 40.937,6.678 C40.787,7.025 40.944,7.43 40.805,7.801 C40.912,8.332 40.778,8.812 40.823,9.425 C40.788,9.673 40.709,9.746 40.674,9.988 C40.792,10.083 40.869,10.434 40.872,10.736 C40.878,11.177 40.73,11.322 40.707,11.799 C40.684,12.33 40.806,12.622 40.708,12.985 C40.706,13.202 40.793,13.077 40.806,13.233 C40.806,13.25 40.806,13.267 40.805,13.283 C41.519,13.349 42.239,13.369 42.959,13.236 C43.049,13.278 43.03,13.536 43.113,13.615 C43.338,13.829 43.734,13.282 43.929,13.437 C43.896,13.797 43.789,13.704 43.752,14.035 C43.833,14.196 43.931,14.067 43.979,14.298 C44.069,14.726 43.846,15.578 43.703,16.171 C43.694,16.455 43.838,16.292 43.882,16.371 C43.719,16.662 43.703,17.163 43.547,17.444 C43.596,18 43.389,18.604 43.229,19.07 C43.263,19.247 43.206,19.628 43.241,19.806 C43.024,20.128 43.147,20.536 42.942,20.882 C42.991,21.406 42.775,21.858 42.745,22.457 C42.673,22.693 42.573,22.756 42.501,22.988 C42.622,23.091 42.662,23.439 42.626,23.732 C42.574,24.16 42.386,24.286 42.298,24.745 C42.197,25.258 42.299,25.552 42.139,25.895 C42.109,26.104 42.225,25.991 42.218,26.145 C42.164,26.484 42.059,26.52 41.985,26.738 C41.937,27.028 42.088,26.881 42.039,27.171 C41.968,27.686 41.865,27.85 41.719,28.123 C41.695,28.371 41.803,28.337 41.792,28.558 C41.653,29.119 41.652,29.778 41.415,30.057 C41.368,30.343 41.519,30.198 41.496,30.431 C41.302,31.087 41.308,31.775 41.101,32.479 C40.391,33.489 39.663,33.775 38.868,33.867 C38.884,34.288 38.885,34.693 38.91,35.254 C38.95,36.152 38.962,37.227 38.808,37.755 C38.469,38.244 38.255,38.273 37.912,38.655 C37.857,38.667 37.826,38.579 37.79,38.52 C37.221,39.073 37.317,38.924 36.631,39.088 C36.542,39.109 36.456,39.232 36.368,39.248 C36.217,39.279 36.066,39.105 35.92,39.146 C35.796,39.18 35.635,39.338 35.47,39.351 C34.817,39.395 34.141,39.254 33.475,39.415 C32.647,39.611 31.79,39.72 30.953,39.796 C30.775,39.813 30.599,40.036 30.426,39.995 C30.173,39.929 29.786,39.877 29.452,39.843 C29.003,39.8 28.496,39.823 28.091,39.904 C27.999,39.922 27.907,39.766 27.813,39.757 C26.579,39.639 25.317,39.773 24.07,39.722 C23.726,39.709 23.379,39.539 23.036,39.505 C22.407,39.444 21.789,39.357 21.179,39.214 C19.9,38.915 18.675,39.261 17.377,38.686 C17.046,38.794 16.575,38.722 16.171,38.636 C15.232,38.44 14.238,38.706 13.293,38.681 C12.665,38.666 12.046,38.809 11.438,38.759 C10.488,38.68 9.607,38.646 8.7,38.632 C7.445,38.609 6.098,38.232 4.834,38.523 C4.754,38.483 4.742,38.222 4.665,38.143 C4.458,37.929 4.191,38.483 4.014,38.329 C4.002,37.963 4.1,38.058 4.094,37.722 C4.01,37.56 3.944,37.691 3.878,37.458 C3.758,37.026 3.849,36.163 3.901,35.563 C3.877,35.276 3.777,35.441 3.731,35.362 C3.834,35.068 3.793,34.56 3.889,34.275 C3.789,33.713 3.893,33.1 3.972,32.629 C3.924,32.451 3.93,32.065 3.882,31.885 C4.026,31.558 3.879,31.147 4.01,30.795 C3.96,30.52 3.97,30.263 3.986,29.995 C2.709,30.172 1.433,30.378 0.168,30.539 C0.203,30.26 0.305,30.404 0.361,30.248 C0.351,29.944 0.304,29.723 0.229,29.564 C0.362,29.043 0.208,28.906 0.167,28.643 C0.225,28.295 0.36,28.4 0.428,28.114 C0.445,27.823 0.278,27.935 0.255,27.731 C0.329,27.283 0.482,27.326 0.569,26.961 C0.404,26.93 0.475,27.062 0.305,27.002 C0.31,26.742 0.334,26.608 0.351,26.393 C0.298,26.227 0.269,26.008 0.113,26.067 C0.108,25.897 0.16,25.6 0.167,25.399 C0.19,25.112 -0.016,25.322 0.012,25.02 C0.029,24.679 0.122,24.801 0.163,24.604 C0.144,24.421 0.009,24.489 0,24.285 C0.024,23.986 0.312,24.021 0.332,23.699 C0.382,23.306 0.238,23.34 0.336,22.843 C0.326,22.742 0.234,22.815 0.221,22.712 C0.255,22.385 0.215,22.217 0.209,21.976 C0.34,21.132 0.528,20.396 0.595,19.622 C0.618,19.37 0.675,19.142 0.695,18.896 C0.748,18.279 0.924,17.737 0.962,17.144 C1,16.539 1.096,15.911 1.109,15.381 C1.127,14.683 1.213,14.199 1.276,13.376 C1.346,12.488 1.472,11.424 1.73,10.905 C2.211,10.424 2.477,10.397 2.946,10.024 C3.018,10.011 3.042,10.101 3.08,10.16 C3.567,9.818 3.692,9.749 3.935,9.707 C3.926,9.354 3.916,9.013 3.887,8.706 C3.82,7.992 3.835,7.491 3.793,6.646 C3.747,5.733 3.731,4.638 3.891,4.085 C4.248,3.553 4.476,3.503 4.837,3.081 C4.896,3.062 4.927,3.149 4.968,3.207 C5.567,2.586 5.468,2.748 6.194,2.515 C6.289,2.484 6.379,2.351 6.472,2.326 C6.631,2.28 6.794,2.442 6.947,2.385 C7.079,2.338 7.249,2.162 7.424,2.135 C8.116,2.025 8.833,2.102 9.538,1.874 C10.416,1.593 11.323,1.399 12.21,1.24 C12.399,1.206 12.584,0.961 12.767,0.987 C13.037,1.028 13.446,1.043 13.8,1.045 C14.278,1.047 14.814,0.975 15.243,0.853 C15.341,0.825 15.44,0.975 15.538,0.975 C16.847,0.976 18.184,0.716 19.507,0.647 C19.872,0.627 20.24,0.766 20.605,0.768 C21.271,0.769 21.927,0.797 22.572,0.883 C23.93,1.064 25.227,0.593 26.605,1.054 C26.956,0.911 27.456,0.939 27.885,0.986 C28.881,1.096 29.932,0.729 30.935,0.661 C31.6,0.616 32.257,0.41 32.903,0.402 C33.907,0.39 34.841,0.338 35.803,0.265 C37.135,0.167 38.563,0.42 39.903,0"/>
    <g fill="#FFF" transform="translate(13 13)">
      <path d="M18.5191653,0.767253871 C18.5331653,0.856453207 18.5561653,0.935741506 18.5231653,1.02764385 C18.5151653,1.05106994 18.5231653,1.1186452 18.5351653,1.14927931 C18.5811653,1.26821176 18.6431653,1.34119303 18.7151653,1.37903518 C18.7621653,1.40426327 18.8111653,1.42318434 18.8631653,1.44751143 C18.8581653,1.48805659 18.8581653,1.52950274 18.8491653,1.54752281 C18.8091653,1.61960308 18.7481653,1.64302917 18.7321653,1.77277366 C18.7281653,1.80070477 18.6961653,1.82503186 18.6761653,1.83133888 C18.6111653,1.85116096 18.5441653,1.86107199 18.4781653,1.87729005 C18.4411653,1.88720109 18.4011653,1.85656698 18.3631653,1.92053822 C18.4421653,1.99351949 18.5331653,1.9160332 18.6021653,2.00072752 C18.6441653,2.08001582 18.6071653,2.15840311 18.6071653,2.23138439 C18.6071653,2.31247469 18.5791653,2.394466 18.5611653,2.4746553 C18.5571653,2.49357638 18.5471653,2.51610146 18.5381653,2.52150748 C18.4801653,2.55664661 18.4221653,2.59358775 18.3631653,2.61701384 C18.3311653,2.63052889 18.2971653,2.61791484 18.2641653,2.61881585 C18.2141653,2.62151886 18.1611653,2.60980581 18.1371653,2.73234228 C18.0541653,2.82874964 17.9631653,2.88821586 17.8691653,2.89001787 C17.5971653,2.8972259 17.3251653,2.92065198 17.0541653,2.85487874 C16.9661653,2.83325466 16.8771653,2.84316569 16.7891653,2.83415566 C16.7221653,2.82784864 16.6561653,2.81433358 16.5901653,2.80352154 C16.5741653,2.80081853 16.5571653,2.79000649 16.5411653,2.79631352 C16.3651653,2.8719978 16.1871653,2.82694763 16.0111653,2.82514562 C15.6231653,2.82244261 15.2361653,2.76117438 14.8481653,2.72333224 C14.6651653,2.70531217 14.4821653,2.69990615 14.3001653,2.69720314 C14.0781653,2.69269813 13.8561653,2.6845891 13.6351653,2.66386602 C13.3581653,2.63953893 13.0811653,2.64404394 12.8041653,2.64314294 C12.6821653,2.64224194 12.5601653,2.66296501 12.4381653,2.66656903 C12.3441653,2.66837103 12.2501653,2.65665799 12.1561653,2.65305398 C11.8731653,2.64314294 11.5901653,2.63052889 11.3071653,2.62422187 C10.8971653,2.61431083 10.4871653,2.60980581 10.0761653,2.60169678 C9.88216529,2.59719177 9.68816529,2.58818173 9.49516529,2.58367672 C9.45016529,2.58277571 9.40516529,2.5800727 9.36216529,2.59178575 C9.21216529,2.6323309 9.06316529,2.62422187 8.91316529,2.62602387 C8.58616529,2.62872688 8.25916529,2.62782588 7.93216529,2.62602387 C7.82016529,2.62512287 7.70916529,2.62241986 7.59916529,2.60439979 C7.36616529,2.56835966 7.13316529,2.5791717 6.90016529,2.57736969 C6.88916529,2.57736969 6.87816529,2.57466668 6.86716529,2.57736969 C6.50816529,2.67287605 6.14716529,2.61791484 5.78716529,2.61070682 C5.67616529,2.60890481 5.56516529,2.59448876 5.45516529,2.58818173 C5.42116529,2.58547872 5.38816529,2.58457772 5.35516529,2.58998374 C5.10116529,2.63683592 4.84516529,2.62692488 4.59016529,2.63683592 C4.54016529,2.63863792 4.49016529,2.63142989 4.44016529,2.64224194 C4.16916529,2.69720314 3.89716529,2.66747003 3.62616529,2.64944996 C3.50416529,2.64224194 3.38216529,2.64314294 3.26116529,2.67197505 C3.15616529,2.69630214 3.05016529,2.68909411 2.94516529,2.69810415 C2.62916529,2.72603525 2.31416529,2.78189746 1.99816529,2.77288743 C1.84816529,2.76838241 1.69816529,2.76928341 1.54816529,2.7656794 C1.31516529,2.76027338 1.08316529,2.70891619 0.852165288,2.65305398 C0.765165288,2.63142989 0.677165288,2.59899377 0.589165288,2.5791717 C0.444165288,2.54583457 0.310165288,2.43771417 0.174165288,2.34220781 C0.144165288,2.32148473 0.109165288,2.29715764 0.121165288,2.20165128 C0.122165288,2.19083923 0.110165288,2.16200713 0.102165288,2.15840311 C0.0581652882,2.13948204 0.0451652882,2.05208471 0.0221652882,1.9953215 C0.00516528818,1.95477635 -0.0118347118,1.87638905 0.0111652882,1.81331881 C0.0271652882,1.76826864 0.0191652882,1.73222851 0.0151652882,1.68807934 C0.00616528818,1.58266194 0.0251652882,1.53941378 0.0731652882,1.5439188 C0.0951652882,1.5457208 0.119165288,1.54301779 0.138165288,1.56013686 C0.217165288,1.63041512 0.289165288,1.58536495 0.362165288,1.52229472 C0.475165288,1.42498635 0.588165288,1.331282 0.703165288,1.25109269 C0.818165288,1.17090339 0.935165288,1.09882312 1.05316529,1.03845589 C1.26216529,0.931236489 1.47516529,0.852849194 1.68816529,0.778065912 C1.98916529,0.672648515 2.29316529,0.634806372 2.59516529,0.544706033 C2.75916529,0.49605185 2.92616529,0.488843822 3.09116529,0.462714724 C3.15816529,0.451902683 3.22416529,0.435684622 3.29016529,0.429377598 C3.52716529,0.404149503 3.76516529,0.382525422 4.00216529,0.36090134 C4.03016529,0.35819833 4.05716529,0.370812378 4.08416529,0.370812378 C4.15116529,0.371713381 4.21716529,0.370812378 4.28416529,0.365406357 C4.32216529,0.362703347 4.36116529,0.339277259 4.39916529,0.343782276 C4.60416529,0.369010371 4.80916529,0.30774214 5.01416529,0.314049164 C5.09716529,0.316752174 5.18016529,0.283415048 5.26316529,0.273504011 C5.52816529,0.241968892 5.79416529,0.228453841 6.06016529,0.181601665 C6.45816529,0.110422397 6.85716529,0.123937448 7.25616529,0.0987093525 C7.46616529,0.086095305 7.67716529,0.113125407 7.88816529,0.110422397 C8.14816529,0.10591738 8.40916529,0.0887983151 8.66916529,0.0779862744 C8.72916529,0.0761842676 8.79016529,0.0797882812 8.85116529,0.0752832642 C9.17816529,0.0554611895 9.50416529,0.0329361047 9.83116529,0.0122130266 C9.95316529,0.00410399603 10.0751653,-0.0175200854 10.1961653,0.0284310877 C10.2121653,0.0347381115 10.2291653,0.0374411216 10.2461653,0.0365401182 C10.6501653,0.0275300843 11.0551653,0.0599662065 11.4591653,0.0536591827 C12.0251653,0.0437481454 12.5911653,0.0410451352 13.1571653,0.0455501522 C13.3841653,0.047352159 13.6121653,0.0374411216 13.8381653,0.0887983151 C13.8441653,0.0896993185 13.8491653,0.0915013253 13.8541653,0.0896993185 C13.9771653,0.0590652031 14.0981653,0.0969073457 14.2191653,0.101412363 C14.4521653,0.110422397 14.6851653,0.110422397 14.9181653,0.120333434 C15.1561653,0.131145475 15.3941653,0.151868553 15.6331653,0.16718561 C15.7441653,0.174393638 15.8541653,0.182502668 15.9651653,0.187007685 C16.4421653,0.208631767 16.9191653,0.228453841 17.3951653,0.249176919 C17.4621653,0.25187993 17.5271653,0.25998896 17.5931653,0.287920065 C17.6681653,0.320356188 17.7481653,0.328465218 17.8251653,0.322158194 C17.9721653,0.31044515 18.1101653,0.399644486 18.2511653,0.450100676 C18.3051653,0.469922751 18.3551653,0.521279945 18.3981653,0.597865233 C18.4361653,0.663638481 18.4801653,0.713193668 18.5191653,0.767253871"/>
      <path d="M16.5738751,6.66768783 C16.5856485,6.75688524 16.6049906,6.83617184 16.5772389,6.92807221 C16.5705112,6.9514978 16.5772389,7.0190716 16.5873304,7.04880407 C16.6260146,7.16863495 16.6781541,7.24071367 16.7387032,7.278555 C16.7782283,7.30468354 16.8194354,7.3236042 16.8631653,7.34793077 C16.8589605,7.38847505 16.8589605,7.42992032 16.8513918,7.44703901 C16.8177535,7.51911774 16.7664549,7.5434443 16.7529995,7.67318601 C16.7496357,7.70111651 16.722725,7.7245421 16.7059058,7.73084898 C16.6512434,7.75157162 16.5948991,7.76148244 16.5393957,7.77770015 C16.5082802,7.78761098 16.4746418,7.75697752 16.4426853,7.82094739 C16.5091212,7.89392709 16.5856485,7.81644247 16.6436748,7.90113497 C16.6789951,7.98042156 16.6478796,8.05880717 16.6478796,8.13178688 C16.6478796,8.21287544 16.6243327,8.293964 16.6091954,8.37415158 C16.6058316,8.39397323 16.597422,8.41559685 16.5898533,8.42190374 C16.5410777,8.45704211 16.492302,8.49308148 16.4426853,8.51740804 C16.4157746,8.53002182 16.387182,8.51740804 16.3594303,8.51921001 C16.3173823,8.52191296 16.2728114,8.51020017 16.2526284,8.63183302 C16.1828287,8.72823831 16.1063014,8.78860424 16.0272512,8.79040621 C15.7985101,8.79761408 15.569769,8.82013868 15.3418689,8.75436685 C15.2678644,8.73364421 15.193019,8.74355504 15.1190145,8.7345452 C15.0626702,8.72823831 15.0071668,8.71382256 14.9516635,8.70301076 C14.9382081,8.7003078 14.9239118,8.68949599 14.9104564,8.69580288 C14.7624475,8.77148554 14.6127566,8.72643634 14.4647477,8.72553536 C14.1384553,8.72193142 13.8130038,8.66156549 13.4867114,8.62282318 C13.3328157,8.6048035 13.17892,8.60029858 13.0258653,8.59669464 C12.8391722,8.5930907 12.6524792,8.58498185 12.466627,8.56425921 C12.2336811,8.53903166 12.0007352,8.54443757 11.7677894,8.5426356 C11.6651922,8.5426356 11.5625951,8.56335823 11.459998,8.56606118 C11.3809478,8.56876413 11.3018976,8.55705134 11.2228473,8.55344741 C10.9848557,8.5426356 10.7468641,8.5309228 10.5088724,8.52461592 C10.1640789,8.51470509 9.8192853,8.50929919 9.47365079,8.50119033 C9.31050457,8.4975864 9.14735835,8.48857656 8.9850531,8.48317065 C8.9472099,8.48226967 8.90936671,8.4804677 8.87320543,8.49127951 C8.74706145,8.53182379 8.62175843,8.52461592 8.49561444,8.5255169 C8.22062056,8.52912084 7.94562668,8.52821985 7.6706328,8.5255169 C7.57644529,8.52461592 7.48309874,8.52191296 7.39059316,8.50479427 C7.1946495,8.46785392 6.99870585,8.47866573 6.8027622,8.47776475 C6.79351164,8.47776475 6.78426108,8.47416081 6.77501052,8.47776475 C6.47310592,8.57326905 6.16951941,8.51740804 5.86677385,8.51110116 C5.7734273,8.50929919 5.68008075,8.49488344 5.58757517,8.48767557 C5.55898253,8.4858736 5.53123085,8.48497262 5.50347918,8.49037852 C5.28987537,8.53632871 5.07458964,8.52731887 4.86014487,8.53722969 C4.81809687,8.53903166 4.77604888,8.53182379 4.73400088,8.54173461 C4.50610076,8.59669464 4.27735967,8.56786315 4.04945954,8.54984347 C3.94686243,8.54173461 3.84426533,8.54353658 3.74250918,8.57146709 C3.65420839,8.59669464 3.56506665,8.58948677 3.47676586,8.59849661 C3.21102254,8.62552613 2.94612017,8.68138714 2.68037685,8.6723773 C2.55423287,8.66787238 2.42808888,8.66967435 2.3019449,8.66607041 C2.10600125,8.65976352 1.91089855,8.60840743 1.71663682,8.55254642 C1.64347331,8.53182379 1.56946884,8.49938836 1.49546437,8.47956672 C1.37352519,8.44623031 1.26083656,8.33811222 1.14646602,8.24260791 C1.12123722,8.2209843 1.09180363,8.19665773 1.10189515,8.10205441 C1.10273611,8.0912426 1.09264459,8.06151012 1.08591691,8.05790619 C1.04891467,8.03988651 1.0379822,7.95249106 1.01864012,7.89572906 C1.0043438,7.8542838 0.990047482,7.77589819 1.00938956,7.7128293 C1.02284492,7.66868109 1.01611724,7.63174074 1.0127534,7.58759252 C1.00518476,7.48307837 1.021163,7.43893016 1.06152907,7.44433606 C1.08003019,7.44613803 1.10021323,7.44343508 1.11619146,7.46055377 C1.1826273,7.53083053 1.24317641,7.48578133 1.30456648,7.42181146 C1.39959495,7.32540617 1.49462341,7.23170383 1.5913338,7.15151625 C1.68804419,7.07042769 1.78643649,6.99834897 1.88566976,6.93798303 C2.06143037,6.83076594 2.24055483,6.75328131 2.41967928,6.67759865 C2.67280821,6.57218352 2.92846001,6.53434219 3.1824299,6.44424378 C3.32034732,6.39559065 3.46078762,6.38928376 3.599546,6.36225424 C3.65589031,6.35144243 3.71139367,6.3361257 3.76689702,6.32891783 C3.96620451,6.30459126 4.16635296,6.28206666 4.36566046,6.26134403 C4.38920733,6.25864107 4.41191325,6.27125485 4.43461917,6.27125485 C4.49096348,6.27125485 4.54646683,6.27035387 4.60281114,6.26584895 C4.63476762,6.26224501 4.66756505,6.23972041 4.69952153,6.24422533 C4.87191831,6.26945288 5.04431508,6.20818597 5.21671186,6.21449286 C5.28651153,6.21629482 5.3563112,6.18295842 5.42611087,6.17394858 C5.64896524,6.14241413 5.87266057,6.12799839 6.0963559,6.08114722 C6.43105793,6.01087047 6.76660092,6.02438523 7.10214392,5.99915767 C7.27874549,5.9865439 7.45618803,6.01357342 7.63363056,6.01087047 C7.85228013,6.00636555 8.07177066,5.98924685 8.29042023,5.97843504 C8.34087783,5.97573209 8.39217638,5.97933602 8.44347493,5.97573209 C8.71846881,5.95500946 8.99262174,5.93338584 9.26761562,5.91176222 C9.37021272,5.90455435 9.47280983,5.88202975 9.57456598,5.92888092 C9.58802133,5.93518781 9.60231765,5.93698977 9.61661397,5.93698977 C9.95636176,5.92797993 10.2969505,5.95951438 10.6366983,5.95320749 C11.1126816,5.94419765 11.5886649,5.94059371 12.0646482,5.94599961 C12.2555461,5.94780158 12.4472849,5.93698977 12.6373419,5.98834586 C12.6423876,5.99014783 12.6465924,5.99104882 12.6507972,5.99014783 C12.7542353,5.95951438 12.8559914,5.99645472 12.9577476,6.00186062 C13.1536912,6.01087047 13.3496349,6.00996948 13.5455785,6.02078129 C13.745727,6.0315931 13.9458755,6.05141475 14.1468649,6.06763246 C14.2402114,6.07484033 14.332717,6.08294919 14.4260635,6.08745411 C14.8272014,6.10817674 15.2283393,6.12889937 15.6286362,6.14962201 C15.6849805,6.15232496 15.7396429,6.16043381 15.7951462,6.18836432 C15.8582182,6.21989876 15.925495,6.2289086 15.9902489,6.22260171 C16.11387,6.20998794 16.2299225,6.30008634 16.3484978,6.35054145 C16.3939097,6.37036309 16.4359577,6.42171918 16.4721189,6.49830283 C16.5040754,6.56317368 16.5410777,6.6127278 16.5738751,6.66768783" transform="matrix(-1 0 0 1 17.863 0)"/>
      <path d="M18.5191653,12.5672539 C18.5331653,12.6564532 18.5561653,12.7357415 18.5231653,12.8276439 C18.5151653,12.8510699 18.5231653,12.9186452 18.5351653,12.9483783 C18.5811653,13.0682118 18.6431653,13.140292 18.7151653,13.1781342 C18.7621653,13.2042633 18.8111653,13.2231843 18.8631653,13.2475114 C18.8581653,13.2880566 18.8581653,13.3295027 18.8491653,13.3466218 C18.8091653,13.4187021 18.7481653,13.4430292 18.7321653,13.5727737 C18.7281653,13.6007048 18.6961653,13.6241309 18.6761653,13.6313389 C18.6111653,13.651161 18.5441653,13.661072 18.4781653,13.6772901 C18.4411653,13.6872011 18.4011653,13.656567 18.3631653,13.7205382 C18.4421653,13.7935195 18.5331653,13.7160332 18.6021653,13.8007275 C18.6441653,13.8800158 18.6071653,13.9584031 18.6071653,14.0313844 C18.6071653,14.1124747 18.5791653,14.194466 18.5611653,14.2737543 C18.5571653,14.2935764 18.5471653,14.3152005 18.5381653,14.3215075 C18.4801653,14.3566466 18.4221653,14.3926867 18.3631653,14.4170138 C18.3311653,14.4296279 18.2971653,14.4170138 18.2641653,14.4188158 C18.2141653,14.4215189 18.1611653,14.4098058 18.1371653,14.5314413 C18.0541653,14.6278486 17.9631653,14.6882159 17.8691653,14.6900179 C17.5971653,14.6972259 17.3251653,14.720652 17.0541653,14.6548787 C16.9661653,14.6332547 16.8771653,14.6431657 16.7891653,14.6341557 C16.7221653,14.6278486 16.6561653,14.6134326 16.5901653,14.6035215 C16.5741653,14.6008185 16.5571653,14.5900065 16.5411653,14.5954125 C16.3651653,14.6710968 16.1871653,14.6260466 16.0111653,14.6251456 C15.6231653,14.6215416 15.2361653,14.5611744 14.8481653,14.5224312 C14.6651653,14.5044112 14.4821653,14.4999062 14.3001653,14.4963021 C14.0781653,14.4926981 13.8561653,14.4845891 13.6351653,14.463866 C13.3581653,14.4386379 13.0811653,14.4440439 12.8041653,14.4422419 C12.6821653,14.4422419 12.5601653,14.462965 12.4381653,14.465668 C12.3441653,14.468371 12.2501653,14.456658 12.1561653,14.453054 C11.8731653,14.4422419 11.5901653,14.4305289 11.3071653,14.4242219 C10.8971653,14.4143108 10.4871653,14.4089048 10.0761653,14.4007958 C9.88216529,14.3971918 9.68816529,14.3881817 9.49516529,14.3836767 C9.45016529,14.3818747 9.40516529,14.3800727 9.36216529,14.3917857 C9.21216529,14.4314299 9.06316529,14.4242219 8.91316529,14.4251229 C8.58616529,14.4287269 8.25916529,14.4278259 7.93216529,14.4251229 C7.82016529,14.4242219 7.70916529,14.4215189 7.59916529,14.4043998 C7.36616529,14.3674587 7.13316529,14.3782707 6.90016529,14.3773697 C6.88916529,14.3773697 6.87816529,14.3746667 6.86716529,14.3773697 C6.50816529,14.4728761 6.14716529,14.4170138 5.78716529,14.4107068 C5.67616529,14.4089048 5.56516529,14.3944888 5.45516529,14.3881817 C5.42116529,14.3854787 5.38816529,14.3845777 5.35516529,14.3899837 C5.10116529,14.4359349 4.84516529,14.4269249 4.59016529,14.4368359 C4.54016529,14.4386379 4.49016529,14.4314299 4.44016529,14.4413409 C4.16916529,14.4963021 3.89716529,14.46747 3.62616529,14.44945 C3.50416529,14.4413409 3.38216529,14.4431429 3.26116529,14.471074 C3.15616529,14.4963021 3.05016529,14.4890941 2.94516529,14.4981041 C2.62916529,14.5260353 2.31416529,14.5809965 1.99816529,14.5719864 C1.84816529,14.5674814 1.69816529,14.5692834 1.54816529,14.5656794 C1.31516529,14.5593724 1.08316529,14.5089162 0.852165288,14.452153 C0.765165288,14.4314299 0.677165288,14.3989938 0.589165288,14.3791717 C0.444165288,14.3458346 0.310165288,14.2377142 0.174165288,14.1422078 C0.144165288,14.1205837 0.109165288,14.0962566 0.121165288,14.0016513 C0.122165288,13.9908392 0.110165288,13.9611061 0.102165288,13.9584031 C0.0581652882,13.939482 0.0451652882,13.8520847 0.0221652882,13.7953215 C0.00516528818,13.7538753 -0.0118347118,13.675488 0.0111652882,13.6124178 C0.0271652882,13.5682686 0.0191652882,13.5313275 0.0151652882,13.4871783 C0.00616528818,13.3826619 0.0251652882,13.3385128 0.0731652882,13.3439188 C0.0951652882,13.3457208 0.119165288,13.3430178 0.138165288,13.3601369 C0.217165288,13.4304151 0.289165288,13.385365 0.362165288,13.3213937 C0.475165288,13.2249863 0.588165288,13.131282 0.703165288,13.0510927 C0.818165288,12.9700024 0.935165288,12.8988231 1.05316529,12.8375549 C1.26216529,12.7303355 1.47516529,12.6528492 1.68816529,12.5771649 C1.98916529,12.4717475 2.29316529,12.4348064 2.59516529,12.344706 C2.75916529,12.2960518 2.92616529,12.2888438 3.09116529,12.2627147 C3.15816529,12.2519027 3.22416529,12.2356846 3.29016529,12.2284766 C3.52716529,12.2041495 3.76516529,12.1816244 4.00216529,12.1609013 C4.03016529,12.1581983 4.05716529,12.1708124 4.08416529,12.1708124 C4.15116529,12.1708124 4.21716529,12.1699114 4.28416529,12.1654064 C4.32216529,12.1618023 4.36116529,12.1392773 4.39916529,12.1437823 C4.60416529,12.1690104 4.80916529,12.1077421 5.01416529,12.1140492 C5.09716529,12.1158512 5.18016529,12.082514 5.26316529,12.073504 C5.52816529,12.0419689 5.79416529,12.0284538 6.06016529,11.9816017 C6.45816529,11.9104224 6.85716529,11.9239374 7.25616529,11.8987094 C7.46616529,11.8860953 7.67716529,11.9131254 7.88816529,11.9104224 C8.14816529,11.9059174 8.40916529,11.8887983 8.66916529,11.8779863 C8.72916529,11.8752833 8.79016529,11.8788873 8.85116529,11.8752833 C9.17816529,11.8545602 9.50416529,11.8329361 9.83116529,11.812213 C9.95316529,11.804104 10.0751653,11.7824799 10.1961653,11.8284311 C10.2121653,11.8347381 10.2291653,11.8365401 10.2461653,11.8365401 C10.6501653,11.8275301 11.0551653,11.8590652 11.4591653,11.8527582 C12.0251653,11.8437481 12.5911653,11.8410451 13.1571653,11.8455502 C13.3841653,11.8473522 13.6121653,11.8365401 13.8381653,11.8887983 C13.8441653,11.8896993 13.8491653,11.8906003 13.8541653,11.8896993 C13.9771653,11.8590652 14.0981653,11.8960063 14.2191653,11.9014124 C14.4521653,11.9104224 14.6851653,11.9095214 14.9181653,11.9203334 C15.1561653,11.9311455 15.3941653,11.9509675 15.6331653,11.9671856 C15.7441653,11.9743936 15.8541653,11.9825027 15.9651653,11.9870077 C16.4421653,12.0086318 16.9191653,12.0284538 17.3951653,12.0491769 C17.4621653,12.0518799 17.5271653,12.059989 17.5931653,12.0879201 C17.6681653,12.1194552 17.7481653,12.1284652 17.8251653,12.1221582 C17.9721653,12.1104452 18.1101653,12.1996445 18.2511653,12.2501007 C18.3051653,12.2699228 18.3551653,12.3212799 18.3981653,12.3978652 C18.4361653,12.4636385 18.4801653,12.5122927 18.5191653,12.5672539"/>
    </g>
  </g>
</svg>
