<svg xmlns="http://www.w3.org/2000/svg" width="230" height="54" viewBox="0 0 230 54">
  <g fill="#1D3C34" fill-rule="evenodd">
    <path d="M223.003978,18.8128628 C222.503753,18.7330162 222.410928,18.4023839 221.894202,18.3708952 C213.716309,19.0895142 204.980435,18.8882109 196.838641,19.1086324 C190.953529,19.2582042 185.237565,19.3852839 179.077072,19.4235203 C175.12891,19.4561337 171.111646,19.7350344 167.027341,19.7935135 C160.886444,19.8947275 154.439224,20.3580625 148.334426,20.2096153 C145.701287,20.1477624 142.637027,20.1106506 140.489673,20.2827143 C132.034336,19.6866766 124.067879,20.2501009 115.730121,19.9936922 C111.764426,19.8711109 107.732722,19.8216285 103.642229,19.8070087 C101.402049,19.7957627 99.1350538,19.6158268 96.8928117,19.634945 C88.7685516,19.6956734 80.5359955,20.0116858 72.4880583,20.0071874 C71.8774753,20.0060628 71.2689552,19.8193793 70.6717803,19.8553665 C68.0283274,20.0116858 64.7289103,20.1084014 61.7894484,20.1128998 C59.6101211,20.0937816 57.0842466,20.0724142 55.4288655,20.0577944 C54.2963991,20.030804 53.1598072,20.3445673 51.9963991,20.3929251 C46.534157,20.6167204 40.9460852,20.895621 35.5374753,21.3094737 C31.1942915,21.6299845 26.7747848,21.5861251 22.5048296,21.7953006 C21.4321839,21.8459076 20.3904798,22.0831981 19.576713,22.1540479 C18.6278341,22.2383928 17.6294484,22.0517093 16.6465336,22.1236837 C16.0720493,22.1641693 15.5140673,22.3396068 14.9313318,22.38684 C10.4602556,22.76583 11.0759955,22.5566545 7.38568161,23.4102255 C7.13814798,23.3427496 6.94424664,23.2381618 6.57500897,23.2696506 C4.35752018,23.8454455 2.95895516,23.9376627 0.766219731,24.6495342 C-0.212569507,25.3614057 -0.0815829596,26.7277941 0.22164574,27.8613904 C0.503215247,28.9117663 0.412452915,29.5404174 0.845636771,30.4243526 C1.17155605,31.0923647 1.13855157,31.9054502 1.39021076,32.6746762 C1.63980717,33.4292825 1.10760987,34.1512754 1.3025426,34.9396196 C1.37680269,35.2545075 1.24581614,35.5547755 1.32007623,35.876411 C1.53873094,36.864934 1.10039013,37.8343387 1.04263229,38.9263248 C1.25613004,39.2277175 1.59442601,39.4301454 1.66352915,39.849621 C1.79967265,39.9755762 2.23388789,39.8631162 2.37106278,39.9890714 C2.2225426,40.6379653 2.96617489,40.5614925 2.99299103,41.0675623 C3.13119731,41.4780411 1.57276682,41.4982839 1.66971749,41.8783985 C1.87496413,42.1336826 2.53917937,42.0189735 2.78155605,42.2438934 C2.7145157,42.5014267 2.12249776,42.3675993 2.29164574,42.8005701 C2.36590583,43.188557 3.30137668,42.8770429 3.4034843,43.2447869 C3.51281166,43.4989464 3.46227354,43.8835595 3.61904484,44.0972334 C4.40702691,43.9881472 4.72572646,44.2569265 5.13209417,44.4537314 C5.20119731,44.7281337 5.17850673,44.901322 5.34559193,45.2308297 C6.29447085,45.2679414 5.81796861,45.1194943 6.71940359,45.1206189 C6.53065919,45.5985737 5.68182511,45.5805801 5.631287,46.1597488 C5.91079372,46.4105345 6.71321525,46.2339724 6.84213901,46.602841 C6.69155605,46.9784573 5.89944843,46.8749941 5.85303587,47.3270831 C6.27178027,47.6509678 7.19487444,47.7892935 6.87411211,48.47305 C7.39702691,48.6563597 7.81370852,48.9240144 8.09115247,49.3052536 C7.92097309,49.5144292 7.26500897,49.3558606 7.29491928,49.7146079 C28.6395381,48.144667 50.2595381,45.9595701 72.1074753,46.3835441 C73.148148,46.4049115 74.2868027,46.4274035 75.3254126,46.3824195 C77.5862197,46.313819 80.3967578,46.2283494 82.9680135,46.150752 C85.0699865,46.0652825 87.1513318,46.2305986 89.2037982,46.2328478 C95.1126323,46.1934868 101.011152,46.1530012 106.918955,46.1125157 C109.960525,46.1147649 113.26613,46.0101771 116.281915,46.2171034 C117.258641,46.2823302 117.922857,46.280081 118.799538,46.223851 C123.320121,45.9258321 128.243978,46.805269 132.702677,46.4881319 C133.967161,46.4015377 135.149135,46.1035189 136.331108,46.5758507 C139.780076,46.3959147 143.461108,46.6500742 147.018372,46.5870967 L150.043439,46.5870967 C155.382946,46.5533587 159.635368,46.1878638 165.273978,46.1754932 C170.15039,46.0990205 174.5503,46.0292953 179.20187,45.9573209 C181.446175,45.9494487 183.710076,45.7503946 185.664561,45.9168354 C186.05752,45.9494487 186.474202,46.1181387 186.878507,46.1417553 C188.038821,46.2047328 189.221825,45.8977172 190.313036,46.1046435 C190.54613,45.9202091 190.745188,45.8965926 191.017475,45.8628546 C193.802229,45.5041073 197.027386,45.8246182 200.108148,45.6862925 C203.73039,45.5131041 207.781691,45.6750465 211.019224,45.5131041 C217.157027,45.2195837 222.450121,44.9564274 226.549897,43.008621 C227.120256,42.0763281 226.56743,41.211511 227.106848,40.3421956 C227.052184,40.0441768 226.358058,40.2589753 226.392094,39.888982 C227.444112,39.4863754 226.951108,38.656421 227.263619,37.9186837 C227.154291,37.6375338 226.610749,37.7061344 226.547834,37.3878727 C227.118193,37.0122565 227.543126,36.780589 227.534874,36.1181999 C227.574067,35.7414591 226.877879,35.960756 226.919135,35.5840151 C227.14604,35.2927439 227.678238,35.2252679 227.709179,34.7855495 C227.626668,34.5898692 227.092408,34.7596837 227.100659,34.4875306 C227.69474,34.0208218 226.932543,33.6733206 227.072812,33.0064331 C227.196578,32.4081461 228.101108,32.2068428 228.053664,31.6580383 C228.023753,31.2801728 227.553439,30.8505758 226.830435,30.7482373 C227.038776,30.4412216 227.522498,30.3400077 227.722587,30.0262444 C227.431735,29.2648905 228.240345,28.6474854 227.582318,27.9985915 C228.41465,27.5172629 227.451332,27.0325605 228.361018,26.5770977 C228.041287,26.3622992 228.061915,25.8686 227.742184,25.6538015 C228.242408,25.031898 228.887027,24.2255602 228.203215,23.5361807 C228.824112,23.1481938 228.527072,22.5116705 229.179942,22.1113131 C228.880839,22.0224697 228.239314,22.257511 228.07326,21.8987638 C228.383709,21.1216655 228.924157,19.9981906 228.126892,19.4797503 C227.696803,19.199725 227.270839,19.3852839 226.721108,19.199725 C226.666444,18.7735018 227.309,18.8690927 227.207924,18.4068823 C226.056892,18.256186 224.357161,19.0299105 223.003978,18.8128628"/>
    <path d="M216.006821,0.465584194 C215.529287,0.374491634 215.446776,0.0416101816 214.953771,0 C207.127583,0.526312567 198.789825,0.208050908 191.014175,0.331756853 C185.397224,0.422849413 179.940139,0.488076184 174.067404,0.502695977 C170.300767,0.513941972 166.468121,0.770350659 162.576686,0.826580634 C156.723547,0.910925596 150.581619,1.36976219 144.768704,1.23368565 C142.261395,1.17295728 139.342561,1.1380947 137.298345,1.31803062 C129.250408,0.741111072 121.672785,1.33152581 113.744489,1.10323211 C109.972695,0.996395158 106.141081,0.960407974 102.253771,0.959283375 C100.123951,0.957034176 97.9693767,0.783845853 95.8385247,0.809711641 C88.1196009,0.895181203 80.3068206,1.22019046 72.6652511,1.21906586 C72.0866413,1.21906586 71.5090628,1.03125774 70.943861,1.06499573 C68.4365516,1.21794126 65.3052511,1.30903382 62.5174036,1.30678462 C60.4494664,1.30453542 58.0535471,1.28541723 56.4827399,1.23368565 C55.4100942,1.19994767 54.3312601,1.50808793 53.228704,1.54969811 C48.0480314,1.74875222 42.7508117,1.99054112 37.6217085,2.34366536 C33.5033677,2.62706444 29.3159238,2.53034888 25.2697803,2.66755002 C24.2528296,2.701288 23.2637265,2.9228341 22.4922466,2.98018868 C21.5928744,3.05216305 20.6481211,2.84861054 19.7178072,2.90708971 C19.1732332,2.9374539 18.6430987,3.10501922 18.0892422,3.14213101 C13.8502287,3.43340228 14.4370897,3.23322357 10.9303632,4.00694802 C10.6972691,3.93609826 10.514713,3.8258875 10.1650717,3.84950409 C8.05587892,4.37806586 6.73157399,4.43991883 4.64094619,5.10568174 C3.70134978,5.79506123 3.80139462,7.16482342 4.06955605,8.30516732 C4.31812108,9.36116625 4.2211704,9.98756817 4.61619283,10.8805002 C4.91529596,11.5552599 4.86888341,12.3672207 5.09475785,13.1420698 C5.32063229,13.902299 4.80287444,14.6119213 4.97305381,15.404764 C5.03906278,15.7207764 4.90910762,16.0176707 4.97305381,16.3404308 C5.16592377,17.3345767 4.73170852,18.2949847 4.65744843,19.3847216 C4.85547534,19.6917373 5.17520628,19.9009128 5.23296413,20.3226376 C5.36188789,20.4508419 5.77547534,20.3485034 5.9043991,20.4767077 C5.75278475,21.1211032 6.46238117,21.0614995 6.47888341,21.5686938 C6.604713,21.9825465 5.11744843,21.9679267 5.2040852,22.3502905 C5.39489238,22.610073 6.0302287,22.5099836 6.25816592,22.7405265 C6.18906278,22.9958106 5.62695516,22.8484881 5.78063229,23.2859573 C5.84560987,23.6761933 6.74291928,23.384922 6.83368161,23.7526661 C6.93475785,24.0101994 6.87803139,24.3936878 7.02552018,24.6118601 C7.77740359,24.5185183 8.07753812,24.7940452 8.46224664,24.9998469 C8.52413004,25.2764984 8.50040807,25.4485621 8.6540852,25.7814436 C9.55758296,25.8387981 9.10583408,25.679105 9.96601345,25.6993478 C9.77933184,26.1739288 8.96865919,26.1379416 8.91193274,26.7171104 C9.17390583,26.9723944 9.94332287,26.8127013 10.05987,27.1849438 C9.91134978,27.5583108 9.1563722,27.436854 9.10480269,27.888943 C9.49982511,28.2206999 10.3785695,28.3781438 10.0619327,29.0551527 C10.5590628,29.250833 10.9540852,29.5274845 11.2119327,29.9143467 C11.0469103,30.1190239 10.4218879,29.9480847 10.4456099,30.3045828 C30.8702287,29.1991015 51.4928744,27.1624518 72.3022018,27.5954226 C73.2923363,27.61679 74.375296,27.6370328 75.3654305,27.5920488 C77.5169103,27.4964578 80.1933677,27.4559722 82.6418879,27.3536337 C84.6427848,27.2692887 86.6251166,27.431231 88.5775381,27.4267326 C94.1996457,27.4132375 99.8114395,27.2726625 105.432516,27.2535443 C108.324534,27.2456721 111.469242,27.1287138 114.336507,27.3255187 C115.264758,27.3873717 115.895969,27.3828733 116.729332,27.3232695 C121.023009,27.0117554 125.709646,27.8687002 129.944534,27.543691 C131.145072,27.4525984 132.268256,27.1512058 133.391439,27.6201638 C136.665072,27.4323556 140.16561,27.6730199 143.540318,27.611167 C144.483009,27.5909242 145.421574,27.6156654 146.41274,27.6089178 C151.482022,27.5673076 155.519915,27.2018127 160.871798,27.2040619 C165.496552,27.2051865 169.670587,27.0207522 174.084937,27.0376212 C176.213726,27.0421196 178.362112,26.8554361 180.213457,27.0319982 C180.585789,27.0668608 180.981843,27.2377999 181.363457,27.2647903 C182.463951,27.3401385 183.587135,27.0454934 184.618525,27.2625411 C184.842336,27.080356 185.030049,27.057864 185.288928,27.0274998 C187.93135,26.695743 190.987359,27.0488672 193.907224,26.9397811 C197.341753,26.8160751 201.178525,27.0443688 204.247942,26.9307843 C210.067045,26.7171104 215.076507,26.6046504 218.993726,24.7321922 C219.550677,23.8133944 219.039108,22.9362068 219.565117,22.079262 C219.517673,21.7801185 218.856552,21.9802973 218.895744,21.6114286 C219.898256,21.2301894 219.445475,20.3901136 219.754892,19.6591239 C219.655879,19.3757248 219.138121,19.4319548 219.082426,19.1136931 C219.632157,18.7493229 220.038525,18.5277768 220.041619,17.8653877 C220.085969,17.4897714 219.420722,17.693324 219.466103,17.3177077 C219.686821,17.0309349 220.193233,16.9758295 220.230363,16.5372357 C220.155072,16.3393062 219.644534,16.4967501 219.65691,16.2268462 C220.230363,15.7713834 219.511484,15.4070132 219.655879,14.7434995 C219.783771,14.1474617 220.647045,13.9675258 220.613009,13.4164721 C220.589287,13.0386066 220.149915,12.6000128 219.463009,12.4819299 C219.667224,12.178288 220.128256,12.0871954 220.325251,11.7790552 C220.060184,11.0109537 220.840946,10.4115422 220.225206,9.74802848 C221.026596,9.28469349 220.11691,8.77862371 220.991529,8.3445283 C220.689332,8.1218576 220.718211,7.62928302 220.416013,7.40661232 C220.904892,6.79595479 221.533009,6.00423674 220.893547,5.30023745 C221.490722,4.92574582 221.220498,4.2824749 221.850677,3.89561267 C221.566013,3.80114632 220.950274,4.02269242 220.797628,3.65944678 C221.107045,2.88797152 221.643368,1.77799181 220.890453,1.24155785 C220.484085,0.952535778 220.073592,1.1290979 219.551709,0.932292987 C219.507359,0.503820577 220.118973,0.614031328 220.029242,0.149571734 C218.933906,-0.0258657885 217.298121,0.712996084 216.006821,0.465584194"/>
    <path d="M23.4319462,51.6140564 C23.8620359,51.7141458 23.9321704,52.0481518 24.3787623,52.0998834 C31.4706009,51.727641 39.0121256,52.207845 46.0523946,52.2370845 C51.137148,52.2562027 56.0775067,52.2978129 61.3953543,52.3979023 C64.8040987,52.4620044 68.2767892,52.2798193 71.8000179,52.3000621 C77.0993004,52.3315509 82.6667444,51.9919219 87.9268341,52.2438321 C90.194861,52.3517937 92.8362511,52.4440109 94.6886278,52.3045605 C101.967148,53.0400486 108.833112,52.598081 116.00643,52.9804448 C119.417238,53.1626299 122.886834,53.2728407 126.404906,53.3504381 C128.333605,53.3942974 130.281901,53.6090959 132.20957,53.6259649 C139.197238,53.6923163 146.274637,53.519128 153.191139,53.6709489 C153.715085,53.6821949 154.233874,53.8823736 154.746475,53.8576324 C157.018628,53.7541693 159.854951,53.7260543 162.378762,53.7822843 C164.249704,53.825019 166.418717,53.8913704 167.83791,53.9745908 C168.80948,54.027447 169.790332,53.7429233 170.789749,53.7215559 C175.481543,53.6237157 180.281632,53.48539 184.929076,53.2334797 C188.660646,53.0310518 192.449973,53.2098631 196.114502,53.1525085 C197.034502,53.1378888 197.933874,52.9365854 198.634188,52.8938507 C199.448987,52.8409945 200.299883,53.061416 201.144592,53.022055 C201.637596,53.0006876 202.120287,52.8466175 202.620511,52.8173779 C206.463471,52.6104516 205.927148,52.7993843 209.115175,52.0942604 C209.325578,52.1696086 209.48957,52.2831931 209.806206,52.2663241 C211.723561,51.7793726 212.924099,51.7422608 214.824951,51.1203572 C215.687193,50.4478467 215.619121,49.0758354 215.394278,47.9321177 C215.186969,46.8704957 215.283919,46.246343 214.940466,45.3466634 C214.680556,44.6640315 214.734188,43.8554445 214.543381,43.0738478 C214.351543,42.3113693 214.831139,41.6107439 214.689839,40.8145274 C214.634143,40.4973904 214.756879,40.2038699 214.704278,39.8788606 C214.546475,38.8813409 214.953874,37.9299297 215.038448,36.8413174 C214.864143,36.5309279 214.57948,36.3150048 214.533067,35.89328 C214.418583,35.7617019 214.042126,35.8572928 213.927641,35.7257147 C214.076161,35.084693 213.432574,35.1296769 213.425354,34.6236072 C213.31809,34.2063807 214.661991,34.2502401 214.590825,33.8656271 C214.422709,33.6013462 213.847193,33.6901896 213.642978,33.4562729 C213.708987,33.2009888 214.217462,33.3595573 214.085444,32.9198389 C214.031812,32.5284783 213.213919,32.801756 213.138628,32.4317627 C213.051991,32.1731048 213.107686,31.790741 212.978762,31.5703195 C212.295982,31.6490415 212.027821,31.366767 211.684368,31.1542177 C211.63383,30.8764416 211.657552,30.7032533 211.522439,30.3681226 C210.70661,30.2927745 211.111946,30.4603398 210.335309,30.423228 C210.511677,29.9531454 211.243964,30.004877 211.303785,29.4279575 C211.071722,29.1659258 210.373471,29.3121237 210.272395,28.9376321 C210.413695,28.5676388 211.094413,28.7025908 211.150108,28.252751 C210.796341,27.9131219 210.004233,27.7376844 210.301274,27.0674231 C209.854682,26.8616214 209.500915,26.5770977 209.27504,26.1868617 C209.426655,25.9844338 209.988762,26.1677435 209.973291,25.8101209 C191.46809,26.5163693 172.770018,28.145914 153.941991,27.3069628 C153.044682,27.2653526 152.064861,27.2237424 151.168583,27.2484836 C149.219256,27.3024644 146.793426,27.2912184 144.578,27.3451992 C142.764816,27.3901832 140.974323,27.1900044 139.205489,27.1562665 C134.11661,27.0595509 129.035982,27.0899151 123.947103,26.9976979 C121.329435,26.9482156 118.480735,27.0044455 115.888852,26.7525352 C115.0493,26.6715641 114.47791,26.6636919 113.721901,26.7075513 C109.830466,26.9347204 105.602798,25.9855584 101.763964,26.2284719 C100.676879,26.2948232 99.6547713,26.5737239 98.6460717,26.0833985 C95.6787623,26.2059799 92.5144574,25.896715 89.4584484,25.8933412 C88.6044574,25.8944658 87.7556233,25.8528556 86.8572825,25.8393604 C82.2696592,25.7820059 78.6082242,26.0676541 73.7658475,25.9596926 C69.5784036,25.8686 65.7973274,25.9709386 61.801722,25.8674754 C59.8750852,25.8213669 57.9278206,25.9664402 56.2549058,25.7538909 C55.9176413,25.7111561 55.562843,25.5334694 55.2173274,25.4974822 C54.2230673,25.399642 53.2009596,25.6751689 52.2706457,25.4367538 C52.0664305,25.6144405 51.8962511,25.6324341 51.6610942,25.6582999 C49.2641435,25.9372006 46.5020807,25.5255972 43.8586278,25.5773288 C40.7469238,25.6335587 37.2793901,25.3299169 34.4987623,25.3838977 C29.2273274,25.4828624 24.6912735,25.4963576 21.1164753,27.292343 C20.5976861,28.2010194 21.0463408,29.0872038 20.5553991,29.9340272 C20.5945919,30.2331707 21.1958924,30.0453626 21.1556682,30.4142312 C20.2397937,30.7763523 20.6368789,31.6254249 20.3470583,32.349667 C20.4316323,32.6341906 20.8998834,32.5880821 20.9452646,32.9085929 C20.4429776,33.2628418 20.0706457,33.4753911 20.0582691,34.1389048 C20.0118565,34.5122718 20.6172825,34.3210899 20.57087,34.6955815 C20.3656233,34.977856 19.9056233,35.0239646 19.8653991,35.4625584 C19.9293453,35.6604879 20.396565,35.51429 20.3790314,35.7841938 C19.8540538,36.227286 20.4986726,36.6051515 20.3584036,37.2652914 C20.2305112,37.8590799 19.4476861,38.0232714 19.4703767,38.5743252 C19.4848161,38.9521906 19.875713,39.4009058 20.4955785,39.532484 C20.3068341,39.8305028 19.8870583,39.9125986 19.7055336,40.2184897 C19.9314081,40.9899649 19.2156233,41.5747567 19.7612287,42.2495164 C19.0299731,42.697107 19.8437399,43.2211703 19.0464753,43.6383968 C19.3156682,43.8666905 19.2816323,44.359265 19.5508251,44.5864341 C19.1001076,45.1880949 18.5173722,45.9674423 19.0866996,46.6838122 C18.5390314,47.0459333 18.773157,47.6948272 18.1976413,48.0704434 C18.453426,48.1694082 19.0145022,47.9602326 19.1475516,48.3257275 C18.8546368,49.0904551 18.3513184,50.1903135 19.0248161,50.7413672 C19.3878655,51.0382615 19.7612287,50.8706962 20.2305112,51.0764979 C20.2655785,51.5049703 19.7127534,51.3846381 19.7859821,51.8502223 C20.7761166,52.0481518 22.2675067,51.3419033 23.4319462,51.6140564"/>
  </g>
</svg>
