<svg xmlns="http://www.w3.org/2000/svg" preserveAspectRatio="none" viewBox="0 0 579 145">
  <path fill="#F2F2F3" fill-rule="evenodd" d="M159.564963,0.447348178 L160.438468,0.459998626 C163.84562,0.580934004 169.043716,0.694381821 173.530531,0.775371775 C179.579354,0.883626705 186.375313,0.894021698 191.818663,0.807318064 C193.045696,0.788651236 194.294991,1.03359635 195.550417,1.05550989 C212.130519,1.34625282 229.088864,1.2561118 245.8386,1.44693142 C250.462505,1.49691033 255.133754,1.7842158 259.754838,1.86754945 C268.189218,2.01610826 276.502033,2.20396607 284.683583,2.4737107 C301.881095,3.04513471 318.334716,2.63085011 335.784588,3.62088848 C340.223709,3.48458814 346.556062,3.63654071 351.994982,3.80363001 C364.604604,4.18540705 377.940429,3.87303177 390.641897,3.99452476 C399.086417,4.07511645 407.407531,3.91571772 415.580341,4.04501306 C428.322882,4.25006486 440.164624,4.379266 452.353767,4.48379938 C469.227376,4.6313518 487.311443,5.32514344 504.303053,4.99641056 C505.371876,5.06450483 505.544002,5.46301243 506.578231,5.58929388 C509.374872,5.93206447 512.939398,5.11642686 515.312343,5.36628761 C515.497405,5.92135166 514.172653,5.76728443 514.259997,6.2778857 C515.388262,6.5314075 516.282581,6.3372409 517.158296,6.6959195 C518.780795,7.36158829 517.594108,8.65966378 516.906762,9.56427138 C517.230431,10.0015005 518.571012,9.76167704 519.186696,9.88466123 C517.811358,10.3202934 518.384335,11.0945778 517.080864,11.5167667 C518.453726,12.3771658 517.07447,13.2937469 516.001075,14.0005452 C516.652145,14.2764692 516.579273,14.860435 517.230343,15.136359 C515.323658,15.6188352 517.286937,16.254376 515.538533,16.7743551 C516.860764,17.5857687 515.154295,18.2681551 515.713495,19.1905127 C515.279679,19.5490481 514.277478,19.6397835 513.828091,19.9927024 C515.316042,20.1589714 516.260267,20.6965551 516.303903,21.1462663 C516.366327,21.8020739 514.489528,21.9830997 514.199679,22.6862048 C514.144268,22.8188015 514.142801,22.9421375 514.172493,23.05807 C527.725955,23.2886041 539.442364,23.5427702 548.73856,25.6196608 C550.154147,26.7111367 548.853904,27.7531822 550.190848,28.7711805 C550.070261,29.1265447 548.389906,28.8887446 548.489521,29.3269381 C551.037579,29.7798271 549.886758,30.777786 550.673196,31.6461573 C550.421536,31.9828181 549.105564,31.9160203 548.964005,32.2940958 C550.361242,32.7269455 551.394097,32.9901288 551.401962,33.7770067 C551.514684,34.2232159 549.823843,33.9814079 549.939188,34.4276172 C550.50018,34.7682859 551.787316,34.8337477 551.881689,35.3547705 C551.690322,35.5898987 550.3927,35.4028649 550.424158,35.7234943 C551.881689,36.2645564 550.054532,36.697406 550.421536,37.4856199 C550.746597,38.1936765 552.940758,38.4074294 552.85425,39.0620477 C552.793956,39.5109289 551.677215,40.0319516 549.931323,40.172227 C550.450372,40.532935 551.622164,40.6411474 552.122863,41.0071993 C551.449148,41.9196571 553.433592,42.6317215 551.868581,43.4199354 C552.820313,43.6771171 552.822555,43.9453822 552.781594,44.2108299 C555.700816,44.1595898 558.599106,44.0902466 561.470306,44 C562.723363,44.0494304 562.93308,44.4448733 564.146815,44.5530857 C567.428882,44.846996 571.586515,43.969273 574.370504,44.1776821 C574.598571,44.7294318 573.044046,44.5985082 573.156769,45.1075073 C574.483227,45.3412996 575.526567,45.1315545 576.559422,45.4748952 C578.473087,46.1121461 577.109928,47.4307344 576.323491,48.3472001 C576.711467,48.7787138 578.276477,48.5155305 579,48.6277508 C577.398289,49.0873196 578.085111,49.8514863 576.567286,50.2963595 C578.096985,51.0834732 576.772794,51.9628927 575.575774,52.6684209 L575.353551,52.7986047 C576.121638,53.0631239 576.048238,53.6482725 576.816325,53.9127918 C574.593328,54.4284707 576.905455,55.0296508 574.868581,55.5800646 C576.433592,56.3682785 574.449148,57.0803429 575.122863,57.9928007 C574.622164,58.3588526 573.450372,58.467065 572.931323,58.827773 C574.677215,58.9680484 575.793956,59.4890711 575.85425,59.9379523 C575.940758,60.5925706 573.746597,60.8063235 573.421536,61.5143801 C573.054532,62.302594 574.881689,62.7354436 573.424158,63.2765057 C573.3927,63.5971351 574.690322,63.4101013 574.881689,63.6452295 C574.787316,64.1662523 573.50018,64.2317141 572.939188,64.5723828 C572.823843,65.0185921 574.514684,64.7767841 574.401962,65.2229933 C574.394097,66.0098712 573.361242,66.2730545 571.964005,66.7059042 C572.105564,67.0839797 573.421536,67.0171819 573.673196,67.3538427 C572.886758,68.222214 574.037579,69.2201729 571.489521,69.6730619 C571.389906,70.1112554 573.070261,69.8734553 573.190848,70.2288195 C571.853904,71.2468178 573.154147,72.2888633 571.73856,73.3803392 C568.462451,74.1122644 564.885762,74.6178152 561.034084,74.9757636 C560.843597,76.2690301 559.742749,77.4087985 560.232455,78.5885627 C560.394986,78.971982 560.064682,79.3246744 560.232455,79.7000779 C560.664996,80.6419267 559.349024,81.4849148 559.923123,82.3880209 C560.497222,83.3084945 560.379257,84.2730545 561.13948,85.074628 C562.143498,86.1353769 561.897081,86.8795042 562.528853,88.1339667 C563.210432,89.4886258 563.464714,91.1158199 561.076565,91.9347608 C558.143622,92.3712974 555.804077,92.5892692 553.394932,92.8025462 C554.313236,93.6704896 554.042278,94.8455854 553.528853,95.8660333 C552.897081,97.1204958 553.143498,97.8646231 552.13948,98.925372 C551.379257,99.7269455 551.497222,100.691506 550.923123,101.611979 C550.349024,102.515085 551.664996,103.358073 551.232455,104.299922 C551.064682,104.675326 551.394986,105.028018 551.232455,105.411437 C550.742242,106.592422 551.845876,107.733328 552.034621,109.02787 C551.531301,109.392585 550.718649,109.641073 550.571848,110.142057 C550.244165,110.294356 549.19296,110.172784 548.865278,110.325083 C549.250632,111.090585 547.447069,111.01978 547.405126,111.622296 C547.085308,112.113927 550.865451,112.09656 550.645248,112.550785 C550.160279,112.859391 548.54546,112.740491 547.966118,113.014362 C548.141755,113.317623 549.57045,113.142613 549.179853,113.6623 C549.014701,114.125877 546.734032,113.779864 546.503344,114.216722 C546.246441,114.522656 546.390621,114.978216 546.015752,115.237392 C544.104709,115.126508 543.341865,115.453817 542.364061,115.698297 C542.206773,116.026942 542.267067,116.231343 541.876469,116.626786 C539.580072,116.69492 540.72827,116.505214 538.541974,116.529261 C539.016458,117.093034 541.076924,117.050284 541.221105,117.738301 C540.555254,118.041563 538.599646,117.851857 538.303421,118.294059 C538.680911,118.737596 540.599819,118.593313 540.730892,119.130367 C539.726873,119.524474 537.49339,119.711508 538.298178,120.515753 C537.034635,120.748209 536.030617,121.076855 535.375252,121.536423 C535.794685,121.779567 537.383289,121.576502 537.322996,122 C523.526033,121.650976 509.693519,121.223818 495.825995,120.794367 C496.565603,121.499962 495.23997,122.163644 495.752723,122.992801 C495.333365,123.358853 494.351936,123.467065 493.917209,123.827773 C495.379472,123.968048 496.314794,124.489071 496.365292,124.937952 C496.437747,125.592571 494.600038,125.806324 494.327785,126.51438 C494.020402,127.302594 495.550728,127.735444 494.32998,128.276506 C494.303633,128.597135 495.39045,128.410101 495.550728,128.64523 C495.471687,129.166252 494.393652,129.231714 493.923796,129.572383 C493.82719,130.018592 495.243346,129.776784 495.148935,130.222993 C495.142349,131.009871 494.277286,131.273055 493.107037,131.705904 C493.225599,132.08398 494.327785,132.017182 494.538561,132.353843 C493.879884,133.222214 494.843748,134.220173 492.709635,134.673062 C492.626203,135.111255 494.033576,134.873455 494.134573,135.22882 C493.014822,136.246818 494.103835,137.288863 492.918216,138.380339 C484.579366,140.604706 473.915385,140.738301 461.527867,140.992133 C454.993792,141.127064 446.826197,140.855865 439.514883,141.00282 C433.299168,141.132408 426.793635,140.712918 421.168534,141.107025 C420.617441,141.143096 420.217843,141.169815 419.7414,141.38624 C417.545811,141.1284 415.154813,141.478421 412.812119,141.388912 C411.99975,141.356849 411.156644,141.153783 410.364036,141.112369 C406.422952,140.902624 401.849538,141.124392 397.317841,141.119049 C387.920716,141.099009 379.035164,141.318106 369.190139,141.31677 C357.797223,141.314098 349.201488,141.748284 338.410164,141.797714 C336.300202,141.80573 334.302215,141.776339 332.295446,141.800386 C325.111476,141.873864 317.659644,141.587969 310.690842,141.811074 C308.299844,141.25398 305.908847,141.612016 303.35318,141.720229 C294.338088,142.10632 284.361327,141.088322 275.221087,141.458381 C273.44705,141.529187 272.103349,141.534531 270.127318,141.461053 C264.023578,141.227261 257.329225,141.3662 251.172791,141.375552 C239.206826,141.398263 227.260621,141.565258 215.292461,141.581289 C211.136209,141.586633 206.916285,141.394255 202.656841,141.494452 C197.44451,141.616024 191.746955,141.664118 187.166954,141.777675 C185.059188,141.831113 182.753818,141.807066 180.646052,141.781683 C136.34783,141.26734 92.4470104,143.686755 48.9677437,145 C48.9172452,144.576502 50.2477726,144.779567 50.599067,144.536423 C50.0501695,144.076855 49.2092586,143.748209 48.1509843,143.515753 C48.8250304,142.711508 46.9543878,142.524474 46.1134769,142.130367 C46.2232564,141.593313 47.8304282,141.737596 48.1465931,141.294059 C47.8984914,140.851857 46.2605814,141.041563 45.7029015,140.738301 C45.823659,140.050284 47.5493926,140.093034 47.9467944,139.529261 C46.1156724,139.505214 47.0773408,139.69492 45.1540041,139.626786 C44.8268612,139.231343 44.8773597,139.026942 44.7456244,138.698297 C43.9266693,138.453817 43.2877527,138.126508 41.6871676,138.237392 C41.3731983,137.978216 41.4939557,137.522656 41.2787879,137.216722 C41.085576,136.779864 39.1754128,137.125877 39.0370906,136.6623 C38.7099477,136.142613 39.9065442,136.317623 40.0536487,136.014362 C39.5684234,135.740491 38.21594,135.859391 37.8097559,135.550785 C37.6253263,135.09656 40.791367,135.113927 40.523505,134.622296 C40.4883755,134.01978 38.9778097,134.090585 39.3005614,133.325083 C39.0261127,133.172784 38.1456811,133.294356 37.8712324,133.142057 C37.7482794,132.641073 37.0676465,132.392585 36.6460932,132.02787 C36.8041757,130.733328 37.7285191,129.592422 37.3179437,128.411437 C37.1818172,128.028018 37.4584615,127.675326 37.3179437,127.299922 C36.9556714,126.358073 38.0578575,125.515085 37.5770233,124.611979 C37.0961892,123.691506 37.1949907,122.726945 36.5582696,121.925372 C35.7173587,120.864623 35.9237442,120.120496 35.394607,118.866033 C35.2516256,118.526733 35.131096,118.170334 35.0621702,117.813821 C24.3523416,117.5719 14.9739654,117.103417 7.26144039,115.380339 C5.84585273,114.288863 7.14609621,113.246818 5.80915231,112.22882 C5.92973941,111.873455 7.61009439,112.111255 7.51047896,111.673062 C4.96242118,111.220173 6.11324151,110.222214 5.32680392,109.353843 C5.57846395,109.017182 6.89443618,109.08398 7.03599495,108.705904 C5.6387575,108.273055 4.6059028,108.009871 4.59803843,107.222993 C4.48531571,106.776784 6.17615652,107.018592 6.06081234,106.572383 C5.49982019,106.231714 4.21268401,106.166252 4.1183115,105.64523 C4.30967798,105.410101 5.6073,105.597135 5.57584249,105.276506 C4.1183115,104.735444 5.94546816,104.302594 5.57846395,103.51438 C5.25340308,102.806324 3.05924221,102.592571 3.14575035,101.937952 C3.2060439,101.489071 4.32278527,100.968048 6.06867671,100.827773 C5.54962791,100.467065 4.3778359,100.358853 3.87713731,99.9928007 C4.55085217,99.0803429 2.56640799,98.3682785 4.13141879,97.5800646 C2.09454544,97.0296508 4.40667195,96.4284707 2.18367503,95.9127918 C2.95176241,95.6482725 2.87836157,95.0631239 3.64644895,94.7986047 L3.42422577,94.6684209 C2.22720576,93.9628927 0.903015394,93.0834732 2.4327136,92.2963595 C0.91488906,91.8514863 1.60171122,91.0873196 0,90.6277508 C0.72352258,90.5155305 2.28853338,90.7787138 2.67650926,90.3472001 C1.89007167,89.4307344 0.526913183,88.1121461 2.44057798,87.4748952 C3.47343268,87.1315545 4.51677321,87.3412996 5.84323127,87.1075073 C5.95595399,86.5985082 4.40142903,86.7294318 4.62949593,86.1776821 C6.8079503,86.0146033 9.82748249,86.5165594 12.6104539,86.6018138 C12.7388498,86.5406003 12.9092686,86.4799659 13.1314188,86.4199354 C11.566408,85.6317215 13.5508522,84.9196571 12.8771373,84.0071993 C13.3778359,83.6411474 14.5496279,83.532935 15.0686767,83.172227 C13.3227853,83.0319516 12.2060439,82.5109289 12.1457503,82.0620477 C12.0592422,81.4074294 14.2534031,81.1936765 14.578464,80.4856199 C14.9454682,79.697406 13.1183115,79.2645564 14.5758425,78.7234943 C14.6073,78.4028649 13.309678,78.5898987 13.1183115,78.3547705 C13.212684,77.8337477 14.4998202,77.7682859 15.0608123,77.4276172 C15.1761565,76.9814079 13.4853157,77.2232159 13.5980384,76.7770067 C13.6059028,75.9901288 14.6387575,75.7269455 16.0359949,75.2940958 C15.8944362,74.9160203 14.578464,74.9828181 14.3268039,74.6461573 C15.1132415,73.777786 13.9624212,72.7798271 16.510479,72.3269381 C16.6100944,71.8887446 14.9297394,72.1265447 14.8091523,71.7711805 C16.1460962,70.7531822 14.8458527,69.7111367 16.2614404,68.6196608 C19.5375493,67.8877356 23.114238,67.3821848 26.9659162,67.0242364 C27.1558417,65.7315512 28.2573759,64.5915024 27.7675449,63.4114373 C27.6050145,63.028018 27.9353182,62.6753256 27.7675449,62.2999221 C27.3350042,61.3580733 28.6509765,60.5150852 28.076877,59.6119791 C27.5027776,58.6915055 27.6207432,57.7269455 26.8605202,56.925372 C25.8565016,55.8646231 26.1029187,55.1204958 25.4711471,53.8660333 C24.9557735,52.8417127 24.6847104,51.6615683 25.6156312,50.7928595 C24.2244349,50.6778548 22.5096354,50.5081675 19.9090899,50.2399896 C19.3166403,50.3241548 18.8526421,50.4550785 17.9639676,50.4270234 C12.6030847,49.7991242 9.23713185,49.7256466 3.92343522,48.9347608 C1.53528641,48.1158199 1.7895679,46.4886258 2.47114714,45.1339667 C3.10291867,43.8795042 2.85650156,43.1353769 3.86052021,42.074628 C4.62074321,41.2730545 4.50277758,40.3084945 5.07687701,39.3880209 C5.65097645,38.4849148 4.33500422,37.6419267 4.7675449,36.7000779 C4.93531825,36.3246744 4.60501446,35.971982 4.7675449,35.5885627 C5.25775766,34.4075778 4.15412358,33.2666716 3.96537856,31.9721305 C4.46869861,31.6074146 5.28135079,31.3589268 5.42815247,30.8579434 C5.7558348,30.7056444 6.80703971,30.8272164 7.13472203,30.6749174 C6.74936762,29.9094148 8.55293115,29.9802204 8.59487449,29.3777044 C8.91469244,28.8860727 5.1345491,28.9034401 5.35475163,28.4492151 C5.83972147,28.1406093 7.45453999,28.2595094 8.03388234,27.9856385 C7.85824461,27.6823765 6.42954966,27.8573867 6.820147,27.3376999 C6.98529889,26.8741233 9.2659679,27.2201358 9.49665625,26.7832783 C9.7535592,26.4773444 9.60937898,26.0217835 9.98424756,25.7626081 C11.8952909,25.8734924 12.6581354,25.5461832 13.6359394,25.3017033 C13.7932269,24.9730582 13.7329334,24.768657 14.1235307,24.3732141 C16.4199285,24.3050803 15.2717296,24.4947861 17.4580261,24.4707389 C16.9835421,23.9069655 14.9230756,23.9497161 14.7788954,23.2616989 C15.4447459,22.9584369 17.400354,23.1481427 17.6965788,22.7059413 C17.3190888,22.262404 15.4001811,22.4066872 15.2691081,21.869633 C16.2731268,21.475526 18.5066095,21.2884922 17.7018217,20.4842469 C18.9653648,20.2517906 19.9693835,19.9231454 20.6247481,19.4635767 C20.2053147,19.2204327 18.6167108,19.423498 18.6770044,19 C28.3197461,19.2439339 37.9798538,19.5260337 47.6571425,19.8204081 C47.9117496,18.6268969 48.7367857,17.5677463 48.3632698,16.4523462 C48.2312155,16.0665635 48.5193382,15.7188466 48.3826684,15.3410003 C48.029863,14.3928498 49.1679688,13.569599 48.6936441,12.658076 C48.2196225,11.7291881 48.337159,10.7665328 47.702176,9.95375353 C46.8635975,8.87820563 47.0869408,8.13786339 46.5695158,6.87417815 C46.0113205,5.50956931 45.8226489,3.87883405 47.8756099,3.09560298 C52.4255061,2.38401543 55.3001697,2.36070411 59.8875024,1.81278145 C60.6466184,1.79797252 61.0404304,1.93579014 61.5447125,2.02877045 C69.1693956,1.24258221 67.8919168,1.45812009 77.0954611,1.2727033 C78.2979483,1.24959954 79.45167,1.07065009 80.6338769,1.05520929 C82.6536173,1.02098371 84.6992548,1.29853527 86.6521399,1.24710882 C88.3272302,1.2082035 90.477908,0.982520348 92.6851137,0.980962487 C101.466988,0.971239249 110.550597,1.24470392 119.492151,1.0640672 C130.62823,0.838894168 142.126768,0.752327652 153.371545,0.712105765 C155.764654,0.704439749 158.111819,0.379302024 160.438468,0.459998626 Z"/>
</svg>
