<svg xmlns="http://www.w3.org/2000/svg" preserveAspectRatio="none" viewBox="0 0 280 560">
  <path fill="#F4F4F4" fill-rule="evenodd" d="M924.544945,877.250722 L925.159176,877.275021 C928.454532,877.510306 933.482069,877.731024 937.821663,877.888593 C943.672013,878.099207 950.244983,878.119431 955.509726,877.950746 C956.696499,877.914429 957.904801,878.39098 959.119034,878.433613 C975.155113,878.999266 991.557022,878.823893 1007.75717,879.19514 C1012.22935,879.292376 1016.74733,879.851341 1021.21679,880.01347 C1029.37442,880.302497 1037.41448,880.667982 1045.32757,881.192782 C1061.9608,882.304511 1077.87455,881.498503 1094.75186,883.424664 C1099.04532,883.159486 1105.1699,883.455116 1110.43036,883.780195 C1122.62624,884.522958 1135.52449,883.915219 1147.8092,884.151589 C1155.97664,884.308383 1164.02472,883.998266 1171.92936,884.249816 C1184.2538,884.648752 1195.70699,884.900119 1207.49618,885.103493 C1223.81614,885.390562 1241.30683,886.740362 1257.74092,886.100799 C1258.77467,886.233279 1258.94115,887.008592 1259.94144,887.254278 C1262.64632,887.921152 1266.09389,886.334296 1268.38897,886.82041 C1268.56796,887.90031 1267.28667,887.600566 1267.37115,888.593962 C1268.4624,889.087199 1269.32737,888.70944 1270.17435,889.407264 C1271.74361,890.70235 1270.59586,893.22781 1269.93107,894.987762 C1270.24412,895.838409 1271.54072,895.371823 1272.1362,895.611093 C1270.80599,896.458634 1271.36016,897.965036 1270.09946,898.786422 C1271.42728,900.460364 1270.09328,902.243611 1269.0551,903.618716 C1269.68481,904.155538 1269.61433,905.291668 1270.24404,905.828489 C1268.39991,906.767167 1270.29877,908.003638 1268.60774,909.015279 C1269.88658,910.593917 1268.23611,911.921528 1268.77696,913.716013 C1268.35738,914.413559 1267.38806,914.590088 1266.95342,915.276707 C1268.39255,915.60019 1269.30579,916.646081 1269.34799,917.521013 C1269.40837,918.796914 1267.59315,919.149107 1267.31281,920.517027 C1267.26787,920.733374 1267.25962,920.937048 1267.27506,921.130182 C1279.13159,921.562677 1289.4343,922.255871 1297.7376,925.937683 C1299.10464,928.029679 1297.84899,930.026932 1299.14008,931.978096 C1299.02363,932.659211 1297.4009,932.203427 1297.4971,933.043298 C1299.95777,933.911335 1298.84642,935.82409 1299.60588,937.488468 C1299.36286,938.133735 1298.09202,938.005706 1297.95531,938.73035 C1299.30463,939.559979 1300.30206,940.064413 1300.30966,941.572596 C1300.41851,942.427831 1298.78566,941.964365 1298.89705,942.8196 C1299.4388,943.472548 1300.68179,943.598016 1300.77293,944.596643 C1300.58813,945.047306 1299.33501,944.688824 1299.36539,945.303364 C1300.77293,946.3404 1299.00844,947.170028 1299.36286,948.680772 C1299.67677,950.03788 1301.79568,950.447573 1301.71214,951.702258 C1301.65391,952.562614 1300.57547,953.561241 1298.88945,953.830102 C1299.3907,954.521459 1300.52231,954.728866 1301.00583,955.430465 C1300.35522,957.179343 1302.27161,958.544133 1300.76027,960.054876 C1301.14907,960.2634 1301.37379,960.475725 1301.50067,960.689834 C1304.63147,960.584743 1307.74262,960.442072 1310.82151,960.25 C1312.03159,960.344742 1312.23411,961.102674 1313.40622,961.310081 C1316.57573,961.873409 1320.59077,960.191107 1323.27928,960.590557 C1323.49952,961.648078 1321.99831,961.397141 1322.10717,962.372722 C1323.38813,962.820824 1324.39569,962.418813 1325.39312,963.076882 C1327.24116,964.29828 1325.92475,966.825574 1325.16528,968.582133 C1325.53995,969.409201 1327.05129,968.904767 1327.75,969.119856 C1326.20322,970.000696 1326.86649,971.465349 1325.40072,972.318022 C1326.97028,973.920947 1325.42857,975.723596 1324.22861,977.113992 C1324.97035,977.620987 1324.89947,978.742522 1325.64122,979.249518 C1323.49446,980.237902 1325.72729,981.390164 1323.76027,982.445124 C1325.27161,983.955867 1323.35522,985.320657 1324.00583,987.069535 C1323.52231,987.771134 1322.3907,987.978541 1321.88945,988.669898 C1323.57547,988.938759 1324.65391,989.937386 1324.71214,990.797742 C1324.79568,992.052427 1322.67677,992.46212 1322.36286,993.819228 C1322.00844,995.329972 1323.77293,996.1596 1322.36539,997.196636 C1322.33501,997.811176 1323.58813,997.452694 1323.77293,997.903357 C1323.68179,998.901984 1322.4388,999.027452 1321.89705,999.6804 C1321.78566,1000.53563 1323.41851,1000.07217 1323.30966,1000.9274 C1323.30206,1002.43559 1322.30463,1002.94002 1320.95531,1003.76965 C1321.09202,1004.49429 1322.36286,1004.36627 1322.60588,1005.01153 C1321.84642,1006.67591 1322.95777,1008.58866 1320.4971,1009.4567 C1320.4009,1010.29657 1322.02363,1009.84079 1322.14008,1010.5219 C1320.84899,1012.47307 1322.10464,1014.47032 1320.7376,1016.56232 C1317.01607,1018.2125 1312.89291,1019.26232 1308.40832,1019.95752 L1308.43942,1019.97772 C1308.58119,1020.93794 1309.36597,1021.41421 1309.85203,1022.11325 C1309.66975,1024.59445 1308.60397,1026.78119 1309.07737,1029.04475 C1309.23433,1029.77963 1308.91535,1030.45563 1309.07737,1031.17515 C1309.49508,1032.98036 1308.22424,1034.59609 1308.77865,1036.32704 C1309.33306,1038.09128 1309.21914,1039.94002 1309.95329,1041.47637 C1310.92287,1043.50947 1310.68491,1044.93572 1311.29501,1047.3401 C1311.69835,1048.93117 1311.94674,1050.71839 1311.54793,1052.22508 C1313.02648,1052.51452 1314.57521,1052.8678 1316.34045,1053.37504 C1318.71136,1054.94468 1318.45891,1058.06347 1317.78225,1060.6599 C1317.15504,1063.06428 1317.39968,1064.49053 1316.40291,1066.52363 C1315.64818,1068.05998 1315.76529,1069.90872 1315.19534,1071.67296 C1314.62538,1073.40391 1315.93186,1075.01964 1315.50244,1076.82485 C1315.33588,1077.54437 1315.66379,1078.22037 1315.50244,1078.95525 C1315.01576,1081.21881 1316.11143,1083.40555 1316.29881,1085.88675 C1315.79913,1086.58579 1314.99234,1087.06206 1314.8466,1088.02228 C1314.52128,1088.31418 1313.47767,1088.08117 1313.15235,1088.37307 C1313.53492,1089.84029 1311.74438,1089.70458 1311.70274,1090.8594 C1311.38523,1091.80169 1315.13808,1091.76841 1314.91947,1092.639 C1314.438,1093.2305 1312.83484,1093.00261 1312.25968,1093.52753 C1312.43405,1094.10878 1313.85243,1093.77334 1313.46466,1094.76941 C1313.3007,1095.65793 1311.03649,1094.99474 1310.80747,1095.83205 C1310.55242,1096.41842 1310.69556,1097.29158 1310.3234,1097.78833 C1308.42616,1097.57581 1307.66882,1098.20315 1306.69807,1098.67174 C1306.54192,1099.30164 1306.60178,1099.69341 1306.214,1100.45134 C1303.93419,1100.58193 1305.0741,1100.21833 1302.90358,1100.26442 C1303.37464,1101.34498 1305.42023,1101.26304 1305.56337,1102.58174 C1304.90233,1103.163 1302.96084,1102.79939 1302.66675,1103.64695 C1303.04152,1104.49706 1304.94657,1104.22052 1305.0767,1105.24987 C1304.07993,1106.00524 1301.86257,1106.36372 1302.66155,1107.90519 C1301.40713,1108.35073 1300.41036,1108.98064 1299.75973,1109.86148 C1300.17613,1110.3275 1301.75327,1109.9383 1301.69341,1110.75 C1298.53268,1110.59563 1295.37007,1110.43329 1292.20558,1110.26476 L1292.10542,1110.33565 L1292.10542,1110.33565 L1291.92434,1110.44512 C1293.37352,1111.95587 1291.53594,1113.32066 1292.1598,1115.06953 C1291.69616,1115.77113 1290.61108,1115.97854 1290.13045,1116.6699 C1291.74713,1116.93876 1292.78123,1117.93739 1292.83706,1118.79774 C1292.91716,1120.05243 1290.88539,1120.46212 1290.58438,1121.81923 C1290.24454,1123.32997 1291.93647,1124.1596 1290.58681,1125.19664 C1290.55768,1125.81118 1291.75927,1125.45269 1291.93647,1125.90336 C1291.84909,1126.90198 1290.65721,1127.02745 1290.13773,1127.6804 C1290.03092,1128.53563 1291.59663,1128.07217 1291.49225,1128.9274 C1291.48497,1130.43559 1290.52855,1130.94002 1289.23472,1131.76965 C1289.3658,1132.49429 1290.58438,1132.36627 1290.81742,1133.01153 C1290.08918,1134.67591 1291.15483,1136.58866 1288.79535,1137.4567 C1288.70311,1138.29657 1290.2591,1137.84079 1290.37077,1138.5219 C1289.13277,1140.47307 1290.33678,1142.47032 1289.02596,1144.56232 C1279.8065,1148.82569 1268.01636,1149.08174 1254.32068,1149.56825 C1247.09658,1149.82687 1238.06646,1149.30707 1229.98305,1149.58874 C1223.11093,1149.83712 1215.91839,1149.03309 1209.69926,1149.78846 C1209.08997,1149.8576 1208.64818,1149.90881 1208.12142,1150.32363 C1205.69397,1149.82943 1203.05047,1150.50031 1200.46038,1150.32875 C1199.56222,1150.26729 1198.63008,1149.87808 1197.75377,1149.79871 C1193.3965,1149.3967 1188.34011,1149.82175 1183.32985,1149.81151 C1172.94036,1149.7731 1163.11646,1150.19304 1152.23177,1150.19048 C1139.63572,1150.18535 1130.13225,1151.01754 1118.20132,1151.11229 C1115.86854,1151.12765 1113.65956,1151.07132 1111.44087,1151.11741 C1103.49825,1151.25824 1095.25948,1150.71027 1087.55475,1151.13789 C1084.91125,1150.07013 1082.26776,1150.75636 1079.4422,1150.96377 C1069.47508,1151.70378 1058.44474,1149.75262 1048.33926,1150.4619 C1046.37788,1150.59761 1044.89228,1150.60785 1042.70757,1150.46702 C1035.95926,1150.01892 1028.55796,1150.28522 1021.75138,1150.30314 C1008.52177,1150.34667 995.314006,1150.66674 982.081966,1150.69747 C977.4868,1150.70771 972.821238,1150.33899 968.111981,1150.53103 C962.349211,1150.76405 956.049973,1150.85623 950.986309,1151.07388 C948.655955,1151.1763 946.107131,1151.13021 943.776777,1151.08156 C894.800511,1150.09573 846.263613,1154.73295 798.192786,1157.25 C798.136954,1156.4383 799.60799,1156.8275 799.996382,1156.36148 C799.389519,1155.48064 798.459805,1154.85073 797.289774,1154.40519 C798.035001,1152.86372 795.966812,1152.50524 795.037098,1151.74987 C795.158471,1150.72052 796.935366,1150.99706 797.284919,1150.14695 C797.010617,1149.29939 795.199738,1149.663 794.583165,1149.08174 C794.716675,1147.76304 796.624652,1147.84498 797.064021,1146.76442 C795.039526,1146.71833 796.10275,1147.08193 793.976302,1146.95134 C793.614612,1146.19341 793.670443,1145.80164 793.524796,1145.17174 C792.619356,1144.70315 791.912968,1144.07581 790.143356,1144.28833 C789.79623,1143.79158 789.92974,1142.91842 789.69185,1142.33205 C789.478234,1141.49474 787.366351,1142.15793 787.213421,1141.26941 C786.851731,1140.27334 788.174692,1140.60878 788.337331,1140.02753 C787.800865,1139.50261 786.305554,1139.7305 785.856476,1139.139 C785.65257,1138.26841 789.152955,1138.30169 788.856806,1137.3594 C788.817967,1136.20458 787.14788,1136.34029 787.504716,1134.87307 C787.201284,1134.58117 786.227876,1134.81418 785.924444,1134.52228 C785.788507,1133.56206 785.035997,1133.08579 784.569926,1132.38675 C784.744703,1129.90555 785.76666,1127.71881 785.312727,1125.45525 C785.162225,1124.72037 785.468084,1124.04437 785.312727,1123.32485 C784.912197,1121.51964 786.130778,1119.90391 785.599166,1118.17296 C785.067554,1116.40872 785.176789,1114.55998 784.472828,1113.02363 C783.543114,1110.99053 783.771295,1109.56428 783.186279,1107.1599 C782.646662,1104.93997 782.396287,1102.3382 783.717164,1100.64929 C780.787099,1100.00895 778.029836,1099.17117 775.459011,1098.06232 C774.053644,1095.97032 775.3445,1093.97307 774.017209,1092.0219 C774.136925,1091.34079 775.805148,1091.79657 775.706252,1090.9567 C773.176591,1090.08866 774.319103,1088.17591 773.538343,1086.51153 C773.788186,1085.86627 775.094657,1085.99429 775.235194,1085.26965 C773.848044,1084.44002 772.822647,1083.93559 772.81484,1082.4274 C772.702931,1081.57217 774.381563,1082.03563 774.267052,1081.1804 C773.71011,1080.52745 772.432268,1080.40198 772.338576,1079.40336 C772.528561,1078.95269 773.816814,1079.31118 773.785584,1078.69664 C772.338576,1077.6596 774.152541,1076.82997 773.788186,1075.31923 C773.465472,1073.96212 771.287154,1073.55243 771.373037,1072.29774 C771.432896,1071.43739 772.541574,1070.43876 774.27486,1070.1699 C773.759558,1069.47854 772.596227,1069.27113 772.099144,1068.56953 C772.767994,1066.82066 770.797878,1065.45587 772.351589,1063.94512 C770.329422,1062.89016 772.624855,1061.7379 770.417908,1060.74952 C771.18045,1060.24252 771.107579,1059.12099 771.870121,1058.61399 C770.636521,1057.2236 769.05158,1055.42095 770.665149,1053.81802 C769.158283,1052.96535 769.840147,1051.5007 768.25,1050.61986 C768.968299,1050.40477 770.52201,1050.9092 770.907184,1050.08213 C770.126425,1048.32557 768.773109,1045.79828 770.672956,1044.57688 C771.698354,1043.91881 772.734161,1044.32082 774.051042,1043.87272 C774.162951,1042.89714 772.61965,1043.14808 772.84607,1042.09056 C774.847684,1041.80127 777.56453,1042.60381 780.148477,1042.85452 C780.075593,1041.77976 780.969248,1040.70751 780.494167,1039.43047 C780.977694,1038.72887 782.109298,1038.52146 782.610545,1037.8301 C780.924531,1037.56124 779.846089,1036.56261 779.787864,1035.70226 C779.704322,1034.44757 781.823232,1034.03788 782.137145,1032.68077 C782.491562,1031.17003 780.72707,1030.3404 782.134613,1029.30336 C782.164992,1028.68882 780.911873,1029.04731 780.72707,1028.59664 C780.818206,1027.59802 782.061198,1027.47255 782.602951,1026.8196 C782.714339,1025.96437 781.081487,1026.42783 781.190344,1025.5726 C781.197939,1024.06441 782.195371,1023.55998 783.544688,1022.73035 C783.407984,1022.00571 782.137145,1022.13373 781.894116,1021.48847 C782.653582,1019.82409 781.54223,1017.91134 784.002899,1017.0433 C784.099098,1016.20343 782.476373,1016.65921 782.359921,1015.9781 C783.651013,1014.02693 782.395363,1012.02968 783.762402,1009.93768 C787.483926,1008.2875 791.607095,1007.23768 796.091683,1006.54248 L796.06058,1006.52228 C795.918813,1005.56206 795.134032,1005.08579 794.647974,1004.38675 C794.830246,1001.90555 795.89603,999.718809 795.422629,997.455255 C795.265673,996.720368 795.584648,996.044374 795.422629,995.324851 C795.004923,993.51964 796.275762,991.903913 795.721352,990.17296 C795.166942,988.408719 795.280862,986.559979 794.546712,985.02363 C793.577127,982.990528 793.815093,981.564284 793.204989,979.159897 C792.799339,977.559723 792.550421,975.761145 792.958978,974.24907 C791.541728,974.030385 789.812859,973.693178 787.044879,973.126647 C786.472748,973.287963 786.024663,973.5389 785.166467,973.485128 C779.989441,972.281655 776.738927,972.140823 771.607469,970.624958 C769.301224,969.055322 769.546785,965.936533 770.204989,963.340103 C770.815093,960.935716 770.577127,959.509472 771.546712,957.47637 C772.280862,955.940021 772.166942,954.091281 772.721352,952.32704 C773.275762,950.596087 772.004923,948.98036 772.422629,947.175149 C772.584648,946.455626 772.265673,945.779632 772.422629,945.044745 C772.89603,942.781191 771.830246,940.594454 771.647974,938.11325 C772.134032,937.414211 772.918813,936.937943 773.06058,935.977725 C773.377025,935.685818 774.392177,935.918831 774.708621,935.626925 C774.336483,934.159712 776.078192,934.295422 776.118696,933.1406 C776.427546,932.198306 772.777047,932.231593 772.989697,931.360996 C773.458034,930.769501 775.017471,930.997393 775.576944,930.472474 C775.40733,929.891222 774.027634,930.226658 774.404835,929.230592 C774.564323,928.34207 776.766774,929.00526 776.989551,928.16795 C777.237643,927.581577 777.098407,926.708418 777.46042,926.211665 C779.305922,926.424194 780.042604,925.796851 780.986873,925.328265 C781.138766,924.698362 781.08054,924.306593 781.457742,923.54866 C783.675382,923.418071 782.566562,923.781673 784.677877,923.735583 C784.219666,922.655017 782.229865,922.736956 782.09063,921.418256 C782.733644,920.837004 784.622183,921.200607 784.908249,920.353054 C784.543705,919.502941 782.690608,919.779484 782.56403,918.75013 C783.533615,917.994758 785.690498,917.636277 784.913312,916.094806 C786.13352,915.649265 787.103105,915.019362 787.735993,914.138522 C787.330945,913.672496 785.796824,914.061704 785.855049,913.25 C795.909279,913.754804 805.983058,914.344885 816.076163,914.957781 C816.321321,912.628112 817.123393,910.563402 816.761376,908.388797 C816.633654,907.638241 816.912323,906.961743 816.780138,906.226627 C816.438908,904.381961 817.539671,902.780293 817.08091,901.006887 C816.622442,899.199697 816.736122,897.326811 816.121973,895.745515 C815.31091,893.652992 815.526925,892.212626 815.026478,889.754074 C814.486598,887.099171 814.304117,883.926507 816.289717,882.402699 C820.690322,881.018276 823.470663,880.972923 827.907476,879.906916 C828.641684,879.878105 829.022575,880.146235 829.51031,880.327132 C836.884813,878.79757 835.649251,879.216908 844.550809,878.856172 C845.713841,878.811223 846.829707,878.463069 847.973123,878.433028 C849.926592,878.366441 851.905108,878.906429 853.793916,878.806377 C855.414043,878.730685 857.494153,878.291609 859.628936,878.288578 C868.122661,878.269661 876.908219,878.801698 885.556384,878.450262 C896.327067,878.012178 907.448317,877.84376 918.324131,877.765506 C920.638718,877.750592 922.908867,877.118023 925.159176,877.275021 Z" transform="rotate(90 962.5 194.75)"/>
</svg>
