<svg xmlns="http://www.w3.org/2000/svg" xmlns:xlink="http://www.w3.org/1999/xlink" width="24" height="20" viewBox="0 0 24 20">
  <defs>
    <polygon id="icon-quote-a" points=".01 .142 10.858 .142 10.858 19.85 .01 19.85"/>
    <polygon id="icon-quote-c" points="0 .145 10.853 .145 10.853 19.841 0 19.841"/>
  </defs>
  <g fill="none" fill-rule="evenodd">
    <g transform="translate(13.127 .009)">
      <mask id="icon-quote-b" fill="#fff">
        <use xlink:href="#icon-quote-a"/>
      </mask>
      <path fill="#1D3C34" d="M5.4857768,19.8397895 C5.12524641,19.8397895 4.76471602,19.8479098 4.40445083,19.8351278 C4.29001989,19.8309173 4.17718011,19.7715188 4.06354475,19.7373835 C4.02787624,19.7265564 3.99220773,19.7146767 3.95614144,19.7055038 C3.72834033,19.6482105 3.49603094,19.6071579 3.27406409,19.5285113 C3.14451713,19.4823459 3.03287072,19.3731729 2.91048398,19.2981353 C2.80679337,19.2346767 2.70403094,19.1582857 2.59211934,19.1249023 C2.38407514,19.062797 2.27508066,18.8682105 2.13055028,18.7221955 C1.96520221,18.5552782 1.80104751,18.3847519 1.65253923,18.1990376 C1.52630718,18.0412932 1.42341215,17.8594887 1.3095116,17.6889624 C1.27013039,17.630015 1.21934586,17.5784361 1.18924641,17.5142256 C1.09258343,17.3082105 1.0216442,17.0836992 0.90681547,16.8925714 C0.718130387,16.5785865 0.589511602,16.2432481 0.50358895,15.8770827 C0.454528177,15.6682105 0.352959116,15.4755789 0.28281547,15.2719699 C0.262262983,15.2127218 0.269158011,15.1417444 0.261865193,15.0763308 C0.246881768,14.9449023 0.283080663,14.7996391 0.162550276,14.6975338 C0.135633149,14.6746767 0.141069613,14.5960301 0.139876243,14.5426466 C0.134307182,14.3083609 0.134439779,14.0734737 0.126881768,13.8393383 C0.122771271,13.7122707 0.153401105,13.5728722 0.0341966851,13.4781353 C0.0124508287,13.4609925 0.0116552486,13.4000902 0.0115226519,13.359188 C0.00993149171,12.9262556 0.00794254144,12.4933233 0.0132464088,12.0605414 C0.0139093923,12.0029474 0.0562077348,11.9468571 0.0751690608,11.8885113 C0.0943955801,11.8291128 0.12038453,11.7683609 0.122771271,11.7073083 C0.131920442,11.4670075 0.130594475,11.2262556 0.13801989,10.9858045 C0.141865193,10.8587368 0.140671823,10.7429474 0.223146961,10.6200902 C0.284937017,10.5277594 0.244495028,10.3528722 0.266373481,10.2182857 C0.283345856,10.1143759 0.326307182,10.0160301 0.358130387,9.9152782 C0.363301657,9.89858647 0.373246409,9.88369925 0.377224309,9.86670677 C0.43318011,9.62806015 0.477732597,9.38535338 0.546682873,9.1515188 C0.607809945,8.94415038 0.697312707,8.7477594 0.770903867,8.54490226 C0.828583425,8.38610526 0.870351381,8.21873684 0.938373481,8.06610526 C1.0215116,7.87918797 1.12294807,7.70264662 1.21961105,7.52384962 C1.28657238,7.39993985 1.35684862,7.27843609 1.42937901,7.15873684 C1.51556685,7.01678195 1.6094453,6.88069173 1.69284862,6.73678195 C1.75039558,6.63753383 1.79282652,6.52700752 1.84811934,6.42550376 C1.89041768,6.34806015 1.93709171,6.27227068 1.99013039,6.204 C2.28078232,5.82971429 2.59172155,5.47332331 2.85810829,5.07813534 C2.96604199,4.91783459 3.0534232,4.73798496 3.19013039,4.60324812 C3.2817547,4.51287218 3.38385414,4.43618045 3.4776,4.34806015 C3.59481547,4.23783459 3.70619669,4.11948872 3.82380994,4.00971429 C4.03026298,3.81693233 4.18102541,3.55377444 4.44237348,3.42700752 C4.55866077,3.37061654 4.64524641,3.23843609 4.75013039,3.1477594 C4.86297017,3.05031579 4.97832928,2.95557895 5.09793149,2.86941353 C5.32666077,2.70520301 5.5616221,2.55242105 5.78902541,2.38610526 C5.95291492,2.26610526 6.10632928,2.12730827 6.26915801,2.00535338 C6.35680442,1.93978947 6.45293702,1.88715789 6.54853923,1.83678195 C6.77063867,1.71978947 6.99737901,1.61377444 7.21722431,1.49121805 C7.34106961,1.42204511 7.45205304,1.32324812 7.57390939,1.24851128 C7.67667182,1.18535338 7.78500331,1.13166917 7.89439558,1.0846015 C8.0535116,1.0158797 8.21885967,0.964902256 8.37598674,0.891067669 C8.51627403,0.825203008 8.64873812,0.737984962 8.78531271,0.661443609 C8.8134232,0.645503759 8.84299227,0.630015038 8.8736221,0.622796992 C9.08895912,0.571368421 9.27127956,0.422646617 9.47136796,0.345804511 C9.75194254,0.237984962 10.0399425,0.0811428571 10.3557878,0.165654135 C10.4885171,0.201293233 10.5869039,0.305954887 10.5896884,0.453323308 C10.6002961,1.00625564 10.6079867,1.56039098 10.5854453,2.11242105 C10.5772243,2.3127218 10.4061746,2.43888722 10.260716,2.54249624 C10.1057105,2.6527218 9.93916906,2.74249624 9.77594254,2.83783459 C9.69505856,2.88505263 9.61099227,2.92565414 9.52758895,2.96715789 C9.39326851,3.03422556 9.25629613,3.0952782 9.12383204,3.16700752 C9.00529061,3.23121805 8.88754475,3.29933835 8.77616354,3.37813534 C8.51998674,3.55933835 8.26115801,3.73723308 8.01598674,3.93678195 C7.76126851,4.144 7.52312486,4.37708271 7.27463867,4.59437594 C7.18182099,4.67542857 7.0696442,4.73091729 6.98478232,4.82054135 C6.77143425,5.04550376 6.56776575,5.28189474 6.36237348,5.51633083 C6.26491492,5.62760902 6.16705856,5.73948872 6.07901436,5.8602406 C5.9895116,5.98294737 5.91127956,6.11633083 5.82920221,6.24580451 C5.71238453,6.42971429 5.58853923,6.60881203 5.48325746,6.80099248 C5.41536796,6.92490226 5.37001989,7.06610526 5.32347845,7.20324812 C5.26102541,7.38745865 5.24418564,7.60956391 5.14062762,7.75317293 C4.99795359,7.95091729 5.04184309,8.15618045 5.03335691,8.36174436 C5.02619669,8.53783459 5.1735116,8.70219549 5.33382099,8.71437594 C5.46071602,8.724 5.5897326,8.71001504 5.71503646,8.73001504 C5.86261657,8.75362406 6.00701436,8.80264662 6.15273812,8.84069173 C6.16811934,8.8446015 6.18336796,8.85016541 6.19888177,8.85332331 C6.52228508,8.91768421 6.84860552,8.96760902 7.16803094,9.05136842 C7.36626298,9.10354887 7.55388729,9.20700752 7.74628508,9.28730827 C7.77094807,9.29768421 7.79521326,9.31407519 7.82080442,9.31738346 C8.03388729,9.34490226 8.20626298,9.46520301 8.38036243,9.59873684 C8.5576442,9.73467669 8.76794254,9.81633083 8.9415116,9.95678195 C9.2295116,10.1898647 9.51088177,10.4370827 9.77276022,10.7062556 C9.8976663,10.8349774 9.97642873,11.0244511 10.0668597,11.1928722 C10.1986608,11.4387368 10.3230365,11.6898647 10.4476773,11.9406917 C10.4649149,11.9754286 10.4674343,12.0211429 10.4712796,12.0623459 C10.4813569,12.1731729 10.4631912,12.2949774 10.5725834,12.3629474 C10.5801414,12.367609 10.5843845,12.3830977 10.5863735,12.3943759 C10.6350365,12.6790376 10.6895337,12.962797 10.7286497,13.2491128 C10.7472133,13.3844511 10.7248044,13.5270075 10.7412464,13.6630977 C10.7556994,13.782797 10.7997215,13.8975338 10.8282298,14.0154286 C10.8405613,14.0668571 10.8555448,14.1206917 10.853821,14.1727218 C10.8450696,14.4485113 10.9003624,14.725203 10.7682961,14.9961805 C10.7080972,15.1196391 10.7465503,15.3026466 10.7316994,15.4575338 C10.7144619,15.6399398 10.7779757,15.842797 10.6217768,15.9940752 C10.5952575,16.0197895 10.615147,16.1000902 10.6009591,16.1506165 C10.574042,16.2465564 10.5381083,16.3394887 10.5058873,16.4337744 C10.4984619,16.4557293 10.4859978,16.477985 10.4852022,16.500391 C10.4735337,16.8382857 10.2515669,17.0570827 10.1314343,17.3333233 C9.98584309,17.667609 9.74637348,17.9021955 9.52838453,18.1477594 C9.30933481,18.3948271 9.10261657,18.6670075 8.81262762,18.8424962 C8.58350055,18.9809925 8.36657238,19.1477594 8.13386519,19.2868571 C8.02288177,19.3531729 7.91667182,19.3706165 7.80913591,19.4145263 C7.66831823,19.4721203 7.5374453,19.5609925 7.40246188,19.636782 C7.38389834,19.6473083 7.36825193,19.6685113 7.3494232,19.6725714 C7.07295912,19.7301654 6.79795359,19.8121203 6.51910276,19.8351278 C6.17634033,19.8632481 5.83039558,19.8418947 5.4857768,19.8418947 L5.4857768,19.8397895 Z" mask="url(#icon-quote-b)"/>
    </g>
    <g transform="translate(0 .009)">
      <mask id="icon-quote-d" fill="#fff">
        <use xlink:href="#icon-quote-c"/>
      </mask>
      <path fill="#1D3C34" d="M5.50623646,19.8372932 C5.1246232,19.8372932 4.74261215,19.8476692 4.36139669,19.8315789 C4.23131934,19.826015 4.1046895,19.7478195 3.97421436,19.7129323 C3.7368663,19.6491729 3.49355138,19.6087218 3.26110939,19.5273684 C3.13222541,19.482406 3.02150718,19.3718797 2.90044641,19.295188 C2.80617017,19.235188 2.71348508,19.1639098 2.61165083,19.1288722 C2.33319779,19.0329323 2.18402652,18.7634586 1.98698785,18.5584962 C1.87865635,18.4457143 1.76647956,18.3359398 1.66941878,18.2112782 C1.53735249,18.0416541 1.35118674,17.9190977 1.30809282,17.667218 C1.29721989,17.603609 1.2249547,17.5557895 1.19047956,17.493985 C1.06212597,17.2637594 0.928866298,17.0359398 0.815230939,16.7965414 C0.744026519,16.6464662 0.708623204,16.4753383 0.64961768,16.3171429 C0.577750276,16.1249624 0.497927072,15.9365414 0.421683978,15.7463158 C0.419562431,15.7409023 0.418103867,15.7350376 0.416777901,15.7293233 C0.366921547,15.5067669 0.308313812,15.2861654 0.269330387,15.0613534 C0.181153591,14.5529323 0.160866298,14.0321805 0.0921812155,13.5243609 C0.0469657459,13.1902256 -0.0113767956,12.8616541 0.00188287293,12.5240602 C0.00692154696,12.3995489 0.0607558011,12.2778947 0.0891314917,12.153985 C0.102125967,12.0965414 0.112998895,12.0371429 0.115650829,11.9781955 C0.125330387,11.7559398 0.151451934,11.5314286 0.133683978,11.3117293 C0.10199337,10.9193985 0.21841326,10.5536842 0.298236464,10.1908271 C0.343319337,9.98556391 0.369573481,9.77533835 0.419429834,9.57308271 C0.468490608,9.37383459 0.569794475,9.1918797 0.637551381,8.99774436 C0.696954696,8.82721805 0.736468508,8.64766917 0.794148066,8.47639098 C0.851297238,8.30676692 0.911761326,8.13729323 0.985882873,7.97669173 C1.09607072,7.73849624 1.21315359,7.50345865 1.33965083,7.27593985 C1.44108729,7.09368421 1.56148508,6.92511278 1.67207072,6.74947368 C1.77629171,6.58390977 1.88528619,6.42180451 1.98049061,6.24992481 C2.19423646,5.86406015 2.45704309,5.53157895 2.75724199,5.2275188 C2.99923094,4.98225564 3.20449061,4.69112782 3.43534144,4.43097744 C3.71604862,4.11473684 3.99251271,3.79052632 4.29708729,3.50586466 C4.55777238,3.26210526 4.85372818,3.06631579 5.13775028,2.85548872 C5.35441326,2.69443609 5.57531934,2.54 5.79728619,2.38842105 C6.01328619,2.24090226 6.23445746,2.10345865 6.45098785,1.95684211 C6.6569105,1.81729323 6.85461215,1.66120301 7.06544088,1.53278195 C7.19803757,1.45203008 7.35145193,1.41699248 7.48961768,1.34661654 C7.74009282,1.21879699 7.98274475,1.07082707 8.23481105,0.947969925 C8.49987182,0.818796992 8.77421436,0.714586466 9.0406011,0.588721805 C9.17306519,0.526015038 9.2967779,0.439548872 9.42420331,0.363157895 C9.43759558,0.354887218 9.44780552,0.333533835 9.4609326,0.331729323 C9.7488,0.290526316 10.0101481,0.0920300752 10.3177724,0.157744361 C10.4688,0.190075188 10.5720928,0.298195489 10.5759381,0.443007519 C10.5911867,1.00721805 10.6006011,1.57368421 10.5659934,2.13578947 C10.557242,2.27774436 10.3978608,2.44451128 10.2712309,2.53218045 C10.0584133,2.6793985 9.79971713,2.74285714 9.59127514,2.8956391 C9.34663425,3.07518797 9.05333039,3.15834586 8.84263425,3.40736842 C8.76639116,3.49744361 8.63803757,3.5281203 8.53991602,3.59759398 C8.34115359,3.73819549 8.14703204,3.88736842 7.95039116,4.03203008 C7.80148508,4.14150376 7.65032486,4.24721805 7.50287735,4.35894737 C7.44771713,4.4006015 7.40409282,4.46210526 7.34813702,4.50210526 C7.04555138,4.71879699 6.7928221,5.00210526 6.53783867,5.28135338 C6.35604862,5.48015038 6.1729326,5.68015038 6.01209282,5.9 C5.89527514,6.05984962 5.81624751,6.25488722 5.71534144,6.43037594 C5.64639116,6.55052632 5.56908729,6.6643609 5.49443536,6.78030075 C5.48568398,6.79413534 5.46380552,6.80015038 5.45929724,6.81428571 C5.40572818,6.98827068 5.35600442,7.16360902 5.30110939,7.33699248 C5.27949613,7.40541353 5.24807072,7.47007519 5.21942983,7.5356391 C5.2126674,7.55097744 5.19158453,7.56255639 5.19092155,7.57654135 C5.17978343,7.86090226 4.98247956,8.10180451 5.04440221,8.40541353 C5.06270055,8.49578947 5.10009282,8.5312782 5.16758453,8.58406015 C5.40400442,8.76902256 5.68563978,8.65578947 5.91794917,8.75082707 C6.16975028,8.85368421 6.42433591,8.83789474 6.6726895,8.90120301 C6.8446674,8.94496241 7.0167779,8.99112782 7.18411492,9.05278195 C7.37412597,9.12270677 7.55870055,9.21142857 7.74619227,9.29097744 C7.77576133,9.30360902 7.80678895,9.31443609 7.83781657,9.32030075 C8.04121989,9.35819549 8.21372818,9.4687218 8.38504309,9.59398496 C8.56152928,9.72315789 8.76015912,9.81383459 8.93518674,9.94511278 C9.14972818,10.1061654 9.39383867,10.2225564 9.55096575,10.4762406 C9.63238011,10.6078195 9.7566232,10.7055639 9.83710939,10.837594 C9.96811492,11.0526316 10.1379713,11.2335338 10.2187227,11.495188 C10.2936398,11.7380451 10.4253083,11.9583459 10.5320486,12.1884211 C10.5465017,12.2193985 10.5731536,12.2488722 10.5751425,12.2806015 C10.6000707,12.701203 10.7990983,13.0893233 10.7497724,13.5257143 C10.7358497,13.6493233 10.8146122,13.7806015 10.8273414,13.8846617 C10.8720265,14.2482707 10.8456398,14.6230075 10.8461702,14.9935338 C10.6851978,15.1335338 10.773242,15.3384962 10.740358,15.5118797 C10.6988552,15.7297744 10.6398497,15.9445113 10.6139934,16.1645113 C10.5830983,16.4285714 10.5027448,16.6613534 10.3767779,16.8845113 C10.2982807,17.0239098 10.2665901,17.1971429 10.1874298,17.3359398 C10.1032309,17.4834586 9.9929105,17.6133835 9.8849768,17.7413534 C9.68555138,17.9781955 9.48519779,18.2147368 9.27423646,18.4381955 C9.14521989,18.5747368 8.99618122,18.6873684 8.85562873,18.8094737 C8.77023646,18.883609 8.68630276,18.9607519 8.59640221,19.0269173 C8.51472265,19.0870677 8.4288,19.1419549 8.33929724,19.1849624 C8.17593812,19.2637594 8.00820331,19.3306767 7.84312044,19.4046617 C7.70230276,19.4678195 7.56241326,19.5336842 7.42199337,19.5984962 C7.3567558,19.6285714 7.2928442,19.6637594 7.22588287,19.6879699 C7.10336354,19.7323308 6.97978343,19.7732331 6.85540773,19.8096241 C6.79971713,19.8258647 6.7407116,19.8341353 6.68316464,19.8344361 C6.29081105,19.8366917 5.89859006,19.8356391 5.50623646,19.8356391 L5.50623646,19.8372932 Z" mask="url(#icon-quote-d)"/>
    </g>
  </g>
</svg>
