<svg xmlns="http://www.w3.org/2000/svg" width="12" height="8" viewBox="0 0 12 8">
  <g fill="#FFF" fill-rule="evenodd" transform="rotate(-135 5.086 2.793)">
    <path d="M8.85580363,0.885899873 C8.85241077,0.906094776 8.85580363,0.964349306 8.86089291,0.990758026 C8.88040183,1.093286 8.90669647,1.15620089 8.93723217,1.18882343 C8.9571652,1.21057179 8.97794644,1.22688305 9,1.24785468 C8.99787947,1.2828074 8.99787947,1.31853685 8.9940625,1.33407139 C8.97709822,1.39620955 8.9512277,1.41640446 8.94444199,1.52825316 C8.94274556,1.55233169 8.92917413,1.57330332 8.920692,1.57874041 C8.89312504,1.59582841 8.86470987,1.60437241 8.83671881,1.61835349 C8.82102686,1.62689749 8.80406258,1.60048877 8.78794651,1.65563639 C8.82145096,1.71855129 8.8600447,1.65175276 8.88930808,1.7247651 C8.90712057,1.79311708 8.89142861,1.86069234 8.89142861,1.92360723 C8.89142861,1.99351267 8.87955362,2.06419483 8.87191969,2.13332354 C8.87022327,2.14963481 8.8659822,2.16905298 8.86216523,2.17371335 C8.83756703,2.2040057 8.81296882,2.23585151 8.78794651,2.25604641 C8.77437509,2.26769732 8.75995545,2.25682314 8.74595992,2.25759987 C8.72475457,2.25993005 8.7022769,2.2498326 8.69209833,2.35546748 C8.65689746,2.43857727 8.61830372,2.48984126 8.57843767,2.49139471 C8.46308057,2.49760853 8.34772347,2.51780344 8.23279048,2.46110236 C8.19546907,2.44246091 8.15772354,2.45100491 8.12040213,2.44323764 C8.09198696,2.43780055 8.0639959,2.42614964 8.03600484,2.41682892 C8.02921913,2.41449874 8.02200931,2.40517801 8.0152236,2.4106151 C7.94058077,2.47586017 7.86508973,2.43702382 7.7904469,2.43547037 C7.6258934,2.43314019 7.461764,2.38032274 7.29721049,2.34770021 C7.21959891,2.33216567 7.14198734,2.3275053 7.06479987,2.32517512 C6.97064812,2.32129149 6.87649637,2.31430094 6.78276873,2.29643622 C6.66529109,2.27546459 6.54781346,2.27934823 6.43033583,2.2785715 C6.37859478,2.27779477 6.32685373,2.29565949 6.27511268,2.2987664 C6.23524662,2.30031986 6.19538056,2.29022241 6.15551451,2.2871155 C6.03549223,2.2785715 5.91546996,2.26769732 5.79544768,2.26226023 C5.62156382,2.25371623 5.44767996,2.2498326 5.273372,2.24284205 C5.19109524,2.23895842 5.10881849,2.23119115 5.02696584,2.22730751 C5.00788103,2.22653079 4.98879622,2.2242006 4.97055962,2.23429806 C4.90694357,2.26925077 4.84375163,2.26226023 4.78013558,2.26381369 C4.6414526,2.26614387 4.50276962,2.26536714 4.36408664,2.26381369 C4.31658666,2.26303696 4.26951078,2.26070678 4.22285902,2.24517224 C4.12404209,2.21410315 4.02522516,2.22342388 3.92640824,2.22187042 C3.92174306,2.22187042 3.91707789,2.21954024 3.91241271,2.22187042 C3.7601583,2.30420349 3.60705569,2.25682314 3.45437717,2.25060932 C3.4073013,2.24905587 3.36022542,2.23662824 3.31357366,2.23119115 C3.29915402,2.22886097 3.28515849,2.22808424 3.27116296,2.2327446 C3.16343979,2.27313441 3.0548684,2.26459041 2.94672112,2.27313441 C2.92551577,2.27468786 2.90431042,2.26847405 2.88310508,2.27779477 C2.76817209,2.32517512 2.65281499,2.29954313 2.537882,2.28400859 C2.48614095,2.27779477 2.43439989,2.2785715 2.38308295,2.30342677 C2.33855172,2.3243984 2.29359638,2.31818458 2.24906515,2.32595185 C2.11504734,2.35003039 1.98145364,2.39818747 1.84743584,2.3904202 C1.78381979,2.38653656 1.72020375,2.38731329 1.6565877,2.38420638 C1.55777077,2.37954602 1.45937796,2.33527257 1.36140924,2.2871155 C1.32451194,2.26847405 1.28719052,2.24051187 1.24986911,2.22342388 C1.1883736,2.19468498 1.13154326,2.10147773 1.07386471,2.01914466 C1.0611415,2.00127994 1.04629776,1.98030831 1.05138704,1.89797524 C1.05181115,1.88865451 1.04672187,1.86379925 1.04332901,1.86069234 C1.0246683,1.84438107 1.01915491,1.76903854 1.00940045,1.72010474 C1.00219063,1.68515202 0.994980816,1.61757677 1.00473528,1.56320587 C1.01152099,1.52436952 1.00812813,1.49330044 1.0064317,1.45524081 C1.00261474,1.36436374 1.01067277,1.32708085 1.03102991,1.33096448 C1.04036026,1.33251793 1.05053883,1.33018775 1.05859686,1.34494557 C1.09210131,1.40553028 1.12263702,1.36669393 1.15359683,1.31232303 C1.20152091,1.22843651 1.249445,1.14765689 1.2982173,1.07852818 C1.34698961,1.00939948 1.39661012,0.947261311 1.44665475,0.895220598 C1.5352931,0.802790077 1.62562789,0.735214822 1.71596268,0.670746476 C1.84361888,0.579869409 1.9725474,0.547246873 2.1006277,0.469574166 C2.17018125,0.427630905 2.24100711,0.421417088 2.31098476,0.398892003 C2.33939993,0.389571279 2.36739099,0.375590191 2.39538205,0.370153102 C2.49589541,0.348404744 2.59683287,0.329763295 2.69734622,0.311121845 C2.70922122,0.308791664 2.7206721,0.319665843 2.73212299,0.319665843 C2.76053816,0.32044257 2.78852922,0.319665843 2.81694439,0.31500548 C2.83306045,0.312675299 2.84960062,0.292480396 2.86571669,0.296364031 C2.95265862,0.318112389 3.03960055,0.265294948 3.12654248,0.270732038 C3.16174336,0.273062219 3.19694424,0.244323318 3.23214512,0.23577932 C3.34453347,0.208593873 3.45734592,0.196942967 3.57015838,0.156553159 C3.73895295,0.0951917212 3.90817164,0.106842627 4.07739032,0.0850942694 C4.16645279,0.0742200905 4.25593936,0.0975219024 4.34542593,0.0951917212 C4.45569375,0.0913080859 4.56638567,0.0765502717 4.67665348,0.0672295469 C4.7020999,0.0656760928 4.72797042,0.068783001 4.75384095,0.0648993657 C4.89252393,0.0478113703 5.03078281,0.0283931937 5.16946579,0.0105284712 C5.22120684,0.00353792761 5.27294789,-0.0151035219 5.32426483,0.0245095584 C5.33105055,0.0299466478 5.33826036,0.032276829 5.34547018,0.0315001019 C5.5168094,0.0237328313 5.68857273,0.0516950056 5.85991195,0.0462579162 C6.09995649,0.0377139184 6.34000104,0.0353837373 6.58004559,0.0392673726 C6.67631788,0.0408208267 6.77301427,0.032276829 6.86886244,0.0765502717 C6.87140708,0.0773269987 6.87352762,0.0788804529 6.87564815,0.0773269987 C6.92781331,0.0509182785 6.97913026,0.0835408152 7.0304472,0.0874244506 C7.12926413,0.0951917212 7.22808105,0.0951917212 7.32689798,0.103735719 C7.42783544,0.113056444 7.5287729,0.130921166 7.63013447,0.144125526 C7.67721034,0.150339343 7.72386211,0.157329886 7.77093798,0.161213522 C7.97323701,0.179854971 8.17553604,0.196942967 8.37741096,0.214807689 C8.40582613,0.21713787 8.43339308,0.224128414 8.46138414,0.248206953 C8.49319216,0.276169127 8.52712072,0.283159671 8.55977696,0.277722581 C8.62212068,0.26762513 8.68064745,0.344521109 8.74044653,0.388017824 C8.76334831,0.40510582 8.78455366,0.449379263 8.80279026,0.515401063 C8.81890632,0.572102139 8.83756703,0.614822127 8.8541072,0.661425751 C8.8600447,0.738321731 8.86979916,0.806673712 8.85580363,0.885899873 Z"/>
    <path d="M6.0273765,3.714327 C6.02398365,3.7345219 6.0273765,3.79277643 6.03246579,3.81918515 C6.05197471,3.92171312 6.07826934,3.98462802 6.10880504,4.01725055 C6.12873807,4.03899891 6.14951931,4.05531018 6.17157288,4.07628181 C6.16945234,4.11123453 6.16945234,4.14696397 6.16563538,4.16249851 C6.1486711,4.22463668 6.12280057,4.24483158 6.11601486,4.35668028 C6.11431843,4.38075882 6.10074701,4.40173045 6.09226487,4.40716754 C6.06469792,4.42425553 6.03628275,4.43279953 6.00829169,4.44678062 C5.99259973,4.45532462 5.97563545,4.4289159 5.95951939,4.48406352 C5.99302384,4.54697841 6.03161757,4.48017988 6.06088095,4.55319223 C6.07869345,4.62154421 6.06300149,4.68911946 6.06300149,4.75203436 C6.06300149,4.82193979 6.05112649,4.89262195 6.04349257,4.96175066 C6.04179614,4.97806193 6.03755507,4.99748011 6.03373811,5.00214047 C6.0091399,5.03243283 5.9845417,5.06427864 5.95951939,5.08447354 C5.94594796,5.09612445 5.93152833,5.08525027 5.9175328,5.08602699 C5.89632745,5.08835717 5.87384978,5.07825972 5.86367121,5.1838946 C5.82847033,5.2670044 5.7898766,5.31826839 5.75001054,5.31982184 C5.63465344,5.32603566 5.51929635,5.34623056 5.40436335,5.28952948 C5.36704194,5.27088803 5.32929642,5.27943203 5.29197501,5.27166476 C5.26355984,5.26622767 5.23556878,5.25457677 5.20757772,5.24525604 C5.20079201,5.24292586 5.19358219,5.23360514 5.18679648,5.23904222 C5.11215365,5.3042873 5.03666261,5.26545095 4.96201978,5.26389749 C4.79746627,5.26156731 4.63333687,5.20874987 4.46878336,5.17612733 C4.39117179,5.16059279 4.31356021,5.15593243 4.23637274,5.15360225 C4.14222099,5.14971861 4.04806924,5.14272807 3.9543416,5.12486335 C3.83686397,5.10389172 3.71938634,5.10777535 3.6019087,5.10699862 C3.55016765,5.1062219 3.4984266,5.12408662 3.44668555,5.12719353 C3.40681949,5.12874698 3.36695344,5.11864953 3.32708738,5.11554262 C3.20706511,5.10699862 3.08704283,5.09612445 2.96702056,5.09068736 C2.7931367,5.08214336 2.61925284,5.07825972 2.44494487,5.07126918 C2.36266812,5.06738554 2.28039136,5.05961827 2.19853872,5.05573464 C2.1794539,5.05495791 2.16036909,5.05262773 2.14213249,5.06272518 C2.07851644,5.0976779 2.0153245,5.09068736 1.95170846,5.09224081 C1.81302548,5.09457099 1.6743425,5.09379426 1.53565951,5.09224081 C1.48815953,5.09146408 1.44108366,5.0891339 1.39443189,5.07359936 C1.29561496,5.04253028 1.19679804,5.051851 1.09798111,5.05029755 C1.09331594,5.05029755 1.08865076,5.04796737 1.08398558,5.05029755 C0.931731179,5.13263062 0.77862856,5.08525027 0.625950049,5.07903645 C0.578874174,5.077483 0.5317983,5.06505536 0.485146533,5.05961827 C0.470726895,5.05728809 0.456731365,5.05651136 0.442735835,5.06117173 C0.335012663,5.10156153 0.226441277,5.09301754 0.118293998,5.10156153 C0.097088649,5.10311499 0.0758833002,5.09690117 0.0546779514,5.1062219 C-0.0602550393,5.15360225 -0.175612137,5.12797025 -0.290545128,5.11243571 C-0.342286179,5.1062219 -0.39402723,5.10699862 -0.445344174,5.13185389 C-0.489875407,5.15282552 -0.534830746,5.1466117 -0.579361979,5.15437897 C-0.713379783,5.17845751 -0.846973481,5.22661459 -0.980991286,5.21884732 C-1.04460733,5.21496369 -1.10822338,5.21574041 -1.17183943,5.2126335 C-1.27065635,5.20797314 -1.36904917,5.1636997 -1.46701788,5.11554262 C-1.50391519,5.09690117 -1.5412366,5.068939 -1.57855802,5.051851 C-1.64005353,5.0231121 -1.69688386,4.92990485 -1.75456241,4.84757178 C-1.76728562,4.82970706 -1.78212936,4.80873543 -1.77704008,4.72640236 C-1.77661597,4.71708164 -1.78170526,4.69222637 -1.78509811,4.68911946 C-1.80375882,4.67280819 -1.80927221,4.59746567 -1.81902667,4.54853186 C-1.82623649,4.51357915 -1.83344631,4.44600389 -1.82369185,4.391633 C-1.81690614,4.35279664 -1.82029899,4.32172756 -1.82199542,4.28366794 C-1.82581238,4.19279087 -1.81775435,4.15550797 -1.79739722,4.15939161 C-1.78806686,4.16094506 -1.77788829,4.15861488 -1.76983026,4.17337269 C-1.73632581,4.2339574 -1.70579011,4.19512105 -1.6748303,4.14075016 C-1.62690621,4.05686363 -1.57898212,3.97608402 -1.53020982,3.90695531 C-1.48143752,3.8378266 -1.431817,3.77568844 -1.38177238,3.72364772 C-1.29313402,3.6312172 -1.20279923,3.56364195 -1.11246445,3.4991736 C-0.984808248,3.40829653 -0.855879727,3.375674 -0.727799421,3.29800129 C-0.658245876,3.25605803 -0.587420011,3.24984421 -0.51744236,3.22731913 C-0.489027193,3.2179984 -0.461036132,3.20401732 -0.433045072,3.19858023 C-0.332531718,3.17683187 -0.231594258,3.15819042 -0.131080904,3.13954897 C-0.119205909,3.13721879 -0.107755021,3.14809297 -0.0963041323,3.14809297 C-0.0678889649,3.14886969 -0.0398979044,3.14809297 -0.011482737,3.14343261 C0.00463332811,3.14110242 0.0211735002,3.12090752 0.0372895653,3.12479116 C0.124231496,3.14653951 0.211173426,3.09372207 0.298115356,3.09915916 C0.333316235,3.10148934 0.368517114,3.07275044 0.403717993,3.06420644 C0.516106342,3.037021 0.628918798,3.02537009 0.741731253,2.98498028 C0.91052583,2.92361885 1.07974451,2.93526975 1.2489632,2.91352139 C1.33802566,2.90264722 1.42751223,2.92594903 1.51699881,2.92361885 C1.62726662,2.91973521 1.73795854,2.9049774 1.84822636,2.89565667 C1.87367277,2.89410322 1.8995433,2.89721013 1.92541383,2.89332649 C2.06409681,2.8762385 2.20235568,2.85682032 2.34103866,2.8389556 C2.39277971,2.83196505 2.44452076,2.8133236 2.49583771,2.85293668 C2.50262342,2.85837377 2.50983324,2.86070395 2.51704306,2.85992723 C2.68838228,2.85215996 2.8601456,2.88012213 3.03148482,2.87468504 C3.27152937,2.86614104 3.51157392,2.86381086 3.75161847,2.8676945 C3.84789075,2.86924795 3.94458714,2.86070395 4.04043532,2.9049774 C4.04297996,2.90575412 4.04510049,2.90730758 4.04722103,2.90575412 C4.09938619,2.8793454 4.15070313,2.91196794 4.20202008,2.91585158 C4.300837,2.92361885 4.39965393,2.92361885 4.49847085,2.93216284 C4.59940831,2.94148357 4.70034577,2.95934829 4.80170734,2.97255265 C4.84878322,2.97876647 4.89543498,2.98575701 4.94251086,2.98964065 C5.14480988,3.0082821 5.34710891,3.02537009 5.54898383,3.04323481 C5.577399,3.045565 5.60496595,3.05255554 5.63295701,3.07663408 C5.66476504,3.10459625 5.6986936,3.1115868 5.73134983,3.10614971 C5.79369356,3.09605225 5.85222032,3.17294823 5.91201941,3.21644495 C5.93492118,3.23353294 5.95612653,3.27780639 5.97436313,3.34382819 C5.9904792,3.40052926 6.0091399,3.44324925 6.02568008,3.48985288 C6.03161757,3.56674886 6.04137203,3.63510084 6.0273765,3.714327 Z" transform="rotate(-90 2.172 4.078)"/>
  </g>
</svg>
