<svg xmlns="http://www.w3.org/2000/svg" width="24" height="20" viewBox="0 0 24 20">
  <path fill="#00253D" fill-rule="evenodd" d="M23.4828597,0.17437594 C23.615589,0.210015038 23.7139757,0.314676692 23.7167602,0.462045113 C23.727368,1.01497744 23.7350586,1.56911278 23.7125171,2.12114286 C23.7042961,2.32144361 23.5332464,2.44760902 23.3877878,2.55121805 C23.2327823,2.66144361 23.0662409,2.75121805 22.9030144,2.84655639 C22.8221304,2.89377444 22.7380641,2.93437594 22.6546608,2.9758797 C22.5203403,3.04294737 22.383368,3.104 22.2509039,3.17572932 C22.1323624,3.23993985 22.0146166,3.30806015 21.9032354,3.38685714 C21.6470586,3.56806015 21.3882298,3.74595489 21.1430586,3.94550376 C20.8883403,4.1527218 20.6501967,4.38580451 20.4017105,4.60309774 C20.3088928,4.68415038 20.196716,4.7396391 20.1118541,4.82926316 C19.8985061,5.05422556 19.6948376,5.29061654 19.4894453,5.52505263 C19.3919867,5.63633083 19.2941304,5.74821053 19.2060862,5.86896241 C19.1165834,5.99166917 19.0383514,6.12505263 18.956274,6.25452632 L18.7208511,6.62123197 C18.6825797,6.68304762 18.6454232,6.74565414 18.6103293,6.80971429 C18.5424398,6.93362406 18.4970917,7.07482707 18.4505503,7.21196992 C18.3880972,7.39618045 18.3712575,7.61828571 18.2676994,7.76189474 C18.1250254,7.9596391 18.1689149,8.16490226 18.1604287,8.37046617 C18.1532685,8.54655639 18.3005834,8.71091729 18.4608928,8.72309774 C18.5877878,8.7327218 18.7168044,8.71873684 18.8421083,8.73873684 C18.9896884,8.76234586 19.1340862,8.81136842 19.2798099,8.84941353 L19.3259536,8.86204511 L19.3259536,8.86204511 L19.9737424,8.98582122 C20.0813864,9.00801003 20.1886276,9.03217043 20.2951028,9.06009023 C20.4933348,9.11227068 20.6809591,9.21572932 20.8733569,9.29603008 C20.8980199,9.30640602 20.9222851,9.32279699 20.9478762,9.32610526 C21.1609591,9.35362406 21.3333348,9.47392481 21.5074343,9.60745865 C21.684716,9.7433985 21.8950144,9.82505263 22.0685834,9.96550376 C22.3565834,10.1985865 22.6379536,10.4458045 22.899832,10.7149774 C23.0247381,10.8436992 23.1035006,11.0331729 23.1939315,11.201594 C23.3257326,11.4474586 23.4501083,11.6985865 23.5747492,11.9494135 C23.5919867,11.9841504 23.5945061,12.0298647 23.5983514,12.0710677 C23.6084287,12.1818947 23.590263,12.3036992 23.6996552,12.3716692 C23.7072133,12.3763308 23.7114564,12.3918195 23.7134453,12.4030977 C23.7621083,12.6877594 23.8166055,12.9715188 23.8557215,13.2578346 C23.8742851,13.3931729 23.8518762,13.5357293 23.8683182,13.6718195 C23.8827713,13.7915188 23.9267934,13.9062556 23.9553017,14.0241504 C23.9676331,14.0755789 23.9826166,14.1294135 23.9808928,14.1814436 C23.9721414,14.4572331 24.0274343,14.7339248 23.895368,15.0049023 C23.8351691,15.1283609 23.8736221,15.3113684 23.8587713,15.4662556 C23.8415337,15.6486617 23.9050475,15.8515188 23.7488486,16.002797 C23.7223293,16.0285113 23.7422188,16.108812 23.7280309,16.1593383 C23.7011138,16.2552782 23.6651801,16.3482105 23.6329591,16.4424962 C23.6255337,16.4644511 23.6130696,16.4867068 23.612274,16.5091128 C23.6006055,16.8470075 23.3786387,17.0658045 23.2585061,17.3420451 C23.1129149,17.6763308 22.8734453,17.9109173 22.6554564,18.1564812 C22.4364066,18.4035489 22.2296884,18.6757293 21.9396994,18.851218 C21.7105724,18.9897143 21.4936442,19.1564812 21.260937,19.2955789 C21.1499536,19.3618947 21.0437436,19.3793383 20.9362077,19.4232481 C20.7953901,19.4808421 20.6645171,19.5697143 20.5295337,19.6455038 C20.5109702,19.6560301 20.4953238,19.6772331 20.476495,19.6812932 C20.2000309,19.7388872 19.9250254,19.8208421 19.6461746,19.8438496 C19.3034122,19.8719699 18.9574674,19.8506165 18.6128486,19.8506165 C18.2523182,19.8485113 17.8917878,19.8566316 17.5315227,19.8438496 C17.4170917,19.8396391 17.3042519,19.7802406 17.1906166,19.7461053 C17.1549481,19.7352782 17.1192796,19.7233985 17.0832133,19.7142256 C16.8554122,19.6569323 16.6231028,19.6158797 16.4011359,19.5372331 C16.271589,19.4910677 16.1599425,19.3818947 16.0375558,19.3068571 C15.9338652,19.2433985 15.8311028,19.1670075 15.7191912,19.1336241 C15.511147,19.0715188 15.4021525,18.8769323 15.2576221,18.7309173 C15.092274,18.564 14.9281193,18.3934737 14.779611,18.2077594 C14.653379,18.050015 14.550484,17.8682105 14.4365834,17.6976842 L14.3521242,17.5836881 C14.3386829,17.5643509 14.3263514,17.5443509 14.3163182,17.5229474 C14.2196552,17.3169323 14.148716,17.0924211 14.0338873,16.9012932 C13.8452022,16.5873083 13.7165834,16.2519699 13.6306608,15.8858045 C13.5816,15.6769323 13.4800309,15.4843008 13.4098873,15.2806917 C13.3893348,15.2214436 13.3962298,15.1504662 13.388937,15.0850526 C13.3739536,14.9536241 13.4101525,14.8083609 13.2896221,14.7062556 C13.262705,14.6833985 13.2681414,14.6047519 13.2669481,14.5513684 C13.261379,14.3170827 13.2615116,14.0821955 13.2539536,13.8480602 C13.2498431,13.7209925 13.2804729,13.581594 13.1612685,13.4868571 C13.1395227,13.4697143 13.1387271,13.408812 13.1385945,13.3679098 C13.1370033,12.9349774 13.1350144,12.5020451 13.1403182,12.0692632 C13.1409812,12.0116692 13.1832796,11.9555789 13.2022409,11.8972331 C13.2214674,11.8378346 13.2474564,11.7770827 13.2498431,11.7160301 C13.2589923,11.4757293 13.2576663,11.2349774 13.2650917,10.9945263 C13.268937,10.8674586 13.2677436,10.7516692 13.3502188,10.628812 C13.4120088,10.5364812 13.3715669,10.361594 13.3934453,10.2270075 C13.4104177,10.1230977 13.453379,10.0247519 13.4852022,9.924 C13.4903735,9.90730827 13.5003182,9.89242105 13.5042961,9.87542857 C13.5602519,9.63678195 13.6048044,9.39407519 13.6737547,9.1602406 C13.7348818,8.95287218 13.8243845,8.7564812 13.8979757,8.55362406 L14.0046129,8.23150766 C14.0230144,8.17821888 14.0427713,8.12570426 14.0654453,8.07482707 C14.1485834,7.88790977 14.2500199,7.71136842 14.3466829,7.53257143 C14.4136442,7.40866165 14.4839204,7.28715789 14.5564508,7.16745865 C14.6426387,7.02550376 14.7365171,6.88941353 14.8199204,6.74550376 C14.8774674,6.64625564 14.9198983,6.53572932 14.9751912,6.43422556 C15.0174895,6.35678195 15.0641635,6.28099248 15.1172022,6.2127218 C15.4078541,5.83843609 15.7187934,5.48204511 15.9851801,5.08685714 C16.0931138,4.92655639 16.180495,4.74670677 16.3172022,4.61196992 C16.4088265,4.52159398 16.510926,4.44490226 16.6046718,4.35678195 L16.9508818,4.01843609 L16.9508818,4.01843609 C17.1573348,3.82565414 17.3080972,3.56249624 17.5694453,3.43572932 C17.6857326,3.37933835 17.7723182,3.24715789 17.8772022,3.1564812 C17.990042,3.05903759 18.1054011,2.96430075 18.2250033,2.87813534 C18.4537326,2.71392481 18.6886939,2.56114286 18.9160972,2.39482707 C19.0799867,2.27482707 19.2334011,2.13603008 19.3962298,2.01407519 C19.4838762,1.94851128 19.5800088,1.8958797 19.675611,1.84550376 C19.8977105,1.72851128 20.1244508,1.62249624 20.3442961,1.49993985 C20.4681414,1.43076692 20.5791249,1.33196992 20.7009812,1.25723308 C20.8037436,1.19407519 20.9120751,1.14039098 21.0214674,1.09332331 C21.1805834,1.0246015 21.3459315,0.97362406 21.5030586,0.899789474 C21.6433459,0.833924812 21.7758099,0.746706767 21.9123845,0.670165414 C21.940495,0.654225564 21.9700641,0.638736842 22.0006939,0.631518797 C22.2160309,0.580090226 22.3983514,0.431368421 22.5984398,0.354526316 C22.8790144,0.246706767 23.1670144,0.0898646617 23.4828597,0.17437594 Z M10.3177724,0.166466165 C10.4688,0.198796992 10.5720928,0.306917293 10.5759381,0.451729323 C10.5911867,1.01593985 10.6006011,1.58240602 10.5659934,2.14451128 C10.557242,2.28646617 10.3978608,2.45323308 10.2712309,2.54090226 C10.0584133,2.6881203 9.79971713,2.75157895 9.59127514,2.9043609 C9.34663425,3.08390977 9.05333039,3.16706767 8.84263425,3.41609023 C8.76639116,3.50616541 8.63803757,3.53684211 8.53991602,3.60631579 C8.34115359,3.74691729 8.14703204,3.89609023 7.95039116,4.04075188 C7.80148508,4.15022556 7.65032486,4.25593985 7.50287735,4.36766917 C7.44771713,4.40932331 7.40409282,4.47082707 7.34813702,4.51082707 C7.04555138,4.7275188 6.7928221,5.01082707 6.53783867,5.29007519 C6.35604862,5.48887218 6.1729326,5.68887218 6.01209282,5.9087218 C5.89527514,6.06857143 5.81624751,6.26360902 5.71534144,6.43909774 C5.64639116,6.55924812 5.56908729,6.67308271 5.49443536,6.78902256 C5.48568398,6.80285714 5.46380552,6.80887218 5.45929724,6.82300752 C5.40572818,6.99699248 5.35600442,7.17233083 5.30110939,7.34571429 C5.27949613,7.41413534 5.24807072,7.47879699 5.21942983,7.5443609 C5.2126674,7.55969925 5.19158453,7.5712782 5.19092155,7.58526316 C5.17978343,7.86962406 4.98247956,8.11052632 5.04440221,8.41413534 C5.06270055,8.50451128 5.10009282,8.54 5.16758453,8.59278195 C5.40400442,8.77774436 5.68563978,8.66451128 5.91794917,8.75954887 C6.16975028,8.86240602 6.42433591,8.84661654 6.6726895,8.90992481 C6.8446674,8.95368421 7.0167779,8.99984962 7.18411492,9.06150376 C7.37412597,9.13142857 7.55870055,9.22015038 7.74619227,9.29969925 C7.77576133,9.31233083 7.80678895,9.32315789 7.83781657,9.32902256 C8.04121989,9.36691729 8.21372818,9.47744361 8.38504309,9.60270677 C8.56152928,9.7318797 8.76015912,9.82255639 8.93518674,9.95383459 C9.14972818,10.1148872 9.39383867,10.2312782 9.55096575,10.4849624 C9.63238011,10.6165414 9.7566232,10.7142857 9.83710939,10.8463158 C9.96811492,11.0613534 10.1379713,11.2422556 10.2187227,11.5039098 C10.2936398,11.7467669 10.4253083,11.9670677 10.5320486,12.1971429 C10.5465017,12.2281203 10.5731536,12.257594 10.5751425,12.2893233 C10.6000707,12.7099248 10.7990983,13.0980451 10.7497724,13.5344361 C10.7358497,13.6580451 10.8146122,13.7893233 10.8273414,13.8933835 C10.8720265,14.2569925 10.8456398,14.6317293 10.8461702,15.0022556 C10.6851978,15.1422556 10.773242,15.347218 10.740358,15.5206015 C10.6988552,15.7384962 10.6398497,15.9532331 10.6139934,16.1732331 C10.5830983,16.4372932 10.5027448,16.6700752 10.3767779,16.8932331 C10.2982807,17.0326316 10.2665901,17.2058647 10.1874298,17.3446617 C10.1032309,17.4921805 9.9929105,17.6221053 9.8849768,17.7500752 C9.68555138,17.9869173 9.48519779,18.2234586 9.27423646,18.4469173 C9.14521989,18.5834586 8.99618122,18.6960902 8.85562873,18.8181955 C8.77023646,18.8923308 8.68630276,18.9694737 8.59640221,19.0356391 C8.51472265,19.0957895 8.4288,19.1506767 8.33929724,19.1936842 C8.17593812,19.2724812 8.00820331,19.3393985 7.84312044,19.4133835 C7.70230276,19.4765414 7.56241326,19.542406 7.42199337,19.607218 C7.3567558,19.6372932 7.2928442,19.6724812 7.22588287,19.6966917 C7.10336354,19.7410526 6.97978343,19.7819549 6.85540773,19.8183459 C6.79971713,19.8345865 6.7407116,19.8428571 6.68316464,19.8431579 C6.29081105,19.8454135 5.89859006,19.8443609 5.50623646,19.8443609 C5.1246232,19.846015 4.74261215,19.856391 4.36139669,19.8403008 C4.23131934,19.8347368 4.1046895,19.7565414 3.97421436,19.7216541 C3.7368663,19.6578947 3.49355138,19.6174436 3.26110939,19.5360902 C3.13222541,19.4911278 3.02150718,19.3806015 2.90044641,19.3039098 C2.80617017,19.2439098 2.71348508,19.1726316 2.61165083,19.137594 C2.33319779,19.0416541 2.18402652,18.7721805 1.98698785,18.567218 C1.87865635,18.4544361 1.76647956,18.3446617 1.66941878,18.22 C1.53735249,18.0503759 1.35118674,17.9278195 1.30809282,17.6759398 C1.29721989,17.6123308 1.2249547,17.5645113 1.19047956,17.5027068 C1.06212597,17.2724812 0.928866298,17.0446617 0.815230939,16.8052632 C0.744026519,16.655188 0.708623204,16.4840602 0.64961768,16.3258647 C0.577750276,16.1336842 0.497927072,15.9452632 0.421683978,15.7550376 C0.419562431,15.7496241 0.418103867,15.7437594 0.416777901,15.7380451 C0.366921547,15.5154887 0.308313812,15.2948872 0.269330387,15.0700752 C0.181153591,14.5616541 0.160866298,14.0409023 0.0921812155,13.5330827 C0.0469657459,13.1989474 -0.0113767956,12.8703759 0.00188287293,12.532782 C0.00692154696,12.4082707 0.0607558011,12.2866165 0.0891314917,12.1627068 C0.102125967,12.1052632 0.112998895,12.0458647 0.115650829,11.9869173 C0.125330387,11.7646617 0.151451934,11.5401504 0.133683978,11.3204511 C0.10199337,10.9281203 0.21841326,10.562406 0.298236464,10.1995489 C0.343319337,9.99428571 0.369573481,9.78406015 0.419429834,9.58180451 C0.468490608,9.38255639 0.569794475,9.2006015 0.637551381,9.00646617 C0.696954696,8.83593985 0.736468508,8.65639098 0.794148066,8.48511278 C0.851297238,8.31548872 0.911761326,8.14601504 0.985882873,7.98541353 C1.09607072,7.74721805 1.21315359,7.51218045 1.33965083,7.28466165 C1.44108729,7.10240602 1.56148508,6.93383459 1.67207072,6.75819549 C1.77629171,6.59263158 1.88528619,6.43052632 1.98049061,6.25864662 C2.19423646,5.87278195 2.45704309,5.54030075 2.75724199,5.2362406 C2.99923094,4.99097744 3.20449061,4.69984962 3.43534144,4.43969925 C3.71604862,4.12345865 3.99251271,3.79924812 4.29708729,3.51458647 C4.55777238,3.27082707 4.85372818,3.07503759 5.13775028,2.86421053 C5.35441326,2.70315789 5.57531934,2.5487218 5.79728619,2.39714286 C6.01328619,2.24962406 6.23445746,2.11218045 6.45098785,1.96556391 C6.6569105,1.82601504 6.85461215,1.66992481 7.06544088,1.54150376 C7.19803757,1.46075188 7.35145193,1.42571429 7.48961768,1.35533835 C7.74009282,1.2275188 7.98274475,1.07954887 8.23481105,0.956691729 C8.49987182,0.827518797 8.77421436,0.723308271 9.0406011,0.597443609 C9.17306519,0.534736842 9.2967779,0.448270677 9.42420331,0.371879699 C9.43759558,0.363609023 9.44780552,0.342255639 9.4609326,0.340451128 C9.7488,0.29924812 10.0101481,0.10075188 10.3177724,0.166466165 Z"/>
</svg>
