<svg xmlns="http://www.w3.org/2000/svg" width="13" height="12" viewBox="0 0 13 12">
  <g fill="#00253D" fill-rule="evenodd" transform="matrix(-1 0 0 1 13 0)">
    <path d="M12.0572126,5.3024912 C12.0669101,5.38047579 12.0824065,5.44984952 12.061503,5.52995421 C12.0564429,5.55037517 12.0620917,5.60944105 12.0701074,5.63626049 C12.1008438,5.74038004 12.1417062,5.80444468 12.1888558,5.83786764 C12.2196375,5.86014449 12.2516812,5.8769226 12.2857143,5.89843808 C12.2827193,5.93382738 12.2829874,5.9700293 12.2772409,5.98572314 C12.251649,6.04847799 12.2120617,6.06862729 12.2024778,6.18187305 C12.2000527,6.20624949 12.1793635,6.22733443 12.1663751,6.23274091 C12.1241587,6.24972173 12.0805753,6.2580353 12.0376842,6.271863 C12.0136444,6.28033034 11.987388,6.25336738 11.9630465,6.30904949 C12.0149837,6.37320127 12.0737649,6.30598582 12.1192632,6.38031732 C12.1471373,6.44978844 12.1235406,6.51806765 12.1240127,6.58181452 C12.1245373,6.65264437 12.106827,6.7241177 12.0956196,6.7940683 C12.0931361,6.81057476 12.0867673,6.83019847 12.0809392,6.83487433 C12.0433821,6.86526999 12.0058366,6.89723964 11.9675523,6.9173992 C11.9467931,6.92904016 11.924562,6.91784792 11.9030698,6.91846578 C11.8705145,6.92057051 11.8359115,6.91006788 11.8210693,7.01697664 C11.7676222,7.10076005 11.7087244,7.15223553 11.6474992,7.15332774 C11.4703498,7.15822961 11.2933054,7.17729745 11.1163353,7.11845758 C11.0588673,7.09911859 11.0009519,7.10731941 10.9435655,7.09899839 C10.8998771,7.09314599 10.8567936,7.08100274 10.8137275,7.07122048 C10.8032868,7.06877748 10.7921421,7.05924637 10.7817596,7.06467335 C10.667593,7.12987914 10.5513424,7.0896169 10.4366745,7.08714083 C10.1838921,7.08279117 9.93138232,7.02729174 9.67837262,6.99224915 C9.55903962,6.97557123 9.43978822,6.96991129 9.32120576,6.96661747 C9.17655341,6.96154463 9.03187774,6.9533238 8.88777192,6.93409013 C8.70716126,6.91142143 8.52673712,6.91393668 8.34627802,6.91172994 C8.26679457,6.91031764 8.18745101,6.9277933 8.10799671,6.93031599 C8.04677152,6.9314082 7.98545889,6.92069543 7.92419872,6.91706565 C7.73977258,6.90695817 7.55532896,6.8944897 7.37092614,6.88753022 C7.10376511,6.87677182 6.83663905,6.8707354 6.56883822,6.86154587 C6.44242664,6.85661654 6.31598591,6.84775223 6.19022578,6.84282803 C6.16090443,6.84181039 6.13157143,6.83921875 6.1036346,6.84922934 C6.00617852,6.88387545 5.90905913,6.87602878 5.81135241,6.87683396 C5.59834382,6.87751894 5.38531191,6.87505593 5.17227418,6.87180592 C5.09930529,6.87044488 5.0269762,6.86751496 4.95519948,6.8512112 C4.8031771,6.81853704 4.65145782,6.8267868 4.49965695,6.82401858 C4.49249093,6.8239622 4.48530743,6.82154482 4.4781589,6.82384944 C4.2449041,6.90543123 4.00937296,6.85557406 3.77480221,6.84743292 C3.70247895,6.84529 3.63007408,6.83212911 3.55837313,6.82605632 C3.53620615,6.82352106 3.51470227,6.82256493 3.4932392,6.82711778 C3.32807251,6.86673983 3.16123569,6.85677075 2.99517855,6.86412074 C2.96261742,6.86543847 2.92999799,6.85888621 2.89749514,6.86807392 C2.72130616,6.91469183 2.54391781,6.88732677 2.36725668,6.87019782 C2.28773243,6.86327653 2.20826064,6.86343822 2.12962101,6.888002 C2.06137552,6.90871278 1.99227456,6.9018735 1.92392998,6.90920531 C1.71825062,6.93198263 1.51340341,6.97916202 1.30748506,6.9696724 C1.20973753,6.9649686 1.11202497,6.96498678 1.01428328,6.96106998 C0.86245908,6.95515376 0.710989067,6.90910576 0.560141365,6.85912789 C0.503324809,6.83979402 0.445786851,6.81101104 0.388330497,6.79324604 C0.293653724,6.76338392 0.205659166,6.66825731 0.116443302,6.58413843 C0.0967655608,6.56588371 0.0738072244,6.54445536 0.0810068315,6.46109505 C0.0815883406,6.45165619 0.0735843451,6.42641074 0.0683493824,6.42322174 C0.0395629164,6.40646926 0.0305285864,6.33006379 0.0151778802,6.28036501 C0.00384082956,6.24486296 -0.00774103496,6.17630697 0.00683442735,6.12133497 C0.0169662765,6.08206706 0.0115214733,6.05054612 0.0086300336,6.0119627 C0.00208494914,5.91983777 0.0141828237,5.88215923 0.0454818508,5.88634025 C0.0598255382,5.888027 0.0754429928,5.88578902 0.0879314038,5.90083937 C0.139851073,5.96263015 0.186464452,5.92364926 0.233612709,5.86893353 C0.306597703,5.78451689 0.379606012,5.70324823 0.454004667,5.6337948 C0.528403322,5.56434138 0.604157349,5.50198118 0.680638607,5.44985709 C0.816099248,5.35727551 0.954352238,5.28989837 1.09262854,5.22566922 C1.28803478,5.13513317 1.48583256,5.10363736 1.68198935,5.02648541 C1.78851335,4.98482807 1.89725985,4.97938803 2.00458104,4.95741077 C2.04815864,4.94831019 2.0910498,4.9344825 2.13400509,4.92931179 C2.28823693,4.90849056 2.44314353,4.89082245 2.59739869,4.87314922 C2.61562196,4.87093173 2.63329288,4.8820881 2.65088219,4.88222648 C2.69453556,4.88335688 2.73752582,4.88290816 2.78113839,4.87852958 C2.80587623,4.87636335 2.83113146,4.85610128 2.85591592,4.86023104 C2.98962759,4.8833177 3.12277968,4.83085253 3.25636894,4.83741223 C3.31045727,4.84019863 3.36431244,4.81150511 3.41831916,4.80327353 C3.59075095,4.77708683 3.76395079,4.76664522 3.93693495,4.72708466 C4.19575391,4.66695171 4.45577224,4.68080173 4.71553993,4.66081082 C4.85226407,4.65086918 4.98989612,4.6755606 5.12733583,4.67428107 C5.29668522,4.67167868 5.46660445,4.65806345 5.63591304,4.64995208 C5.67498873,4.64868561 5.71475086,4.65214625 5.75446052,4.64852391 C5.96735836,4.63288596 6.17958726,4.61488189 6.39247927,4.59845694 C6.47190443,4.59199926 6.55124215,4.5737366 6.63036559,4.61449369 C6.64082968,4.62008468 6.65192192,4.62253281 6.66299084,4.62183294 C6.92612073,4.61603363 7.19017021,4.64644137 7.45331758,4.64300305 C7.8219775,4.63724705 8.19068404,4.63778705 8.55943722,4.64462303 C8.70732936,4.64736049 8.85579719,4.63987211 9.00335847,4.68588936 C9.00727303,4.68670711 9.01054197,4.68830673 9.01378759,4.68675836 C9.09371848,4.66063085 9.17278946,4.69430495 9.25164477,4.69886012 C9.40349228,4.70792433 9.5552815,4.70911855 9.70713484,4.71896976 C9.86225129,4.72963359 10.0174319,4.7489544 10.1732289,4.76355834 C10.2455871,4.77042325 10.3172997,4.77807003 10.3896405,4.78257395 C10.7005248,4.80390673 11.0113975,4.82366552 11.3216246,4.84420618 C11.3652896,4.84691058 11.4076867,4.85432672 11.4508635,4.87906194 C11.4999325,4.90777829 11.5521015,4.91527131 11.6022228,4.91015698 C11.697911,4.90067944 11.788389,4.97929958 11.8805707,5.02409417 C11.9158775,5.04168491 11.9487826,5.08680008 11.9772906,5.15391533 C12.0024715,5.21156098 12.0314561,5.2550714 12.0572126,5.3024912" transform="rotate(180 6.143 5.874)"/>
    <path d="M13.124905,3.28515972 C13.1309941,3.36314431 13.1407244,3.43251805 13.127599,3.51262274 C13.1244217,3.53304369 13.1279686,3.59210957 13.1330017,3.61892902 C13.1523013,3.72304857 13.1779591,3.78711321 13.2075647,3.82053617 C13.2268927,3.84281301 13.2470132,3.85959113 13.2683828,3.8811066 C13.2665022,3.9164959 13.2666706,3.95269782 13.2630623,3.96839166 C13.246993,4.03114651 13.2221359,4.05129582 13.216118,4.16454157 C13.2145953,4.18891802 13.2016044,4.21000296 13.1934489,4.21540944 C13.166941,4.23239025 13.1395746,4.24070383 13.112643,4.25453152 C13.0975482,4.26299886 13.0810616,4.2360359 13.0657775,4.29171801 C13.0983892,4.35586979 13.1352983,4.28865434 13.163867,4.36298584 C13.1813694,4.43245696 13.1665528,4.50073618 13.1668493,4.56448304 C13.1671787,4.63531289 13.1560582,4.70678623 13.149021,4.77673682 C13.1474616,4.79324328 13.1434626,4.81286699 13.1398031,4.81754285 C13.1162207,4.84793851 13.0926457,4.87990817 13.0686066,4.90006772 C13.0555718,4.91170868 13.0416128,4.90051644 13.0281177,4.9011343 C13.0076759,4.90323903 12.9859485,4.8927364 12.976629,4.99964516 C12.9430692,5.08342858 12.9060868,5.13490405 12.8676431,5.13599626 C12.7564098,5.14089813 12.6452423,5.15996597 12.5341216,5.10112611 C12.498037,5.08178711 12.4616715,5.08998793 12.4256382,5.08166691 C12.398206,5.07581452 12.3711535,5.06367126 12.3441121,5.05388901 C12.3375562,5.05144601 12.3305584,5.04191489 12.3240392,5.04734187 C12.2523531,5.11254766 12.1793586,5.07228542 12.1073578,5.06980935 C11.948634,5.06545969 11.7900813,5.00996027 11.6312148,4.97491767 C11.5562848,4.95823975 11.481406,4.95257981 11.4069472,4.94928599 C11.316119,4.94421316 11.2252761,4.93599233 11.1347911,4.91675865 C11.0213844,4.89408995 10.9080948,4.8966052 10.7947833,4.89439846 C10.7448751,4.89298616 10.6950547,4.91046182 10.6451648,4.91298451 C10.6067211,4.91407672 10.5682224,4.90336395 10.5297568,4.89973417 C10.4139543,4.88962669 10.2981409,4.87715822 10.182353,4.87019874 C10.0146008,4.85944034 9.84687045,4.85340392 9.67871644,4.84421439 C9.59934173,4.83928507 9.51994871,4.83042075 9.44098305,4.82549655 C9.42257197,4.82447891 9.40415357,4.82188727 9.38661184,4.83189786 C9.32541849,4.86654397 9.26443655,4.8586973 9.20308581,4.85950248 C9.06933624,4.86018746 8.93557202,4.85772445 8.80180414,4.85447444 C8.75598646,4.8531134 8.71057052,4.85018348 8.66550142,4.83387972 C8.57004551,4.80120556 8.47477991,4.80945532 8.37946308,4.8066871 C8.37496349,4.80663072 8.37045292,4.80421335 8.36596431,4.80651796 C8.21950199,4.88809976 8.07161035,4.83824258 7.92432174,4.83010144 C7.87890946,4.82795853 7.83344594,4.81479763 7.78842441,4.80872485 C7.77450561,4.80618959 7.76100317,4.80523345 7.74752636,4.8097863 C7.64381704,4.84940836 7.53905904,4.83943927 7.4347906,4.84678927 C7.41434524,4.84810699 7.39386327,4.84155474 7.37345451,4.85074244 C7.26282422,4.89736035 7.15144083,4.86999529 7.04051408,4.85286634 C6.99058025,4.84594505 6.94067936,4.84610675 6.89130098,4.87067052 C6.84844916,4.8913813 6.80506019,4.88454202 6.76214615,4.89187384 C6.63299864,4.91465115 6.50437365,4.96183054 6.37507608,4.95234092 C6.31369973,4.94763712 6.25234533,4.9476553 6.19097264,4.9437385 C6.09564117,4.93782229 6.00053209,4.89177428 5.90581376,4.84179641 C5.87013825,4.82246254 5.83400977,4.79367957 5.79793252,4.77591457 C5.73848432,4.74605244 5.68323192,4.65092584 5.62721266,4.56680696 C5.61485686,4.54855223 5.60044116,4.52712389 5.60496185,4.44376357 C5.60532698,4.43432471 5.60030122,4.40907926 5.59701415,4.40589027 C5.57893893,4.38913778 5.57326621,4.31273231 5.56362739,4.26303353 C5.55650878,4.22753148 5.54923644,4.15897549 5.55838848,4.10400349 C5.56475034,4.06473558 5.56133151,4.03321465 5.55951595,3.99463123 C5.55540625,3.90250629 5.56300259,3.86482776 5.58265547,3.86900877 C5.59166197,3.87069552 5.60146828,3.86845754 5.60930984,3.88350789 C5.64191056,3.94529867 5.67117942,3.90631778 5.70078414,3.85160205 C5.74661193,3.76718541 5.79245436,3.68591675 5.83916979,3.61646333 C5.88588523,3.5470099 5.93345171,3.48464971 5.98147482,3.43252562 C6.06653151,3.33994403 6.15334152,3.27256689 6.24016618,3.20833774 C6.36286312,3.11780169 6.48706172,3.08630589 6.61022994,3.00915393 C6.67711711,2.96749659 6.74539979,2.96205655 6.81278751,2.94007929 C6.84015019,2.93097872 6.86708185,2.91715102 6.89405378,2.91198031 C6.99089702,2.89115908 7.08816396,2.87349097 7.18502185,2.85581774 C7.19646437,2.85360026 7.20756006,2.86475662 7.21860451,2.86489501 C7.24601477,2.86602541 7.27300865,2.86557669 7.30039329,2.8611981 C7.31592635,2.85903187 7.33178429,2.83876981 7.34734663,2.84289956 C7.43130512,2.86598623 7.51491224,2.81352105 7.59879387,2.82008075 C7.63275631,2.82286716 7.66657234,2.79417363 7.70048354,2.78594206 C7.80875467,2.75975535 7.91750805,2.74931374 8.02612602,2.70975319 C8.18864025,2.64962024 8.35190757,2.66347025 8.51501752,2.64347934 C8.60086755,2.63353771 8.68728768,2.65822912 8.77358703,2.65694959 C8.87992269,2.65434721 8.98661617,2.64073197 9.09292621,2.6326206 C9.11746211,2.63135413 9.14242903,2.63481477 9.167363,2.63119243 C9.30104304,2.61555448 9.43430305,2.59755041 9.56797943,2.58112546 C9.61785104,2.57466778 9.66766775,2.55640512 9.71734991,2.59716221 C9.72392038,2.60275321 9.73088528,2.60520133 9.73783553,2.60450147 C9.90305662,2.59870215 10.0688551,2.62910989 10.2340872,2.62567157 C10.4655713,2.61991558 10.6970847,2.62045557 10.9286274,2.62729155 C11.02149,2.63002902 11.1147139,2.62254063 11.2073687,2.66855788 C11.2098267,2.66937563 11.2118793,2.67097526 11.2139172,2.66942689 C11.2641064,2.64329937 11.3137556,2.67697348 11.3632694,2.68152864 C11.4586155,2.69059285 11.553925,2.69178707 11.6492748,2.70163828 C11.7466735,2.71230211 11.8441124,2.73162292 11.9419385,2.74622687 C11.9873727,2.75309177 12.0324016,2.76073856 12.0778248,2.76524247 C12.2730313,2.78657525 12.4682304,2.80633404 12.6630242,2.82687471 C12.6904417,2.8295791 12.7170632,2.83699524 12.7441742,2.86173047 C12.774985,2.89044681 12.8077422,2.89793983 12.8392137,2.8928255 C12.899297,2.88334796 12.9561088,2.9619681 13.0139903,3.00676269 C13.0361597,3.02435343 13.056821,3.06946861 13.0747215,3.13658386 C13.0905327,3.1942295 13.1087323,3.23773993 13.124905,3.28515972" transform="scale(1 -1) rotate(-45 .1 0)"/>
    <path d="M13.124905,7.31982267 C13.1309941,7.39780726 13.1407244,7.467181 13.127599,7.54728569 C13.1244217,7.56770665 13.1279686,7.62677252 13.1330017,7.65359197 C13.1523013,7.75771152 13.1779591,7.82177616 13.2075647,7.85519912 C13.2268927,7.87747597 13.2470132,7.89425408 13.2683828,7.91576956 C13.2665022,7.95115885 13.2666706,7.98736078 13.2630623,8.00305462 C13.246993,8.06580947 13.2221359,8.08595877 13.216118,8.19920452 C13.2145953,8.22358097 13.2016044,8.24466591 13.1934489,8.25007239 C13.166941,8.2670532 13.1395746,8.27536678 13.112643,8.28919447 C13.0975482,8.29766181 13.0810616,8.27069885 13.0657775,8.32638097 C13.0983892,8.39053274 13.1352983,8.3233173 13.163867,8.3976488 C13.1813694,8.46711992 13.1665528,8.53539913 13.1668493,8.599146 C13.1671787,8.66997585 13.1560582,8.74144918 13.149021,8.81139978 C13.1474616,8.82790624 13.1434626,8.84752994 13.1398031,8.8522058 C13.1162207,8.88260146 13.0926457,8.91457112 13.0686066,8.93473068 C13.0555718,8.94637164 13.0416128,8.9351794 13.0281177,8.93579726 C13.0076759,8.93790198 12.9859485,8.92739936 12.976629,9.03430812 C12.9430692,9.11809153 12.9060868,9.16956701 12.8676431,9.17065921 C12.7564098,9.17556109 12.6452423,9.19462893 12.5341216,9.13578906 C12.498037,9.11645007 12.4616715,9.12465088 12.4256382,9.11632986 C12.398206,9.11047747 12.3711535,9.09833422 12.3441121,9.08855196 C12.3375562,9.08610896 12.3305584,9.07657785 12.3240392,9.08200483 C12.2523531,9.14721062 12.1793586,9.10694837 12.1073578,9.1044723 C11.948634,9.10012265 11.7900813,9.04462322 11.6312148,9.00958063 C11.5562848,8.99290271 11.481406,8.98724277 11.4069472,8.98394895 C11.316119,8.97887611 11.2252761,8.97065528 11.1347911,8.9514216 C11.0213844,8.92875291 10.9080948,8.93126816 10.7947833,8.92906142 C10.7448751,8.92764912 10.6950547,8.94512478 10.6451648,8.94764747 C10.6067211,8.94873968 10.5682224,8.93802691 10.5297568,8.93439713 C10.4139543,8.92428965 10.2981409,8.91182118 10.182353,8.9048617 C10.0146008,8.89410329 9.84687045,8.88806688 9.67871644,8.87887735 C9.59934173,8.87394802 9.51994871,8.86508371 9.44098305,8.86015951 C9.42257197,8.85914187 9.40415357,8.85655023 9.38661184,8.86656081 C9.32541849,8.90120693 9.26443655,8.89336025 9.20308581,8.89416544 C9.06933624,8.89485042 8.93557202,8.89238741 8.80180414,8.8891374 C8.75598646,8.88777635 8.71057052,8.88484644 8.66550142,8.86854267 C8.57004551,8.83586852 8.47477991,8.84411827 8.37946308,8.84135005 C8.37496349,8.84129367 8.37045292,8.8388763 8.36596431,8.84118092 C8.21950199,8.92276271 8.07161035,8.87290554 7.92432174,8.8647644 C7.87890946,8.86262148 7.83344594,8.84946059 7.78842441,8.8433878 C7.77450561,8.84085254 7.76100317,8.83989641 7.74752636,8.84444926 C7.64381704,8.88407131 7.53905904,8.87410222 7.4347906,8.88145222 C7.41434524,8.88276995 7.39386327,8.87621769 7.37345451,8.8854054 C7.26282422,8.93202331 7.15144083,8.90465825 7.04051408,8.88752929 C6.99058025,8.88060801 6.94067936,8.8807697 6.89130098,8.90533347 C6.84844916,8.92604426 6.80506019,8.91920498 6.76214615,8.92653679 C6.63299864,8.94931411 6.50437365,8.9964935 6.37507608,8.98700388 C6.31369973,8.98230008 6.25234533,8.98231826 6.19097264,8.97840145 C6.09564117,8.97248524 6.00053209,8.92643724 5.90581376,8.87645937 C5.87013825,8.8571255 5.83400977,8.82834252 5.79793252,8.81057752 C5.73848432,8.7807154 5.68323192,8.68558879 5.62721266,8.60146991 C5.61485686,8.58321519 5.60044116,8.56178684 5.60496185,8.47842652 C5.60532698,8.46898767 5.60030122,8.44374222 5.59701415,8.44055322 C5.57893893,8.42380074 5.57326621,8.34739527 5.56362739,8.29769649 C5.55650878,8.26219443 5.54923644,8.19363845 5.55838848,8.13866645 C5.56475034,8.09939854 5.56133151,8.0678776 5.55951595,8.02929418 C5.55540625,7.93716925 5.56300259,7.89949071 5.58265547,7.90367172 C5.59166197,7.90535848 5.60146828,7.90312049 5.60930984,7.91817085 C5.64191056,7.97996162 5.67117942,7.94098074 5.70078414,7.88626501 C5.74661193,7.80184836 5.79245436,7.72057971 5.83916979,7.65112628 C5.88588523,7.58167285 5.93345171,7.51931266 5.98147482,7.46718857 C6.06653151,7.37460698 6.15334152,7.30722984 6.24016618,7.2430007 C6.36286312,7.15246464 6.48706172,7.12096884 6.61022994,7.04381689 C6.67711711,7.00215955 6.74539979,6.9967195 6.81278751,6.97474225 C6.84015019,6.96564167 6.86708185,6.95181398 6.89405378,6.94664327 C6.99089702,6.92582204 7.08816396,6.90815393 7.18502185,6.89048069 C7.19646437,6.88826321 7.20756006,6.89941957 7.21860451,6.89955796 C7.24601477,6.90068836 7.27300865,6.90023964 7.30039329,6.89586105 C7.31592635,6.89369483 7.33178429,6.87343276 7.34734663,6.87756252 C7.43130512,6.90064918 7.51491224,6.84818401 7.59879387,6.85474371 C7.63275631,6.85753011 7.66657234,6.82883658 7.70048354,6.82060501 C7.80875467,6.79441831 7.91750805,6.78397669 8.02612602,6.74441614 C8.18864025,6.68428319 8.35190757,6.69813321 8.51501752,6.6781423 C8.60086755,6.66820066 8.68728768,6.69289207 8.77358703,6.69161254 C8.87992269,6.68901016 8.98661617,6.67539493 9.09292621,6.66728356 C9.11746211,6.66601709 9.14242903,6.66947773 9.167363,6.66585539 C9.30104304,6.65021744 9.43430305,6.63221337 9.56797943,6.61578842 C9.61785104,6.60933073 9.66766775,6.59106808 9.71734991,6.63182517 C9.72392038,6.63741616 9.73088528,6.63986429 9.73783553,6.63916442 C9.90305662,6.63336511 10.0688551,6.66377284 10.2340872,6.66033453 C10.4655713,6.65457853 10.6970847,6.65511853 10.9286274,6.66195451 C11.02149,6.66469197 11.1147139,6.65720359 11.2073687,6.70322084 C11.2098267,6.70403859 11.2118793,6.70563821 11.2139172,6.70408984 C11.2641064,6.67796233 11.3137556,6.71163643 11.3632694,6.7161916 C11.4586155,6.7252558 11.553925,6.72645003 11.6492748,6.73630123 C11.7466735,6.74696506 11.8441124,6.76628587 11.9419385,6.78088982 C11.9873727,6.78775473 12.0324016,6.79540151 12.0778248,6.79990542 C12.2730313,6.82123821 12.4682304,6.840997 12.6630242,6.86153766 C12.6904417,6.86424206 12.7170632,6.8716582 12.7441742,6.89639342 C12.774985,6.92510977 12.8077422,6.93260279 12.8392137,6.92748846 C12.899297,6.91801092 12.9561088,6.99663106 13.0139903,7.04142565 C13.0361597,7.05901638 13.056821,7.10413156 13.0747215,7.17124681 C13.0905327,7.22889246 13.1087323,7.27240288 13.124905,7.31982267" transform="rotate(-45 9.411 7.892)"/>
  </g>
</svg>
