<svg xmlns="http://www.w3.org/2000/svg" width="24" height="24" viewBox="0 0 24 24">
  <g fill="none" fill-rule="evenodd">
    <path fill="#00253D" d="M24,12.924882 C24,13.9798646 23.6483369,14.9750182 23.3896134,15.9262974 C23.1163209,16.9299268 22.6214808,17.7964484 22.0985075,18.6515028 C21.5629749,19.5274973 21.1871978,20.5515682 20.4321269,21.234116 C19.6785632,21.9156667 18.6225692,22.2053381 17.6936763,22.6565476 C16.7893999,23.0957913 15.8816068,23.5639523 14.851234,23.7504189 C13.8726059,23.9279113 12.8382141,24.0560448 11.780713,23.9752758 C10.7156762,23.8940082 9.63305633,23.7888091 8.663471,23.464736 C7.66223599,23.1296943 6.77252842,22.503984 5.90593013,21.9440854 C5.02827957,21.3772068 4.1988571,20.7235763 3.4945262,19.9617552 C2.79170243,19.2014299 2.43300609,18.2052791 1.93716116,17.2869058 C1.45035899,16.3849855 0.77265401,15.5488769 0.517949469,14.5277974 C0.27279007,13.5446095 0,12.4921198 0,11.4291601 C0,10.1563007 0.287358968,8.94327018 0.635003035,7.87482614 C1.01429678,6.70916016 1.72113956,5.71051648 2.451594,4.79064748 C3.18405794,3.86878418 3.94365018,2.87612338 4.96246834,2.20354708 C5.92853704,1.56587095 7.16186968,1.29913387 8.3288887,0.886813185 C9.42105373,0.500916922 10.5825466,0.256117096 11.8038222,0.0696504265 C12.9422058,-0.104351894 13.9750905,0.0696504265 15.0245536,0.348851857 C16.0825571,0.630546158 17.1013753,0.967582171 18.0232349,1.61323548 C18.9069139,2.23296294 19.920206,2.81081019 20.6375986,3.67882749 C21.3298725,4.51742893 21.8332531,5.55446282 22.3326147,6.54662505 C22.8274548,7.53081009 23.0927093,8.61819995 23.360978,9.67816824 C23.6347728,10.7590766 24,11.8444722 24,12.924882" transform="matrix(-1 0 0 1 24 0)"/>
    <g fill="#FFF" transform="translate(5.5 6)">
      <path d="M12.6854347,5.55059867 C12.6963053,5.63072712 12.7132435,5.70206348 12.6917561,5.78412105 C12.6865628,5.80504202 12.6930018,5.86571797 12.7016922,5.89331251 C12.7350259,6.00043806 12.7787587,6.06652956 12.828903,6.10121856 C12.8616433,6.12433404 12.8956757,6.14181533 12.9318499,6.16417553 C12.9289587,6.20047798 12.929526,6.23764093 12.9235694,6.25370404 C12.8969859,6.31791437 12.8552621,6.33827765 12.84601,6.4544455 C12.8436353,6.47944801 12.8219122,6.50092433 12.8082135,6.50636911 C12.7636833,6.52345875 12.7176389,6.53164054 12.6723702,6.54548809 C12.6470034,6.55398556 12.6190139,6.5260964 12.5936979,6.58305676 C12.649148,6.64932714 12.7108095,6.58080611 12.7595274,6.65747384 C12.7895614,6.72901012 12.765132,6.79890725 12.766131,6.86434636 C12.767241,6.93705649 12.7490642,7.01027988 12.7377553,7.08199271 C12.7352573,7.09891632 12.7286731,7.11900836 12.7225438,7.123761 C12.6830481,7.15465842 12.643577,7.18717163 12.6032317,7.20755596 C12.5813606,7.21933759 12.5577533,7.20766937 12.5350202,7.20813002 C12.5005945,7.21002758 12.4639037,7.19896732 12.449039,7.30858786 C12.3931505,7.39415877 12.3312424,7.44652199 12.2664772,7.44714867 C12.0790987,7.45074972 11.8919423,7.46889278 11.7042541,7.40706524 C11.6433037,7.3867499 11.5820957,7.39470021 11.521318,7.38569534 C11.4750517,7.37933511 11.4293759,7.36652228 11.3837371,7.35613312 C11.3726721,7.35354109 11.3608067,7.34366753 11.349865,7.3491544 C11.2295923,7.41516525 11.1062884,7.37289776 10.984955,7.36943004 C10.7174873,7.3629237 10.4499073,7.30391501 10.1819587,7.26590095 C10.0555785,7.24781755 9.929371,7.24104462 9.80388974,7.23670588 C9.65081365,7.23033047 9.49768822,7.22072349 9.34507939,7.19981657 C9.15382298,7.17508885 8.96296124,7.17621361 8.77202551,7.17249102 C8.68792417,7.17039941 8.60411883,7.18769716 8.52007916,7.18964499 C8.45531393,7.19027167 8.39036371,7.17878 8.32552448,7.17455933 C8.13032988,7.16269472 7.93509829,7.14840643 7.73995303,7.13977337 C7.45722315,7.12657241 7.17456728,7.1182188 6.89117282,7.1066231 C6.75739584,7.10054231 6.6235572,7.09042207 6.49046948,7.0843518 C6.45944071,7.08307041 6.42838727,7.08017323 6.39890968,7.09022334 C6.29607656,7.12500006 6.19326669,7.11616121 6.08990323,7.11619864 C5.86455412,7.1151815 5.63915568,7.1109328 5.4137449,7.10587621 C5.3365361,7.10388982 5.25999189,7.10029817 5.18392726,7.0829829 C5.0228377,7.04821558 4.86238949,7.05545856 4.7017686,7.05139107 C4.69418681,7.05127533 4.68656801,7.04873591 4.67902321,7.05104383 C4.43288832,7.13290268 4.18331523,7.0798228 3.93508506,7.06957164 C3.85855318,7.06678787 3.78184863,7.05269365 3.70594434,7.04588096 C3.6824727,7.04309953 3.65971498,7.0419444 3.63704359,7.0464445 C3.46261438,7.08578212 3.28602964,7.07420161 3.1104055,7.0804052 C3.07596746,7.08149486 3.04140608,7.07450562 3.00709138,7.08367419 C2.82105584,7.13010394 2.63317171,7.10058148 2.44613716,7.08157212 C2.36194948,7.07382527 2.27787281,7.07334943 2.19486773,7.09792872 C2.12282904,7.11863691 2.04966944,7.11105842 1.97742108,7.11803247 C1.75999911,7.13975201 1.54364872,7.18652667 1.32572107,7.1751227 C1.22227128,7.1695049 1.11889549,7.16873443 1.01545803,7.16392452 C0.854787813,7.15662547 0.694177839,7.10813454 0.534195452,7.05561468 C0.473934336,7.03530987 0.412835965,7.00529985 0.351910262,6.98660029 C0.25151207,6.95518261 0.157671994,6.85682578 0.0626260793,6.76975837 C0.0416647843,6.75086122 0.0172078846,6.7286799 0.0241715852,6.6431698 C0.0247128376,6.63348564 0.0160471162,6.60750688 0.0104837489,6.60419114 C-0.0201024373,6.58676246 -0.0302590893,6.50826031 -0.0468889445,6.45712121 C-0.0591612721,6.42058727 -0.0719516059,6.35012193 -0.0569621041,6.29381162 C-0.0465507118,6.25358547 -0.0525580844,6.22118568 -0.0559194418,6.18155696 C-0.0635657469,6.0869391 -0.0510619251,6.04836029 -0.017916058,6.05290481 C-0.00272779951,6.05475208 0.0137772999,6.05258095 0.0271074651,6.06813079 C0.0825205556,6.1319775 0.131530181,6.09234059 0.180982391,6.0365564 C0.257536095,5.95049328 0.334139132,5.86766171 0.412305681,5.79696955 C0.490472229,5.72627738 0.570128287,5.66287727 0.650633934,5.60999026 C0.793220369,5.51605049 0.938958492,5.44800529 1.08474595,5.38319166 C1.29076843,5.29183572 1.49978369,5.26110312 1.7067051,5.18349184 C1.81907677,5.14159143 1.93408355,5.13688554 2.04745282,5.11519291 C2.09348484,5.10620323 2.13875362,5.09235568 2.18415806,5.08739492 C2.34716595,5.06726779 2.51091244,5.05038274 2.67396967,5.03348717 C2.69323179,5.03135813 2.71201432,5.04295269 2.73062418,5.0432368 C2.77681654,5.04474968 2.82229499,5.04463627 2.86840101,5.04049393 C2.89455567,5.0384701 2.92111591,5.01787533 2.94736924,5.02231463 C3.08901168,5.04709264 3.2294701,4.99431318 3.37085354,5.00212549 C3.42809864,5.00542252 3.48485039,4.97640393 3.54192282,4.9683905 C3.7241435,4.94290276 3.90730011,4.93358335 4.09000037,4.894372 C4.36334918,4.83473656 4.63854659,4.85105334 4.91321367,4.83263083 C5.05778437,4.82353005 5.203587,4.84998698 5.34898263,4.84978352 C5.52812705,4.84847988 5.70778805,4.8358763 5.88684613,4.82891743 C5.92817671,4.82793299 5.97027055,4.83180642 6.01225338,4.82840883 C6.23736816,4.81407605 6.46175667,4.79730908 6.68685912,4.78216841 C6.77083712,4.77618113 6.85463013,4.75807548 6.93865889,4.80055109 C6.94977329,4.80637468 6.96152761,4.80897723 6.9732326,4.80834822 C7.25156794,4.80452035 7.53115988,4.83786595 7.80953223,4.83646175 C8.19951441,4.83353061 8.58959527,4.83706259 8.97977479,4.84705769 C9.13626015,4.85106205 9.29327443,4.84457435 9.44974888,4.89300215 C9.45389674,4.89387317 9.45736768,4.89554156 9.46078928,4.89397839 C9.5451482,4.86780437 9.62906596,4.90300897 9.71252739,4.90832163 C9.87324694,4.91885224 10.0338432,4.92130395 10.194575,4.93264245 C10.3587655,4.94484145 10.5230917,4.96592725 10.6880331,4.98217622 C10.764639,4.98980733 10.840568,4.9982358 10.9171368,5.00344323 C11.2462071,5.02785176 11.5752526,5.05064451 11.9036213,5.07423462 C11.9498383,5.07736329 11.9947508,5.08531826 12.040624,5.11105733 C12.092762,5.14093056 12.1480134,5.14904336 12.2009996,5.14419835 C12.3021596,5.13524256 12.3984977,5.21667578 12.4963732,5.26340129 C12.5338643,5.28174308 12.56903,5.32831895 12.5997163,5.39744209 C12.6268083,5.45681793 12.6578138,5.50171488 12.6854347,5.55059867" transform="scale(1 -1) rotate(45 21.192 0)"/>
      <path d="M12.7159,5.55059867 C12.7267705,5.63072712 12.7437087,5.70206348 12.7222214,5.78412105 C12.717028,5.80504202 12.723467,5.86571797 12.7321574,5.89331251 C12.7654911,6.00043806 12.8092239,6.06652956 12.8593682,6.10121856 C12.8921085,6.12433404 12.926141,6.14181533 12.9623152,6.16417553 C12.9594239,6.20047798 12.9599913,6.23764093 12.9540346,6.25370404 C12.9274512,6.31791437 12.8857273,6.33827765 12.8764753,6.4544455 C12.8741006,6.47944801 12.8523775,6.50092433 12.8386787,6.50636911 C12.7941485,6.52345875 12.7481042,6.53164054 12.7028354,6.54548809 C12.6774687,6.55398556 12.6494792,6.5260964 12.6241632,6.58305676 C12.6796133,6.64932714 12.7412747,6.58080611 12.7899926,6.65747384 C12.8200266,6.72901012 12.7955972,6.79890725 12.7965962,6.86434636 C12.7977063,6.93705649 12.7795295,7.01027988 12.7682206,7.08199271 C12.7657226,7.09891632 12.7591384,7.11900836 12.7530091,7.123761 C12.7135134,7.15465842 12.6740423,7.18717163 12.633697,7.20755596 C12.6118258,7.21933759 12.5882185,7.20766937 12.5654855,7.20813002 C12.5310598,7.21002758 12.494369,7.19896732 12.4795042,7.30858786 C12.4236158,7.39415877 12.3617077,7.44652199 12.2969425,7.44714867 C12.109564,7.45074972 11.9224075,7.46889278 11.7347193,7.40706524 C11.6737689,7.3867499 11.612561,7.39470021 11.5517833,7.38569534 C11.5055169,7.37933511 11.4598411,7.36652228 11.4142024,7.35613312 C11.4031373,7.35354109 11.391272,7.34366753 11.3803302,7.3491544 C11.2600575,7.41516525 11.1367536,7.37289776 11.0154202,7.36943004 C10.7479526,7.3629237 10.4803726,7.30391501 10.2124239,7.26590095 C10.0860438,7.24781755 9.95983625,7.24104462 9.83435499,7.23670588 C9.6812789,7.23033047 9.52815347,7.22072349 9.37554464,7.19981657 C9.18428823,7.17508885 8.99342649,7.17621361 8.80249076,7.17249102 C8.71838942,7.17039941 8.63458408,7.18769716 8.55054441,7.18964499 C8.48577918,7.19027167 8.42082896,7.17878 8.35598973,7.17455933 C8.16079513,7.16269472 7.96556354,7.14840643 7.77041828,7.13977337 C7.4876884,7.12657241 7.20503253,7.1182188 6.92163807,7.1066231 C6.78786109,7.10054231 6.65402245,7.09042207 6.52093473,7.0843518 C6.48990596,7.08307041 6.45885252,7.08017323 6.42937493,7.09022334 C6.32654181,7.12500006 6.22373194,7.11616121 6.12036848,7.11619864 C5.89501937,7.1151815 5.66962093,7.1109328 5.44421015,7.10587621 C5.36700135,7.10388982 5.29045714,7.10029817 5.21439251,7.0829829 C5.05330296,7.04821558 4.89285474,7.05545856 4.73223385,7.05139107 C4.72465206,7.05127533 4.71703326,7.04873591 4.70948846,7.05104383 C4.46335357,7.13290268 4.21378048,7.0798228 3.96555031,7.06957164 C3.88901843,7.06678787 3.81231388,7.05269365 3.73640959,7.04588096 C3.71293795,7.04309953 3.69018023,7.0419444 3.66750884,7.0464445 C3.49307963,7.08578212 3.31649489,7.07420161 3.14087075,7.0804052 C3.10643271,7.08149486 3.07187133,7.07450562 3.03755663,7.08367419 C2.85152109,7.13010394 2.66363696,7.10058148 2.47660241,7.08157212 C2.39241473,7.07382527 2.30833806,7.07334943 2.22533298,7.09792872 C2.15329429,7.11863691 2.08013469,7.11105842 2.00788633,7.11803247 C1.79046436,7.13975201 1.57411397,7.18652667 1.35618632,7.1751227 C1.25273653,7.1695049 1.14936074,7.16873443 1.04592328,7.16392452 C0.885253063,7.15662547 0.724643089,7.10813454 0.564660702,7.05561468 C0.504399587,7.03530987 0.443301215,7.00529985 0.382375512,6.98660029 C0.28197732,6.95518261 0.188137245,6.85682578 0.0930913296,6.76975837 C0.0721300346,6.75086122 0.047673135,6.7286799 0.0546368355,6.6431698 C0.0551780879,6.63348564 0.0465123665,6.60750688 0.0409489992,6.60419114 C0.010362813,6.58676246 0.000206160962,6.50826031 -0.0164236942,6.45712121 C-0.0286960218,6.42058727 -0.0414863556,6.35012193 -0.0264968538,6.29381162 C-0.0160854615,6.25358547 -0.0220928341,6.22118568 -0.0254541915,6.18155696 C-0.0331004966,6.0869391 -0.0205966748,6.04836029 0.0125491923,6.05290481 C0.0277374508,6.05475208 0.0442425502,6.05258095 0.0575727154,6.06813079 C0.112985806,6.1319775 0.161995431,6.09234059 0.211447641,6.0365564 C0.288001345,5.95049328 0.364604383,5.86766171 0.442770931,5.79696955 C0.520937479,5.72627738 0.600593537,5.66287727 0.681099185,5.60999026 C0.82368562,5.51605049 0.969423743,5.44800529 1.1152112,5.38319166 C1.32123368,5.29183572 1.53024894,5.26110312 1.73717035,5.18349184 C1.84954202,5.14159143 1.9645488,5.13688554 2.07791807,5.11519291 C2.12395009,5.10620323 2.16921887,5.09235568 2.21462331,5.08739492 C2.3776312,5.06726779 2.54137769,5.05038274 2.70443492,5.03348717 C2.72369704,5.03135813 2.74247957,5.04295269 2.76108943,5.0432368 C2.80728179,5.04474968 2.85276024,5.04463627 2.89886626,5.04049393 C2.92502092,5.0384701 2.95158116,5.01787533 2.97783449,5.02231463 C3.11947693,5.04709264 3.25993536,4.99431318 3.40131879,5.00212549 C3.45856389,5.00542252 3.51531564,4.97640393 3.57238807,4.9683905 C3.75460875,4.94290276 3.93776536,4.93358335 4.12046562,4.894372 C4.39381443,4.83473656 4.66901184,4.85105334 4.94367892,4.83263083 C5.08824962,4.82353005 5.23405225,4.84998698 5.37944788,4.84978352 C5.5585923,4.84847988 5.7382533,4.8358763 5.91731138,4.82891743 C5.95864196,4.82793299 6.0007358,4.83180642 6.04271863,4.82840883 C6.26783341,4.81407605 6.49222193,4.79730908 6.71732437,4.78216841 C6.80130237,4.77618113 6.88509538,4.75807548 6.96912414,4.80055109 C6.98023854,4.80637468 6.99199286,4.80897723 7.00369785,4.80834822 C7.28203319,4.80452035 7.56162513,4.83786595 7.83999748,4.83646175 C8.22997966,4.83353061 8.62006052,4.83706259 9.01024004,4.84705769 C9.1667254,4.85106205 9.32373968,4.84457435 9.48021413,4.89300215 C9.48436199,4.89387317 9.48783293,4.89554156 9.49125453,4.89397839 C9.57561346,4.86780437 9.65953121,4.90300897 9.74299264,4.90832163 C9.90371219,4.91885224 10.0643084,4.92130395 10.2250403,4.93264245 C10.3892308,4.94484145 10.5535569,4.96592725 10.7184984,4.98217622 C10.7951042,4.98980733 10.8710332,4.9982358 10.9476021,5.00344323 C11.2766723,5.02785176 11.6057179,5.05064451 11.9340865,5.07423462 C11.9803036,5.07736329 12.0252161,5.08531826 12.0710892,5.11105733 C12.1232273,5.14093056 12.1784786,5.14904336 12.2314648,5.14419835 C12.3326249,5.13524256 12.428963,5.21667578 12.5268385,5.26340129 C12.5643295,5.28174308 12.5994952,5.32831895 12.6301815,5.39744209 C12.6572735,5.45681793 12.688279,5.50171488 12.7159,5.55059867" transform="rotate(-135 6.465 6.113)"/>
    </g>
  </g>
</svg>
