<svg xmlns="http://www.w3.org/2000/svg" width="24" height="24" viewBox="0 0 24 24">
  <g fill="none" fill-rule="evenodd">
    <path fill="#00253D" d="M24,12.924882 C24,13.9798646 23.6483369,14.9750182 23.3896134,15.9262974 C23.1163209,16.9299268 22.6214808,17.7964484 22.0985075,18.6515028 C21.5629749,19.5274973 21.1871978,20.5515682 20.4321269,21.234116 C19.6785632,21.9156667 18.6225692,22.2053381 17.6936763,22.6565476 C16.7893999,23.0957913 15.8816068,23.5639523 14.851234,23.7504189 C13.8726059,23.9279113 12.8382141,24.0560448 11.780713,23.9752758 C10.7156762,23.8940082 9.63305633,23.7888091 8.663471,23.464736 C7.66223599,23.1296943 6.77252842,22.503984 5.90593013,21.9440854 C5.02827957,21.3772068 4.1988571,20.7235763 3.4945262,19.9617552 C2.79170243,19.2014299 2.43300609,18.2052791 1.93716116,17.2869058 C1.45035899,16.3849855 0.77265401,15.5488769 0.517949469,14.5277974 C0.27279007,13.5446095 0,12.4921198 0,11.4291601 C0,10.1563007 0.287358968,8.94327018 0.635003035,7.87482614 C1.01429678,6.70916016 1.72113956,5.71051648 2.451594,4.79064748 C3.18405794,3.86878418 3.94365018,2.87612338 4.96246834,2.20354708 C5.92853704,1.56587095 7.16186968,1.29913387 8.3288887,0.886813185 C9.42105373,0.500916922 10.5825466,0.256117096 11.8038222,0.0696504265 C12.9422058,-0.104351894 13.9750905,0.0696504265 15.0245536,0.348851857 C16.0825571,0.630546158 17.1013753,0.967582171 18.0232349,1.61323548 C18.9069139,2.23296294 19.920206,2.81081019 20.6375986,3.67882749 C21.3298725,4.51742893 21.8332531,5.55446282 22.3326147,6.54662505 C22.8274548,7.53081009 23.0927093,8.61819995 23.360978,9.67816824 C23.6347728,10.7590766 24,11.8444722 24,12.924882" transform="matrix(-1 0 0 1 24 0)"/>
    <g fill="#FFF" transform="translate(6 7)">
      <path d="M6.39272215,6.16625865 C6.39814738,6.24016716 6.40663509,6.3058916 6.39575724,6.38191406 C6.39312744,6.40129342 6.39633254,6.45727781 6.40069306,6.4826796 C6.41741786,6.58129674 6.43940796,6.64190132 6.4646483,6.67343155 C6.48112795,6.69444905 6.49826221,6.71024863 6.51647236,6.73053321 C6.51499249,6.76409787 6.51525451,6.79842195 6.51224329,6.81332161 C6.49880947,6.87290965 6.47777607,6.89214853 6.47304049,6.99955543 C6.47182812,7.02267628 6.46087031,7.04273821 6.45396543,7.04790842 C6.43152029,7.064152 6.40831803,7.07218234 6.38550288,7.08543856 C6.37271774,7.09354842 6.35863458,7.06807241 6.34584396,7.12095017 C6.37373711,7.18159981 6.40484587,7.1176699 6.42934069,7.18799332 C6.44442592,7.25376812 6.43207368,7.31858734 6.43253506,7.37902758 C6.4330477,7.4461834 6.42384338,7.51401118 6.41810005,7.58037312 C6.41683071,7.59603221 6.41350074,7.6146601 6.41040977,7.61911329 C6.39049214,7.64806041 6.37058589,7.67849988 6.35024697,7.69774406 C6.33922081,7.70885188 6.32733499,7.69831529 6.31588184,7.698974 C6.29853705,7.70107999 6.28005941,7.69123922 6.27250036,7.79265551 C6.24428912,7.87227632 6.21306643,7.92128271 6.18043749,7.9225259 C6.08603444,7.92777432 5.99173391,7.94645391 5.89721671,7.89126475 C5.8665231,7.87312327 5.83568161,7.88109529 5.80506775,7.87340028 C5.78176295,7.86799945 5.75875983,7.85663187 5.7357738,7.84750282 C5.73020091,7.84522188 5.72422952,7.83622271 5.71871359,7.84140353 C5.65807824,7.90361578 5.59598515,7.86583517 5.53485994,7.8638763 C5.40011467,7.86060931 5.2653464,7.80884355 5.13037898,7.77647571 C5.06672058,7.76106712 5.00314193,7.75610499 4.9399276,7.75338404 C4.86281237,7.74906471 4.78567437,7.74176068 4.70880385,7.72401284 C4.61246525,7.70313186 4.51630892,7.7061285 4.42011841,7.70464809 C4.37774973,7.70357854 4.33551775,7.7204172 4.29317755,7.72307852 C4.26054861,7.72432171 4.22783423,7.71437226 4.19517111,7.71113839 C4.09684022,7.70218032 3.99849223,7.69098372 3.90018412,7.68501035 C3.75775406,7.67571564 3.61535817,7.67089799 3.47259226,7.66309298 C3.40519968,7.65884787 3.33777863,7.65087189 3.2707333,7.64662943 C3.25510191,7.64576397 3.23945913,7.64340616 3.22460196,7.65299247 C3.17277264,7.68617278 3.12098298,7.67906225 3.06890873,7.680157 C2.95537913,7.68152876 2.84182674,7.67991582 2.72826866,7.6775567 C2.68937235,7.67651364 2.65081189,7.67398089 2.61250184,7.6587658 C2.53136764,7.62830117 2.45052964,7.63663767 2.36961189,7.63452771 C2.36579227,7.63449856 2.36195557,7.63223087 2.35815305,7.63444024 C2.23409853,7.71258329 2.1083983,7.66610967 1.9833472,7.65918602 C1.94479244,7.65739945 1.90615793,7.64516641 1.86792193,7.63965161 C1.85609876,7.63732296 1.84463422,7.63648931 1.83320956,7.64087889 C1.7453074,7.67900676 1.65635193,7.67012026 1.567869,7.67765227 C1.55051851,7.67901209 1.53311106,7.67291015 1.51581753,7.68173173 C1.4220636,7.72653012 1.32742701,7.70118533 1.23321171,7.68554349 C1.19080315,7.6792507 1.14844586,7.67967349 1.10661239,7.70323039 C1.07030623,7.72309881 1.03345348,7.71684844 0.997050493,7.72403188 C0.887499992,7.74632571 0.778473304,7.79175365 0.668689266,7.78345428 C0.616575148,7.7793258 0.564495206,7.77967438 0.512386784,7.77629208 C0.43144625,7.77119742 0.350562458,7.72805044 0.269997424,7.68117524 C0.23965105,7.66303641 0.208889086,7.63594082 0.178206866,7.61929169 C0.127646664,7.59129884 0.0804333078,7.50140256 0.0326052201,7.42194743 C0.0220570845,7.40470587 0.009749977,7.38446635 0.0133130522,7.30540352 C0.0135919378,7.29645206 0.00924281481,7.27254263 0.00644213012,7.26953672 C-0.00895593968,7.2537504 -0.0140225402,7.18133689 -0.0223678526,7.13426685 C-0.0285272115,7.10064387 -0.0349258023,7.03568152 -0.0273380577,6.98351018 C-0.0220670562,6.9462438 -0.0250727969,6.91637556 -0.0267408512,6.87980234 C-0.0305324213,6.79247592 -0.024208315,6.75670984 -0.00751243086,6.76056796 C0.000138188051,6.76211862 0.00845480215,6.75994371 0.0151605403,6.77417141 C0.0430365975,6.83258253 0.0677529039,6.79546459 0.0927025279,6.74342578 C0.131325207,6.66313832 0.169970671,6.58583556 0.20939605,6.51973074 C0.248821428,6.45362592 0.288992546,6.39424199 0.329584949,6.34456099 C0.401479781,6.25632006 0.474945835,6.19196735 0.548434674,6.13059936 C0.652286756,6.04409464 0.75760775,6.01356106 0.861903902,5.93974398 C0.918543282,5.8998852 0.976486391,5.89435845 1.03361541,5.87315671 C1.05681198,5.8643802 1.07962713,5.85112398 1.10250494,5.84607569 C1.18464076,5.82581098 1.2671466,5.80853362 1.3493052,5.79125361 C1.35901077,5.7890893 1.36846593,5.79960733 1.37784134,5.7996789 C1.40111196,5.80060267 1.42402394,5.80003143 1.44725468,5.79573197 C1.46043262,5.79359417 1.47382679,5.77429698 1.4870503,5.77812858 C1.55839349,5.79956489 1.62918987,5.74936832 1.70041345,5.75513494 C1.72925126,5.75759348 1.75786122,5.73020498 1.78661929,5.72221705 C1.87843789,5.69680332 1.97071765,5.68631576 2.06278665,5.6482197 C2.20053723,5.59032678 2.33917047,5.60257703 2.47755878,5.58274173 C2.55039893,5.5728519 2.62383694,5.59579647 2.69708698,5.59411723 C2.78734027,5.59107553 2.87786106,5.57759001 2.96807448,5.56932508 C2.98889734,5.56799176 3.01010162,5.57113816 3.03125463,5.56756897 C3.14467601,5.55201987 3.25773306,5.53422959 3.37114875,5.51793432 C3.41346047,5.51154212 3.45568675,5.49395728 3.49799299,5.53233298 C3.50358867,5.53759862 3.50950879,5.53988221 3.51540614,5.53918109 C3.65563316,5.53279021 3.79646944,5.56072606 3.93671355,5.5565737 C4.13318737,5.54986604 4.32970676,5.54912779 4.52627171,5.55435895 C4.60510604,5.556453 4.68421355,5.54884942 4.76301392,5.59198049 C4.76510304,5.59274257 4.76685062,5.59424818 4.76857542,5.59276908 C4.81109197,5.56772513 4.85334695,5.59938525 4.89539118,5.60343686 C4.9763545,5.61151622 5.05726086,5.61213383 5.13822987,5.62095937 C5.22094077,5.63054434 5.30371432,5.64833724 5.38680094,5.66165574 C5.42538988,5.66791937 5.46363728,5.67492652 5.50220913,5.67895163 C5.66797816,5.69812421 5.8337358,5.71580445 5.9991519,5.73422821 C6.02243391,5.73664433 6.04505562,5.74353221 6.06814987,5.7668386 C6.09439775,5.79389973 6.12222802,5.80082737 6.14892544,5.79580824 C6.19989532,5.7864976 6.24837801,5.8607348 6.29765749,5.90289439 C6.31653363,5.91945339 6.33422018,5.96211795 6.34963555,6.02565687 C6.36324639,6.08022843 6.37883812,6.12138472 6.39272215,6.16625865" transform="rotate(45 3.243 6.72)"/>
      <path d="M12.8247666,4.99258387 C12.8333814,5.05980154 12.8471479,5.11959721 12.828578,5.18864227 C12.8240828,5.20624381 12.829101,5.25715478 12.8362218,5.28027141 C12.8635269,5.37001572 12.8998275,5.42523529 12.9417135,5.45404372 C12.9690588,5.47324493 12.9975253,5.48770657 13.027759,5.50625152 C13.0250984,5.5367548 13.0253366,5.56795852 13.0202316,5.58148559 C12.9974966,5.63557621 12.9623288,5.65294361 12.9538148,5.75055412 C12.9516604,5.77156504 12.9332809,5.7897389 12.9217425,5.79439893 C12.884239,5.80903529 12.8455211,5.81620106 12.8074182,5.82811963 C12.7860622,5.83541793 12.7627369,5.81217761 12.7411129,5.86017199 C12.7872519,5.91546667 12.839471,5.8575313 12.87989,5.92160024 C12.9046524,5.98147985 12.8836899,6.04033212 12.8841093,6.09527779 C12.8845753,6.15632854 12.8688421,6.21793393 12.8588859,6.27822682 C12.8566797,6.29245432 12.8510219,6.30936868 12.8458444,6.31339897 C12.81248,6.33959806 12.779126,6.36715384 12.7451156,6.38453007 C12.7266739,6.39456383 12.7069247,6.38491684 12.6878318,6.3854494 C12.6589108,6.38726353 12.6281709,6.37821095 12.6149856,6.47035938 C12.5675051,6.54257526 12.5151825,6.58694379 12.4607923,6.5878852 C12.3034194,6.5921103 12.1461396,6.60854555 11.988926,6.55782939 C11.9378735,6.54116043 11.8864236,6.548229 11.8354436,6.54105682 C11.7966325,6.53601244 11.7583587,6.52554574 11.7201004,6.51711407 C11.7108252,6.51500836 11.7009247,6.50679315 11.6917013,6.51147086 C11.5902799,6.56767403 11.4870071,6.53297058 11.3851404,6.53083637 C11.1605779,6.52708725 10.9362576,6.47925033 10.7114931,6.44904589 C10.6054821,6.4346706 10.4995435,6.4297921 10.3941993,6.42695303 C10.2656955,6.42258058 10.137171,6.41549476 10.0091527,6.39891657 C9.84870486,6.37937762 9.68842273,6.3815456 9.52810954,6.37964354 C9.45749938,6.37842622 9.3870135,6.39348911 9.31642924,6.39566351 C9.26203904,6.39660492 9.20757117,6.38737121 9.1531499,6.38424257 C8.98931255,6.37553058 8.82545966,6.36478357 8.66164301,6.35878494 C8.42430704,6.3495119 8.18700213,6.3443089 7.94909778,6.33638811 C7.8367984,6.33213936 7.72447313,6.32449889 7.61275248,6.32025455 C7.58670449,6.31937741 7.56064613,6.31714358 7.53582809,6.32577206 C7.44925171,6.35563477 7.36297444,6.34887144 7.2761754,6.34956546 C7.08694645,6.35015587 6.89769678,6.34803291 6.70844194,6.34523162 C6.64361908,6.34405848 6.57936459,6.34153308 6.51560081,6.3274803 C6.38054975,6.29931729 6.24576796,6.30642804 6.11091367,6.30404202 C6.10454765,6.30399342 6.09816609,6.3019098 6.0918156,6.30389623 C5.88460067,6.37421446 5.67536352,6.3312408 5.46697954,6.32422367 C5.40273023,6.32237661 5.33840843,6.31103277 5.27471195,6.30579842 C5.25501962,6.30361319 5.23591638,6.30278907 5.21684938,6.30671333 C5.0701214,6.34086498 4.92190974,6.33227227 4.77439072,6.33860749 C4.74546461,6.33974329 4.71648672,6.33409566 4.68761239,6.34201487 C4.53109262,6.3821965 4.37350737,6.35860958 4.21656816,6.34384553 C4.14592176,6.33787983 4.07532196,6.3380192 4.00546141,6.35919158 C3.94483465,6.37704294 3.88344791,6.37114792 3.82273312,6.37746747 C3.64001518,6.39710004 3.45803649,6.43776563 3.27510625,6.42958619 C3.18827096,6.42553181 3.10146674,6.42554749 3.01463663,6.42217146 C2.87976164,6.41707206 2.74520128,6.37738166 2.61119376,6.33430398 C2.56072003,6.31763943 2.50960544,6.29283037 2.45856334,6.27751808 C2.374456,6.25177887 2.29628489,6.16978589 2.21702881,6.09728086 C2.19954784,6.08154646 2.1791525,6.06307662 2.18554836,5.99122542 C2.18606496,5.98308974 2.1789545,5.96132979 2.17430396,5.95858108 C2.14873112,5.94414152 2.14070536,5.87828495 2.12706836,5.83544782 C2.11699694,5.80484735 2.10670804,5.74575652 2.11965634,5.69837422 C2.1286571,5.66452782 2.12382014,5.63735881 2.12125149,5.6041024 C2.11543708,5.52469667 2.12618439,5.49222021 2.15398929,5.49582397 C2.16673169,5.49727784 2.18060566,5.49534885 2.1916999,5.50832127 C2.23782341,5.56158093 2.27923301,5.52798193 2.32111778,5.48082051 C2.38595495,5.40805882 2.45081283,5.3380105 2.51690584,5.27814614 C2.58299886,5.21828178 2.65029593,5.16453133 2.71823905,5.11960374 C2.83857728,5.0398044 2.96139612,4.98172966 3.08423567,4.9263683 C3.25782735,4.84833208 3.43354357,4.82118473 3.60780201,4.75468474 C3.70243399,4.71877881 3.79904036,4.71408984 3.89438053,4.69514687 C3.93309326,4.68730276 3.97119619,4.67538419 4.00935607,4.67092737 C4.14636993,4.65298082 4.28398323,4.63775205 4.4210178,4.62251886 C4.43720669,4.62060754 4.45290487,4.6302236 4.46853057,4.63034288 C4.50731061,4.63131721 4.54550156,4.63093044 4.58424536,4.62715639 C4.60622154,4.62528924 4.62865735,4.60782465 4.65067495,4.61138423 C4.76945945,4.63128344 4.88774684,4.58606186 5.0064226,4.59171589 C5.05447267,4.59411759 5.10231561,4.56938563 5.15029318,4.56229055 C5.30347521,4.5397193 5.45733954,4.53071931 5.61101227,4.49662067 C5.84093746,4.44478996 6.07192813,4.45672778 6.30269613,4.43949691 C6.42415679,4.43092786 6.54642402,4.45221026 6.66852037,4.45110738 C6.8189641,4.4488643 6.96991407,4.43712885 7.12032155,4.43013737 C7.15503495,4.42904576 7.19035815,4.43202861 7.22563475,4.42890638 C7.41476532,4.41542748 7.60330162,4.39990914 7.792427,4.3857519 C7.86298538,4.38018579 7.93346608,4.36444456 8.00375641,4.39957453 C8.01305233,4.40439361 8.02290626,4.40650374 8.03273948,4.4059005 C8.26649434,4.40090187 8.50106613,4.42711137 8.73483652,4.42414776 C9.06234035,4.41918646 9.38988561,4.4196519 9.71747229,4.42554408 C9.8488542,4.42790359 9.98074752,4.42144909 10.1118355,4.46111298 C10.1153131,4.46181783 10.1182171,4.4631966 10.1211003,4.46186201 C10.192108,4.43934178 10.2623517,4.46836668 10.3324039,4.47229294 C10.4672996,4.4801057 10.6021435,4.48113504 10.7370444,4.48962614 C10.8748441,4.49881767 11.0127008,4.51547096 11.1511051,4.52805862 C11.2153855,4.53397573 11.2790923,4.54056676 11.3433572,4.54444884 C11.6195353,4.56283632 11.8957031,4.57986712 12.1712974,4.59757184 C12.2100878,4.59990286 12.2477518,4.60629509 12.2861084,4.62761525 C12.3296996,4.65236688 12.3760445,4.65882538 12.4205704,4.65441716 C12.5055763,4.64624813 12.5859536,4.71401361 12.6678444,4.75262365 C12.6992097,4.76778572 12.7284413,4.80667208 12.7537668,4.86452109 C12.7761366,4.9142079 12.8018854,4.95171108 12.8247666,4.99258387" transform="scale(1 -1) rotate(45 20.814 0)"/>
    </g>
  </g>
</svg>
